G75*
%MOIN*%
%OFA0B0*%
%FSLAX24Y24*%
%IPPOS*%
%LPD*%
%AMOC8*
5,1,8,0,0,1.08239X$1,22.5*
%
%ADD10C,0.0000*%
D10*
X001001Y002840D02*
X026601Y002840D01*
X026601Y003840D01*
X027601Y004840D01*
X027601Y017740D01*
X026601Y018740D01*
X026601Y023240D01*
X026001Y023840D01*
X001001Y023840D01*
X000962Y023838D01*
X000923Y023832D01*
X000885Y023823D01*
X000848Y023810D01*
X000812Y023793D01*
X000779Y023773D01*
X000747Y023749D01*
X000718Y023723D01*
X000692Y023694D01*
X000668Y023662D01*
X000648Y023629D01*
X000631Y023593D01*
X000618Y023556D01*
X000609Y023518D01*
X000603Y023479D01*
X000601Y023440D01*
X000601Y003240D01*
X000603Y003201D01*
X000609Y003162D01*
X000618Y003124D01*
X000631Y003087D01*
X000648Y003051D01*
X000668Y003018D01*
X000692Y002986D01*
X000718Y002957D01*
X000747Y002931D01*
X000779Y002907D01*
X000812Y002887D01*
X000848Y002870D01*
X000885Y002857D01*
X000923Y002848D01*
X000962Y002842D01*
X001001Y002840D01*
X005261Y003340D02*
X005263Y003367D01*
X005269Y003393D01*
X005278Y003418D01*
X005291Y003441D01*
X005307Y003462D01*
X005326Y003481D01*
X005347Y003497D01*
X005370Y003510D01*
X005395Y003519D01*
X005421Y003525D01*
X005448Y003527D01*
X005475Y003525D01*
X005501Y003519D01*
X005526Y003510D01*
X005549Y003497D01*
X005570Y003481D01*
X005589Y003462D01*
X005605Y003441D01*
X005618Y003418D01*
X005627Y003393D01*
X005633Y003367D01*
X005635Y003340D01*
X005633Y003313D01*
X005627Y003287D01*
X005618Y003262D01*
X005605Y003239D01*
X005589Y003218D01*
X005570Y003199D01*
X005549Y003183D01*
X005526Y003170D01*
X005501Y003161D01*
X005475Y003155D01*
X005448Y003153D01*
X005421Y003155D01*
X005395Y003161D01*
X005370Y003170D01*
X005347Y003183D01*
X005326Y003199D01*
X005307Y003218D01*
X005291Y003239D01*
X005278Y003262D01*
X005269Y003287D01*
X005263Y003313D01*
X005261Y003340D01*
X006167Y003340D02*
X006169Y003367D01*
X006175Y003393D01*
X006184Y003418D01*
X006197Y003441D01*
X006213Y003462D01*
X006232Y003481D01*
X006253Y003497D01*
X006276Y003510D01*
X006301Y003519D01*
X006327Y003525D01*
X006354Y003527D01*
X006381Y003525D01*
X006407Y003519D01*
X006432Y003510D01*
X006455Y003497D01*
X006476Y003481D01*
X006495Y003462D01*
X006511Y003441D01*
X006524Y003418D01*
X006533Y003393D01*
X006539Y003367D01*
X006541Y003340D01*
X006539Y003313D01*
X006533Y003287D01*
X006524Y003262D01*
X006511Y003239D01*
X006495Y003218D01*
X006476Y003199D01*
X006455Y003183D01*
X006432Y003170D01*
X006407Y003161D01*
X006381Y003155D01*
X006354Y003153D01*
X006327Y003155D01*
X006301Y003161D01*
X006276Y003170D01*
X006253Y003183D01*
X006232Y003199D01*
X006213Y003218D01*
X006197Y003239D01*
X006184Y003262D01*
X006175Y003287D01*
X006169Y003313D01*
X006167Y003340D01*
X010006Y015883D02*
X010008Y015917D01*
X010014Y015951D01*
X010024Y015984D01*
X010037Y016015D01*
X010055Y016045D01*
X010075Y016073D01*
X010099Y016098D01*
X010125Y016120D01*
X010153Y016138D01*
X010184Y016154D01*
X010216Y016166D01*
X010250Y016174D01*
X010284Y016178D01*
X010318Y016178D01*
X010352Y016174D01*
X010386Y016166D01*
X010418Y016154D01*
X010448Y016138D01*
X010477Y016120D01*
X010503Y016098D01*
X010527Y016073D01*
X010547Y016045D01*
X010565Y016015D01*
X010578Y015984D01*
X010588Y015951D01*
X010594Y015917D01*
X010596Y015883D01*
X010594Y015849D01*
X010588Y015815D01*
X010578Y015782D01*
X010565Y015751D01*
X010547Y015721D01*
X010527Y015693D01*
X010503Y015668D01*
X010477Y015646D01*
X010449Y015628D01*
X010418Y015612D01*
X010386Y015600D01*
X010352Y015592D01*
X010318Y015588D01*
X010284Y015588D01*
X010250Y015592D01*
X010216Y015600D01*
X010184Y015612D01*
X010153Y015628D01*
X010125Y015646D01*
X010099Y015668D01*
X010075Y015693D01*
X010055Y015721D01*
X010037Y015751D01*
X010024Y015782D01*
X010014Y015815D01*
X010008Y015849D01*
X010006Y015883D01*
X010006Y018797D02*
X010008Y018831D01*
X010014Y018865D01*
X010024Y018898D01*
X010037Y018929D01*
X010055Y018959D01*
X010075Y018987D01*
X010099Y019012D01*
X010125Y019034D01*
X010153Y019052D01*
X010184Y019068D01*
X010216Y019080D01*
X010250Y019088D01*
X010284Y019092D01*
X010318Y019092D01*
X010352Y019088D01*
X010386Y019080D01*
X010418Y019068D01*
X010448Y019052D01*
X010477Y019034D01*
X010503Y019012D01*
X010527Y018987D01*
X010547Y018959D01*
X010565Y018929D01*
X010578Y018898D01*
X010588Y018865D01*
X010594Y018831D01*
X010596Y018797D01*
X010594Y018763D01*
X010588Y018729D01*
X010578Y018696D01*
X010565Y018665D01*
X010547Y018635D01*
X010527Y018607D01*
X010503Y018582D01*
X010477Y018560D01*
X010449Y018542D01*
X010418Y018526D01*
X010386Y018514D01*
X010352Y018506D01*
X010318Y018502D01*
X010284Y018502D01*
X010250Y018506D01*
X010216Y018514D01*
X010184Y018526D01*
X010153Y018542D01*
X010125Y018560D01*
X010099Y018582D01*
X010075Y018607D01*
X010055Y018635D01*
X010037Y018665D01*
X010024Y018696D01*
X010014Y018729D01*
X010008Y018763D01*
X010006Y018797D01*
X005971Y022840D02*
X005973Y022890D01*
X005979Y022940D01*
X005989Y022989D01*
X006003Y023037D01*
X006020Y023084D01*
X006041Y023129D01*
X006066Y023173D01*
X006094Y023214D01*
X006126Y023253D01*
X006160Y023290D01*
X006197Y023324D01*
X006237Y023354D01*
X006279Y023381D01*
X006323Y023405D01*
X006369Y023426D01*
X006416Y023442D01*
X006464Y023455D01*
X006514Y023464D01*
X006563Y023469D01*
X006614Y023470D01*
X006664Y023467D01*
X006713Y023460D01*
X006762Y023449D01*
X006810Y023434D01*
X006856Y023416D01*
X006901Y023394D01*
X006944Y023368D01*
X006985Y023339D01*
X007024Y023307D01*
X007060Y023272D01*
X007092Y023234D01*
X007122Y023194D01*
X007149Y023151D01*
X007172Y023107D01*
X007191Y023061D01*
X007207Y023013D01*
X007219Y022964D01*
X007227Y022915D01*
X007231Y022865D01*
X007231Y022815D01*
X007227Y022765D01*
X007219Y022716D01*
X007207Y022667D01*
X007191Y022619D01*
X007172Y022573D01*
X007149Y022529D01*
X007122Y022486D01*
X007092Y022446D01*
X007060Y022408D01*
X007024Y022373D01*
X006985Y022341D01*
X006944Y022312D01*
X006901Y022286D01*
X006856Y022264D01*
X006810Y022246D01*
X006762Y022231D01*
X006713Y022220D01*
X006664Y022213D01*
X006614Y022210D01*
X006563Y022211D01*
X006514Y022216D01*
X006464Y022225D01*
X006416Y022238D01*
X006369Y022254D01*
X006323Y022275D01*
X006279Y022299D01*
X006237Y022326D01*
X006197Y022356D01*
X006160Y022390D01*
X006126Y022427D01*
X006094Y022466D01*
X006066Y022507D01*
X006041Y022551D01*
X006020Y022596D01*
X006003Y022643D01*
X005989Y022691D01*
X005979Y022740D01*
X005973Y022790D01*
X005971Y022840D01*
X004036Y018040D02*
X004038Y018069D01*
X004044Y018098D01*
X004053Y018126D01*
X004066Y018153D01*
X004083Y018178D01*
X004102Y018200D01*
X004124Y018219D01*
X004149Y018236D01*
X004176Y018249D01*
X004204Y018258D01*
X004233Y018264D01*
X004262Y018266D01*
X004291Y018264D01*
X004320Y018258D01*
X004348Y018249D01*
X004375Y018236D01*
X004400Y018219D01*
X004422Y018200D01*
X004441Y018178D01*
X004458Y018153D01*
X004471Y018126D01*
X004480Y018098D01*
X004486Y018069D01*
X004488Y018040D01*
X004486Y018011D01*
X004480Y017982D01*
X004471Y017954D01*
X004458Y017927D01*
X004441Y017902D01*
X004422Y017880D01*
X004400Y017861D01*
X004375Y017844D01*
X004348Y017831D01*
X004320Y017822D01*
X004291Y017816D01*
X004262Y017814D01*
X004233Y017816D01*
X004204Y017822D01*
X004176Y017831D01*
X004149Y017844D01*
X004124Y017861D01*
X004102Y017880D01*
X004083Y017902D01*
X004066Y017927D01*
X004053Y017954D01*
X004044Y017982D01*
X004038Y018011D01*
X004036Y018040D01*
X001280Y018040D02*
X001282Y018069D01*
X001288Y018098D01*
X001297Y018126D01*
X001310Y018153D01*
X001327Y018178D01*
X001346Y018200D01*
X001368Y018219D01*
X001393Y018236D01*
X001420Y018249D01*
X001448Y018258D01*
X001477Y018264D01*
X001506Y018266D01*
X001535Y018264D01*
X001564Y018258D01*
X001592Y018249D01*
X001619Y018236D01*
X001644Y018219D01*
X001666Y018200D01*
X001685Y018178D01*
X001702Y018153D01*
X001715Y018126D01*
X001724Y018098D01*
X001730Y018069D01*
X001732Y018040D01*
X001730Y018011D01*
X001724Y017982D01*
X001715Y017954D01*
X001702Y017927D01*
X001685Y017902D01*
X001666Y017880D01*
X001644Y017861D01*
X001619Y017844D01*
X001592Y017831D01*
X001564Y017822D01*
X001535Y017816D01*
X001506Y017814D01*
X001477Y017816D01*
X001448Y017822D01*
X001420Y017831D01*
X001393Y017844D01*
X001368Y017861D01*
X001346Y017880D01*
X001327Y017902D01*
X001310Y017927D01*
X001297Y017954D01*
X001288Y017982D01*
X001282Y018011D01*
X001280Y018040D01*
X025971Y016840D02*
X025973Y016890D01*
X025979Y016940D01*
X025989Y016989D01*
X026003Y017037D01*
X026020Y017084D01*
X026041Y017129D01*
X026066Y017173D01*
X026094Y017214D01*
X026126Y017253D01*
X026160Y017290D01*
X026197Y017324D01*
X026237Y017354D01*
X026279Y017381D01*
X026323Y017405D01*
X026369Y017426D01*
X026416Y017442D01*
X026464Y017455D01*
X026514Y017464D01*
X026563Y017469D01*
X026614Y017470D01*
X026664Y017467D01*
X026713Y017460D01*
X026762Y017449D01*
X026810Y017434D01*
X026856Y017416D01*
X026901Y017394D01*
X026944Y017368D01*
X026985Y017339D01*
X027024Y017307D01*
X027060Y017272D01*
X027092Y017234D01*
X027122Y017194D01*
X027149Y017151D01*
X027172Y017107D01*
X027191Y017061D01*
X027207Y017013D01*
X027219Y016964D01*
X027227Y016915D01*
X027231Y016865D01*
X027231Y016815D01*
X027227Y016765D01*
X027219Y016716D01*
X027207Y016667D01*
X027191Y016619D01*
X027172Y016573D01*
X027149Y016529D01*
X027122Y016486D01*
X027092Y016446D01*
X027060Y016408D01*
X027024Y016373D01*
X026985Y016341D01*
X026944Y016312D01*
X026901Y016286D01*
X026856Y016264D01*
X026810Y016246D01*
X026762Y016231D01*
X026713Y016220D01*
X026664Y016213D01*
X026614Y016210D01*
X026563Y016211D01*
X026514Y016216D01*
X026464Y016225D01*
X026416Y016238D01*
X026369Y016254D01*
X026323Y016275D01*
X026279Y016299D01*
X026237Y016326D01*
X026197Y016356D01*
X026160Y016390D01*
X026126Y016427D01*
X026094Y016466D01*
X026066Y016507D01*
X026041Y016551D01*
X026020Y016596D01*
X026003Y016643D01*
X025989Y016691D01*
X025979Y016740D01*
X025973Y016790D01*
X025971Y016840D01*
X025971Y005840D02*
X025973Y005890D01*
X025979Y005940D01*
X025989Y005989D01*
X026003Y006037D01*
X026020Y006084D01*
X026041Y006129D01*
X026066Y006173D01*
X026094Y006214D01*
X026126Y006253D01*
X026160Y006290D01*
X026197Y006324D01*
X026237Y006354D01*
X026279Y006381D01*
X026323Y006405D01*
X026369Y006426D01*
X026416Y006442D01*
X026464Y006455D01*
X026514Y006464D01*
X026563Y006469D01*
X026614Y006470D01*
X026664Y006467D01*
X026713Y006460D01*
X026762Y006449D01*
X026810Y006434D01*
X026856Y006416D01*
X026901Y006394D01*
X026944Y006368D01*
X026985Y006339D01*
X027024Y006307D01*
X027060Y006272D01*
X027092Y006234D01*
X027122Y006194D01*
X027149Y006151D01*
X027172Y006107D01*
X027191Y006061D01*
X027207Y006013D01*
X027219Y005964D01*
X027227Y005915D01*
X027231Y005865D01*
X027231Y005815D01*
X027227Y005765D01*
X027219Y005716D01*
X027207Y005667D01*
X027191Y005619D01*
X027172Y005573D01*
X027149Y005529D01*
X027122Y005486D01*
X027092Y005446D01*
X027060Y005408D01*
X027024Y005373D01*
X026985Y005341D01*
X026944Y005312D01*
X026901Y005286D01*
X026856Y005264D01*
X026810Y005246D01*
X026762Y005231D01*
X026713Y005220D01*
X026664Y005213D01*
X026614Y005210D01*
X026563Y005211D01*
X026514Y005216D01*
X026464Y005225D01*
X026416Y005238D01*
X026369Y005254D01*
X026323Y005275D01*
X026279Y005299D01*
X026237Y005326D01*
X026197Y005356D01*
X026160Y005390D01*
X026126Y005427D01*
X026094Y005466D01*
X026066Y005507D01*
X026041Y005551D01*
X026020Y005596D01*
X026003Y005643D01*
X025989Y005691D01*
X025979Y005740D01*
X025973Y005790D01*
X025971Y005840D01*
M02*
