G75*
%MOIN*%
%OFA0B0*%
%FSLAX24Y24*%
%IPPOS*%
%LPD*%
%AMOC8*
5,1,8,0,0,1.08239X$1,22.5*
%
%ADD10C,0.0000*%
%ADD11C,0.0150*%
%ADD12C,0.0200*%
%ADD13C,0.0088*%
%ADD14R,0.0550X0.1100*%
%ADD15C,0.0100*%
%ADD16R,0.1200X0.1000*%
%ADD17R,0.1250X0.1000*%
%ADD18R,0.0850X0.1080*%
%ADD19C,0.0075*%
%ADD20R,0.0402X0.0472*%
%ADD21R,0.0472X0.0402*%
%ADD22R,0.0551X0.0984*%
%ADD23R,0.0878X0.1382*%
%ADD24R,0.0984X0.1260*%
%ADD25R,0.1000X0.0500*%
%ADD26R,0.0450X0.0600*%
%ADD27R,0.0700X0.0400*%
%ADD28R,0.0400X0.0450*%
%ADD29R,0.0450X0.0400*%
%ADD30R,0.0300X0.0200*%
%ADD31R,0.0250X0.0600*%
%ADD32R,0.0760X0.0260*%
%ADD33R,0.0260X0.0760*%
D10*
X001001Y002840D02*
X026601Y002840D01*
X026601Y003840D01*
X027601Y004840D01*
X027601Y017740D01*
X026601Y018740D01*
X026601Y023240D01*
X026001Y023840D01*
X001001Y023840D01*
X000962Y023838D01*
X000923Y023832D01*
X000885Y023823D01*
X000848Y023810D01*
X000812Y023793D01*
X000779Y023773D01*
X000747Y023749D01*
X000718Y023723D01*
X000692Y023694D01*
X000668Y023662D01*
X000648Y023629D01*
X000631Y023593D01*
X000618Y023556D01*
X000609Y023518D01*
X000603Y023479D01*
X000601Y023440D01*
X000601Y003240D01*
X000603Y003201D01*
X000609Y003162D01*
X000618Y003124D01*
X000631Y003087D01*
X000648Y003051D01*
X000668Y003018D01*
X000692Y002986D01*
X000718Y002957D01*
X000747Y002931D01*
X000779Y002907D01*
X000812Y002887D01*
X000848Y002870D01*
X000885Y002857D01*
X000923Y002848D01*
X000962Y002842D01*
X001001Y002840D01*
X005261Y003340D02*
X005263Y003367D01*
X005269Y003393D01*
X005278Y003418D01*
X005291Y003441D01*
X005307Y003462D01*
X005326Y003481D01*
X005347Y003497D01*
X005370Y003510D01*
X005395Y003519D01*
X005421Y003525D01*
X005448Y003527D01*
X005475Y003525D01*
X005501Y003519D01*
X005526Y003510D01*
X005549Y003497D01*
X005570Y003481D01*
X005589Y003462D01*
X005605Y003441D01*
X005618Y003418D01*
X005627Y003393D01*
X005633Y003367D01*
X005635Y003340D01*
X005633Y003313D01*
X005627Y003287D01*
X005618Y003262D01*
X005605Y003239D01*
X005589Y003218D01*
X005570Y003199D01*
X005549Y003183D01*
X005526Y003170D01*
X005501Y003161D01*
X005475Y003155D01*
X005448Y003153D01*
X005421Y003155D01*
X005395Y003161D01*
X005370Y003170D01*
X005347Y003183D01*
X005326Y003199D01*
X005307Y003218D01*
X005291Y003239D01*
X005278Y003262D01*
X005269Y003287D01*
X005263Y003313D01*
X005261Y003340D01*
X006167Y003340D02*
X006169Y003367D01*
X006175Y003393D01*
X006184Y003418D01*
X006197Y003441D01*
X006213Y003462D01*
X006232Y003481D01*
X006253Y003497D01*
X006276Y003510D01*
X006301Y003519D01*
X006327Y003525D01*
X006354Y003527D01*
X006381Y003525D01*
X006407Y003519D01*
X006432Y003510D01*
X006455Y003497D01*
X006476Y003481D01*
X006495Y003462D01*
X006511Y003441D01*
X006524Y003418D01*
X006533Y003393D01*
X006539Y003367D01*
X006541Y003340D01*
X006539Y003313D01*
X006533Y003287D01*
X006524Y003262D01*
X006511Y003239D01*
X006495Y003218D01*
X006476Y003199D01*
X006455Y003183D01*
X006432Y003170D01*
X006407Y003161D01*
X006381Y003155D01*
X006354Y003153D01*
X006327Y003155D01*
X006301Y003161D01*
X006276Y003170D01*
X006253Y003183D01*
X006232Y003199D01*
X006213Y003218D01*
X006197Y003239D01*
X006184Y003262D01*
X006175Y003287D01*
X006169Y003313D01*
X006167Y003340D01*
X010006Y015883D02*
X010008Y015917D01*
X010014Y015951D01*
X010024Y015984D01*
X010037Y016015D01*
X010055Y016045D01*
X010075Y016073D01*
X010099Y016098D01*
X010125Y016120D01*
X010153Y016138D01*
X010184Y016154D01*
X010216Y016166D01*
X010250Y016174D01*
X010284Y016178D01*
X010318Y016178D01*
X010352Y016174D01*
X010386Y016166D01*
X010418Y016154D01*
X010448Y016138D01*
X010477Y016120D01*
X010503Y016098D01*
X010527Y016073D01*
X010547Y016045D01*
X010565Y016015D01*
X010578Y015984D01*
X010588Y015951D01*
X010594Y015917D01*
X010596Y015883D01*
X010594Y015849D01*
X010588Y015815D01*
X010578Y015782D01*
X010565Y015751D01*
X010547Y015721D01*
X010527Y015693D01*
X010503Y015668D01*
X010477Y015646D01*
X010449Y015628D01*
X010418Y015612D01*
X010386Y015600D01*
X010352Y015592D01*
X010318Y015588D01*
X010284Y015588D01*
X010250Y015592D01*
X010216Y015600D01*
X010184Y015612D01*
X010153Y015628D01*
X010125Y015646D01*
X010099Y015668D01*
X010075Y015693D01*
X010055Y015721D01*
X010037Y015751D01*
X010024Y015782D01*
X010014Y015815D01*
X010008Y015849D01*
X010006Y015883D01*
X010006Y018797D02*
X010008Y018831D01*
X010014Y018865D01*
X010024Y018898D01*
X010037Y018929D01*
X010055Y018959D01*
X010075Y018987D01*
X010099Y019012D01*
X010125Y019034D01*
X010153Y019052D01*
X010184Y019068D01*
X010216Y019080D01*
X010250Y019088D01*
X010284Y019092D01*
X010318Y019092D01*
X010352Y019088D01*
X010386Y019080D01*
X010418Y019068D01*
X010448Y019052D01*
X010477Y019034D01*
X010503Y019012D01*
X010527Y018987D01*
X010547Y018959D01*
X010565Y018929D01*
X010578Y018898D01*
X010588Y018865D01*
X010594Y018831D01*
X010596Y018797D01*
X010594Y018763D01*
X010588Y018729D01*
X010578Y018696D01*
X010565Y018665D01*
X010547Y018635D01*
X010527Y018607D01*
X010503Y018582D01*
X010477Y018560D01*
X010449Y018542D01*
X010418Y018526D01*
X010386Y018514D01*
X010352Y018506D01*
X010318Y018502D01*
X010284Y018502D01*
X010250Y018506D01*
X010216Y018514D01*
X010184Y018526D01*
X010153Y018542D01*
X010125Y018560D01*
X010099Y018582D01*
X010075Y018607D01*
X010055Y018635D01*
X010037Y018665D01*
X010024Y018696D01*
X010014Y018729D01*
X010008Y018763D01*
X010006Y018797D01*
X005971Y022840D02*
X005973Y022890D01*
X005979Y022940D01*
X005989Y022989D01*
X006003Y023037D01*
X006020Y023084D01*
X006041Y023129D01*
X006066Y023173D01*
X006094Y023214D01*
X006126Y023253D01*
X006160Y023290D01*
X006197Y023324D01*
X006237Y023354D01*
X006279Y023381D01*
X006323Y023405D01*
X006369Y023426D01*
X006416Y023442D01*
X006464Y023455D01*
X006514Y023464D01*
X006563Y023469D01*
X006614Y023470D01*
X006664Y023467D01*
X006713Y023460D01*
X006762Y023449D01*
X006810Y023434D01*
X006856Y023416D01*
X006901Y023394D01*
X006944Y023368D01*
X006985Y023339D01*
X007024Y023307D01*
X007060Y023272D01*
X007092Y023234D01*
X007122Y023194D01*
X007149Y023151D01*
X007172Y023107D01*
X007191Y023061D01*
X007207Y023013D01*
X007219Y022964D01*
X007227Y022915D01*
X007231Y022865D01*
X007231Y022815D01*
X007227Y022765D01*
X007219Y022716D01*
X007207Y022667D01*
X007191Y022619D01*
X007172Y022573D01*
X007149Y022529D01*
X007122Y022486D01*
X007092Y022446D01*
X007060Y022408D01*
X007024Y022373D01*
X006985Y022341D01*
X006944Y022312D01*
X006901Y022286D01*
X006856Y022264D01*
X006810Y022246D01*
X006762Y022231D01*
X006713Y022220D01*
X006664Y022213D01*
X006614Y022210D01*
X006563Y022211D01*
X006514Y022216D01*
X006464Y022225D01*
X006416Y022238D01*
X006369Y022254D01*
X006323Y022275D01*
X006279Y022299D01*
X006237Y022326D01*
X006197Y022356D01*
X006160Y022390D01*
X006126Y022427D01*
X006094Y022466D01*
X006066Y022507D01*
X006041Y022551D01*
X006020Y022596D01*
X006003Y022643D01*
X005989Y022691D01*
X005979Y022740D01*
X005973Y022790D01*
X005971Y022840D01*
X004036Y018040D02*
X004038Y018069D01*
X004044Y018098D01*
X004053Y018126D01*
X004066Y018153D01*
X004083Y018178D01*
X004102Y018200D01*
X004124Y018219D01*
X004149Y018236D01*
X004176Y018249D01*
X004204Y018258D01*
X004233Y018264D01*
X004262Y018266D01*
X004291Y018264D01*
X004320Y018258D01*
X004348Y018249D01*
X004375Y018236D01*
X004400Y018219D01*
X004422Y018200D01*
X004441Y018178D01*
X004458Y018153D01*
X004471Y018126D01*
X004480Y018098D01*
X004486Y018069D01*
X004488Y018040D01*
X004486Y018011D01*
X004480Y017982D01*
X004471Y017954D01*
X004458Y017927D01*
X004441Y017902D01*
X004422Y017880D01*
X004400Y017861D01*
X004375Y017844D01*
X004348Y017831D01*
X004320Y017822D01*
X004291Y017816D01*
X004262Y017814D01*
X004233Y017816D01*
X004204Y017822D01*
X004176Y017831D01*
X004149Y017844D01*
X004124Y017861D01*
X004102Y017880D01*
X004083Y017902D01*
X004066Y017927D01*
X004053Y017954D01*
X004044Y017982D01*
X004038Y018011D01*
X004036Y018040D01*
X001280Y018040D02*
X001282Y018069D01*
X001288Y018098D01*
X001297Y018126D01*
X001310Y018153D01*
X001327Y018178D01*
X001346Y018200D01*
X001368Y018219D01*
X001393Y018236D01*
X001420Y018249D01*
X001448Y018258D01*
X001477Y018264D01*
X001506Y018266D01*
X001535Y018264D01*
X001564Y018258D01*
X001592Y018249D01*
X001619Y018236D01*
X001644Y018219D01*
X001666Y018200D01*
X001685Y018178D01*
X001702Y018153D01*
X001715Y018126D01*
X001724Y018098D01*
X001730Y018069D01*
X001732Y018040D01*
X001730Y018011D01*
X001724Y017982D01*
X001715Y017954D01*
X001702Y017927D01*
X001685Y017902D01*
X001666Y017880D01*
X001644Y017861D01*
X001619Y017844D01*
X001592Y017831D01*
X001564Y017822D01*
X001535Y017816D01*
X001506Y017814D01*
X001477Y017816D01*
X001448Y017822D01*
X001420Y017831D01*
X001393Y017844D01*
X001368Y017861D01*
X001346Y017880D01*
X001327Y017902D01*
X001310Y017927D01*
X001297Y017954D01*
X001288Y017982D01*
X001282Y018011D01*
X001280Y018040D01*
X025971Y016840D02*
X025973Y016890D01*
X025979Y016940D01*
X025989Y016989D01*
X026003Y017037D01*
X026020Y017084D01*
X026041Y017129D01*
X026066Y017173D01*
X026094Y017214D01*
X026126Y017253D01*
X026160Y017290D01*
X026197Y017324D01*
X026237Y017354D01*
X026279Y017381D01*
X026323Y017405D01*
X026369Y017426D01*
X026416Y017442D01*
X026464Y017455D01*
X026514Y017464D01*
X026563Y017469D01*
X026614Y017470D01*
X026664Y017467D01*
X026713Y017460D01*
X026762Y017449D01*
X026810Y017434D01*
X026856Y017416D01*
X026901Y017394D01*
X026944Y017368D01*
X026985Y017339D01*
X027024Y017307D01*
X027060Y017272D01*
X027092Y017234D01*
X027122Y017194D01*
X027149Y017151D01*
X027172Y017107D01*
X027191Y017061D01*
X027207Y017013D01*
X027219Y016964D01*
X027227Y016915D01*
X027231Y016865D01*
X027231Y016815D01*
X027227Y016765D01*
X027219Y016716D01*
X027207Y016667D01*
X027191Y016619D01*
X027172Y016573D01*
X027149Y016529D01*
X027122Y016486D01*
X027092Y016446D01*
X027060Y016408D01*
X027024Y016373D01*
X026985Y016341D01*
X026944Y016312D01*
X026901Y016286D01*
X026856Y016264D01*
X026810Y016246D01*
X026762Y016231D01*
X026713Y016220D01*
X026664Y016213D01*
X026614Y016210D01*
X026563Y016211D01*
X026514Y016216D01*
X026464Y016225D01*
X026416Y016238D01*
X026369Y016254D01*
X026323Y016275D01*
X026279Y016299D01*
X026237Y016326D01*
X026197Y016356D01*
X026160Y016390D01*
X026126Y016427D01*
X026094Y016466D01*
X026066Y016507D01*
X026041Y016551D01*
X026020Y016596D01*
X026003Y016643D01*
X025989Y016691D01*
X025979Y016740D01*
X025973Y016790D01*
X025971Y016840D01*
X025971Y005840D02*
X025973Y005890D01*
X025979Y005940D01*
X025989Y005989D01*
X026003Y006037D01*
X026020Y006084D01*
X026041Y006129D01*
X026066Y006173D01*
X026094Y006214D01*
X026126Y006253D01*
X026160Y006290D01*
X026197Y006324D01*
X026237Y006354D01*
X026279Y006381D01*
X026323Y006405D01*
X026369Y006426D01*
X026416Y006442D01*
X026464Y006455D01*
X026514Y006464D01*
X026563Y006469D01*
X026614Y006470D01*
X026664Y006467D01*
X026713Y006460D01*
X026762Y006449D01*
X026810Y006434D01*
X026856Y006416D01*
X026901Y006394D01*
X026944Y006368D01*
X026985Y006339D01*
X027024Y006307D01*
X027060Y006272D01*
X027092Y006234D01*
X027122Y006194D01*
X027149Y006151D01*
X027172Y006107D01*
X027191Y006061D01*
X027207Y006013D01*
X027219Y005964D01*
X027227Y005915D01*
X027231Y005865D01*
X027231Y005815D01*
X027227Y005765D01*
X027219Y005716D01*
X027207Y005667D01*
X027191Y005619D01*
X027172Y005573D01*
X027149Y005529D01*
X027122Y005486D01*
X027092Y005446D01*
X027060Y005408D01*
X027024Y005373D01*
X026985Y005341D01*
X026944Y005312D01*
X026901Y005286D01*
X026856Y005264D01*
X026810Y005246D01*
X026762Y005231D01*
X026713Y005220D01*
X026664Y005213D01*
X026614Y005210D01*
X026563Y005211D01*
X026514Y005216D01*
X026464Y005225D01*
X026416Y005238D01*
X026369Y005254D01*
X026323Y005275D01*
X026279Y005299D01*
X026237Y005326D01*
X026197Y005356D01*
X026160Y005390D01*
X026126Y005427D01*
X026094Y005466D01*
X026066Y005507D01*
X026041Y005551D01*
X026020Y005596D01*
X026003Y005643D01*
X025989Y005691D01*
X025979Y005740D01*
X025973Y005790D01*
X025971Y005840D01*
D11*
X014676Y006215D02*
X013926Y006215D01*
X013926Y006365D01*
X014676Y006365D01*
X014676Y006215D01*
X014676Y006364D02*
X013926Y006364D01*
X013926Y007315D02*
X014676Y007315D01*
X013926Y007315D02*
X013926Y007465D01*
X014676Y007465D01*
X014676Y007315D01*
X014676Y007464D02*
X013926Y007464D01*
D12*
X013801Y006940D02*
X013601Y006940D01*
X013801Y006940D02*
X013801Y006740D01*
X013601Y006740D01*
X013601Y006940D01*
X013601Y006939D02*
X013801Y006939D01*
X014801Y006940D02*
X015001Y006940D01*
X015001Y006740D01*
X014801Y006740D01*
X014801Y006940D01*
X014801Y006939D02*
X015001Y006939D01*
D13*
X014632Y008271D02*
X014370Y008271D01*
X014632Y008271D02*
X014632Y008009D01*
X014370Y008009D01*
X014370Y008271D01*
X014370Y008096D02*
X014632Y008096D01*
X014632Y008183D02*
X014370Y008183D01*
X014370Y008270D02*
X014632Y008270D01*
X014732Y008971D02*
X014470Y008971D01*
X014732Y008971D02*
X014732Y008709D01*
X014470Y008709D01*
X014470Y008971D01*
X014470Y008796D02*
X014732Y008796D01*
X014732Y008883D02*
X014470Y008883D01*
X014470Y008970D02*
X014732Y008970D01*
X015070Y008971D02*
X015332Y008971D01*
X015332Y008709D01*
X015070Y008709D01*
X015070Y008971D01*
X015070Y008796D02*
X015332Y008796D01*
X015332Y008883D02*
X015070Y008883D01*
X015070Y008970D02*
X015332Y008970D01*
X015332Y009671D02*
X015070Y009671D01*
X015332Y009671D02*
X015332Y009409D01*
X015070Y009409D01*
X015070Y009671D01*
X015070Y009496D02*
X015332Y009496D01*
X015332Y009583D02*
X015070Y009583D01*
X015070Y009670D02*
X015332Y009670D01*
X014732Y009671D02*
X014470Y009671D01*
X014732Y009671D02*
X014732Y009409D01*
X014470Y009409D01*
X014470Y009671D01*
X014470Y009496D02*
X014732Y009496D01*
X014732Y009583D02*
X014470Y009583D01*
X014470Y009670D02*
X014732Y009670D01*
X014032Y009671D02*
X014032Y009409D01*
X013770Y009409D01*
X013770Y009671D01*
X014032Y009671D01*
X014032Y009496D02*
X013770Y009496D01*
X013770Y009583D02*
X014032Y009583D01*
X014032Y009670D02*
X013770Y009670D01*
X014032Y009071D02*
X014032Y008809D01*
X013770Y008809D01*
X013770Y009071D01*
X014032Y009071D01*
X014032Y008896D02*
X013770Y008896D01*
X013770Y008983D02*
X014032Y008983D01*
X014032Y009070D02*
X013770Y009070D01*
X013770Y008271D02*
X014032Y008271D01*
X014032Y008009D01*
X013770Y008009D01*
X013770Y008271D01*
X013770Y008096D02*
X014032Y008096D01*
X014032Y008183D02*
X013770Y008183D01*
X013770Y008270D02*
X014032Y008270D01*
X011832Y008309D02*
X011832Y008571D01*
X011832Y008309D02*
X011570Y008309D01*
X011570Y008571D01*
X011832Y008571D01*
X011832Y008396D02*
X011570Y008396D01*
X011570Y008483D02*
X011832Y008483D01*
X011832Y008570D02*
X011570Y008570D01*
X011832Y008909D02*
X011832Y009171D01*
X011832Y008909D02*
X011570Y008909D01*
X011570Y009171D01*
X011832Y009171D01*
X011832Y008996D02*
X011570Y008996D01*
X011570Y009083D02*
X011832Y009083D01*
X011832Y009170D02*
X011570Y009170D01*
X011132Y009171D02*
X011132Y008909D01*
X010870Y008909D01*
X010870Y009171D01*
X011132Y009171D01*
X011132Y008996D02*
X010870Y008996D01*
X010870Y009083D02*
X011132Y009083D01*
X011132Y009170D02*
X010870Y009170D01*
X011132Y008571D02*
X011132Y008309D01*
X010870Y008309D01*
X010870Y008571D01*
X011132Y008571D01*
X011132Y008396D02*
X010870Y008396D01*
X010870Y008483D02*
X011132Y008483D01*
X011132Y008570D02*
X010870Y008570D01*
X008370Y005571D02*
X008370Y005309D01*
X008370Y005571D02*
X008632Y005571D01*
X008632Y005309D01*
X008370Y005309D01*
X008370Y005396D02*
X008632Y005396D01*
X008632Y005483D02*
X008370Y005483D01*
X008370Y005570D02*
X008632Y005570D01*
X008370Y004971D02*
X008370Y004709D01*
X008370Y004971D02*
X008632Y004971D01*
X008632Y004709D01*
X008370Y004709D01*
X008370Y004796D02*
X008632Y004796D01*
X008632Y004883D02*
X008370Y004883D01*
X008370Y004970D02*
X008632Y004970D01*
X006870Y004971D02*
X006870Y004709D01*
X006870Y004971D02*
X007132Y004971D01*
X007132Y004709D01*
X006870Y004709D01*
X006870Y004796D02*
X007132Y004796D01*
X007132Y004883D02*
X006870Y004883D01*
X006870Y004970D02*
X007132Y004970D01*
X006870Y005309D02*
X006870Y005571D01*
X007132Y005571D01*
X007132Y005309D01*
X006870Y005309D01*
X006870Y005396D02*
X007132Y005396D01*
X007132Y005483D02*
X006870Y005483D01*
X006870Y005570D02*
X007132Y005570D01*
X006532Y005571D02*
X006532Y005309D01*
X006270Y005309D01*
X006270Y005571D01*
X006532Y005571D01*
X006532Y005396D02*
X006270Y005396D01*
X006270Y005483D02*
X006532Y005483D01*
X006532Y005570D02*
X006270Y005570D01*
X006532Y004971D02*
X006532Y004709D01*
X006270Y004709D01*
X006270Y004971D01*
X006532Y004971D01*
X006532Y004796D02*
X006270Y004796D01*
X006270Y004883D02*
X006532Y004883D01*
X006532Y004970D02*
X006270Y004970D01*
X003770Y004971D02*
X003770Y004709D01*
X003770Y004971D02*
X004032Y004971D01*
X004032Y004709D01*
X003770Y004709D01*
X003770Y004796D02*
X004032Y004796D01*
X004032Y004883D02*
X003770Y004883D01*
X003770Y004970D02*
X004032Y004970D01*
X003770Y005309D02*
X003770Y005571D01*
X004032Y005571D01*
X004032Y005309D01*
X003770Y005309D01*
X003770Y005396D02*
X004032Y005396D01*
X004032Y005483D02*
X003770Y005483D01*
X003770Y005570D02*
X004032Y005570D01*
X003432Y005571D02*
X003432Y005309D01*
X003170Y005309D01*
X003170Y005571D01*
X003432Y005571D01*
X003432Y005396D02*
X003170Y005396D01*
X003170Y005483D02*
X003432Y005483D01*
X003432Y005570D02*
X003170Y005570D01*
X003432Y004971D02*
X003432Y004709D01*
X003170Y004709D01*
X003170Y004971D01*
X003432Y004971D01*
X003432Y004796D02*
X003170Y004796D01*
X003170Y004883D02*
X003432Y004883D01*
X003432Y004970D02*
X003170Y004970D01*
X003632Y004171D02*
X003632Y003909D01*
X003370Y003909D01*
X003370Y004171D01*
X003632Y004171D01*
X003632Y003996D02*
X003370Y003996D01*
X003370Y004083D02*
X003632Y004083D01*
X003632Y004170D02*
X003370Y004170D01*
X003632Y003571D02*
X003632Y003309D01*
X003370Y003309D01*
X003370Y003571D01*
X003632Y003571D01*
X003632Y003396D02*
X003370Y003396D01*
X003370Y003483D02*
X003632Y003483D01*
X003632Y003570D02*
X003370Y003570D01*
X001832Y003571D02*
X001832Y003309D01*
X001570Y003309D01*
X001570Y003571D01*
X001832Y003571D01*
X001832Y003396D02*
X001570Y003396D01*
X001570Y003483D02*
X001832Y003483D01*
X001832Y003570D02*
X001570Y003570D01*
X001832Y003909D02*
X001832Y004171D01*
X001832Y003909D02*
X001570Y003909D01*
X001570Y004171D01*
X001832Y004171D01*
X001832Y003996D02*
X001570Y003996D01*
X001570Y004083D02*
X001832Y004083D01*
X001832Y004170D02*
X001570Y004170D01*
X001870Y010509D02*
X002132Y010509D01*
X001870Y010509D02*
X001870Y010771D01*
X002132Y010771D01*
X002132Y010509D01*
X002132Y010596D02*
X001870Y010596D01*
X001870Y010683D02*
X002132Y010683D01*
X002132Y010770D02*
X001870Y010770D01*
X001870Y011209D02*
X002132Y011209D01*
X001870Y011209D02*
X001870Y011471D01*
X002132Y011471D01*
X002132Y011209D01*
X002132Y011296D02*
X001870Y011296D01*
X001870Y011383D02*
X002132Y011383D01*
X002132Y011470D02*
X001870Y011470D01*
X002470Y011209D02*
X002732Y011209D01*
X002470Y011209D02*
X002470Y011471D01*
X002732Y011471D01*
X002732Y011209D01*
X002732Y011296D02*
X002470Y011296D01*
X002470Y011383D02*
X002732Y011383D01*
X002732Y011470D02*
X002470Y011470D01*
X002470Y010509D02*
X002732Y010509D01*
X002470Y010509D02*
X002470Y010771D01*
X002732Y010771D01*
X002732Y010509D01*
X002732Y010596D02*
X002470Y010596D01*
X002470Y010683D02*
X002732Y010683D01*
X002732Y010770D02*
X002470Y010770D01*
X006070Y011371D02*
X006332Y011371D01*
X006332Y011109D01*
X006070Y011109D01*
X006070Y011371D01*
X006070Y011196D02*
X006332Y011196D01*
X006332Y011283D02*
X006070Y011283D01*
X006070Y011370D02*
X006332Y011370D01*
X006670Y011371D02*
X006932Y011371D01*
X006932Y011109D01*
X006670Y011109D01*
X006670Y011371D01*
X006670Y011196D02*
X006932Y011196D01*
X006932Y011283D02*
X006670Y011283D01*
X006670Y011370D02*
X006932Y011370D01*
X006932Y011809D02*
X006670Y011809D01*
X006670Y012071D01*
X006932Y012071D01*
X006932Y011809D01*
X006932Y011896D02*
X006670Y011896D01*
X006670Y011983D02*
X006932Y011983D01*
X006932Y012070D02*
X006670Y012070D01*
X006332Y011809D02*
X006070Y011809D01*
X006070Y012071D01*
X006332Y012071D01*
X006332Y011809D01*
X006332Y011896D02*
X006070Y011896D01*
X006070Y011983D02*
X006332Y011983D01*
X006332Y012070D02*
X006070Y012070D01*
X006070Y012509D02*
X006332Y012509D01*
X006070Y012509D02*
X006070Y012771D01*
X006332Y012771D01*
X006332Y012509D01*
X006332Y012596D02*
X006070Y012596D01*
X006070Y012683D02*
X006332Y012683D01*
X006332Y012770D02*
X006070Y012770D01*
X006670Y012509D02*
X006932Y012509D01*
X006670Y012509D02*
X006670Y012771D01*
X006932Y012771D01*
X006932Y012509D01*
X006932Y012596D02*
X006670Y012596D01*
X006670Y012683D02*
X006932Y012683D01*
X006932Y012770D02*
X006670Y012770D01*
X006270Y014609D02*
X006270Y014871D01*
X006532Y014871D01*
X006532Y014609D01*
X006270Y014609D01*
X006270Y014696D02*
X006532Y014696D01*
X006532Y014783D02*
X006270Y014783D01*
X006270Y014870D02*
X006532Y014870D01*
X006270Y015209D02*
X006270Y015471D01*
X006532Y015471D01*
X006532Y015209D01*
X006270Y015209D01*
X006270Y015296D02*
X006532Y015296D01*
X006532Y015383D02*
X006270Y015383D01*
X006270Y015470D02*
X006532Y015470D01*
X006970Y015471D02*
X006970Y015209D01*
X006970Y015471D02*
X007232Y015471D01*
X007232Y015209D01*
X006970Y015209D01*
X006970Y015296D02*
X007232Y015296D01*
X007232Y015383D02*
X006970Y015383D01*
X006970Y015470D02*
X007232Y015470D01*
X007670Y015471D02*
X007670Y015209D01*
X007670Y015471D02*
X007932Y015471D01*
X007932Y015209D01*
X007670Y015209D01*
X007670Y015296D02*
X007932Y015296D01*
X007932Y015383D02*
X007670Y015383D01*
X007670Y015470D02*
X007932Y015470D01*
X007670Y014871D02*
X007670Y014609D01*
X007670Y014871D02*
X007932Y014871D01*
X007932Y014609D01*
X007670Y014609D01*
X007670Y014696D02*
X007932Y014696D01*
X007932Y014783D02*
X007670Y014783D01*
X007670Y014870D02*
X007932Y014870D01*
X006970Y014871D02*
X006970Y014609D01*
X006970Y014871D02*
X007232Y014871D01*
X007232Y014609D01*
X006970Y014609D01*
X006970Y014696D02*
X007232Y014696D01*
X007232Y014783D02*
X006970Y014783D01*
X006970Y014870D02*
X007232Y014870D01*
X005832Y014871D02*
X005832Y014609D01*
X005570Y014609D01*
X005570Y014871D01*
X005832Y014871D01*
X005832Y014696D02*
X005570Y014696D01*
X005570Y014783D02*
X005832Y014783D01*
X005832Y014870D02*
X005570Y014870D01*
X005832Y015209D02*
X005832Y015471D01*
X005832Y015209D02*
X005570Y015209D01*
X005570Y015471D01*
X005832Y015471D01*
X005832Y015296D02*
X005570Y015296D01*
X005570Y015383D02*
X005832Y015383D01*
X005832Y015470D02*
X005570Y015470D01*
X006270Y016409D02*
X006270Y016671D01*
X006532Y016671D01*
X006532Y016409D01*
X006270Y016409D01*
X006270Y016496D02*
X006532Y016496D01*
X006532Y016583D02*
X006270Y016583D01*
X006270Y016670D02*
X006532Y016670D01*
X006270Y017009D02*
X006270Y017271D01*
X006532Y017271D01*
X006532Y017009D01*
X006270Y017009D01*
X006270Y017096D02*
X006532Y017096D01*
X006532Y017183D02*
X006270Y017183D01*
X006270Y017270D02*
X006532Y017270D01*
X007232Y017271D02*
X007232Y017009D01*
X006970Y017009D01*
X006970Y017271D01*
X007232Y017271D01*
X007232Y017096D02*
X006970Y017096D01*
X006970Y017183D02*
X007232Y017183D01*
X007232Y017270D02*
X006970Y017270D01*
X007232Y017709D02*
X007232Y017971D01*
X007232Y017709D02*
X006970Y017709D01*
X006970Y017971D01*
X007232Y017971D01*
X007232Y017796D02*
X006970Y017796D01*
X006970Y017883D02*
X007232Y017883D01*
X007232Y017970D02*
X006970Y017970D01*
X007232Y018309D02*
X007232Y018571D01*
X007232Y018309D02*
X006970Y018309D01*
X006970Y018571D01*
X007232Y018571D01*
X007232Y018396D02*
X006970Y018396D01*
X006970Y018483D02*
X007232Y018483D01*
X007232Y018570D02*
X006970Y018570D01*
X007232Y019009D02*
X007232Y019271D01*
X007232Y019009D02*
X006970Y019009D01*
X006970Y019271D01*
X007232Y019271D01*
X007232Y019096D02*
X006970Y019096D01*
X006970Y019183D02*
X007232Y019183D01*
X007232Y019270D02*
X006970Y019270D01*
X007232Y019609D02*
X007232Y019871D01*
X007232Y019609D02*
X006970Y019609D01*
X006970Y019871D01*
X007232Y019871D01*
X007232Y019696D02*
X006970Y019696D01*
X006970Y019783D02*
X007232Y019783D01*
X007232Y019870D02*
X006970Y019870D01*
X006532Y019871D02*
X006532Y019609D01*
X006270Y019609D01*
X006270Y019871D01*
X006532Y019871D01*
X006532Y019696D02*
X006270Y019696D01*
X006270Y019783D02*
X006532Y019783D01*
X006532Y019870D02*
X006270Y019870D01*
X006532Y019271D02*
X006532Y019009D01*
X006270Y019009D01*
X006270Y019271D01*
X006532Y019271D01*
X006532Y019096D02*
X006270Y019096D01*
X006270Y019183D02*
X006532Y019183D01*
X006532Y019270D02*
X006270Y019270D01*
X007932Y019271D02*
X007932Y019009D01*
X007670Y019009D01*
X007670Y019271D01*
X007932Y019271D01*
X007932Y019096D02*
X007670Y019096D01*
X007670Y019183D02*
X007932Y019183D01*
X007932Y019270D02*
X007670Y019270D01*
X007932Y019609D02*
X007932Y019871D01*
X007932Y019609D02*
X007670Y019609D01*
X007670Y019871D01*
X007932Y019871D01*
X007932Y019696D02*
X007670Y019696D01*
X007670Y019783D02*
X007932Y019783D01*
X007932Y019870D02*
X007670Y019870D01*
X007932Y018571D02*
X007932Y018309D01*
X007670Y018309D01*
X007670Y018571D01*
X007932Y018571D01*
X007932Y018396D02*
X007670Y018396D01*
X007670Y018483D02*
X007932Y018483D01*
X007932Y018570D02*
X007670Y018570D01*
X007932Y017971D02*
X007932Y017709D01*
X007670Y017709D01*
X007670Y017971D01*
X007932Y017971D01*
X007932Y017796D02*
X007670Y017796D01*
X007670Y017883D02*
X007932Y017883D01*
X007932Y017970D02*
X007670Y017970D01*
X007932Y017271D02*
X007932Y017009D01*
X007670Y017009D01*
X007670Y017271D01*
X007932Y017271D01*
X007932Y017096D02*
X007670Y017096D01*
X007670Y017183D02*
X007932Y017183D01*
X007932Y017270D02*
X007670Y017270D01*
X007932Y016671D02*
X007932Y016409D01*
X007670Y016409D01*
X007670Y016671D01*
X007932Y016671D01*
X007932Y016496D02*
X007670Y016496D01*
X007670Y016583D02*
X007932Y016583D01*
X007932Y016670D02*
X007670Y016670D01*
X007232Y016671D02*
X007232Y016409D01*
X006970Y016409D01*
X006970Y016671D01*
X007232Y016671D01*
X007232Y016496D02*
X006970Y016496D01*
X006970Y016583D02*
X007232Y016583D01*
X007232Y016670D02*
X006970Y016670D01*
X019832Y017809D02*
X019832Y018071D01*
X019832Y017809D02*
X019570Y017809D01*
X019570Y018071D01*
X019832Y018071D01*
X019832Y017896D02*
X019570Y017896D01*
X019570Y017983D02*
X019832Y017983D01*
X019832Y018070D02*
X019570Y018070D01*
X019832Y018409D02*
X019832Y018671D01*
X019832Y018409D02*
X019570Y018409D01*
X019570Y018671D01*
X019832Y018671D01*
X019832Y018496D02*
X019570Y018496D01*
X019570Y018583D02*
X019832Y018583D01*
X019832Y018670D02*
X019570Y018670D01*
X020532Y018671D02*
X020532Y018409D01*
X020270Y018409D01*
X020270Y018671D01*
X020532Y018671D01*
X020532Y018496D02*
X020270Y018496D01*
X020270Y018583D02*
X020532Y018583D01*
X020532Y018670D02*
X020270Y018670D01*
X020532Y018071D02*
X020532Y017809D01*
X020270Y017809D01*
X020270Y018071D01*
X020532Y018071D01*
X020532Y017896D02*
X020270Y017896D01*
X020270Y017983D02*
X020532Y017983D01*
X020532Y018070D02*
X020270Y018070D01*
X020970Y018071D02*
X020970Y017809D01*
X020970Y018071D02*
X021232Y018071D01*
X021232Y017809D01*
X020970Y017809D01*
X020970Y017896D02*
X021232Y017896D01*
X021232Y017983D02*
X020970Y017983D01*
X020970Y018070D02*
X021232Y018070D01*
X020970Y018409D02*
X020970Y018671D01*
X021232Y018671D01*
X021232Y018409D01*
X020970Y018409D01*
X020970Y018496D02*
X021232Y018496D01*
X021232Y018583D02*
X020970Y018583D01*
X020970Y018670D02*
X021232Y018670D01*
X021670Y018671D02*
X021670Y018409D01*
X021670Y018671D02*
X021932Y018671D01*
X021932Y018409D01*
X021670Y018409D01*
X021670Y018496D02*
X021932Y018496D01*
X021932Y018583D02*
X021670Y018583D01*
X021670Y018670D02*
X021932Y018670D01*
X021670Y018071D02*
X021670Y017809D01*
X021670Y018071D02*
X021932Y018071D01*
X021932Y017809D01*
X021670Y017809D01*
X021670Y017896D02*
X021932Y017896D01*
X021932Y017983D02*
X021670Y017983D01*
X021670Y018070D02*
X021932Y018070D01*
X021470Y013271D02*
X021470Y013009D01*
X021470Y013271D02*
X021732Y013271D01*
X021732Y013009D01*
X021470Y013009D01*
X021470Y013096D02*
X021732Y013096D01*
X021732Y013183D02*
X021470Y013183D01*
X021470Y013270D02*
X021732Y013270D01*
X022432Y013271D02*
X022432Y013009D01*
X022170Y013009D01*
X022170Y013271D01*
X022432Y013271D01*
X022432Y013096D02*
X022170Y013096D01*
X022170Y013183D02*
X022432Y013183D01*
X022432Y013270D02*
X022170Y013270D01*
X022432Y012671D02*
X022432Y012409D01*
X022170Y012409D01*
X022170Y012671D01*
X022432Y012671D01*
X022432Y012496D02*
X022170Y012496D01*
X022170Y012583D02*
X022432Y012583D01*
X022432Y012670D02*
X022170Y012670D01*
X021470Y012671D02*
X021470Y012409D01*
X021470Y012671D02*
X021732Y012671D01*
X021732Y012409D01*
X021470Y012409D01*
X021470Y012496D02*
X021732Y012496D01*
X021732Y012583D02*
X021470Y012583D01*
X021470Y012670D02*
X021732Y012670D01*
X021132Y009971D02*
X020870Y009971D01*
X021132Y009971D02*
X021132Y009709D01*
X020870Y009709D01*
X020870Y009971D01*
X020870Y009796D02*
X021132Y009796D01*
X021132Y009883D02*
X020870Y009883D01*
X020870Y009970D02*
X021132Y009970D01*
X020532Y009971D02*
X020270Y009971D01*
X020532Y009971D02*
X020532Y009709D01*
X020270Y009709D01*
X020270Y009971D01*
X020270Y009796D02*
X020532Y009796D01*
X020532Y009883D02*
X020270Y009883D01*
X020270Y009970D02*
X020532Y009970D01*
X019570Y009071D02*
X019570Y008809D01*
X019570Y009071D02*
X019832Y009071D01*
X019832Y008809D01*
X019570Y008809D01*
X019570Y008896D02*
X019832Y008896D01*
X019832Y008983D02*
X019570Y008983D01*
X019570Y009070D02*
X019832Y009070D01*
X019570Y008471D02*
X019570Y008209D01*
X019570Y008471D02*
X019832Y008471D01*
X019832Y008209D01*
X019570Y008209D01*
X019570Y008296D02*
X019832Y008296D01*
X019832Y008383D02*
X019570Y008383D01*
X019570Y008470D02*
X019832Y008470D01*
X019570Y007471D02*
X019570Y007209D01*
X019570Y007471D02*
X019832Y007471D01*
X019832Y007209D01*
X019570Y007209D01*
X019570Y007296D02*
X019832Y007296D01*
X019832Y007383D02*
X019570Y007383D01*
X019570Y007470D02*
X019832Y007470D01*
X019570Y006871D02*
X019570Y006609D01*
X019570Y006871D02*
X019832Y006871D01*
X019832Y006609D01*
X019570Y006609D01*
X019570Y006696D02*
X019832Y006696D01*
X019832Y006783D02*
X019570Y006783D01*
X019570Y006870D02*
X019832Y006870D01*
X020370Y006509D02*
X020632Y006509D01*
X020370Y006509D02*
X020370Y006771D01*
X020632Y006771D01*
X020632Y006509D01*
X020632Y006596D02*
X020370Y006596D01*
X020370Y006683D02*
X020632Y006683D01*
X020632Y006770D02*
X020370Y006770D01*
X020970Y006509D02*
X021232Y006509D01*
X020970Y006509D02*
X020970Y006771D01*
X021232Y006771D01*
X021232Y006509D01*
X021232Y006596D02*
X020970Y006596D01*
X020970Y006683D02*
X021232Y006683D01*
X021232Y006770D02*
X020970Y006770D01*
X022070Y006771D02*
X022332Y006771D01*
X022332Y006509D01*
X022070Y006509D01*
X022070Y006771D01*
X022070Y006596D02*
X022332Y006596D01*
X022332Y006683D02*
X022070Y006683D01*
X022070Y006770D02*
X022332Y006770D01*
X022670Y006771D02*
X022932Y006771D01*
X022932Y006509D01*
X022670Y006509D01*
X022670Y006771D01*
X022670Y006596D02*
X022932Y006596D01*
X022932Y006683D02*
X022670Y006683D01*
X022670Y006770D02*
X022932Y006770D01*
D14*
X002701Y006940D03*
X002701Y009140D03*
D15*
X010426Y009240D02*
X010426Y008940D01*
X009976Y008940D01*
X009976Y009240D01*
X010426Y009240D01*
X010426Y009039D02*
X009976Y009039D01*
X009976Y009138D02*
X010426Y009138D01*
X010426Y009237D02*
X009976Y009237D01*
X010426Y008540D02*
X010426Y008240D01*
X009976Y008240D01*
X009976Y008540D01*
X010426Y008540D01*
X010426Y008339D02*
X009976Y008339D01*
X009976Y008438D02*
X010426Y008438D01*
X010426Y008537D02*
X009976Y008537D01*
X020301Y007215D02*
X020601Y007215D01*
X020301Y007215D02*
X020301Y007665D01*
X020601Y007665D01*
X020601Y007215D01*
X020601Y007314D02*
X020301Y007314D01*
X020301Y007413D02*
X020601Y007413D01*
X020601Y007512D02*
X020301Y007512D01*
X020301Y007611D02*
X020601Y007611D01*
X021001Y007215D02*
X021301Y007215D01*
X021001Y007215D02*
X021001Y007665D01*
X021301Y007665D01*
X021301Y007215D01*
X021301Y007314D02*
X021001Y007314D01*
X021001Y007413D02*
X021301Y007413D01*
X021301Y007512D02*
X021001Y007512D01*
X021001Y007611D02*
X021301Y007611D01*
X022501Y018265D02*
X022801Y018265D01*
X022801Y017815D01*
X022501Y017815D01*
X022501Y018265D01*
X022501Y017914D02*
X022801Y017914D01*
X022801Y018013D02*
X022501Y018013D01*
X022501Y018112D02*
X022801Y018112D01*
X022801Y018211D02*
X022501Y018211D01*
X022501Y019165D02*
X022801Y019165D01*
X022801Y018715D01*
X022501Y018715D01*
X022501Y019165D01*
X022501Y018814D02*
X022801Y018814D01*
X022801Y018913D02*
X022501Y018913D01*
X022501Y019012D02*
X022801Y019012D01*
X022801Y019111D02*
X022501Y019111D01*
X023201Y019165D02*
X023501Y019165D01*
X023501Y018715D01*
X023201Y018715D01*
X023201Y019165D01*
X023201Y018814D02*
X023501Y018814D01*
X023501Y018913D02*
X023201Y018913D01*
X023201Y019012D02*
X023501Y019012D01*
X023501Y019111D02*
X023201Y019111D01*
X023201Y018265D02*
X023501Y018265D01*
X023501Y017815D01*
X023201Y017815D01*
X023201Y018265D01*
X023201Y017914D02*
X023501Y017914D01*
X023501Y018013D02*
X023201Y018013D01*
X023201Y018112D02*
X023501Y018112D01*
X023501Y018211D02*
X023201Y018211D01*
X014801Y021565D02*
X014501Y021565D01*
X014801Y021565D02*
X014801Y021115D01*
X014501Y021115D01*
X014501Y021565D01*
X014501Y021214D02*
X014801Y021214D01*
X014801Y021313D02*
X014501Y021313D01*
X014501Y021412D02*
X014801Y021412D01*
X014801Y021511D02*
X014501Y021511D01*
X014101Y021565D02*
X013801Y021565D01*
X014101Y021565D02*
X014101Y021115D01*
X013801Y021115D01*
X013801Y021565D01*
X013801Y021214D02*
X014101Y021214D01*
X014101Y021313D02*
X013801Y021313D01*
X013801Y021412D02*
X014101Y021412D01*
X014101Y021511D02*
X013801Y021511D01*
D16*
X008701Y009090D03*
D17*
X008701Y006590D03*
D18*
X006671Y007040D03*
X004931Y007040D03*
X022231Y007840D03*
X022231Y009440D03*
X023971Y009440D03*
X023971Y007840D03*
D19*
X007763Y005553D02*
X007763Y005327D01*
X007763Y005553D02*
X008039Y005553D01*
X008039Y005327D01*
X007763Y005327D01*
X007763Y005401D02*
X008039Y005401D01*
X008039Y005475D02*
X007763Y005475D01*
X007763Y005549D02*
X008039Y005549D01*
X007763Y004953D02*
X007763Y004727D01*
X007763Y004953D02*
X008039Y004953D01*
X008039Y004727D01*
X007763Y004727D01*
X007763Y004801D02*
X008039Y004801D01*
X008039Y004875D02*
X007763Y004875D01*
X007763Y004949D02*
X008039Y004949D01*
X002763Y004153D02*
X002763Y003927D01*
X002763Y004153D02*
X003039Y004153D01*
X003039Y003927D01*
X002763Y003927D01*
X002763Y004001D02*
X003039Y004001D01*
X003039Y004075D02*
X002763Y004075D01*
X002763Y004149D02*
X003039Y004149D01*
X002163Y004153D02*
X002163Y003927D01*
X002163Y004153D02*
X002439Y004153D01*
X002439Y003927D01*
X002163Y003927D01*
X002163Y004001D02*
X002439Y004001D01*
X002439Y004075D02*
X002163Y004075D01*
X002163Y004149D02*
X002439Y004149D01*
X002163Y003553D02*
X002163Y003327D01*
X002163Y003553D02*
X002439Y003553D01*
X002439Y003327D01*
X002163Y003327D01*
X002163Y003401D02*
X002439Y003401D01*
X002439Y003475D02*
X002163Y003475D01*
X002163Y003549D02*
X002439Y003549D01*
X002763Y003553D02*
X002763Y003327D01*
X002763Y003553D02*
X003039Y003553D01*
X003039Y003327D01*
X002763Y003327D01*
X002763Y003401D02*
X003039Y003401D01*
X003039Y003475D02*
X002763Y003475D01*
X002763Y003549D02*
X003039Y003549D01*
D20*
X018901Y006396D03*
X018901Y007684D03*
D21*
X004645Y015440D03*
X003357Y015440D03*
X002545Y015440D03*
X001257Y015440D03*
X003257Y020540D03*
X004545Y020540D03*
D22*
X004105Y019398D03*
X003239Y019398D03*
X002097Y019398D03*
X001349Y019398D03*
X001703Y016682D03*
X002845Y016682D03*
X003987Y016682D03*
X004853Y016682D03*
D23*
X023203Y012834D03*
D24*
X007023Y009140D03*
X004779Y009140D03*
D25*
X015901Y006990D03*
X015901Y006490D03*
D26*
X006751Y003940D03*
X005051Y003940D03*
D27*
X004501Y003140D03*
X007301Y003140D03*
D28*
X020127Y013140D03*
X020875Y013140D03*
X020501Y012340D03*
X020801Y009040D03*
X021175Y008240D03*
X020427Y008240D03*
X020475Y015940D03*
X021027Y015940D03*
X021775Y015940D03*
X021401Y016740D03*
X020101Y016740D03*
X019727Y015940D03*
D29*
X005601Y005514D03*
X005601Y004766D03*
X004801Y005140D03*
X002501Y005514D03*
X001701Y005140D03*
X002501Y004766D03*
D30*
X022401Y015965D03*
X022401Y016290D03*
X022401Y016590D03*
X022401Y016915D03*
X023001Y016915D03*
X023001Y016590D03*
X023001Y016290D03*
X023001Y015965D03*
D31*
X005251Y013390D03*
X004751Y013390D03*
X004251Y013390D03*
X003751Y013390D03*
X003751Y011290D03*
X004251Y011290D03*
X004751Y011290D03*
X005251Y011290D03*
D32*
X009177Y012190D03*
X009177Y012584D03*
X009177Y012978D03*
X009177Y013371D03*
X009177Y013765D03*
X009177Y014159D03*
X009177Y014553D03*
X009177Y014946D03*
X009177Y015340D03*
X009177Y015734D03*
X009177Y016127D03*
X009177Y016521D03*
X009177Y016915D03*
X009177Y017308D03*
X009177Y017702D03*
X009177Y018096D03*
X009177Y018490D03*
X018625Y018490D03*
X018625Y018096D03*
X018625Y017702D03*
X018625Y017308D03*
X018625Y016915D03*
X018625Y016521D03*
X018625Y016127D03*
X018625Y015734D03*
X018625Y015340D03*
X018625Y014946D03*
X018625Y014553D03*
X018625Y014159D03*
X018625Y013765D03*
X018625Y013371D03*
X018625Y012978D03*
X018625Y012584D03*
X018625Y012190D03*
D33*
X017051Y010616D03*
X016657Y010616D03*
X016263Y010616D03*
X015869Y010616D03*
X015476Y010616D03*
X015082Y010616D03*
X014688Y010616D03*
X014295Y010616D03*
X013901Y010616D03*
X013507Y010616D03*
X013114Y010616D03*
X012720Y010616D03*
X012326Y010616D03*
X011932Y010616D03*
X011539Y010616D03*
X011145Y010616D03*
X010751Y010616D03*
X010751Y020064D03*
X011145Y020064D03*
X011539Y020064D03*
X011932Y020064D03*
X012326Y020064D03*
X012720Y020064D03*
X013114Y020064D03*
X013507Y020064D03*
X013901Y020064D03*
X014295Y020064D03*
X014688Y020064D03*
X015082Y020064D03*
X015476Y020064D03*
X015869Y020064D03*
X016263Y020064D03*
X016657Y020064D03*
X017051Y020064D03*
M02*
