%
M48
M72
T01C0.0118
T02C0.0350
T03C0.0374
T04C0.0452
T05C0.0551
T06C0.0591
T07C0.1260
%
T01
X18901Y11140
X2701Y8240
X7401Y11740
X4101Y6440
X7001Y8240
X6601Y20940
X6601Y21440
X7401Y21440
X9201Y21440
X16401Y21340
X16901Y21340
X13301Y17440
X12401Y17440
X5001Y14340
X4001Y14340
X3001Y14340
X2101Y14340
X1101Y14340
X1101Y13440
X1101Y12640
X1101Y11840
X1101Y11140
X1101Y10440
X1101Y9640
X1101Y8840
X1101Y8140
X1101Y7440
X1101Y6740
X1601Y6740
X1101Y6140
X1601Y6140
X1101Y5440
X1101Y4640
X1101Y3840
X3601Y6140
X3601Y6740
X9601Y10440
X8701Y10440
X8701Y11540
X9801Y11540
X13301Y9740
X13301Y9240
X13301Y8740
X13001Y7240
X13001Y8240
X12501Y8240
X12501Y7740
X13001Y7740
X11011Y7220
X12501Y7240
X12001Y7240
X11501Y7740
X11501Y7240
X14001Y5240
X12001Y7740
X13501Y5240
X13501Y4740
X14001Y5740
X14501Y5740
X15001Y5740
X15501Y5740
X16001Y5740
X17501Y5740
X18001Y5740
X17001Y6240
X17501Y6240
X18001Y6240
X18001Y6740
X17501Y6740
X17001Y6740
X17001Y7240
X17501Y7240
X18001Y7240
X18001Y7740
X17501Y7740
X17001Y7740
X17001Y8240
X17501Y8240
X18001Y8240
X18001Y8740
X17501Y8740
X17001Y8740
X17001Y9240
X17501Y9240
X18001Y9240
X18001Y9740
X17501Y9740
X17001Y9740
X20501Y11840
X21101Y11840
X21901Y11840
X22301Y11840
X22801Y11840
X23501Y5640
X23501Y6240
X24101Y5640
X24101Y6240
X24101Y6840
X24901Y6840
X24901Y6240
X24901Y5640
X10101Y17240
X10101Y17740
X15201Y21340
X7301Y10440
X14501Y5240
X11001Y6740
X14001Y4740
X15001Y4740
X9501Y5740
X14501Y4740
X9501Y5240
X10001Y5740
X10001Y5240
X9501Y4740
X9501Y4240
X9501Y3740
X9501Y3240
X10001Y3740
X10001Y3240
X10501Y3740
X10501Y3240
X11001Y3740
X11001Y3240
X11501Y3740
X11501Y3240
X12001Y3240
X12001Y3740
X12501Y3740
X12501Y3240
X17001Y5740
X16501Y5740
X15001Y5240
X15501Y5240
X16001Y5240
X16501Y5240
X17001Y5240
X17501Y5240
X18001Y5240
X18001Y18240
X19301Y18540
X21701Y19140
X10301Y10540
X4701Y6040
X3901Y5640
X13201Y21340
X21301Y15440
X22201Y15440
X24801Y14640
X19501Y16640
X20001Y15440
X11501Y11640
X6201Y6140
X23701Y13140
X14001Y13640
X14001Y16840
X11601Y14540
X11501Y15040
X11801Y15340
X11501Y15640
X11801Y15940
X11501Y16240
X12101Y14540
X12601Y14540
X23901Y11740
X16601Y20740
X7801Y15840
X11201Y11340
X6501Y4140
X10801Y11540
X4901Y4340
X16701Y17140
X17101Y17640
X17501Y17540
X17901Y17740
X21401Y8840
X17801Y13340
X17801Y16040
X22801Y17240
X22401Y17240
X21901Y16740
X21101Y17440
X17201Y16640
X17201Y13340
X20301Y17440
X19801Y17340
X5001Y19640
X5301Y15840
T02
X25501Y16540
X25501Y17540
X25501Y18540
X25501Y19540
X25501Y20540
X25501Y21540
X24401Y21540
X24401Y20540
X24401Y19540
X24401Y18540
X24401Y17540
X24401Y16540
X26601Y8340
X26601Y9340
X26601Y10340
X26601Y11340
X25601Y11340
X25601Y10340
X25601Y9340
X25601Y8340
X22901Y21540
X21901Y21540
X20901Y21540
X20901Y20540
X21901Y20540
X22901Y20540
X25601Y22840
X24601Y22840
X23601Y22840
X22601Y22840
X21601Y22840
X20601Y22840
X19601Y22840
X18601Y22840
X17001Y22840
X16001Y22840
X15001Y22840
X14001Y22840
X13001Y22840
X12001Y22840
X11001Y22840
X10001Y22840
X20601Y3840
X21601Y3840
X22601Y3840
X23601Y3840
X24601Y3840
X25601Y3840
X18601Y3840
X17601Y3840
X16601Y3840
X15601Y3840
X14601Y3840
X13601Y3840
X25601Y14840
X26601Y13840
X26601Y12840
X25601Y12840
X25601Y13840
X26601Y14840
T03
X5448Y3340
X6354Y3340
T04
X1506Y18040
X4262Y18040
T05
X10397Y6444
X12405Y6444
X12405Y4436
X10397Y4436
X11401Y5440
T06
X10301Y15883
X10301Y18797
T07
X6601Y22840
X26601Y16840
X26601Y5840
M30
