G75*
%MOIN*%
%OFA0B0*%
%FSLAX24Y24*%
%IPPOS*%
%LPD*%
%AMOC8*
5,1,8,0,0,1.08239X$1,22.5*
%
%ADD10C,0.0030*%
%ADD11C,0.0000*%
%ADD12C,0.0050*%
%ADD13R,0.5591X0.0079*%
%ADD14C,0.0080*%
%ADD15C,0.0040*%
%ADD16R,0.0007X0.0007*%
%ADD17R,0.0324X0.0007*%
%ADD18R,0.2302X0.0007*%
%ADD19R,0.0317X0.0007*%
%ADD20R,0.2626X0.0007*%
%ADD21R,0.2619X0.0007*%
%ADD22R,0.0311X0.0007*%
%ADD23R,0.2295X0.0007*%
%ADD24R,0.0304X0.0007*%
%ADD25R,0.2289X0.0007*%
%ADD26R,0.0298X0.0007*%
%ADD27R,0.2282X0.0007*%
%ADD28R,0.0291X0.0007*%
%ADD29R,0.2275X0.0007*%
%ADD30R,0.0284X0.0007*%
%ADD31R,0.2269X0.0007*%
%ADD32R,0.0278X0.0007*%
%ADD33R,0.2262X0.0007*%
%ADD34R,0.0271X0.0007*%
%ADD35R,0.2255X0.0007*%
%ADD36R,0.0265X0.0007*%
%ADD37R,0.2249X0.0007*%
%ADD38R,0.0258X0.0007*%
%ADD39R,0.2242X0.0007*%
%ADD40R,0.0251X0.0007*%
%ADD41R,0.2236X0.0007*%
%ADD42R,0.0245X0.0007*%
%ADD43R,0.2229X0.0007*%
%ADD44R,0.2222X0.0007*%
%ADD45R,0.0231X0.0007*%
%ADD46R,0.2216X0.0007*%
%ADD47R,0.2209X0.0007*%
%ADD48R,0.0225X0.0007*%
%ADD49R,0.2203X0.0007*%
%ADD50R,0.0218X0.0007*%
%ADD51R,0.0212X0.0007*%
%ADD52R,0.2196X0.0007*%
%ADD53R,0.0205X0.0007*%
%ADD54R,0.2189X0.0007*%
%ADD55R,0.0198X0.0007*%
%ADD56R,0.2183X0.0007*%
%ADD57R,0.0192X0.0007*%
%ADD58R,0.2176X0.0007*%
%ADD59R,0.0185X0.0007*%
%ADD60R,0.2169X0.0007*%
%ADD61R,0.0179X0.0007*%
%ADD62R,0.2163X0.0007*%
%ADD63R,0.0172X0.0007*%
%ADD64R,0.2156X0.0007*%
%ADD65R,0.0165X0.0007*%
%ADD66R,0.2150X0.0007*%
%ADD67R,0.0159X0.0007*%
%ADD68R,0.2143X0.0007*%
%ADD69R,0.0152X0.0007*%
%ADD70R,0.2136X0.0007*%
%ADD71R,0.0146X0.0007*%
%ADD72R,0.2130X0.0007*%
%ADD73R,0.2123X0.0007*%
%ADD74R,0.0139X0.0007*%
%ADD75R,0.2117X0.0007*%
%ADD76R,0.0132X0.0007*%
%ADD77R,0.2110X0.0007*%
%ADD78R,0.0126X0.0007*%
%ADD79R,0.2103X0.0007*%
%ADD80R,0.0119X0.0007*%
%ADD81R,0.0112X0.0007*%
%ADD82R,0.2097X0.0007*%
%ADD83R,0.0106X0.0007*%
%ADD84R,0.2090X0.0007*%
%ADD85R,0.0099X0.0007*%
%ADD86R,0.2083X0.0007*%
%ADD87R,0.0093X0.0007*%
%ADD88R,0.2077X0.0007*%
%ADD89R,0.0086X0.0007*%
%ADD90R,0.2070X0.0007*%
%ADD91R,0.0079X0.0007*%
%ADD92R,0.2064X0.0007*%
%ADD93R,0.0073X0.0007*%
%ADD94R,0.2057X0.0007*%
%ADD95R,0.0066X0.0007*%
%ADD96R,0.2050X0.0007*%
%ADD97R,0.0060X0.0007*%
%ADD98R,0.2044X0.0007*%
%ADD99R,0.0053X0.0007*%
%ADD100R,0.2037X0.0007*%
%ADD101R,0.0046X0.0007*%
%ADD102R,0.2031X0.0007*%
%ADD103R,0.0040X0.0007*%
%ADD104R,0.2024X0.0007*%
%ADD105R,0.2017X0.0007*%
%ADD106R,0.0033X0.0007*%
%ADD107R,0.2011X0.0007*%
%ADD108R,0.0020X0.0007*%
%ADD109R,0.2004X0.0007*%
%ADD110R,0.0013X0.0007*%
%ADD111R,0.1997X0.0007*%
%ADD112R,0.1991X0.0007*%
%ADD113R,0.1984X0.0007*%
%ADD114R,0.1978X0.0007*%
%ADD115R,0.1971X0.0007*%
%ADD116R,0.1964X0.0007*%
%ADD117R,0.0026X0.0007*%
%ADD118R,0.1958X0.0007*%
%ADD119R,0.1951X0.0007*%
%ADD120R,0.1945X0.0007*%
%ADD121R,0.1938X0.0007*%
%ADD122R,0.1931X0.0007*%
%ADD123R,0.1925X0.0007*%
%ADD124R,0.1918X0.0007*%
%ADD125R,0.1911X0.0007*%
%ADD126R,0.1905X0.0007*%
%ADD127R,0.1898X0.0007*%
%ADD128R,0.1892X0.0007*%
%ADD129R,0.1885X0.0007*%
%ADD130R,0.1878X0.0007*%
%ADD131R,0.1872X0.0007*%
%ADD132R,0.1865X0.0007*%
%ADD133R,0.1859X0.0007*%
%ADD134R,0.1852X0.0007*%
%ADD135R,0.1845X0.0007*%
%ADD136R,0.1839X0.0007*%
%ADD137R,0.1832X0.0007*%
%ADD138R,0.1826X0.0007*%
%ADD139R,0.1819X0.0007*%
%ADD140R,0.1812X0.0007*%
%ADD141R,0.1806X0.0007*%
%ADD142R,0.1792X0.0007*%
%ADD143R,0.1786X0.0007*%
%ADD144R,0.1779X0.0007*%
%ADD145R,0.1773X0.0007*%
%ADD146R,0.1766X0.0007*%
%ADD147R,0.1759X0.0007*%
%ADD148R,0.1753X0.0007*%
%ADD149R,0.0238X0.0007*%
%ADD150R,0.1746X0.0007*%
%ADD151R,0.1740X0.0007*%
%ADD152R,0.1581X0.0007*%
%ADD153R,0.0556X0.0007*%
%ADD154R,0.0986X0.0007*%
%ADD155R,0.1263X0.0007*%
%ADD156R,0.0628X0.0007*%
%ADD157R,0.0410X0.0007*%
%ADD158R,0.1250X0.0007*%
%ADD159R,0.0688X0.0007*%
%ADD160R,0.0489X0.0007*%
%ADD161R,0.0992X0.0007*%
%ADD162R,0.1237X0.0007*%
%ADD163R,0.0728X0.0007*%
%ADD164R,0.0562X0.0007*%
%ADD165R,0.0999X0.0007*%
%ADD166R,0.1230X0.0007*%
%ADD167R,0.0747X0.0007*%
%ADD168R,0.0595X0.0007*%
%ADD169R,0.1005X0.0007*%
%ADD170R,0.1217X0.0007*%
%ADD171R,0.0787X0.0007*%
%ADD172R,0.0648X0.0007*%
%ADD173R,0.1012X0.0007*%
%ADD174R,0.1204X0.0007*%
%ADD175R,0.0807X0.0007*%
%ADD176R,0.1191X0.0007*%
%ADD177R,0.0827X0.0007*%
%ADD178R,0.0721X0.0007*%
%ADD179R,0.1025X0.0007*%
%ADD180R,0.1184X0.0007*%
%ADD181R,0.0847X0.0007*%
%ADD182R,0.0754X0.0007*%
%ADD183R,0.1171X0.0007*%
%ADD184R,0.0866X0.0007*%
%ADD185R,0.0780X0.0007*%
%ADD186R,0.1032X0.0007*%
%ADD187R,0.1157X0.0007*%
%ADD188R,0.0880X0.0007*%
%ADD189R,0.1038X0.0007*%
%ADD190R,0.1144X0.0007*%
%ADD191R,0.0893X0.0007*%
%ADD192R,0.0833X0.0007*%
%ADD193R,0.1045X0.0007*%
%ADD194R,0.1131X0.0007*%
%ADD195R,0.0906X0.0007*%
%ADD196R,0.0860X0.0007*%
%ADD197R,0.1052X0.0007*%
%ADD198R,0.0331X0.0007*%
%ADD199R,0.1118X0.0007*%
%ADD200R,0.0919X0.0007*%
%ADD201R,0.1058X0.0007*%
%ADD202R,0.0337X0.0007*%
%ADD203R,0.1105X0.0007*%
%ADD204R,0.0933X0.0007*%
%ADD205R,0.0900X0.0007*%
%ADD206R,0.1065X0.0007*%
%ADD207R,0.0344X0.0007*%
%ADD208R,0.1091X0.0007*%
%ADD209R,0.0946X0.0007*%
%ADD210R,0.0926X0.0007*%
%ADD211R,0.0351X0.0007*%
%ADD212R,0.1078X0.0007*%
%ADD213R,0.0952X0.0007*%
%ADD214R,0.0939X0.0007*%
%ADD215R,0.1071X0.0007*%
%ADD216R,0.0357X0.0007*%
%ADD217R,0.0966X0.0007*%
%ADD218R,0.0959X0.0007*%
%ADD219R,0.0364X0.0007*%
%ADD220R,0.0972X0.0007*%
%ADD221R,0.0979X0.0007*%
%ADD222R,0.1085X0.0007*%
%ADD223R,0.0370X0.0007*%
%ADD224R,0.1098X0.0007*%
%ADD225R,0.0377X0.0007*%
%ADD226R,0.1019X0.0007*%
%ADD227R,0.0384X0.0007*%
%ADD228R,0.1111X0.0007*%
%ADD229R,0.0390X0.0007*%
%ADD230R,0.0397X0.0007*%
%ADD231R,0.0403X0.0007*%
%ADD232R,0.1124X0.0007*%
%ADD233R,0.0417X0.0007*%
%ADD234R,0.1138X0.0007*%
%ADD235R,0.0423X0.0007*%
%ADD236R,0.0430X0.0007*%
%ADD237R,0.0437X0.0007*%
%ADD238R,0.1151X0.0007*%
%ADD239R,0.0443X0.0007*%
%ADD240R,0.0450X0.0007*%
%ADD241R,0.0642X0.0007*%
%ADD242R,0.0516X0.0007*%
%ADD243R,0.0509X0.0007*%
%ADD244R,0.0456X0.0007*%
%ADD245R,0.0503X0.0007*%
%ADD246R,0.0463X0.0007*%
%ADD247R,0.0853X0.0007*%
%ADD248R,0.0470X0.0007*%
%ADD249R,0.0840X0.0007*%
%ADD250R,0.0476X0.0007*%
%ADD251R,0.0820X0.0007*%
%ADD252R,0.0483X0.0007*%
%ADD253R,0.0794X0.0007*%
%ADD254R,0.0496X0.0007*%
%ADD255R,0.0774X0.0007*%
%ADD256R,0.0761X0.0007*%
%ADD257R,0.0523X0.0007*%
%ADD258R,0.0734X0.0007*%
%ADD259R,0.0529X0.0007*%
%ADD260R,0.0536X0.0007*%
%ADD261R,0.0708X0.0007*%
%ADD262R,0.0542X0.0007*%
%ADD263R,0.0694X0.0007*%
%ADD264R,0.0549X0.0007*%
%ADD265R,0.0681X0.0007*%
%ADD266R,0.0668X0.0007*%
%ADD267R,0.0655X0.0007*%
%ADD268R,0.0569X0.0007*%
%ADD269R,0.0575X0.0007*%
%ADD270R,0.0582X0.0007*%
%ADD271R,0.0622X0.0007*%
%ADD272R,0.0609X0.0007*%
%ADD273R,0.0589X0.0007*%
%ADD274R,0.0602X0.0007*%
%ADD275R,0.0615X0.0007*%
%ADD276R,0.0635X0.0007*%
%ADD277R,0.0661X0.0007*%
%ADD278R,0.0675X0.0007*%
%ADD279R,0.0701X0.0007*%
%ADD280R,0.0714X0.0007*%
%ADD281R,0.0767X0.0007*%
%ADD282R,0.0800X0.0007*%
%ADD283R,0.0814X0.0007*%
%ADD284R,0.0873X0.0007*%
%ADD285R,0.0886X0.0007*%
%ADD286R,0.1415X0.0007*%
%ADD287R,0.0913X0.0007*%
%ADD288R,0.1402X0.0007*%
%ADD289R,0.1396X0.0007*%
%ADD290R,0.1389X0.0007*%
%ADD291R,0.1177X0.0007*%
%ADD292R,0.1197X0.0007*%
%ADD293R,0.1210X0.0007*%
%ADD294R,0.1224X0.0007*%
%ADD295R,0.1243X0.0007*%
%ADD296R,0.1257X0.0007*%
%ADD297R,0.1270X0.0007*%
%ADD298R,0.1277X0.0007*%
%ADD299R,0.1283X0.0007*%
%ADD300R,0.1290X0.0007*%
%ADD301R,0.1296X0.0007*%
%ADD302R,0.1303X0.0007*%
%ADD303R,0.1310X0.0007*%
%ADD304R,0.1316X0.0007*%
%ADD305R,0.1323X0.0007*%
%ADD306R,0.1329X0.0007*%
%ADD307R,0.1336X0.0007*%
%ADD308R,0.1343X0.0007*%
%ADD309R,0.1349X0.0007*%
%ADD310R,0.1356X0.0007*%
%ADD311R,0.1363X0.0007*%
%ADD312R,0.0741X0.0007*%
%ADD313R,0.2851X0.0007*%
%ADD314R,0.2844X0.0007*%
%ADD315R,0.2837X0.0007*%
%ADD316R,0.2831X0.0007*%
%ADD317R,0.2824X0.0007*%
%ADD318R,0.2818X0.0007*%
%ADD319R,0.2811X0.0007*%
%ADD320R,0.2804X0.0007*%
%ADD321R,0.2798X0.0007*%
%ADD322R,0.2791X0.0007*%
%ADD323R,0.2785X0.0007*%
%ADD324R,0.2778X0.0007*%
%ADD325R,0.2771X0.0007*%
%ADD326R,0.2765X0.0007*%
%ADD327R,0.2758X0.0007*%
%ADD328R,0.2751X0.0007*%
%ADD329R,0.2745X0.0007*%
%ADD330R,0.2738X0.0007*%
%ADD331R,0.2732X0.0007*%
%ADD332R,0.2725X0.0007*%
%ADD333R,0.2718X0.0007*%
%ADD334R,0.2712X0.0007*%
%ADD335R,0.2699X0.0007*%
%ADD336R,0.2692X0.0007*%
%ADD337R,0.2685X0.0007*%
%ADD338R,0.2679X0.0007*%
%ADD339R,0.2672X0.0007*%
%ADD340R,0.2666X0.0007*%
%ADD341R,0.2652X0.0007*%
%ADD342R,0.1455X0.0007*%
%ADD343R,0.1462X0.0007*%
%ADD344R,0.1468X0.0007*%
%ADD345R,0.1475X0.0007*%
%ADD346R,0.1482X0.0007*%
%ADD347R,0.1488X0.0007*%
%ADD348R,0.1495X0.0007*%
%ADD349R,0.1501X0.0007*%
%ADD350R,0.1508X0.0007*%
%ADD351R,0.1515X0.0007*%
%ADD352R,0.1521X0.0007*%
%ADD353R,0.1528X0.0007*%
%ADD354R,0.1534X0.0007*%
%ADD355R,0.1541X0.0007*%
%ADD356R,0.1548X0.0007*%
%ADD357R,0.1554X0.0007*%
%ADD358R,0.1561X0.0007*%
%ADD359R,0.1568X0.0007*%
%ADD360R,0.1574X0.0007*%
%ADD361R,0.1587X0.0007*%
%ADD362R,0.1594X0.0007*%
%ADD363R,0.1601X0.0007*%
%ADD364R,0.1607X0.0007*%
%ADD365R,0.1614X0.0007*%
%ADD366R,0.1620X0.0007*%
%ADD367R,0.1627X0.0007*%
D10*
X006274Y005955D02*
X006274Y006140D01*
X006335Y006202D01*
X006397Y006140D01*
X006397Y005955D01*
X006521Y005955D02*
X006521Y006202D01*
X006459Y006202D01*
X006397Y006140D01*
X006642Y006140D02*
X006642Y006017D01*
X006704Y005955D01*
X006827Y005955D01*
X006889Y006017D01*
X006889Y006140D01*
X006827Y006202D01*
X006704Y006202D01*
X006642Y006140D01*
X007010Y006202D02*
X007196Y006202D01*
X007257Y006140D01*
X007257Y006017D01*
X007196Y005955D01*
X007010Y005955D01*
X007380Y005955D02*
X007441Y005955D01*
X007441Y006017D01*
X007380Y006017D01*
X007380Y005955D01*
X007563Y005955D02*
X007810Y006202D01*
X007931Y006140D02*
X007931Y006078D01*
X008178Y006078D01*
X008178Y006017D02*
X008178Y006140D01*
X008116Y006202D01*
X007993Y006202D01*
X007931Y006140D01*
X007993Y005955D02*
X008116Y005955D01*
X008178Y006017D01*
X008300Y005955D02*
X008362Y006017D01*
X008362Y006264D01*
X008424Y006202D02*
X008300Y006202D01*
X008545Y006140D02*
X008545Y005955D01*
X008545Y006140D02*
X008607Y006202D01*
X008792Y006202D01*
X008792Y005955D01*
X008913Y005955D02*
X009098Y005955D01*
X009160Y006017D01*
X009098Y006078D01*
X008913Y006078D01*
X008913Y006140D02*
X008913Y005955D01*
X008913Y006140D02*
X008975Y006202D01*
X009098Y006202D01*
X009282Y006202D02*
X009282Y005955D01*
X009467Y005955D01*
X009529Y006017D01*
X009529Y006202D01*
X009650Y006202D02*
X009835Y006202D01*
X009897Y006140D01*
X009897Y006017D01*
X009835Y005955D01*
X009650Y005955D01*
X010019Y005955D02*
X010081Y005955D01*
X010081Y006017D01*
X010019Y006017D01*
X010019Y005955D01*
X010202Y006017D02*
X010202Y006202D01*
X010202Y006017D02*
X010264Y005955D01*
X010326Y006017D01*
X010388Y005955D01*
X010449Y006017D01*
X010449Y006202D01*
X010571Y006202D02*
X010571Y006017D01*
X010632Y005955D01*
X010694Y006017D01*
X010756Y005955D01*
X010818Y006017D01*
X010818Y006202D01*
X010939Y006202D02*
X010939Y006017D01*
X011001Y005955D01*
X011063Y006017D01*
X011124Y005955D01*
X011186Y006017D01*
X011186Y006202D01*
X007810Y005955D02*
X007563Y006202D01*
X008048Y010157D02*
X008241Y010157D01*
X008439Y010205D02*
X008439Y010495D01*
X008536Y010495D02*
X008342Y010495D01*
X007947Y010495D02*
X007947Y010205D01*
X007753Y010205D01*
X007652Y010205D02*
X007458Y010495D01*
X007357Y010495D02*
X007164Y010495D01*
X007261Y010495D02*
X007261Y010205D01*
X007458Y010205D02*
X007652Y010495D01*
X007753Y010495D02*
X007947Y010495D01*
X007947Y010350D02*
X007850Y010350D01*
X006239Y011505D02*
X006239Y011795D01*
X006336Y011795D02*
X006142Y011795D01*
X006041Y011457D02*
X005848Y011457D01*
X005747Y011650D02*
X005553Y011650D01*
X005452Y011553D02*
X005404Y011553D01*
X005404Y011505D01*
X005452Y011505D01*
X005452Y011553D01*
X005305Y011505D02*
X005111Y011505D01*
X005208Y011505D02*
X005208Y011795D01*
X005305Y011698D01*
X005602Y011795D02*
X005602Y011505D01*
X005747Y011650D02*
X005602Y011795D01*
X005010Y011795D02*
X005010Y011602D01*
X004913Y011505D01*
X004817Y011602D01*
X004817Y011795D01*
X004716Y012555D02*
X004778Y012617D01*
X004778Y012740D01*
X004716Y012802D01*
X004593Y012802D01*
X004531Y012740D01*
X004531Y012678D01*
X004778Y012678D01*
X004716Y012555D02*
X004593Y012555D01*
X004410Y012555D02*
X004410Y012802D01*
X004225Y012802D01*
X004163Y012740D01*
X004163Y012555D01*
X003673Y012555D02*
X003673Y012925D01*
X003550Y012802D01*
X003426Y012925D01*
X003426Y012555D01*
X003305Y012617D02*
X003305Y012740D01*
X003243Y012802D01*
X003120Y012802D01*
X003058Y012740D01*
X003058Y012678D01*
X003305Y012678D01*
X003305Y012617D02*
X003243Y012555D01*
X003120Y012555D01*
X002936Y012555D02*
X002690Y012802D01*
X002568Y012802D02*
X002506Y012802D01*
X002506Y012555D01*
X002445Y012555D02*
X002568Y012555D01*
X002690Y012555D02*
X002936Y012802D01*
X003120Y012987D02*
X003243Y012925D01*
X003305Y013255D02*
X003120Y013255D01*
X003058Y013317D01*
X003120Y013378D01*
X003243Y013378D01*
X003305Y013440D01*
X003243Y013502D01*
X003058Y013502D01*
X002875Y013502D02*
X002751Y013502D01*
X002690Y013440D01*
X002690Y013255D01*
X002875Y013255D01*
X002936Y013317D01*
X002875Y013378D01*
X002690Y013378D01*
X002568Y013255D02*
X002568Y013502D01*
X002506Y013502D01*
X002445Y013440D01*
X002383Y013502D01*
X002321Y013440D01*
X002321Y013255D01*
X002200Y013255D02*
X002076Y013255D01*
X002138Y013255D02*
X002138Y013625D01*
X002200Y013625D01*
X002445Y013440D02*
X002445Y013255D01*
X002506Y012987D02*
X002506Y012925D01*
X002323Y012740D02*
X002323Y012617D01*
X002261Y012555D01*
X002076Y012555D01*
X001954Y012617D02*
X001893Y012555D01*
X001769Y012555D01*
X001707Y012617D01*
X001707Y012740D01*
X001769Y012802D01*
X001893Y012802D01*
X001954Y012740D01*
X001954Y012617D01*
X002076Y012802D02*
X002261Y012802D01*
X002323Y012740D01*
X001893Y013255D02*
X001954Y013317D01*
X001954Y013440D01*
X001893Y013502D01*
X001769Y013502D01*
X001707Y013440D01*
X001707Y013378D01*
X001954Y013378D01*
X001893Y013255D02*
X001769Y013255D01*
X003426Y013255D02*
X003426Y013440D01*
X003488Y013502D01*
X003673Y013502D01*
X003673Y013255D01*
X003794Y013255D02*
X004041Y013255D01*
X004041Y013625D01*
X003794Y013625D01*
X003918Y013440D02*
X004041Y013440D01*
X004531Y013625D02*
X004778Y013255D01*
X005268Y013317D02*
X005268Y013440D01*
X005329Y013502D01*
X005453Y013502D01*
X005515Y013440D01*
X005515Y013317D01*
X005453Y013255D01*
X005329Y013255D01*
X005268Y013317D01*
X005636Y013255D02*
X005636Y013440D01*
X005698Y013502D01*
X005883Y013502D01*
X005883Y013255D01*
X006004Y013378D02*
X006251Y013378D01*
X006251Y013317D02*
X006251Y013440D01*
X006190Y013502D01*
X006066Y013502D01*
X006004Y013440D01*
X006004Y013378D01*
X006066Y013255D02*
X006190Y013255D01*
X006251Y013317D01*
X006373Y013317D02*
X006434Y013378D01*
X006558Y013378D01*
X006620Y013440D01*
X006558Y013502D01*
X006373Y013502D01*
X006373Y013317D02*
X006434Y013255D01*
X006620Y013255D01*
X006742Y013255D02*
X006865Y013255D01*
X006803Y013255D02*
X006803Y013502D01*
X006865Y013502D01*
X006987Y013564D02*
X006987Y013317D01*
X007048Y013255D01*
X007233Y013255D01*
X007233Y013625D01*
X007048Y013625D01*
X006987Y013564D01*
X006803Y013625D02*
X006803Y013687D01*
X005883Y013625D02*
X005821Y013687D01*
X005698Y013687D01*
X005636Y013749D01*
X011187Y013985D02*
X011381Y013985D01*
X011284Y013985D02*
X011284Y014275D01*
X011381Y014178D01*
X011482Y014275D02*
X011578Y014275D01*
X011530Y014275D02*
X011530Y014033D01*
X011578Y013985D01*
X011627Y013985D01*
X011675Y014033D01*
X016658Y020005D02*
X016658Y020198D01*
X016755Y020295D01*
X016852Y020198D01*
X016852Y020005D01*
X016852Y020150D02*
X016658Y020150D01*
X016953Y020295D02*
X017147Y020295D01*
X017050Y020295D02*
X017050Y020005D01*
X017248Y020005D02*
X017248Y020198D01*
X017345Y020295D01*
X017441Y020198D01*
X017441Y020005D01*
X017542Y020053D02*
X017542Y020247D01*
X017591Y020295D01*
X017736Y020295D01*
X017736Y020005D01*
X017591Y020005D01*
X017542Y020053D01*
X017441Y020150D02*
X017248Y020150D01*
X018553Y020053D02*
X018602Y020005D01*
X018698Y020005D01*
X018747Y020053D01*
X018747Y020247D01*
X018698Y020295D01*
X018602Y020295D01*
X018553Y020247D01*
X018848Y020295D02*
X019041Y020005D01*
X019142Y020053D02*
X019142Y020247D01*
X019191Y020295D01*
X019336Y020295D01*
X019336Y020005D01*
X019191Y020005D01*
X019142Y020053D01*
X019088Y021905D02*
X018991Y021905D01*
X018942Y021953D01*
X018841Y021953D02*
X018793Y021905D01*
X018696Y021905D01*
X018648Y021953D01*
X018648Y022002D01*
X018696Y022050D01*
X018793Y022050D01*
X018841Y022098D01*
X018841Y022147D01*
X018793Y022195D01*
X018696Y022195D01*
X018648Y022147D01*
X018942Y022147D02*
X018991Y022195D01*
X019088Y022195D01*
X019136Y022147D01*
X019136Y021953D01*
X019088Y021905D01*
X017536Y021953D02*
X017488Y021905D01*
X017391Y021905D01*
X017342Y021953D01*
X017241Y021905D02*
X017241Y022195D01*
X017342Y022147D02*
X017391Y022195D01*
X017488Y022195D01*
X017536Y022147D01*
X017536Y021953D01*
X017241Y021905D02*
X017048Y021905D01*
X016947Y021905D02*
X016947Y022195D01*
X016898Y022050D02*
X016753Y021905D01*
X016947Y022002D02*
X016753Y022195D01*
X004486Y023155D02*
X004486Y023525D01*
X004301Y023525D01*
X004239Y023464D01*
X004239Y023340D01*
X004301Y023278D01*
X004486Y023278D01*
X004363Y023278D02*
X004239Y023155D01*
X004118Y023217D02*
X004118Y023464D01*
X004056Y023525D01*
X003932Y023525D01*
X003871Y023464D01*
X003871Y023340D02*
X003994Y023340D01*
X003871Y023340D02*
X003871Y023217D01*
X003932Y023155D01*
X004056Y023155D01*
X004118Y023217D01*
X003749Y023278D02*
X003564Y023278D01*
X003502Y023340D01*
X003502Y023464D01*
X003564Y023525D01*
X003749Y023525D01*
X003749Y023155D01*
X003381Y023155D02*
X003381Y023525D01*
X003196Y023525D01*
X003134Y023464D01*
X003134Y023340D01*
X003196Y023278D01*
X003381Y023278D01*
X003258Y023278D02*
X003134Y023155D01*
X003013Y023217D02*
X003013Y023464D01*
X002951Y023525D01*
X002828Y023525D01*
X002766Y023464D01*
X003013Y023217D01*
X002951Y023155D01*
X002828Y023155D01*
X002766Y023217D01*
X002766Y023464D01*
X002644Y023464D02*
X002644Y023402D01*
X002583Y023340D01*
X002397Y023340D01*
X002397Y023217D02*
X002397Y023464D01*
X002459Y023525D01*
X002583Y023525D01*
X002644Y023464D01*
X002644Y023217D02*
X002583Y023155D01*
X002459Y023155D01*
X002397Y023217D01*
X002276Y023217D02*
X002029Y023464D01*
X002029Y023217D01*
X002091Y023155D01*
X002214Y023155D01*
X002276Y023217D01*
X002276Y023464D01*
X002214Y023525D01*
X002091Y023525D01*
X002029Y023464D01*
X001908Y023464D02*
X001908Y023217D01*
X001661Y023464D01*
X001661Y023217D01*
X001723Y023155D01*
X001846Y023155D01*
X001908Y023217D01*
X001908Y023464D02*
X001846Y023525D01*
X001723Y023525D01*
X001661Y023464D01*
D11*
X001001Y002840D02*
X026601Y002840D01*
X026601Y003840D01*
X027601Y004840D01*
X027601Y017740D01*
X026601Y018740D01*
X026601Y023240D01*
X026001Y023840D01*
X001001Y023840D01*
X000962Y023838D01*
X000923Y023832D01*
X000885Y023823D01*
X000848Y023810D01*
X000812Y023793D01*
X000779Y023773D01*
X000747Y023749D01*
X000718Y023723D01*
X000692Y023694D01*
X000668Y023662D01*
X000648Y023629D01*
X000631Y023593D01*
X000618Y023556D01*
X000609Y023518D01*
X000603Y023479D01*
X000601Y023440D01*
X000601Y003240D01*
X000603Y003201D01*
X000609Y003162D01*
X000618Y003124D01*
X000631Y003087D01*
X000648Y003051D01*
X000668Y003018D01*
X000692Y002986D01*
X000718Y002957D01*
X000747Y002931D01*
X000779Y002907D01*
X000812Y002887D01*
X000848Y002870D01*
X000885Y002857D01*
X000923Y002848D01*
X000962Y002842D01*
X001001Y002840D01*
X005261Y003340D02*
X005263Y003367D01*
X005269Y003393D01*
X005278Y003418D01*
X005291Y003441D01*
X005307Y003462D01*
X005326Y003481D01*
X005347Y003497D01*
X005370Y003510D01*
X005395Y003519D01*
X005421Y003525D01*
X005448Y003527D01*
X005475Y003525D01*
X005501Y003519D01*
X005526Y003510D01*
X005549Y003497D01*
X005570Y003481D01*
X005589Y003462D01*
X005605Y003441D01*
X005618Y003418D01*
X005627Y003393D01*
X005633Y003367D01*
X005635Y003340D01*
X005633Y003313D01*
X005627Y003287D01*
X005618Y003262D01*
X005605Y003239D01*
X005589Y003218D01*
X005570Y003199D01*
X005549Y003183D01*
X005526Y003170D01*
X005501Y003161D01*
X005475Y003155D01*
X005448Y003153D01*
X005421Y003155D01*
X005395Y003161D01*
X005370Y003170D01*
X005347Y003183D01*
X005326Y003199D01*
X005307Y003218D01*
X005291Y003239D01*
X005278Y003262D01*
X005269Y003287D01*
X005263Y003313D01*
X005261Y003340D01*
X006167Y003340D02*
X006169Y003367D01*
X006175Y003393D01*
X006184Y003418D01*
X006197Y003441D01*
X006213Y003462D01*
X006232Y003481D01*
X006253Y003497D01*
X006276Y003510D01*
X006301Y003519D01*
X006327Y003525D01*
X006354Y003527D01*
X006381Y003525D01*
X006407Y003519D01*
X006432Y003510D01*
X006455Y003497D01*
X006476Y003481D01*
X006495Y003462D01*
X006511Y003441D01*
X006524Y003418D01*
X006533Y003393D01*
X006539Y003367D01*
X006541Y003340D01*
X006539Y003313D01*
X006533Y003287D01*
X006524Y003262D01*
X006511Y003239D01*
X006495Y003218D01*
X006476Y003199D01*
X006455Y003183D01*
X006432Y003170D01*
X006407Y003161D01*
X006381Y003155D01*
X006354Y003153D01*
X006327Y003155D01*
X006301Y003161D01*
X006276Y003170D01*
X006253Y003183D01*
X006232Y003199D01*
X006213Y003218D01*
X006197Y003239D01*
X006184Y003262D01*
X006175Y003287D01*
X006169Y003313D01*
X006167Y003340D01*
X010006Y015883D02*
X010008Y015917D01*
X010014Y015951D01*
X010024Y015984D01*
X010037Y016015D01*
X010055Y016045D01*
X010075Y016073D01*
X010099Y016098D01*
X010125Y016120D01*
X010153Y016138D01*
X010184Y016154D01*
X010216Y016166D01*
X010250Y016174D01*
X010284Y016178D01*
X010318Y016178D01*
X010352Y016174D01*
X010386Y016166D01*
X010418Y016154D01*
X010448Y016138D01*
X010477Y016120D01*
X010503Y016098D01*
X010527Y016073D01*
X010547Y016045D01*
X010565Y016015D01*
X010578Y015984D01*
X010588Y015951D01*
X010594Y015917D01*
X010596Y015883D01*
X010594Y015849D01*
X010588Y015815D01*
X010578Y015782D01*
X010565Y015751D01*
X010547Y015721D01*
X010527Y015693D01*
X010503Y015668D01*
X010477Y015646D01*
X010449Y015628D01*
X010418Y015612D01*
X010386Y015600D01*
X010352Y015592D01*
X010318Y015588D01*
X010284Y015588D01*
X010250Y015592D01*
X010216Y015600D01*
X010184Y015612D01*
X010153Y015628D01*
X010125Y015646D01*
X010099Y015668D01*
X010075Y015693D01*
X010055Y015721D01*
X010037Y015751D01*
X010024Y015782D01*
X010014Y015815D01*
X010008Y015849D01*
X010006Y015883D01*
X010006Y018797D02*
X010008Y018831D01*
X010014Y018865D01*
X010024Y018898D01*
X010037Y018929D01*
X010055Y018959D01*
X010075Y018987D01*
X010099Y019012D01*
X010125Y019034D01*
X010153Y019052D01*
X010184Y019068D01*
X010216Y019080D01*
X010250Y019088D01*
X010284Y019092D01*
X010318Y019092D01*
X010352Y019088D01*
X010386Y019080D01*
X010418Y019068D01*
X010448Y019052D01*
X010477Y019034D01*
X010503Y019012D01*
X010527Y018987D01*
X010547Y018959D01*
X010565Y018929D01*
X010578Y018898D01*
X010588Y018865D01*
X010594Y018831D01*
X010596Y018797D01*
X010594Y018763D01*
X010588Y018729D01*
X010578Y018696D01*
X010565Y018665D01*
X010547Y018635D01*
X010527Y018607D01*
X010503Y018582D01*
X010477Y018560D01*
X010449Y018542D01*
X010418Y018526D01*
X010386Y018514D01*
X010352Y018506D01*
X010318Y018502D01*
X010284Y018502D01*
X010250Y018506D01*
X010216Y018514D01*
X010184Y018526D01*
X010153Y018542D01*
X010125Y018560D01*
X010099Y018582D01*
X010075Y018607D01*
X010055Y018635D01*
X010037Y018665D01*
X010024Y018696D01*
X010014Y018729D01*
X010008Y018763D01*
X010006Y018797D01*
X005971Y022840D02*
X005973Y022890D01*
X005979Y022940D01*
X005989Y022989D01*
X006003Y023037D01*
X006020Y023084D01*
X006041Y023129D01*
X006066Y023173D01*
X006094Y023214D01*
X006126Y023253D01*
X006160Y023290D01*
X006197Y023324D01*
X006237Y023354D01*
X006279Y023381D01*
X006323Y023405D01*
X006369Y023426D01*
X006416Y023442D01*
X006464Y023455D01*
X006514Y023464D01*
X006563Y023469D01*
X006614Y023470D01*
X006664Y023467D01*
X006713Y023460D01*
X006762Y023449D01*
X006810Y023434D01*
X006856Y023416D01*
X006901Y023394D01*
X006944Y023368D01*
X006985Y023339D01*
X007024Y023307D01*
X007060Y023272D01*
X007092Y023234D01*
X007122Y023194D01*
X007149Y023151D01*
X007172Y023107D01*
X007191Y023061D01*
X007207Y023013D01*
X007219Y022964D01*
X007227Y022915D01*
X007231Y022865D01*
X007231Y022815D01*
X007227Y022765D01*
X007219Y022716D01*
X007207Y022667D01*
X007191Y022619D01*
X007172Y022573D01*
X007149Y022529D01*
X007122Y022486D01*
X007092Y022446D01*
X007060Y022408D01*
X007024Y022373D01*
X006985Y022341D01*
X006944Y022312D01*
X006901Y022286D01*
X006856Y022264D01*
X006810Y022246D01*
X006762Y022231D01*
X006713Y022220D01*
X006664Y022213D01*
X006614Y022210D01*
X006563Y022211D01*
X006514Y022216D01*
X006464Y022225D01*
X006416Y022238D01*
X006369Y022254D01*
X006323Y022275D01*
X006279Y022299D01*
X006237Y022326D01*
X006197Y022356D01*
X006160Y022390D01*
X006126Y022427D01*
X006094Y022466D01*
X006066Y022507D01*
X006041Y022551D01*
X006020Y022596D01*
X006003Y022643D01*
X005989Y022691D01*
X005979Y022740D01*
X005973Y022790D01*
X005971Y022840D01*
X004036Y018040D02*
X004038Y018069D01*
X004044Y018098D01*
X004053Y018126D01*
X004066Y018153D01*
X004083Y018178D01*
X004102Y018200D01*
X004124Y018219D01*
X004149Y018236D01*
X004176Y018249D01*
X004204Y018258D01*
X004233Y018264D01*
X004262Y018266D01*
X004291Y018264D01*
X004320Y018258D01*
X004348Y018249D01*
X004375Y018236D01*
X004400Y018219D01*
X004422Y018200D01*
X004441Y018178D01*
X004458Y018153D01*
X004471Y018126D01*
X004480Y018098D01*
X004486Y018069D01*
X004488Y018040D01*
X004486Y018011D01*
X004480Y017982D01*
X004471Y017954D01*
X004458Y017927D01*
X004441Y017902D01*
X004422Y017880D01*
X004400Y017861D01*
X004375Y017844D01*
X004348Y017831D01*
X004320Y017822D01*
X004291Y017816D01*
X004262Y017814D01*
X004233Y017816D01*
X004204Y017822D01*
X004176Y017831D01*
X004149Y017844D01*
X004124Y017861D01*
X004102Y017880D01*
X004083Y017902D01*
X004066Y017927D01*
X004053Y017954D01*
X004044Y017982D01*
X004038Y018011D01*
X004036Y018040D01*
X001280Y018040D02*
X001282Y018069D01*
X001288Y018098D01*
X001297Y018126D01*
X001310Y018153D01*
X001327Y018178D01*
X001346Y018200D01*
X001368Y018219D01*
X001393Y018236D01*
X001420Y018249D01*
X001448Y018258D01*
X001477Y018264D01*
X001506Y018266D01*
X001535Y018264D01*
X001564Y018258D01*
X001592Y018249D01*
X001619Y018236D01*
X001644Y018219D01*
X001666Y018200D01*
X001685Y018178D01*
X001702Y018153D01*
X001715Y018126D01*
X001724Y018098D01*
X001730Y018069D01*
X001732Y018040D01*
X001730Y018011D01*
X001724Y017982D01*
X001715Y017954D01*
X001702Y017927D01*
X001685Y017902D01*
X001666Y017880D01*
X001644Y017861D01*
X001619Y017844D01*
X001592Y017831D01*
X001564Y017822D01*
X001535Y017816D01*
X001506Y017814D01*
X001477Y017816D01*
X001448Y017822D01*
X001420Y017831D01*
X001393Y017844D01*
X001368Y017861D01*
X001346Y017880D01*
X001327Y017902D01*
X001310Y017927D01*
X001297Y017954D01*
X001288Y017982D01*
X001282Y018011D01*
X001280Y018040D01*
X025971Y016840D02*
X025973Y016890D01*
X025979Y016940D01*
X025989Y016989D01*
X026003Y017037D01*
X026020Y017084D01*
X026041Y017129D01*
X026066Y017173D01*
X026094Y017214D01*
X026126Y017253D01*
X026160Y017290D01*
X026197Y017324D01*
X026237Y017354D01*
X026279Y017381D01*
X026323Y017405D01*
X026369Y017426D01*
X026416Y017442D01*
X026464Y017455D01*
X026514Y017464D01*
X026563Y017469D01*
X026614Y017470D01*
X026664Y017467D01*
X026713Y017460D01*
X026762Y017449D01*
X026810Y017434D01*
X026856Y017416D01*
X026901Y017394D01*
X026944Y017368D01*
X026985Y017339D01*
X027024Y017307D01*
X027060Y017272D01*
X027092Y017234D01*
X027122Y017194D01*
X027149Y017151D01*
X027172Y017107D01*
X027191Y017061D01*
X027207Y017013D01*
X027219Y016964D01*
X027227Y016915D01*
X027231Y016865D01*
X027231Y016815D01*
X027227Y016765D01*
X027219Y016716D01*
X027207Y016667D01*
X027191Y016619D01*
X027172Y016573D01*
X027149Y016529D01*
X027122Y016486D01*
X027092Y016446D01*
X027060Y016408D01*
X027024Y016373D01*
X026985Y016341D01*
X026944Y016312D01*
X026901Y016286D01*
X026856Y016264D01*
X026810Y016246D01*
X026762Y016231D01*
X026713Y016220D01*
X026664Y016213D01*
X026614Y016210D01*
X026563Y016211D01*
X026514Y016216D01*
X026464Y016225D01*
X026416Y016238D01*
X026369Y016254D01*
X026323Y016275D01*
X026279Y016299D01*
X026237Y016326D01*
X026197Y016356D01*
X026160Y016390D01*
X026126Y016427D01*
X026094Y016466D01*
X026066Y016507D01*
X026041Y016551D01*
X026020Y016596D01*
X026003Y016643D01*
X025989Y016691D01*
X025979Y016740D01*
X025973Y016790D01*
X025971Y016840D01*
X025971Y005840D02*
X025973Y005890D01*
X025979Y005940D01*
X025989Y005989D01*
X026003Y006037D01*
X026020Y006084D01*
X026041Y006129D01*
X026066Y006173D01*
X026094Y006214D01*
X026126Y006253D01*
X026160Y006290D01*
X026197Y006324D01*
X026237Y006354D01*
X026279Y006381D01*
X026323Y006405D01*
X026369Y006426D01*
X026416Y006442D01*
X026464Y006455D01*
X026514Y006464D01*
X026563Y006469D01*
X026614Y006470D01*
X026664Y006467D01*
X026713Y006460D01*
X026762Y006449D01*
X026810Y006434D01*
X026856Y006416D01*
X026901Y006394D01*
X026944Y006368D01*
X026985Y006339D01*
X027024Y006307D01*
X027060Y006272D01*
X027092Y006234D01*
X027122Y006194D01*
X027149Y006151D01*
X027172Y006107D01*
X027191Y006061D01*
X027207Y006013D01*
X027219Y005964D01*
X027227Y005915D01*
X027231Y005865D01*
X027231Y005815D01*
X027227Y005765D01*
X027219Y005716D01*
X027207Y005667D01*
X027191Y005619D01*
X027172Y005573D01*
X027149Y005529D01*
X027122Y005486D01*
X027092Y005446D01*
X027060Y005408D01*
X027024Y005373D01*
X026985Y005341D01*
X026944Y005312D01*
X026901Y005286D01*
X026856Y005264D01*
X026810Y005246D01*
X026762Y005231D01*
X026713Y005220D01*
X026664Y005213D01*
X026614Y005210D01*
X026563Y005211D01*
X026514Y005216D01*
X026464Y005225D01*
X026416Y005238D01*
X026369Y005254D01*
X026323Y005275D01*
X026279Y005299D01*
X026237Y005326D01*
X026197Y005356D01*
X026160Y005390D01*
X026126Y005427D01*
X026094Y005466D01*
X026066Y005507D01*
X026041Y005551D01*
X026020Y005596D01*
X026003Y005643D01*
X025989Y005691D01*
X025979Y005740D01*
X025973Y005790D01*
X025971Y005840D01*
D12*
X013096Y019269D02*
X013096Y020450D01*
X007506Y020450D01*
X007506Y019269D01*
X013096Y019269D01*
X007388Y017340D02*
X007390Y017448D01*
X007396Y017555D01*
X007406Y017662D01*
X007420Y017769D01*
X007438Y017875D01*
X007459Y017981D01*
X007485Y018085D01*
X007514Y018189D01*
X007548Y018291D01*
X007585Y018392D01*
X007625Y018492D01*
X007670Y018590D01*
X007718Y018686D01*
X007769Y018781D01*
X007824Y018873D01*
X007883Y018964D01*
X007944Y019052D01*
X008009Y019138D01*
X008077Y019222D01*
X008148Y019302D01*
X008222Y019381D01*
X008299Y019456D01*
X008379Y019529D01*
X008461Y019598D01*
X008546Y019665D01*
X008633Y019728D01*
X008722Y019788D01*
X008814Y019845D01*
X008907Y019898D01*
X009003Y019948D01*
X009100Y019994D01*
X009199Y020036D01*
X009299Y020075D01*
X009401Y020110D01*
X009504Y020142D01*
X009608Y020169D01*
X009713Y020193D01*
X009819Y020213D01*
X009925Y020229D01*
X010032Y020241D01*
X010140Y020249D01*
X010247Y020253D01*
X010355Y020253D01*
X010462Y020249D01*
X010570Y020241D01*
X010677Y020229D01*
X010783Y020213D01*
X010889Y020193D01*
X010994Y020169D01*
X011098Y020142D01*
X011201Y020110D01*
X011303Y020075D01*
X011403Y020036D01*
X011502Y019994D01*
X011599Y019948D01*
X011695Y019898D01*
X011788Y019845D01*
X011880Y019788D01*
X011969Y019728D01*
X012056Y019665D01*
X012141Y019598D01*
X012223Y019529D01*
X012303Y019456D01*
X012380Y019381D01*
X012454Y019302D01*
X012525Y019222D01*
X012593Y019138D01*
X012658Y019052D01*
X012719Y018964D01*
X012778Y018873D01*
X012833Y018781D01*
X012884Y018686D01*
X012932Y018590D01*
X012977Y018492D01*
X013017Y018392D01*
X013054Y018291D01*
X013088Y018189D01*
X013117Y018085D01*
X013143Y017981D01*
X013164Y017875D01*
X013182Y017769D01*
X013196Y017662D01*
X013206Y017555D01*
X013212Y017448D01*
X013214Y017340D01*
X013212Y017232D01*
X013206Y017125D01*
X013196Y017018D01*
X013182Y016911D01*
X013164Y016805D01*
X013143Y016699D01*
X013117Y016595D01*
X013088Y016491D01*
X013054Y016389D01*
X013017Y016288D01*
X012977Y016188D01*
X012932Y016090D01*
X012884Y015994D01*
X012833Y015899D01*
X012778Y015807D01*
X012719Y015716D01*
X012658Y015628D01*
X012593Y015542D01*
X012525Y015458D01*
X012454Y015378D01*
X012380Y015299D01*
X012303Y015224D01*
X012223Y015151D01*
X012141Y015082D01*
X012056Y015015D01*
X011969Y014952D01*
X011880Y014892D01*
X011788Y014835D01*
X011695Y014782D01*
X011599Y014732D01*
X011502Y014686D01*
X011403Y014644D01*
X011303Y014605D01*
X011201Y014570D01*
X011098Y014538D01*
X010994Y014511D01*
X010889Y014487D01*
X010783Y014467D01*
X010677Y014451D01*
X010570Y014439D01*
X010462Y014431D01*
X010355Y014427D01*
X010247Y014427D01*
X010140Y014431D01*
X010032Y014439D01*
X009925Y014451D01*
X009819Y014467D01*
X009713Y014487D01*
X009608Y014511D01*
X009504Y014538D01*
X009401Y014570D01*
X009299Y014605D01*
X009199Y014644D01*
X009100Y014686D01*
X009003Y014732D01*
X008907Y014782D01*
X008814Y014835D01*
X008722Y014892D01*
X008633Y014952D01*
X008546Y015015D01*
X008461Y015082D01*
X008379Y015151D01*
X008299Y015224D01*
X008222Y015299D01*
X008148Y015378D01*
X008077Y015458D01*
X008009Y015542D01*
X007944Y015628D01*
X007883Y015716D01*
X007824Y015807D01*
X007769Y015899D01*
X007718Y015994D01*
X007670Y016090D01*
X007625Y016188D01*
X007585Y016288D01*
X007548Y016389D01*
X007514Y016491D01*
X007485Y016595D01*
X007459Y016699D01*
X007438Y016805D01*
X007420Y016911D01*
X007406Y017018D01*
X007396Y017125D01*
X007390Y017232D01*
X007388Y017340D01*
X006417Y016444D02*
X006417Y019515D01*
X005512Y020184D02*
X000709Y020184D01*
X000709Y015775D01*
X005512Y015775D01*
X006501Y011740D02*
X006503Y011774D01*
X006509Y011808D01*
X006518Y011841D01*
X006532Y011872D01*
X006549Y011902D01*
X006569Y011930D01*
X006592Y011955D01*
X006618Y011978D01*
X006646Y011997D01*
X006676Y012013D01*
X006708Y012025D01*
X006741Y012034D01*
X006775Y012039D01*
X006810Y012040D01*
X006844Y012037D01*
X006877Y012030D01*
X006910Y012020D01*
X006941Y012005D01*
X006970Y011988D01*
X006997Y011967D01*
X007022Y011943D01*
X007044Y011916D01*
X007062Y011888D01*
X007077Y011857D01*
X007089Y011825D01*
X007097Y011791D01*
X007101Y011757D01*
X007101Y011723D01*
X007097Y011689D01*
X007089Y011655D01*
X007077Y011623D01*
X007062Y011592D01*
X007044Y011564D01*
X007022Y011537D01*
X006997Y011513D01*
X006970Y011492D01*
X006941Y011475D01*
X006910Y011460D01*
X006877Y011450D01*
X006844Y011443D01*
X006810Y011440D01*
X006775Y011441D01*
X006741Y011446D01*
X006708Y011455D01*
X006676Y011467D01*
X006646Y011483D01*
X006618Y011502D01*
X006592Y011525D01*
X006569Y011550D01*
X006549Y011578D01*
X006532Y011608D01*
X006518Y011639D01*
X006509Y011672D01*
X006503Y011706D01*
X006501Y011740D01*
X007701Y010940D02*
X007703Y010974D01*
X007709Y011008D01*
X007718Y011041D01*
X007732Y011072D01*
X007749Y011102D01*
X007769Y011130D01*
X007792Y011155D01*
X007818Y011178D01*
X007846Y011197D01*
X007876Y011213D01*
X007908Y011225D01*
X007941Y011234D01*
X007975Y011239D01*
X008010Y011240D01*
X008044Y011237D01*
X008077Y011230D01*
X008110Y011220D01*
X008141Y011205D01*
X008170Y011188D01*
X008197Y011167D01*
X008222Y011143D01*
X008244Y011116D01*
X008262Y011088D01*
X008277Y011057D01*
X008289Y011025D01*
X008297Y010991D01*
X008301Y010957D01*
X008301Y010923D01*
X008297Y010889D01*
X008289Y010855D01*
X008277Y010823D01*
X008262Y010792D01*
X008244Y010764D01*
X008222Y010737D01*
X008197Y010713D01*
X008170Y010692D01*
X008141Y010675D01*
X008110Y010660D01*
X008077Y010650D01*
X008044Y010643D01*
X008010Y010640D01*
X007975Y010641D01*
X007941Y010646D01*
X007908Y010655D01*
X007876Y010667D01*
X007846Y010683D01*
X007818Y010702D01*
X007792Y010725D01*
X007769Y010750D01*
X007749Y010778D01*
X007732Y010808D01*
X007718Y010839D01*
X007709Y010872D01*
X007703Y010906D01*
X007701Y010940D01*
X017401Y020740D02*
X017403Y020774D01*
X017409Y020808D01*
X017418Y020841D01*
X017432Y020872D01*
X017449Y020902D01*
X017469Y020930D01*
X017492Y020955D01*
X017518Y020978D01*
X017546Y020997D01*
X017576Y021013D01*
X017608Y021025D01*
X017641Y021034D01*
X017675Y021039D01*
X017710Y021040D01*
X017744Y021037D01*
X017777Y021030D01*
X017810Y021020D01*
X017841Y021005D01*
X017870Y020988D01*
X017897Y020967D01*
X017922Y020943D01*
X017944Y020916D01*
X017962Y020888D01*
X017977Y020857D01*
X017989Y020825D01*
X017997Y020791D01*
X018001Y020757D01*
X018001Y020723D01*
X017997Y020689D01*
X017989Y020655D01*
X017977Y020623D01*
X017962Y020592D01*
X017944Y020564D01*
X017922Y020537D01*
X017897Y020513D01*
X017870Y020492D01*
X017841Y020475D01*
X017810Y020460D01*
X017777Y020450D01*
X017744Y020443D01*
X017710Y020440D01*
X017675Y020441D01*
X017641Y020446D01*
X017608Y020455D01*
X017576Y020467D01*
X017546Y020483D01*
X017518Y020502D01*
X017492Y020525D01*
X017469Y020550D01*
X017449Y020578D01*
X017432Y020608D01*
X017418Y020639D01*
X017409Y020672D01*
X017403Y020706D01*
X017401Y020740D01*
X017401Y021440D02*
X017403Y021474D01*
X017409Y021508D01*
X017418Y021541D01*
X017432Y021572D01*
X017449Y021602D01*
X017469Y021630D01*
X017492Y021655D01*
X017518Y021678D01*
X017546Y021697D01*
X017576Y021713D01*
X017608Y021725D01*
X017641Y021734D01*
X017675Y021739D01*
X017710Y021740D01*
X017744Y021737D01*
X017777Y021730D01*
X017810Y021720D01*
X017841Y021705D01*
X017870Y021688D01*
X017897Y021667D01*
X017922Y021643D01*
X017944Y021616D01*
X017962Y021588D01*
X017977Y021557D01*
X017989Y021525D01*
X017997Y021491D01*
X018001Y021457D01*
X018001Y021423D01*
X017997Y021389D01*
X017989Y021355D01*
X017977Y021323D01*
X017962Y021292D01*
X017944Y021264D01*
X017922Y021237D01*
X017897Y021213D01*
X017870Y021192D01*
X017841Y021175D01*
X017810Y021160D01*
X017777Y021150D01*
X017744Y021143D01*
X017710Y021140D01*
X017675Y021141D01*
X017641Y021146D01*
X017608Y021155D01*
X017576Y021167D01*
X017546Y021183D01*
X017518Y021202D01*
X017492Y021225D01*
X017469Y021250D01*
X017449Y021278D01*
X017432Y021308D01*
X017418Y021339D01*
X017409Y021372D01*
X017403Y021406D01*
X017401Y021440D01*
X018301Y021440D02*
X018303Y021474D01*
X018309Y021508D01*
X018318Y021541D01*
X018332Y021572D01*
X018349Y021602D01*
X018369Y021630D01*
X018392Y021655D01*
X018418Y021678D01*
X018446Y021697D01*
X018476Y021713D01*
X018508Y021725D01*
X018541Y021734D01*
X018575Y021739D01*
X018610Y021740D01*
X018644Y021737D01*
X018677Y021730D01*
X018710Y021720D01*
X018741Y021705D01*
X018770Y021688D01*
X018797Y021667D01*
X018822Y021643D01*
X018844Y021616D01*
X018862Y021588D01*
X018877Y021557D01*
X018889Y021525D01*
X018897Y021491D01*
X018901Y021457D01*
X018901Y021423D01*
X018897Y021389D01*
X018889Y021355D01*
X018877Y021323D01*
X018862Y021292D01*
X018844Y021264D01*
X018822Y021237D01*
X018797Y021213D01*
X018770Y021192D01*
X018741Y021175D01*
X018710Y021160D01*
X018677Y021150D01*
X018644Y021143D01*
X018610Y021140D01*
X018575Y021141D01*
X018541Y021146D01*
X018508Y021155D01*
X018476Y021167D01*
X018446Y021183D01*
X018418Y021202D01*
X018392Y021225D01*
X018369Y021250D01*
X018349Y021278D01*
X018332Y021308D01*
X018318Y021339D01*
X018309Y021372D01*
X018303Y021406D01*
X018301Y021440D01*
X018301Y020740D02*
X018303Y020774D01*
X018309Y020808D01*
X018318Y020841D01*
X018332Y020872D01*
X018349Y020902D01*
X018369Y020930D01*
X018392Y020955D01*
X018418Y020978D01*
X018446Y020997D01*
X018476Y021013D01*
X018508Y021025D01*
X018541Y021034D01*
X018575Y021039D01*
X018610Y021040D01*
X018644Y021037D01*
X018677Y021030D01*
X018710Y021020D01*
X018741Y021005D01*
X018770Y020988D01*
X018797Y020967D01*
X018822Y020943D01*
X018844Y020916D01*
X018862Y020888D01*
X018877Y020857D01*
X018889Y020825D01*
X018897Y020791D01*
X018901Y020757D01*
X018901Y020723D01*
X018897Y020689D01*
X018889Y020655D01*
X018877Y020623D01*
X018862Y020592D01*
X018844Y020564D01*
X018822Y020537D01*
X018797Y020513D01*
X018770Y020492D01*
X018741Y020475D01*
X018710Y020460D01*
X018677Y020450D01*
X018644Y020443D01*
X018610Y020440D01*
X018575Y020441D01*
X018541Y020446D01*
X018508Y020455D01*
X018476Y020467D01*
X018446Y020483D01*
X018418Y020502D01*
X018392Y020525D01*
X018369Y020550D01*
X018349Y020578D01*
X018332Y020608D01*
X018318Y020639D01*
X018309Y020672D01*
X018303Y020706D01*
X018301Y020740D01*
D13*
X010301Y019860D03*
D14*
X016912Y018040D02*
X016912Y006847D01*
X023701Y006847D01*
X023701Y018040D01*
X023201Y018040D01*
X023201Y018540D01*
X022520Y018540D01*
X018189Y018540D02*
X017451Y018540D01*
X017451Y018040D01*
X016951Y018040D01*
D15*
X005486Y015481D02*
X005486Y015405D01*
X005410Y015328D01*
X005256Y015328D01*
X005179Y015251D01*
X005179Y015174D01*
X005256Y015098D01*
X005410Y015098D01*
X005486Y015174D01*
X005486Y015481D02*
X005410Y015558D01*
X005256Y015558D01*
X005179Y015481D01*
X005026Y015558D02*
X004796Y015558D01*
X004719Y015481D01*
X004719Y015328D01*
X004796Y015251D01*
X005026Y015251D01*
X005026Y015098D02*
X005026Y015558D01*
X004566Y015558D02*
X004566Y015098D01*
X004259Y015098D01*
X004105Y015098D02*
X004105Y015405D01*
X003952Y015558D01*
X003798Y015405D01*
X003798Y015098D01*
X003645Y015098D02*
X003645Y015558D01*
X003568Y015328D02*
X003338Y015098D01*
X003184Y015098D02*
X002877Y015098D01*
X002724Y015098D02*
X002724Y015558D01*
X002494Y015558D01*
X002417Y015481D01*
X002417Y015328D01*
X002494Y015251D01*
X002724Y015251D01*
X002571Y015251D02*
X002417Y015098D01*
X002877Y015558D02*
X003184Y015558D01*
X003184Y015098D01*
X003184Y015328D02*
X003031Y015328D01*
X003338Y015558D02*
X003645Y015251D01*
X003798Y015328D02*
X004105Y015328D01*
X004259Y015558D02*
X004566Y015558D01*
X004566Y015328D02*
X004412Y015328D01*
D16*
X006141Y007532D03*
X007193Y006718D03*
X005883Y005666D03*
X005163Y006447D03*
X005156Y006460D03*
X011175Y006718D03*
X013417Y006718D03*
X013417Y006936D03*
X013973Y006725D03*
D17*
X014336Y006983D03*
X012742Y006969D03*
X011896Y006969D03*
X009091Y008365D03*
X008516Y006943D03*
X005731Y005673D03*
X005725Y005680D03*
X005645Y005766D03*
X005639Y005772D03*
X005559Y005858D03*
X005540Y005878D03*
X005533Y005885D03*
X005526Y005891D03*
X005520Y005898D03*
X005460Y005964D03*
X005454Y005971D03*
X005440Y005984D03*
X005434Y005991D03*
X005407Y006017D03*
X005354Y006076D03*
X005348Y006083D03*
X005341Y006090D03*
X005334Y006096D03*
X005328Y006103D03*
X004997Y006797D03*
X003952Y007227D03*
X003020Y006916D03*
X004243Y008219D03*
X004997Y008339D03*
D18*
X004008Y008815D03*
X004008Y008821D03*
X004008Y008828D03*
X004008Y008835D03*
X004008Y008841D03*
X004008Y008848D03*
X004008Y008854D03*
X004008Y008861D03*
X004008Y008868D03*
X004008Y008874D03*
X004008Y008881D03*
X004008Y008888D03*
X004008Y008894D03*
X004008Y008901D03*
X004008Y008907D03*
X004008Y008914D03*
X004008Y008921D03*
X004008Y008927D03*
X004008Y008934D03*
X004008Y008940D03*
X004008Y008947D03*
X004008Y008954D03*
X004008Y008960D03*
X004008Y008967D03*
X004008Y008974D03*
X004008Y008980D03*
X004008Y008987D03*
X004008Y006103D03*
X004008Y006096D03*
X004008Y006090D03*
X004008Y006083D03*
X004008Y006076D03*
X004008Y006070D03*
X004008Y006063D03*
X004008Y006057D03*
X004008Y006050D03*
X004008Y006043D03*
X004008Y006037D03*
X004008Y006030D03*
X004008Y006024D03*
X004008Y006017D03*
X004008Y006010D03*
X004008Y006004D03*
X004008Y005997D03*
X004008Y005991D03*
X004008Y005984D03*
X004008Y005977D03*
X004008Y005971D03*
X004008Y005964D03*
X004008Y005957D03*
X004008Y005951D03*
X004008Y005944D03*
X004008Y005938D03*
X004008Y005931D03*
X004008Y005924D03*
X004008Y005918D03*
X004008Y005911D03*
X004008Y005905D03*
X004008Y005898D03*
X004008Y005891D03*
X004008Y005885D03*
X004008Y005878D03*
X004008Y005871D03*
X004008Y005865D03*
X004008Y005858D03*
X004008Y005852D03*
X004008Y005845D03*
X004008Y005838D03*
X004008Y005832D03*
X004008Y005825D03*
X004008Y005819D03*
X004008Y005812D03*
X004008Y005805D03*
X004008Y005799D03*
X004008Y005792D03*
X004008Y005785D03*
X004008Y005779D03*
X004008Y005772D03*
X004008Y005766D03*
X004008Y005759D03*
X004008Y005752D03*
X004008Y005746D03*
X004008Y005739D03*
X004008Y005733D03*
X004008Y005726D03*
X004008Y005719D03*
X004008Y005713D03*
X004008Y005706D03*
X004008Y005699D03*
X004008Y005693D03*
X004008Y005686D03*
X004008Y005680D03*
X004008Y005673D03*
D19*
X005358Y006070D03*
X005364Y006063D03*
X005371Y006057D03*
X005377Y006050D03*
X005384Y006043D03*
X005391Y006037D03*
X005397Y006030D03*
X005404Y006024D03*
X005417Y006010D03*
X005424Y006004D03*
X005430Y005997D03*
X005444Y005977D03*
X005463Y005957D03*
X005470Y005951D03*
X005477Y005944D03*
X005483Y005938D03*
X005490Y005931D03*
X005497Y005924D03*
X005503Y005918D03*
X005510Y005911D03*
X005516Y005905D03*
X005543Y005871D03*
X005549Y005865D03*
X005563Y005852D03*
X005569Y005845D03*
X005576Y005838D03*
X005583Y005832D03*
X005589Y005825D03*
X005596Y005819D03*
X005602Y005812D03*
X005609Y005805D03*
X005616Y005799D03*
X005622Y005792D03*
X005629Y005785D03*
X005635Y005779D03*
X005649Y005759D03*
X005655Y005752D03*
X005662Y005746D03*
X005669Y005739D03*
X005675Y005733D03*
X005682Y005726D03*
X005688Y005719D03*
X005695Y005713D03*
X005702Y005706D03*
X005708Y005699D03*
X005715Y005693D03*
X005721Y005686D03*
X005000Y006791D03*
X005000Y008345D03*
X003016Y006910D03*
X008513Y006916D03*
X008513Y006923D03*
X008513Y006930D03*
X008513Y006936D03*
X009081Y008358D03*
X010232Y008365D03*
X011092Y008365D03*
X014346Y008352D03*
X014346Y006989D03*
D20*
X004170Y006110D03*
D21*
X004167Y006116D03*
D22*
X005004Y006784D03*
X005315Y006123D03*
X003952Y007234D03*
X003013Y006903D03*
X004243Y008213D03*
X005004Y008352D03*
X008509Y006910D03*
X008509Y006903D03*
X008509Y006897D03*
X008509Y006890D03*
X009071Y008352D03*
X011102Y008358D03*
X011889Y006976D03*
X012756Y006976D03*
D23*
X004005Y006123D03*
D24*
X005007Y006778D03*
X005311Y006129D03*
X005007Y008358D03*
X005007Y008365D03*
X003010Y006897D03*
X008506Y006883D03*
X008506Y006877D03*
X008506Y006870D03*
X010226Y008358D03*
X011879Y006983D03*
X012316Y006725D03*
X012766Y006983D03*
X014353Y006996D03*
X014360Y008339D03*
X014353Y008345D03*
D25*
X004002Y006129D03*
D26*
X005010Y006771D03*
X005308Y006136D03*
X003952Y007241D03*
X003985Y007280D03*
X004084Y007386D03*
X004091Y007393D03*
X004098Y007399D03*
X004243Y008206D03*
X005010Y008372D03*
X003006Y006890D03*
X008503Y006864D03*
X008503Y006857D03*
X008503Y006850D03*
X008503Y006844D03*
X009065Y008345D03*
X010216Y008352D03*
X011109Y008352D03*
X011115Y008345D03*
X012769Y006989D03*
X014363Y007002D03*
D27*
X003998Y006136D03*
D28*
X005014Y006764D03*
X005305Y006143D03*
X003995Y007287D03*
X003995Y007294D03*
X004002Y007300D03*
X004008Y007307D03*
X004015Y007313D03*
X004022Y007320D03*
X004028Y007327D03*
X004035Y007333D03*
X004041Y007340D03*
X004048Y007346D03*
X004055Y007353D03*
X004061Y007360D03*
X004068Y007366D03*
X004074Y007373D03*
X004081Y007379D03*
X004101Y007406D03*
X003982Y007274D03*
X003975Y007267D03*
X003969Y007260D03*
X003962Y007254D03*
X003955Y007247D03*
X003003Y006883D03*
X008499Y006837D03*
X008499Y006831D03*
X008499Y006824D03*
X009055Y008332D03*
X009055Y008339D03*
X010212Y008345D03*
X011866Y006996D03*
X011873Y006989D03*
X012779Y006996D03*
X014366Y007009D03*
X014366Y008332D03*
D29*
X003995Y006143D03*
D30*
X005017Y006758D03*
X005301Y006149D03*
X004151Y008100D03*
X004157Y008107D03*
X004217Y008173D03*
X004243Y008200D03*
X005017Y008378D03*
X005017Y008385D03*
X003000Y006877D03*
X008496Y006817D03*
X008496Y006811D03*
X008496Y006804D03*
X009038Y008319D03*
X009045Y008325D03*
X010203Y008339D03*
X011122Y008339D03*
X011863Y007002D03*
X012782Y007002D03*
X014369Y008325D03*
X014376Y008319D03*
D31*
X003992Y006149D03*
D32*
X005020Y006745D03*
X005020Y006751D03*
X005298Y006156D03*
X004088Y008034D03*
X004094Y008041D03*
X004101Y008048D03*
X004108Y008054D03*
X004114Y008061D03*
X004121Y008067D03*
X004127Y008074D03*
X004134Y008081D03*
X004141Y008087D03*
X004147Y008094D03*
X004167Y008114D03*
X004174Y008120D03*
X004174Y008127D03*
X004180Y008134D03*
X004187Y008140D03*
X004194Y008147D03*
X004200Y008153D03*
X004207Y008160D03*
X004213Y008167D03*
X004227Y008180D03*
X004233Y008186D03*
X004240Y008193D03*
X005020Y008391D03*
X002996Y006870D03*
X008493Y006797D03*
X008493Y006791D03*
X008493Y006784D03*
X008493Y006778D03*
X009015Y008286D03*
X009022Y008299D03*
X009029Y008305D03*
X009035Y008312D03*
X010193Y008325D03*
X010199Y008332D03*
X011125Y008332D03*
X011132Y008325D03*
X011846Y007022D03*
X011853Y007016D03*
X011853Y007009D03*
X012785Y007009D03*
X012792Y007016D03*
X014373Y007016D03*
X014379Y007022D03*
X014386Y008305D03*
X014379Y008312D03*
D33*
X003989Y006156D03*
D34*
X005024Y006738D03*
X005295Y006162D03*
X002993Y006864D03*
X005024Y008398D03*
X008489Y006771D03*
X008489Y006764D03*
X008489Y006758D03*
X008999Y008266D03*
X009005Y008272D03*
X009012Y008279D03*
X009019Y008292D03*
X010183Y008305D03*
X010183Y008312D03*
X010189Y008319D03*
X011135Y008319D03*
X011142Y008312D03*
X011148Y008299D03*
X011843Y007029D03*
X012795Y007022D03*
X012802Y007029D03*
X012809Y007042D03*
X014383Y007029D03*
X014389Y007036D03*
X014389Y008299D03*
D35*
X003985Y006162D03*
D36*
X005027Y006731D03*
X005291Y006169D03*
X002990Y006857D03*
X005027Y008405D03*
X008486Y006751D03*
X008486Y006745D03*
X008486Y006738D03*
X008976Y008219D03*
X008976Y008226D03*
X008976Y008233D03*
X008982Y008239D03*
X008989Y008246D03*
X008989Y008253D03*
X008995Y008259D03*
X010173Y008286D03*
X010173Y008292D03*
X010179Y008299D03*
X011145Y008305D03*
X011152Y008292D03*
X011158Y008279D03*
X011820Y007075D03*
X011826Y007055D03*
X011833Y007049D03*
X011833Y007042D03*
X011840Y007036D03*
X012805Y007036D03*
X012812Y007049D03*
X012812Y007055D03*
X012818Y007062D03*
X014393Y007049D03*
X014393Y007042D03*
X014399Y007055D03*
X014399Y008279D03*
X014399Y008286D03*
X014393Y008292D03*
D37*
X003982Y006169D03*
D38*
X005030Y006725D03*
X005288Y006176D03*
X002986Y006850D03*
X005030Y008411D03*
X008483Y006731D03*
X008483Y006725D03*
X008906Y008087D03*
X008926Y008134D03*
X008939Y008160D03*
X008946Y008167D03*
X008946Y008173D03*
X008952Y008180D03*
X008952Y008186D03*
X008959Y008193D03*
X008959Y008200D03*
X008966Y008206D03*
X008966Y008213D03*
X010143Y008206D03*
X010150Y008233D03*
X010156Y008253D03*
X010163Y008266D03*
X010163Y008272D03*
X010169Y008279D03*
X011155Y008286D03*
X011162Y008272D03*
X011162Y008266D03*
X011168Y008259D03*
X011168Y008253D03*
X011175Y008239D03*
X011181Y008213D03*
X011810Y007095D03*
X011816Y007082D03*
X011823Y007069D03*
X011823Y007062D03*
X012822Y007069D03*
X012822Y007075D03*
X012822Y007082D03*
X012828Y007088D03*
X012835Y007108D03*
X014403Y007069D03*
X014403Y007062D03*
X014409Y007075D03*
X014409Y007082D03*
X014409Y007088D03*
X014409Y008253D03*
X014409Y008259D03*
X014409Y008266D03*
X014403Y008272D03*
D39*
X003979Y006176D03*
D40*
X005034Y006718D03*
X005285Y006182D03*
X002983Y006844D03*
X005034Y008418D03*
X008724Y007518D03*
X008737Y007565D03*
X008744Y007585D03*
X008751Y007611D03*
X008757Y007631D03*
X008764Y007657D03*
X008771Y007671D03*
X008771Y007677D03*
X008777Y007697D03*
X008777Y007704D03*
X008784Y007723D03*
X008790Y007743D03*
X008790Y007750D03*
X008797Y007770D03*
X008804Y007790D03*
X008810Y007816D03*
X008817Y007836D03*
X008830Y007882D03*
X008837Y007902D03*
X008843Y007928D03*
X008850Y007942D03*
X008857Y007955D03*
X008857Y007962D03*
X008863Y007981D03*
X008870Y007995D03*
X008870Y008001D03*
X008876Y008008D03*
X008876Y008014D03*
X008883Y008028D03*
X008890Y008048D03*
X008896Y008061D03*
X008896Y008067D03*
X008903Y008074D03*
X008903Y008081D03*
X008909Y008094D03*
X008916Y008100D03*
X008916Y008107D03*
X008916Y008114D03*
X008923Y008120D03*
X008923Y008127D03*
X008929Y008140D03*
X008936Y008147D03*
X008936Y008153D03*
X010113Y008054D03*
X010120Y008100D03*
X010120Y008107D03*
X010126Y008134D03*
X010126Y008140D03*
X010133Y008167D03*
X010133Y008173D03*
X010140Y008193D03*
X010140Y008200D03*
X010146Y008213D03*
X010146Y008219D03*
X010146Y008226D03*
X010153Y008239D03*
X010153Y008246D03*
X010160Y008259D03*
X010107Y007988D03*
X010107Y007981D03*
X010100Y007876D03*
X010093Y007776D03*
X010093Y007770D03*
X010093Y007763D03*
X010080Y007532D03*
X010067Y007327D03*
X010067Y007320D03*
X010067Y007313D03*
X010067Y007307D03*
X010067Y007300D03*
X010067Y007294D03*
X010060Y007155D03*
X010054Y007042D03*
X010047Y006916D03*
X010040Y006797D03*
X010040Y006791D03*
X011284Y006817D03*
X011291Y006725D03*
X011271Y007055D03*
X011271Y007062D03*
X011264Y007168D03*
X011257Y007300D03*
X011244Y007532D03*
X011231Y007763D03*
X011231Y007770D03*
X011231Y007776D03*
X011231Y007783D03*
X011231Y007790D03*
X011218Y007988D03*
X011218Y007995D03*
X011211Y008054D03*
X011211Y008061D03*
X011205Y008100D03*
X011205Y008107D03*
X011205Y008114D03*
X011198Y008140D03*
X011191Y008167D03*
X011191Y008173D03*
X011191Y008180D03*
X011185Y008193D03*
X011185Y008200D03*
X011185Y008206D03*
X011178Y008219D03*
X011178Y008226D03*
X011178Y008233D03*
X011171Y008246D03*
X011714Y008259D03*
X011714Y008266D03*
X011707Y008378D03*
X011707Y008385D03*
X011694Y008610D03*
X011720Y008153D03*
X011720Y008147D03*
X011720Y008140D03*
X011720Y008134D03*
X011720Y008127D03*
X011734Y007928D03*
X011734Y007922D03*
X011734Y007915D03*
X011734Y007909D03*
X011734Y007902D03*
X011734Y007895D03*
X011734Y007889D03*
X011740Y007776D03*
X011740Y007770D03*
X011747Y007664D03*
X011747Y007657D03*
X011747Y007651D03*
X011760Y007419D03*
X011760Y007413D03*
X011760Y007406D03*
X011773Y007280D03*
X011773Y007274D03*
X011773Y007267D03*
X011780Y007227D03*
X011780Y007221D03*
X011787Y007194D03*
X011787Y007188D03*
X011793Y007161D03*
X011793Y007155D03*
X011800Y007141D03*
X011800Y007135D03*
X011800Y007128D03*
X011806Y007115D03*
X011806Y007108D03*
X011806Y007102D03*
X011813Y007088D03*
X012832Y007095D03*
X012832Y007102D03*
X012838Y007115D03*
X012838Y007122D03*
X012838Y007128D03*
X012845Y007135D03*
X012845Y007141D03*
X012845Y007148D03*
X012851Y007161D03*
X012851Y007168D03*
X012851Y007174D03*
X012858Y007194D03*
X012858Y007201D03*
X012858Y007208D03*
X012865Y007247D03*
X012865Y007254D03*
X012871Y007294D03*
X012871Y007300D03*
X012878Y007353D03*
X012878Y007360D03*
X012878Y007366D03*
X012885Y007426D03*
X012885Y007432D03*
X012885Y007439D03*
X012885Y007446D03*
X012885Y007452D03*
X012885Y007459D03*
X012885Y007465D03*
X012898Y007677D03*
X012898Y007684D03*
X012898Y007690D03*
X012898Y007697D03*
X012898Y007704D03*
X012898Y007710D03*
X012904Y007829D03*
X012924Y008180D03*
X012924Y008186D03*
X012924Y008193D03*
X012924Y008200D03*
X012924Y008206D03*
X012924Y008213D03*
X012937Y008425D03*
X012937Y008431D03*
X012937Y008438D03*
X012944Y008537D03*
X012944Y008544D03*
X012944Y008550D03*
X012944Y008557D03*
X012944Y008563D03*
X014412Y008246D03*
X014419Y008239D03*
X014419Y008233D03*
X014419Y008226D03*
X014419Y008219D03*
X014426Y008213D03*
X014426Y008206D03*
X014426Y008200D03*
X014426Y008193D03*
X014432Y008173D03*
X014432Y008167D03*
X014439Y008134D03*
X014439Y008127D03*
X014439Y008120D03*
X014439Y008114D03*
X014446Y008048D03*
X014446Y008041D03*
X014446Y008034D03*
X014446Y008028D03*
X014446Y008021D03*
X014446Y007307D03*
X014446Y007300D03*
X014439Y007214D03*
X014439Y007208D03*
X014439Y007201D03*
X014432Y007174D03*
X014432Y007168D03*
X014426Y007148D03*
X014426Y007141D03*
X014426Y007135D03*
X014426Y007128D03*
X014426Y007122D03*
X014419Y007115D03*
X014419Y007108D03*
X014419Y007102D03*
X014412Y007095D03*
D41*
X003975Y006182D03*
D42*
X005037Y006711D03*
X005282Y006196D03*
X005282Y006189D03*
X006294Y006963D03*
X006294Y006969D03*
X006294Y006976D03*
X006294Y006983D03*
X006294Y006989D03*
X006294Y006996D03*
X006294Y007002D03*
X006294Y007009D03*
X006294Y007016D03*
X006294Y007022D03*
X006294Y007029D03*
X006294Y007036D03*
X006294Y007042D03*
X006294Y007049D03*
X006294Y007055D03*
X006294Y007062D03*
X006294Y007069D03*
X006294Y007075D03*
X006294Y007082D03*
X006294Y007088D03*
X006294Y007095D03*
X006294Y007102D03*
X006294Y007108D03*
X006294Y007115D03*
X006294Y007122D03*
X006294Y007128D03*
X006294Y007135D03*
X006294Y007141D03*
X006294Y007148D03*
X006294Y007155D03*
X006294Y007161D03*
X006294Y007168D03*
X006294Y007174D03*
X006294Y007181D03*
X006294Y007188D03*
X006294Y007194D03*
X006294Y007201D03*
X006294Y007208D03*
X006294Y007214D03*
X006294Y007221D03*
X006294Y007227D03*
X006294Y007234D03*
X006294Y007241D03*
X006294Y007247D03*
X006294Y007254D03*
X006294Y007260D03*
X006294Y007267D03*
X006294Y007274D03*
X006294Y007280D03*
X006294Y007287D03*
X006294Y007294D03*
X006294Y007300D03*
X006294Y007307D03*
X006294Y007313D03*
X006294Y007320D03*
X006294Y007327D03*
X006294Y007333D03*
X006294Y007340D03*
X006294Y007346D03*
X006294Y007353D03*
X006294Y007360D03*
X006294Y007366D03*
X006294Y007373D03*
X006294Y007379D03*
X006294Y007386D03*
X006294Y007393D03*
X006294Y007399D03*
X006294Y007406D03*
X006294Y007413D03*
X006294Y007419D03*
X006294Y007426D03*
X006294Y007432D03*
X006294Y007439D03*
X006294Y007446D03*
X006294Y007452D03*
X006294Y007459D03*
X006294Y007465D03*
X006294Y007472D03*
X006294Y007479D03*
X006294Y007485D03*
X006294Y007499D03*
X006294Y007505D03*
X006294Y007512D03*
X006294Y007518D03*
X006294Y007532D03*
X006294Y007763D03*
X006294Y007770D03*
X006294Y007776D03*
X006294Y007783D03*
X006294Y007809D03*
X006294Y007816D03*
X006294Y007823D03*
X006294Y007829D03*
X006294Y007836D03*
X006294Y007842D03*
X006294Y007849D03*
X006294Y007856D03*
X006294Y007862D03*
X006294Y007869D03*
X006294Y007876D03*
X006294Y007882D03*
X006294Y007889D03*
X006294Y007895D03*
X006294Y007902D03*
X006294Y007909D03*
X006294Y007915D03*
X006294Y007922D03*
X006294Y007928D03*
X006294Y007935D03*
X006294Y007942D03*
X006294Y007948D03*
X006294Y007955D03*
X006294Y007962D03*
X006294Y007968D03*
X006294Y007975D03*
X006294Y007981D03*
X006294Y007988D03*
X006294Y007995D03*
X006294Y008001D03*
X006294Y008008D03*
X006294Y008014D03*
X006294Y008021D03*
X006294Y008028D03*
X006294Y008034D03*
X006294Y008041D03*
X006294Y008048D03*
X006294Y008054D03*
X006294Y008061D03*
X006294Y008067D03*
X006294Y008074D03*
X006294Y008081D03*
X006294Y008087D03*
X006294Y008094D03*
X006294Y008100D03*
X006294Y008107D03*
X006294Y008114D03*
X006294Y008120D03*
X006294Y008127D03*
X006294Y008134D03*
X006294Y008140D03*
X006294Y008147D03*
X006294Y008153D03*
X006294Y008160D03*
X006294Y008167D03*
X006294Y008173D03*
X006294Y008180D03*
X006294Y008186D03*
X006294Y008193D03*
X006294Y008200D03*
X006294Y008206D03*
X006294Y008213D03*
X006294Y008219D03*
X006294Y008226D03*
X006294Y008246D03*
X006294Y008253D03*
X006294Y008259D03*
X006294Y008266D03*
X007306Y008266D03*
X007306Y008272D03*
X007306Y008279D03*
X007306Y008286D03*
X007306Y008292D03*
X007306Y008299D03*
X007306Y008305D03*
X007306Y008312D03*
X007306Y008319D03*
X007306Y008325D03*
X007306Y008332D03*
X007306Y008339D03*
X007306Y008345D03*
X007306Y008352D03*
X007306Y008378D03*
X007306Y008385D03*
X007306Y008391D03*
X007306Y008259D03*
X007306Y008253D03*
X007306Y008246D03*
X007306Y008239D03*
X007306Y008233D03*
X007306Y008226D03*
X007306Y008219D03*
X007306Y008213D03*
X007306Y008206D03*
X007306Y008200D03*
X007306Y008193D03*
X007306Y008186D03*
X007306Y008180D03*
X007306Y008173D03*
X007306Y008167D03*
X007306Y008160D03*
X007306Y008153D03*
X007306Y008147D03*
X007306Y008140D03*
X007306Y008134D03*
X007306Y008127D03*
X007306Y008120D03*
X007306Y008114D03*
X007306Y008107D03*
X007306Y008100D03*
X007306Y008094D03*
X007306Y008087D03*
X007306Y008081D03*
X007306Y008074D03*
X007306Y008067D03*
X007306Y008061D03*
X007306Y008054D03*
X007306Y008048D03*
X007306Y008041D03*
X007306Y008034D03*
X007306Y008028D03*
X007306Y008021D03*
X007306Y008014D03*
X007306Y008008D03*
X007306Y008001D03*
X007306Y007995D03*
X007306Y007988D03*
X007306Y007981D03*
X007306Y007975D03*
X007306Y007968D03*
X007306Y007962D03*
X007306Y007955D03*
X007306Y007948D03*
X007306Y007942D03*
X007306Y007935D03*
X007306Y007928D03*
X007306Y007922D03*
X007306Y007915D03*
X007306Y007909D03*
X007306Y007902D03*
X007306Y007895D03*
X007306Y007889D03*
X007306Y007882D03*
X007306Y007876D03*
X007306Y007869D03*
X007306Y007862D03*
X007306Y007856D03*
X007306Y007849D03*
X007306Y007842D03*
X007306Y007836D03*
X007306Y007829D03*
X007306Y007823D03*
X007306Y007816D03*
X007306Y007809D03*
X007306Y007803D03*
X007306Y007796D03*
X007306Y007790D03*
X007306Y007783D03*
X007306Y007776D03*
X007306Y007770D03*
X007306Y007763D03*
X007306Y007756D03*
X007306Y007750D03*
X007306Y007743D03*
X007306Y007737D03*
X007306Y007730D03*
X007306Y007723D03*
X007306Y007717D03*
X007306Y007710D03*
X007306Y007704D03*
X007306Y007697D03*
X007306Y007690D03*
X007306Y007684D03*
X007306Y007677D03*
X007306Y007671D03*
X007306Y007664D03*
X007306Y007657D03*
X007306Y007651D03*
X007306Y007644D03*
X007306Y007637D03*
X007306Y007631D03*
X007306Y007624D03*
X007306Y007618D03*
X007306Y007611D03*
X007306Y007604D03*
X007306Y007598D03*
X007306Y007591D03*
X007306Y007585D03*
X007306Y007578D03*
X007306Y007571D03*
X007306Y007565D03*
X007306Y007558D03*
X007306Y007551D03*
X007306Y007545D03*
X007306Y007538D03*
X007306Y007532D03*
X007306Y007525D03*
X007306Y007518D03*
X007306Y007512D03*
X007306Y007505D03*
X007306Y007499D03*
X007306Y007492D03*
X007306Y007485D03*
X007306Y007479D03*
X007306Y007472D03*
X007306Y007465D03*
X007306Y007459D03*
X007306Y007452D03*
X007306Y007446D03*
X007306Y007439D03*
X007306Y007432D03*
X007306Y007426D03*
X007306Y007419D03*
X007306Y007413D03*
X007306Y007406D03*
X007306Y007399D03*
X007306Y007393D03*
X007306Y007386D03*
X007306Y007379D03*
X007306Y007373D03*
X007306Y007366D03*
X007306Y007360D03*
X007306Y007353D03*
X007306Y007346D03*
X007306Y007340D03*
X007306Y007333D03*
X007306Y007327D03*
X007306Y007320D03*
X007306Y007313D03*
X007306Y007307D03*
X007306Y007300D03*
X007306Y007294D03*
X007306Y007287D03*
X007306Y007280D03*
X007306Y007274D03*
X007306Y007267D03*
X007306Y007260D03*
X007306Y007254D03*
X007306Y007247D03*
X007306Y007241D03*
X007306Y007234D03*
X007306Y007227D03*
X007306Y007221D03*
X007306Y007214D03*
X007306Y007208D03*
X007306Y007201D03*
X007306Y007194D03*
X007306Y007188D03*
X007306Y007181D03*
X007306Y007174D03*
X007306Y007168D03*
X007306Y007161D03*
X007306Y007155D03*
X007306Y007148D03*
X007306Y007141D03*
X007306Y007135D03*
X007306Y007128D03*
X007306Y007122D03*
X007306Y007115D03*
X007306Y007108D03*
X007306Y007102D03*
X007306Y007095D03*
X007306Y007088D03*
X007306Y007082D03*
X007306Y007075D03*
X007306Y007069D03*
X007306Y007062D03*
X007306Y007055D03*
X007306Y007049D03*
X007306Y007042D03*
X007306Y007036D03*
X007306Y007029D03*
X007306Y007022D03*
X007306Y007016D03*
X007306Y007009D03*
X007306Y007002D03*
X007306Y006996D03*
X007306Y006989D03*
X007306Y006983D03*
X007306Y006976D03*
X007306Y006969D03*
X007306Y006963D03*
X007306Y006956D03*
X007306Y006950D03*
X007306Y006943D03*
X007306Y006936D03*
X007306Y006930D03*
X007306Y006923D03*
X007306Y006916D03*
X007306Y006910D03*
X007306Y006903D03*
X007306Y006897D03*
X007306Y006890D03*
X007306Y006883D03*
X007306Y006877D03*
X007306Y006870D03*
X007306Y006864D03*
X007306Y006857D03*
X007306Y006850D03*
X007306Y006844D03*
X007306Y006837D03*
X007306Y006831D03*
X007306Y006824D03*
X007306Y006817D03*
X007306Y006811D03*
X007306Y006804D03*
X007306Y006797D03*
X007306Y006791D03*
X007306Y006784D03*
X007306Y006778D03*
X007306Y006771D03*
X007306Y006764D03*
X007306Y006758D03*
X007306Y006751D03*
X007306Y006745D03*
X007306Y006738D03*
X007306Y006731D03*
X007306Y006725D03*
X008714Y007492D03*
X008721Y007499D03*
X008721Y007505D03*
X008721Y007512D03*
X008728Y007525D03*
X008728Y007532D03*
X008728Y007538D03*
X008734Y007545D03*
X008734Y007551D03*
X008734Y007558D03*
X008741Y007571D03*
X008741Y007578D03*
X008747Y007591D03*
X008747Y007598D03*
X008747Y007604D03*
X008754Y007618D03*
X008754Y007624D03*
X008761Y007637D03*
X008761Y007644D03*
X008761Y007651D03*
X008767Y007664D03*
X008774Y007684D03*
X008774Y007690D03*
X008780Y007710D03*
X008780Y007717D03*
X008787Y007730D03*
X008787Y007737D03*
X008794Y007756D03*
X008794Y007763D03*
X008800Y007776D03*
X008800Y007783D03*
X008807Y007796D03*
X008807Y007803D03*
X008807Y007809D03*
X008814Y007823D03*
X008814Y007829D03*
X008820Y007842D03*
X008820Y007849D03*
X008820Y007856D03*
X008827Y007862D03*
X008827Y007869D03*
X008827Y007876D03*
X008833Y007889D03*
X008833Y007895D03*
X008840Y007909D03*
X008840Y007915D03*
X008840Y007922D03*
X008847Y007935D03*
X008853Y007948D03*
X008860Y007968D03*
X008860Y007975D03*
X008866Y007988D03*
X008880Y008021D03*
X008886Y008034D03*
X008886Y008041D03*
X008893Y008054D03*
X010103Y007975D03*
X010103Y007968D03*
X010103Y007962D03*
X010103Y007955D03*
X010103Y007948D03*
X010103Y007942D03*
X010103Y007935D03*
X010103Y007928D03*
X010103Y007922D03*
X010103Y007915D03*
X010103Y007909D03*
X010103Y007902D03*
X010103Y007895D03*
X010103Y007889D03*
X010103Y007882D03*
X010097Y007869D03*
X010097Y007862D03*
X010097Y007856D03*
X010097Y007849D03*
X010097Y007842D03*
X010097Y007836D03*
X010097Y007829D03*
X010097Y007823D03*
X010097Y007816D03*
X010097Y007809D03*
X010097Y007803D03*
X010097Y007796D03*
X010097Y007790D03*
X010097Y007783D03*
X010090Y007756D03*
X010090Y007750D03*
X010090Y007743D03*
X010077Y007525D03*
X010077Y007518D03*
X010077Y007512D03*
X010077Y007505D03*
X010077Y007499D03*
X010077Y007492D03*
X010077Y007485D03*
X010077Y007479D03*
X010077Y007472D03*
X010077Y007465D03*
X010077Y007459D03*
X010077Y007452D03*
X010077Y007446D03*
X010077Y007439D03*
X010077Y007432D03*
X010077Y007426D03*
X010077Y007419D03*
X010077Y007413D03*
X010070Y007393D03*
X010070Y007386D03*
X010070Y007379D03*
X010070Y007373D03*
X010070Y007366D03*
X010070Y007360D03*
X010070Y007353D03*
X010070Y007346D03*
X010070Y007340D03*
X010070Y007333D03*
X010064Y007287D03*
X010064Y007280D03*
X010064Y007274D03*
X010064Y007267D03*
X010064Y007260D03*
X010064Y007254D03*
X010064Y007247D03*
X010064Y007241D03*
X010064Y007234D03*
X010064Y007227D03*
X010064Y007221D03*
X010064Y007214D03*
X010064Y007208D03*
X010064Y007201D03*
X010064Y007194D03*
X010064Y007188D03*
X010064Y007181D03*
X010064Y007174D03*
X010064Y007168D03*
X010064Y007161D03*
X010057Y007148D03*
X010057Y007141D03*
X010057Y007135D03*
X010057Y007128D03*
X010057Y007122D03*
X010057Y007115D03*
X010057Y007108D03*
X010057Y007102D03*
X010057Y007095D03*
X010057Y007088D03*
X010057Y007082D03*
X010057Y007075D03*
X010057Y007069D03*
X010057Y007062D03*
X010057Y007055D03*
X010057Y007049D03*
X010050Y007036D03*
X010050Y007029D03*
X010050Y007022D03*
X010050Y007016D03*
X010050Y007009D03*
X010050Y007002D03*
X010050Y006996D03*
X010050Y006989D03*
X010050Y006983D03*
X010050Y006976D03*
X010050Y006969D03*
X010050Y006963D03*
X010050Y006956D03*
X010050Y006950D03*
X010050Y006943D03*
X010050Y006936D03*
X010050Y006930D03*
X010050Y006923D03*
X010044Y006910D03*
X010044Y006903D03*
X010044Y006897D03*
X010044Y006890D03*
X010044Y006883D03*
X010044Y006877D03*
X010044Y006870D03*
X010044Y006864D03*
X010044Y006857D03*
X010044Y006850D03*
X010044Y006844D03*
X010044Y006837D03*
X010044Y006831D03*
X010044Y006824D03*
X010044Y006817D03*
X010044Y006811D03*
X010044Y006804D03*
X010037Y006784D03*
X010037Y006778D03*
X010037Y006771D03*
X010037Y006764D03*
X010037Y006758D03*
X010037Y006751D03*
X010037Y006745D03*
X010037Y006738D03*
X010037Y006731D03*
X010037Y006725D03*
X011281Y006824D03*
X011281Y006831D03*
X011281Y006837D03*
X011281Y006844D03*
X011281Y006850D03*
X011281Y006857D03*
X011281Y006864D03*
X011281Y006870D03*
X011281Y006877D03*
X011281Y006883D03*
X011281Y006890D03*
X011281Y006897D03*
X011281Y006903D03*
X011281Y006910D03*
X011281Y006916D03*
X011281Y006923D03*
X011281Y006930D03*
X011274Y006936D03*
X011274Y006943D03*
X011274Y006950D03*
X011274Y006956D03*
X011274Y006963D03*
X011274Y006969D03*
X011274Y006976D03*
X011274Y006983D03*
X011274Y006989D03*
X011274Y006996D03*
X011274Y007002D03*
X011274Y007009D03*
X011274Y007016D03*
X011274Y007022D03*
X011274Y007029D03*
X011274Y007036D03*
X011274Y007042D03*
X011274Y007049D03*
X011267Y007069D03*
X011267Y007075D03*
X011267Y007082D03*
X011267Y007088D03*
X011267Y007095D03*
X011267Y007102D03*
X011267Y007108D03*
X011267Y007115D03*
X011267Y007122D03*
X011267Y007128D03*
X011267Y007135D03*
X011267Y007141D03*
X011267Y007148D03*
X011267Y007155D03*
X011267Y007161D03*
X011267Y007174D03*
X011261Y007188D03*
X011261Y007194D03*
X011261Y007201D03*
X011261Y007208D03*
X011261Y007214D03*
X011261Y007221D03*
X011261Y007227D03*
X011261Y007234D03*
X011261Y007241D03*
X011261Y007247D03*
X011261Y007254D03*
X011261Y007260D03*
X011261Y007267D03*
X011261Y007274D03*
X011261Y007280D03*
X011261Y007287D03*
X011261Y007294D03*
X011254Y007307D03*
X011254Y007313D03*
X011254Y007320D03*
X011254Y007327D03*
X011254Y007333D03*
X011254Y007340D03*
X011254Y007346D03*
X011254Y007353D03*
X011254Y007360D03*
X011254Y007366D03*
X011254Y007373D03*
X011254Y007379D03*
X011254Y007386D03*
X011254Y007393D03*
X011254Y007399D03*
X011254Y007406D03*
X011254Y007413D03*
X011248Y007419D03*
X011248Y007426D03*
X011248Y007432D03*
X011248Y007439D03*
X011248Y007446D03*
X011248Y007452D03*
X011248Y007459D03*
X011248Y007465D03*
X011248Y007472D03*
X011248Y007479D03*
X011248Y007485D03*
X011248Y007492D03*
X011248Y007499D03*
X011248Y007505D03*
X011248Y007512D03*
X011248Y007518D03*
X011248Y007525D03*
X011234Y007743D03*
X011234Y007750D03*
X011234Y007756D03*
X011228Y007796D03*
X011228Y007803D03*
X011228Y007809D03*
X011228Y007816D03*
X011228Y007823D03*
X011228Y007829D03*
X011228Y007836D03*
X011228Y007842D03*
X011228Y007849D03*
X011228Y007856D03*
X011228Y007862D03*
X011228Y007869D03*
X011228Y007876D03*
X011228Y007882D03*
X011228Y007889D03*
X011228Y007895D03*
X011228Y007902D03*
X011221Y007915D03*
X011221Y007922D03*
X011221Y007928D03*
X011221Y007935D03*
X011221Y007942D03*
X011221Y007948D03*
X011221Y007955D03*
X011221Y007962D03*
X011221Y007968D03*
X011221Y007975D03*
X011221Y007981D03*
X011214Y008001D03*
X011214Y008008D03*
X011214Y008014D03*
X011214Y008021D03*
X011214Y008028D03*
X011214Y008034D03*
X011214Y008041D03*
X011214Y008048D03*
X011208Y008067D03*
X011208Y008074D03*
X011208Y008081D03*
X011208Y008087D03*
X011208Y008094D03*
X011201Y008120D03*
X011201Y008127D03*
X011201Y008134D03*
X011195Y008147D03*
X011195Y008153D03*
X011195Y008160D03*
X011188Y008186D03*
X011717Y008186D03*
X011717Y008180D03*
X011717Y008173D03*
X011717Y008167D03*
X011717Y008160D03*
X011717Y008193D03*
X011717Y008200D03*
X011717Y008206D03*
X011717Y008213D03*
X011717Y008219D03*
X011717Y008226D03*
X011717Y008233D03*
X011717Y008239D03*
X011717Y008246D03*
X011717Y008253D03*
X011711Y008272D03*
X011711Y008279D03*
X011711Y008286D03*
X011711Y008292D03*
X011711Y008299D03*
X011711Y008305D03*
X011711Y008312D03*
X011711Y008319D03*
X011711Y008325D03*
X011711Y008332D03*
X011711Y008339D03*
X011711Y008345D03*
X011711Y008352D03*
X011711Y008358D03*
X011711Y008365D03*
X011711Y008372D03*
X011704Y008391D03*
X011704Y008398D03*
X011704Y008405D03*
X011704Y008411D03*
X011704Y008418D03*
X011704Y008425D03*
X011704Y008431D03*
X011704Y008438D03*
X011704Y008444D03*
X011704Y008451D03*
X011704Y008458D03*
X011704Y008464D03*
X011704Y008471D03*
X011704Y008477D03*
X011704Y008484D03*
X011704Y008491D03*
X011697Y008497D03*
X011697Y008504D03*
X011697Y008511D03*
X011697Y008517D03*
X011697Y008524D03*
X011697Y008530D03*
X011697Y008537D03*
X011697Y008544D03*
X011697Y008550D03*
X011697Y008557D03*
X011697Y008563D03*
X011697Y008570D03*
X011697Y008577D03*
X011697Y008583D03*
X011697Y008590D03*
X011697Y008596D03*
X011697Y008603D03*
X011697Y008616D03*
X011724Y008120D03*
X011724Y008114D03*
X011724Y008107D03*
X011724Y008100D03*
X011724Y008094D03*
X011724Y008087D03*
X011724Y008081D03*
X011724Y008074D03*
X011724Y008067D03*
X011724Y008061D03*
X011724Y008054D03*
X011724Y008048D03*
X011724Y008041D03*
X011724Y008034D03*
X011724Y008028D03*
X011724Y008014D03*
X011724Y008008D03*
X011730Y007995D03*
X011730Y007988D03*
X011730Y007981D03*
X011730Y007975D03*
X011730Y007968D03*
X011730Y007962D03*
X011730Y007955D03*
X011730Y007948D03*
X011730Y007942D03*
X011730Y007935D03*
X011737Y007882D03*
X011737Y007876D03*
X011737Y007869D03*
X011737Y007862D03*
X011737Y007856D03*
X011737Y007849D03*
X011737Y007842D03*
X011737Y007836D03*
X011737Y007829D03*
X011737Y007823D03*
X011737Y007816D03*
X011737Y007809D03*
X011737Y007803D03*
X011737Y007796D03*
X011737Y007790D03*
X011737Y007783D03*
X011744Y007763D03*
X011744Y007756D03*
X011744Y007750D03*
X011744Y007743D03*
X011744Y007737D03*
X011744Y007730D03*
X011744Y007723D03*
X011744Y007717D03*
X011744Y007710D03*
X011744Y007704D03*
X011744Y007697D03*
X011744Y007690D03*
X011744Y007684D03*
X011744Y007677D03*
X011744Y007671D03*
X011750Y007644D03*
X011750Y007637D03*
X011750Y007631D03*
X011750Y007624D03*
X011750Y007618D03*
X011750Y007611D03*
X011750Y007604D03*
X011750Y007598D03*
X011750Y007591D03*
X011750Y007585D03*
X011750Y007578D03*
X011750Y007571D03*
X011750Y007565D03*
X011750Y007558D03*
X011750Y007551D03*
X011750Y007545D03*
X011757Y007525D03*
X011757Y007518D03*
X011757Y007512D03*
X011757Y007505D03*
X011757Y007499D03*
X011757Y007492D03*
X011757Y007485D03*
X011757Y007479D03*
X011757Y007472D03*
X011757Y007465D03*
X011757Y007459D03*
X011757Y007452D03*
X011757Y007446D03*
X011757Y007439D03*
X011757Y007432D03*
X011757Y007426D03*
X011763Y007399D03*
X011763Y007393D03*
X011763Y007386D03*
X011763Y007379D03*
X011763Y007373D03*
X011763Y007366D03*
X011763Y007360D03*
X011763Y007353D03*
X011763Y007346D03*
X011770Y007327D03*
X011770Y007320D03*
X011770Y007313D03*
X011770Y007307D03*
X011770Y007300D03*
X011770Y007294D03*
X011770Y007287D03*
X011777Y007260D03*
X011777Y007254D03*
X011777Y007247D03*
X011777Y007241D03*
X011777Y007234D03*
X011783Y007214D03*
X011783Y007208D03*
X011783Y007201D03*
X011790Y007181D03*
X011790Y007174D03*
X011790Y007168D03*
X011797Y007148D03*
X011803Y007122D03*
X011287Y006811D03*
X011287Y006804D03*
X011287Y006797D03*
X011287Y006791D03*
X011287Y006784D03*
X011287Y006778D03*
X011287Y006771D03*
X011287Y006764D03*
X011287Y006758D03*
X011287Y006751D03*
X011287Y006745D03*
X011287Y006738D03*
X011287Y006731D03*
X010110Y007995D03*
X010110Y008001D03*
X010110Y008008D03*
X010110Y008014D03*
X010110Y008021D03*
X010110Y008028D03*
X010110Y008034D03*
X010110Y008041D03*
X010110Y008048D03*
X010117Y008061D03*
X010117Y008067D03*
X010117Y008074D03*
X010117Y008081D03*
X010117Y008087D03*
X010117Y008094D03*
X010123Y008114D03*
X010123Y008120D03*
X010123Y008127D03*
X010130Y008147D03*
X010130Y008153D03*
X010130Y008160D03*
X010136Y008180D03*
X010136Y008186D03*
X012914Y008067D03*
X012914Y008061D03*
X012914Y008054D03*
X012914Y008048D03*
X012914Y008041D03*
X012914Y008034D03*
X012914Y008028D03*
X012914Y008021D03*
X012914Y008014D03*
X012914Y008008D03*
X012914Y008001D03*
X012914Y007995D03*
X012914Y007988D03*
X012914Y007981D03*
X012914Y007975D03*
X012914Y007968D03*
X012914Y007962D03*
X012914Y007955D03*
X012914Y007948D03*
X012908Y007942D03*
X012908Y007935D03*
X012908Y007928D03*
X012908Y007922D03*
X012908Y007915D03*
X012908Y007909D03*
X012908Y007902D03*
X012908Y007895D03*
X012908Y007889D03*
X012908Y007882D03*
X012908Y007876D03*
X012908Y007869D03*
X012908Y007862D03*
X012908Y007856D03*
X012908Y007849D03*
X012908Y007842D03*
X012908Y007836D03*
X012901Y007823D03*
X012901Y007816D03*
X012901Y007809D03*
X012901Y007803D03*
X012901Y007796D03*
X012901Y007790D03*
X012901Y007783D03*
X012901Y007776D03*
X012901Y007770D03*
X012901Y007763D03*
X012901Y007756D03*
X012901Y007750D03*
X012901Y007743D03*
X012901Y007737D03*
X012901Y007730D03*
X012901Y007723D03*
X012901Y007717D03*
X012894Y007671D03*
X012894Y007664D03*
X012894Y007657D03*
X012894Y007651D03*
X012894Y007644D03*
X012894Y007637D03*
X012894Y007631D03*
X012894Y007624D03*
X012894Y007618D03*
X012894Y007611D03*
X012894Y007604D03*
X012894Y007598D03*
X012894Y007591D03*
X012888Y007578D03*
X012888Y007571D03*
X012888Y007565D03*
X012888Y007558D03*
X012888Y007551D03*
X012888Y007545D03*
X012888Y007538D03*
X012888Y007532D03*
X012888Y007525D03*
X012888Y007518D03*
X012888Y007512D03*
X012888Y007505D03*
X012888Y007499D03*
X012888Y007492D03*
X012888Y007485D03*
X012888Y007479D03*
X012888Y007472D03*
X012881Y007419D03*
X012881Y007413D03*
X012881Y007406D03*
X012881Y007399D03*
X012881Y007393D03*
X012881Y007386D03*
X012881Y007379D03*
X012881Y007373D03*
X012875Y007346D03*
X012875Y007340D03*
X012875Y007333D03*
X012875Y007327D03*
X012875Y007320D03*
X012875Y007313D03*
X012875Y007307D03*
X012868Y007287D03*
X012868Y007280D03*
X012868Y007274D03*
X012868Y007267D03*
X012868Y007260D03*
X012861Y007241D03*
X012861Y007234D03*
X012861Y007227D03*
X012861Y007221D03*
X012861Y007214D03*
X012855Y007188D03*
X012855Y007181D03*
X012848Y007155D03*
X012921Y008074D03*
X012921Y008081D03*
X012921Y008087D03*
X012921Y008094D03*
X012921Y008100D03*
X012921Y008107D03*
X012921Y008114D03*
X012921Y008120D03*
X012921Y008127D03*
X012921Y008134D03*
X012921Y008140D03*
X012921Y008147D03*
X012921Y008153D03*
X012921Y008160D03*
X012921Y008167D03*
X012921Y008173D03*
X012928Y008219D03*
X012928Y008226D03*
X012928Y008233D03*
X012928Y008239D03*
X012928Y008246D03*
X012928Y008253D03*
X012928Y008259D03*
X012928Y008266D03*
X012928Y008272D03*
X012928Y008279D03*
X012928Y008286D03*
X012928Y008292D03*
X012934Y008299D03*
X012934Y008305D03*
X012934Y008312D03*
X012934Y008319D03*
X012934Y008325D03*
X012934Y008332D03*
X012934Y008339D03*
X012934Y008345D03*
X012934Y008352D03*
X012934Y008358D03*
X012934Y008365D03*
X012934Y008372D03*
X012934Y008378D03*
X012934Y008385D03*
X012934Y008391D03*
X012934Y008398D03*
X012934Y008405D03*
X012934Y008411D03*
X012934Y008418D03*
X012941Y008444D03*
X012941Y008451D03*
X012941Y008458D03*
X012941Y008464D03*
X012941Y008471D03*
X012941Y008477D03*
X012941Y008484D03*
X012941Y008491D03*
X012941Y008497D03*
X012941Y008504D03*
X012941Y008511D03*
X012941Y008517D03*
X012941Y008524D03*
X012941Y008530D03*
X012947Y008570D03*
X012947Y008577D03*
X012947Y008583D03*
X012947Y008590D03*
X012947Y008596D03*
X012947Y008603D03*
X012947Y008610D03*
X012947Y008616D03*
X014429Y008186D03*
X014429Y008180D03*
X014436Y008160D03*
X014436Y008153D03*
X014436Y008147D03*
X014436Y008140D03*
X014442Y008107D03*
X014442Y008100D03*
X014442Y008094D03*
X014442Y008087D03*
X014442Y008081D03*
X014442Y008074D03*
X014442Y008067D03*
X014442Y008061D03*
X014442Y008054D03*
X014449Y008014D03*
X014449Y008008D03*
X014449Y008001D03*
X014449Y007995D03*
X014449Y007988D03*
X014449Y007981D03*
X014449Y007975D03*
X014449Y007968D03*
X014449Y007962D03*
X014449Y007955D03*
X014449Y007948D03*
X014449Y007942D03*
X014449Y007935D03*
X014449Y007928D03*
X014449Y007922D03*
X014449Y007915D03*
X014449Y007909D03*
X014449Y007902D03*
X014449Y007895D03*
X014449Y007889D03*
X014449Y007882D03*
X014449Y007876D03*
X014449Y007869D03*
X014449Y007862D03*
X014449Y007856D03*
X014449Y007849D03*
X014449Y007842D03*
X014449Y007836D03*
X014449Y007829D03*
X014449Y007823D03*
X014449Y007816D03*
X014449Y007809D03*
X014449Y007803D03*
X014449Y007796D03*
X014449Y007790D03*
X014449Y007783D03*
X014449Y007776D03*
X014449Y007770D03*
X014449Y007763D03*
X014449Y007756D03*
X014449Y007750D03*
X014449Y007743D03*
X014449Y007737D03*
X014449Y007730D03*
X014449Y007723D03*
X014449Y007717D03*
X014449Y007710D03*
X014449Y007704D03*
X014449Y007697D03*
X014449Y007690D03*
X014449Y007684D03*
X014449Y007677D03*
X014449Y007671D03*
X014449Y007664D03*
X014449Y007657D03*
X014449Y007651D03*
X014449Y007644D03*
X014449Y007637D03*
X014449Y007631D03*
X014449Y007624D03*
X014449Y007618D03*
X014449Y007611D03*
X014449Y007604D03*
X014449Y007598D03*
X014449Y007591D03*
X014449Y007585D03*
X014449Y007578D03*
X014449Y007571D03*
X014449Y007565D03*
X014449Y007558D03*
X014449Y007551D03*
X014449Y007545D03*
X014449Y007538D03*
X014449Y007532D03*
X014449Y007525D03*
X014449Y007518D03*
X014449Y007512D03*
X014449Y007505D03*
X014449Y007499D03*
X014449Y007492D03*
X014449Y007485D03*
X014449Y007479D03*
X014449Y007472D03*
X014449Y007465D03*
X014449Y007459D03*
X014449Y007452D03*
X014449Y007446D03*
X014449Y007439D03*
X014449Y007432D03*
X014449Y007426D03*
X014449Y007419D03*
X014449Y007413D03*
X014449Y007406D03*
X014449Y007399D03*
X014449Y007393D03*
X014449Y007386D03*
X014449Y007379D03*
X014449Y007373D03*
X014449Y007366D03*
X014449Y007360D03*
X014449Y007353D03*
X014449Y007346D03*
X014449Y007340D03*
X014449Y007333D03*
X014449Y007327D03*
X014449Y007320D03*
X014449Y007313D03*
X014442Y007294D03*
X014442Y007287D03*
X014442Y007280D03*
X014442Y007274D03*
X014442Y007267D03*
X014442Y007260D03*
X014442Y007254D03*
X014442Y007247D03*
X014442Y007241D03*
X014442Y007234D03*
X014442Y007227D03*
X014442Y007221D03*
X014436Y007194D03*
X014436Y007188D03*
X014436Y007181D03*
X014429Y007161D03*
X014429Y007155D03*
X005037Y008425D03*
X002980Y006837D03*
D43*
X003972Y006189D03*
D44*
X003969Y006196D03*
D45*
X002973Y006817D03*
X002973Y006824D03*
X005043Y006698D03*
X005275Y006209D03*
X005275Y006202D03*
X005043Y008438D03*
X008483Y008444D03*
X008483Y008451D03*
X008483Y008458D03*
X008483Y008464D03*
X008483Y008471D03*
X008483Y008477D03*
X008483Y008484D03*
X008483Y008491D03*
X008483Y008497D03*
X008483Y008504D03*
X008483Y008511D03*
X008483Y008517D03*
X008483Y008524D03*
X008483Y008530D03*
X008483Y008537D03*
X008483Y008544D03*
X008483Y008550D03*
X008483Y008557D03*
X008483Y008563D03*
X008483Y008570D03*
X008483Y008577D03*
X008483Y008583D03*
X008483Y008590D03*
X008483Y008596D03*
X008483Y008603D03*
X008476Y008173D03*
X008476Y008167D03*
X008476Y008160D03*
X008476Y008153D03*
X008476Y008147D03*
X008476Y008140D03*
X008476Y008134D03*
X008476Y008127D03*
X008476Y008120D03*
X008476Y008114D03*
X008476Y008107D03*
X008476Y008100D03*
X008476Y008094D03*
X008476Y008087D03*
X008476Y008081D03*
X008476Y008074D03*
X008476Y008067D03*
X008476Y008061D03*
X008476Y008054D03*
X008476Y008048D03*
X008476Y008041D03*
X008476Y008034D03*
X008476Y008028D03*
X008476Y008021D03*
X008476Y008014D03*
X008476Y008008D03*
X008476Y008001D03*
X008476Y007995D03*
X008476Y007988D03*
X008476Y007981D03*
X008476Y007975D03*
X008476Y007968D03*
X008476Y007962D03*
X008476Y007955D03*
X008476Y007948D03*
X008476Y007942D03*
X008476Y007935D03*
X008476Y007928D03*
X008476Y007922D03*
X008476Y007915D03*
X008476Y007909D03*
X008476Y007902D03*
X008476Y007895D03*
X008476Y007889D03*
X008476Y007882D03*
X008476Y007876D03*
X008476Y007869D03*
X008476Y007862D03*
X008476Y007856D03*
X008476Y007849D03*
X008476Y007842D03*
X008476Y007836D03*
X008476Y007829D03*
X008476Y007823D03*
X008476Y007816D03*
X008476Y007809D03*
X008476Y007803D03*
X008476Y007796D03*
X008476Y007790D03*
X008476Y007783D03*
X008476Y007776D03*
X008476Y007770D03*
X008476Y007763D03*
X008476Y007756D03*
X008476Y007750D03*
X008476Y007743D03*
X008476Y007737D03*
X008476Y007730D03*
X008476Y007723D03*
X008476Y007717D03*
X008476Y007710D03*
X008476Y007704D03*
X008476Y007697D03*
X008476Y007690D03*
X008476Y007684D03*
X008476Y007677D03*
X008476Y007671D03*
X008476Y007664D03*
X008476Y007657D03*
X008476Y007651D03*
X008476Y007644D03*
X008476Y007637D03*
X008476Y007631D03*
X008476Y007624D03*
X008476Y007618D03*
X008476Y007611D03*
X008476Y007604D03*
X008476Y007598D03*
X008476Y007591D03*
X008476Y007585D03*
X008476Y007578D03*
X008476Y007571D03*
X008476Y007565D03*
X008476Y007558D03*
X008476Y007551D03*
X008476Y007545D03*
X008476Y007538D03*
X008476Y007532D03*
X008476Y007525D03*
X008476Y007518D03*
X008476Y007512D03*
D46*
X003965Y006202D03*
D47*
X003962Y006209D03*
D48*
X002970Y006811D03*
X005047Y006692D03*
X005272Y006215D03*
X005047Y008444D03*
X008480Y008438D03*
X008480Y008431D03*
X008480Y008425D03*
X008480Y008418D03*
X008480Y008411D03*
X008480Y008405D03*
X008480Y008398D03*
X008480Y008391D03*
X008480Y008385D03*
X008480Y008378D03*
X008480Y008372D03*
X008480Y008365D03*
X008480Y008358D03*
X008480Y008352D03*
X008480Y008345D03*
X008480Y008339D03*
X008480Y008332D03*
X008480Y008325D03*
X008480Y008319D03*
X008480Y008312D03*
X008480Y008305D03*
X008480Y008299D03*
X008480Y008292D03*
X008480Y008286D03*
X008480Y008279D03*
X008480Y008272D03*
X008480Y008266D03*
X008480Y008259D03*
X008480Y008253D03*
X008480Y008246D03*
X008480Y008239D03*
X008480Y008233D03*
X008480Y008226D03*
X008480Y008219D03*
X008480Y008213D03*
X008480Y008206D03*
X008480Y008200D03*
X008480Y008193D03*
X008480Y008186D03*
X008480Y008180D03*
X008480Y008616D03*
X008473Y007505D03*
X008473Y007499D03*
X008473Y007492D03*
D49*
X003959Y006222D03*
X003959Y006215D03*
D50*
X002967Y006804D03*
X005050Y006685D03*
X005268Y006222D03*
X005050Y008451D03*
D51*
X005053Y008458D03*
X005053Y006678D03*
X005265Y006229D03*
X002963Y006797D03*
X010656Y008616D03*
D52*
X003955Y006229D03*
D53*
X002960Y006791D03*
X005057Y006672D03*
X005262Y006235D03*
X005057Y008464D03*
D54*
X003952Y006235D03*
D55*
X002957Y006784D03*
X005060Y006665D03*
X005258Y006242D03*
X005060Y008471D03*
D56*
X003949Y006242D03*
D57*
X002953Y006778D03*
X005063Y006659D03*
X005255Y006248D03*
X005063Y008074D03*
X005063Y008477D03*
X005063Y008484D03*
D58*
X003946Y006248D03*
D59*
X002950Y006771D03*
X005067Y006652D03*
X005252Y006255D03*
X005067Y007161D03*
X005067Y007168D03*
X005067Y007174D03*
X005067Y007181D03*
X005067Y007188D03*
X005067Y007194D03*
X005067Y007201D03*
X005067Y007208D03*
X005067Y007214D03*
X005067Y007221D03*
X005067Y007227D03*
X005067Y007234D03*
X005067Y007241D03*
X005067Y007247D03*
X005067Y007254D03*
X005067Y007260D03*
X005067Y007267D03*
X005067Y007274D03*
X005067Y007280D03*
X005067Y007287D03*
X005067Y007294D03*
X005067Y007300D03*
X005067Y007307D03*
X005067Y007313D03*
X005067Y007320D03*
X005067Y007327D03*
X005067Y007333D03*
X005067Y007340D03*
X005067Y007346D03*
X005067Y007353D03*
X005067Y007360D03*
X005067Y007366D03*
X005067Y007373D03*
X005067Y007379D03*
X005067Y007386D03*
X005067Y007393D03*
X005067Y007399D03*
X005067Y007406D03*
X005067Y007413D03*
X005067Y007419D03*
X005067Y007426D03*
X005067Y007432D03*
X005067Y007439D03*
X005067Y007446D03*
X005067Y007452D03*
X005067Y007459D03*
X005067Y007465D03*
X005067Y007472D03*
X005067Y007479D03*
X005067Y007485D03*
X005067Y007492D03*
X005067Y007499D03*
X005067Y007505D03*
X005067Y007512D03*
X005067Y007518D03*
X005067Y007525D03*
X005067Y007532D03*
X005067Y007538D03*
X005067Y007545D03*
X005067Y007551D03*
X005067Y007558D03*
X005067Y007565D03*
X005067Y007571D03*
X005067Y007578D03*
X005067Y007585D03*
X005067Y007591D03*
X005067Y007598D03*
X005067Y007604D03*
X005067Y007611D03*
X005067Y007618D03*
X005067Y007624D03*
X005067Y007631D03*
X005067Y007637D03*
X005067Y007644D03*
X005067Y007651D03*
X005067Y007657D03*
X005067Y007664D03*
X005067Y007671D03*
X005067Y007677D03*
X005067Y007684D03*
X005067Y007690D03*
X005067Y007697D03*
X005067Y007704D03*
X005067Y007710D03*
X005067Y007717D03*
X005067Y007723D03*
X005067Y007730D03*
X005067Y007737D03*
X005067Y007743D03*
X005067Y007750D03*
X005067Y007756D03*
X005067Y007763D03*
X005067Y007770D03*
X005067Y007776D03*
X005067Y007783D03*
X005067Y007790D03*
X005067Y007796D03*
X005067Y007803D03*
X005067Y007809D03*
X005067Y007816D03*
X005067Y007823D03*
X005067Y007829D03*
X005067Y007836D03*
X005067Y007842D03*
X005067Y007849D03*
X005067Y007856D03*
X005067Y007862D03*
X005067Y007869D03*
X005067Y007876D03*
X005067Y007882D03*
X005067Y007889D03*
X005067Y007895D03*
X005067Y007902D03*
X005067Y007909D03*
X005067Y007915D03*
X005067Y007922D03*
X005067Y007928D03*
X005067Y007935D03*
X005067Y007942D03*
X005067Y007948D03*
X005067Y007955D03*
X005067Y007962D03*
X005067Y007968D03*
X005067Y007975D03*
X005067Y007981D03*
X005067Y007988D03*
X005067Y007995D03*
X005067Y008001D03*
X005067Y008008D03*
X005067Y008014D03*
X005067Y008021D03*
X005067Y008028D03*
X005067Y008034D03*
X005067Y008041D03*
X005067Y008048D03*
X005067Y008054D03*
X005067Y008061D03*
X005067Y008067D03*
X005067Y008081D03*
X005067Y008087D03*
X005067Y008094D03*
X005067Y008491D03*
D60*
X003942Y006255D03*
D61*
X002947Y006764D03*
X005070Y006645D03*
X005249Y006262D03*
X005070Y008497D03*
D62*
X003939Y006262D03*
D63*
X002943Y006758D03*
X005073Y006639D03*
X005245Y006268D03*
X005073Y008504D03*
D64*
X003936Y006268D03*
D65*
X002940Y006751D03*
X005077Y006632D03*
X005077Y006625D03*
X005242Y006275D03*
X005077Y008511D03*
D66*
X003932Y006275D03*
D67*
X002937Y006745D03*
X005080Y006619D03*
X005239Y006282D03*
X005080Y008517D03*
D68*
X003929Y006282D03*
D69*
X002934Y006738D03*
X005083Y006612D03*
X005235Y006288D03*
X005083Y008524D03*
D70*
X003926Y006288D03*
D71*
X002930Y006718D03*
X002930Y006731D03*
X005086Y006606D03*
X005232Y006301D03*
X005232Y006295D03*
X005086Y008530D03*
D72*
X003922Y006295D03*
D73*
X003919Y006301D03*
D74*
X002927Y006725D03*
X005090Y006599D03*
X005229Y006308D03*
X005090Y008537D03*
D75*
X003916Y006308D03*
D76*
X005093Y006592D03*
X005225Y006315D03*
X005093Y008544D03*
D77*
X003912Y006315D03*
D78*
X005096Y006586D03*
X005222Y006321D03*
X005096Y008550D03*
D79*
X003909Y006328D03*
X003909Y006321D03*
D80*
X005100Y006579D03*
X005219Y006328D03*
X005100Y008557D03*
D81*
X005103Y008563D03*
X005103Y006573D03*
X005215Y006334D03*
D82*
X003906Y006334D03*
D83*
X005106Y006566D03*
X005212Y006341D03*
X005106Y008570D03*
D84*
X003903Y006341D03*
D85*
X005110Y006559D03*
X005209Y006348D03*
X005110Y008577D03*
D86*
X003899Y006348D03*
D87*
X005113Y006553D03*
X005206Y006354D03*
X005113Y008583D03*
X005113Y008590D03*
D88*
X003896Y006354D03*
D89*
X005116Y006546D03*
X005202Y006361D03*
X005116Y008596D03*
D90*
X003893Y006361D03*
D91*
X005120Y006539D03*
X005199Y006368D03*
D92*
X003889Y006368D03*
D93*
X005123Y006533D03*
X005196Y006374D03*
X005123Y008603D03*
D94*
X003886Y006374D03*
D95*
X005126Y006526D03*
X005192Y006381D03*
X005126Y008610D03*
X005126Y008616D03*
D96*
X003883Y006381D03*
D97*
X005129Y006520D03*
X005189Y006387D03*
D98*
X003879Y006387D03*
D99*
X005133Y006506D03*
X005133Y006513D03*
X005186Y006394D03*
D100*
X003876Y006394D03*
D101*
X005136Y006500D03*
X005182Y006401D03*
D102*
X003873Y006401D03*
D103*
X005139Y006493D03*
X005179Y006414D03*
X005179Y006407D03*
D104*
X003869Y006407D03*
D105*
X003866Y006414D03*
D106*
X005143Y006487D03*
X005176Y006420D03*
D107*
X003863Y006420D03*
D108*
X005149Y006473D03*
X005169Y006434D03*
X005169Y006427D03*
D109*
X003860Y006427D03*
X003860Y006434D03*
D110*
X005153Y006467D03*
X005166Y006440D03*
X008400Y006718D03*
D111*
X003856Y006440D03*
D112*
X003853Y006447D03*
D113*
X003850Y006454D03*
D114*
X003846Y006460D03*
D115*
X003843Y006467D03*
D116*
X003840Y006473D03*
D117*
X005146Y006480D03*
X010232Y007532D03*
D118*
X003836Y006480D03*
D119*
X003833Y006487D03*
D120*
X003830Y006493D03*
D121*
X003826Y006500D03*
D122*
X003823Y006506D03*
D123*
X003820Y006513D03*
D124*
X003817Y006520D03*
D125*
X003813Y006526D03*
D126*
X003810Y006533D03*
D127*
X003807Y006539D03*
D128*
X003803Y006546D03*
X003803Y006553D03*
D129*
X003800Y006559D03*
D130*
X003797Y006566D03*
D131*
X003793Y006573D03*
D132*
X003790Y006579D03*
D133*
X003787Y006586D03*
D134*
X003783Y006592D03*
D135*
X003780Y006599D03*
D136*
X003777Y006606D03*
D137*
X003774Y006612D03*
D138*
X003770Y006619D03*
D139*
X003767Y006625D03*
D140*
X003764Y006632D03*
D141*
X003760Y006639D03*
X003760Y006645D03*
D142*
X003754Y006652D03*
D143*
X003750Y006659D03*
X003750Y006665D03*
D144*
X003747Y006672D03*
D145*
X003744Y006678D03*
D146*
X003740Y006685D03*
D147*
X003737Y006692D03*
D148*
X003734Y006698D03*
D149*
X002977Y006831D03*
X005040Y006705D03*
X006297Y006936D03*
X006297Y006943D03*
X006297Y006950D03*
X006297Y006956D03*
X006297Y007492D03*
X006297Y007525D03*
X006297Y007750D03*
X006297Y007756D03*
X006297Y007790D03*
X006297Y007796D03*
X006297Y007803D03*
X006297Y008233D03*
X006297Y008239D03*
X007309Y008358D03*
X007309Y008365D03*
X007309Y008372D03*
X007309Y008398D03*
X008480Y008610D03*
X010074Y007406D03*
X010074Y007399D03*
X011264Y007181D03*
X011767Y007333D03*
X011767Y007340D03*
X011754Y007532D03*
X011754Y007538D03*
X011727Y008001D03*
X011727Y008021D03*
X011224Y007909D03*
X012891Y007585D03*
X005040Y008431D03*
D150*
X003731Y006705D03*
D151*
X003727Y006711D03*
D152*
X003800Y006718D03*
X004369Y008755D03*
D153*
X003135Y008596D03*
X003135Y008590D03*
X003135Y007168D03*
X004881Y007042D03*
X013685Y006725D03*
D154*
X013900Y006850D03*
X005923Y006731D03*
X005923Y006725D03*
X004243Y008570D03*
X004243Y008577D03*
X003350Y008134D03*
X003350Y007624D03*
D155*
X003489Y007922D03*
X003952Y006725D03*
D156*
X003952Y007062D03*
X004329Y007465D03*
X004845Y007122D03*
X004243Y008385D03*
X003172Y008517D03*
X003172Y007241D03*
X013721Y006731D03*
D157*
X012322Y006731D03*
X010292Y008391D03*
X008559Y007241D03*
X008559Y007234D03*
X008559Y007227D03*
X004954Y006890D03*
X004954Y008246D03*
X003063Y008749D03*
X003063Y007009D03*
D158*
X003952Y006731D03*
X003483Y007902D03*
D159*
X003201Y008451D03*
X003201Y007307D03*
X012322Y006764D03*
X013751Y006738D03*
D160*
X012322Y006738D03*
X004914Y006976D03*
X004914Y008167D03*
X003102Y008663D03*
X003102Y007095D03*
D161*
X003354Y007631D03*
X003354Y008127D03*
X005920Y006738D03*
X010662Y008484D03*
X012322Y006850D03*
X013903Y006857D03*
X013903Y008484D03*
D162*
X003952Y006738D03*
X003476Y007889D03*
D163*
X003221Y008411D03*
X003221Y007346D03*
X013771Y006745D03*
D164*
X012326Y006745D03*
X004878Y007049D03*
X003952Y007102D03*
X003139Y007174D03*
X004243Y008345D03*
X004243Y008352D03*
X003139Y008583D03*
D165*
X003357Y008120D03*
X003357Y007637D03*
X003952Y006870D03*
X004243Y008583D03*
X005917Y006745D03*
X012319Y006857D03*
X013906Y006864D03*
X013906Y008477D03*
D166*
X003949Y006745D03*
X003473Y007882D03*
D167*
X003231Y007373D03*
X003231Y007366D03*
X003952Y007002D03*
X004243Y008444D03*
X003231Y008391D03*
X009521Y008550D03*
X013781Y006751D03*
D168*
X012322Y006751D03*
X004862Y007088D03*
X003949Y007082D03*
X003155Y007208D03*
X003155Y008550D03*
D169*
X003360Y008114D03*
X003360Y007644D03*
X003949Y006864D03*
X005913Y006751D03*
X010662Y008477D03*
X013910Y008471D03*
X013910Y006870D03*
D170*
X003949Y006751D03*
X003466Y007869D03*
D171*
X003251Y007413D03*
X003952Y006983D03*
X004243Y008464D03*
X004243Y008471D03*
X003251Y008345D03*
X009501Y008530D03*
X013801Y006758D03*
D172*
X012322Y006758D03*
X004835Y007141D03*
X003182Y007267D03*
X003182Y008491D03*
D173*
X003363Y008107D03*
X003363Y007651D03*
X004243Y008590D03*
X005910Y006764D03*
X005910Y006758D03*
X013913Y006877D03*
X013913Y008464D03*
D174*
X003949Y006758D03*
X003459Y007856D03*
D175*
X003261Y007432D03*
X003949Y006969D03*
X003261Y008325D03*
X009485Y008511D03*
X012322Y006791D03*
X013811Y006764D03*
D176*
X003949Y006764D03*
X003453Y007842D03*
D177*
X003271Y007452D03*
X003952Y006956D03*
X003271Y008305D03*
X004243Y008491D03*
X009475Y008497D03*
X013820Y006771D03*
D178*
X012319Y006771D03*
X009541Y008563D03*
X004243Y008431D03*
X004329Y007419D03*
X003952Y007016D03*
X003218Y007340D03*
X003218Y008418D03*
D179*
X003370Y008094D03*
X003370Y007664D03*
X003952Y006850D03*
X004243Y008596D03*
X005903Y006778D03*
X005903Y006771D03*
X013920Y006890D03*
X013920Y008451D03*
D180*
X003952Y006771D03*
X003449Y007836D03*
D181*
X003281Y008286D03*
X009458Y008477D03*
X009465Y008484D03*
X010662Y008537D03*
X013830Y006778D03*
D182*
X012322Y006778D03*
X009518Y008544D03*
X003234Y008385D03*
X003234Y007379D03*
D183*
X003443Y007816D03*
X003443Y007823D03*
X003952Y006778D03*
D184*
X003952Y006936D03*
X003291Y007499D03*
X003291Y008259D03*
X004243Y008511D03*
X013840Y006784D03*
D185*
X012322Y006784D03*
X003248Y007406D03*
X003248Y008352D03*
D186*
X003373Y008087D03*
X003373Y007671D03*
X005900Y006784D03*
X010662Y008464D03*
X012322Y006870D03*
X013923Y006897D03*
X013923Y008444D03*
D187*
X005837Y006930D03*
X003952Y006784D03*
X003436Y007803D03*
X003436Y007809D03*
D188*
X003297Y007512D03*
X003952Y006930D03*
X003297Y008246D03*
X004243Y008517D03*
X009435Y008438D03*
X012319Y006811D03*
X013847Y006791D03*
X013847Y008550D03*
D189*
X013926Y008438D03*
X013926Y006903D03*
X005897Y006791D03*
X003952Y006844D03*
X003377Y007677D03*
X003377Y008081D03*
X004243Y008603D03*
D190*
X003430Y007790D03*
X003952Y006791D03*
X005844Y006910D03*
X005844Y006916D03*
D191*
X003952Y006923D03*
X003304Y007525D03*
X003304Y008233D03*
X004243Y008524D03*
X009422Y008418D03*
X009429Y008425D03*
X010659Y008524D03*
X013854Y006797D03*
D192*
X012322Y006797D03*
X003274Y007459D03*
X003274Y008299D03*
D193*
X003380Y008074D03*
X003380Y007684D03*
X005893Y006797D03*
X010662Y008458D03*
X012322Y006877D03*
X013930Y006910D03*
X013930Y008425D03*
X013930Y008431D03*
D194*
X010666Y008405D03*
X005850Y006897D03*
X003952Y006797D03*
X003423Y007776D03*
D195*
X003311Y007538D03*
X003311Y008219D03*
X004243Y008530D03*
X003952Y006916D03*
X009415Y008405D03*
X013860Y006804D03*
D196*
X012322Y006804D03*
X013837Y008557D03*
X009452Y008464D03*
X003287Y008272D03*
X003287Y008266D03*
X003287Y007492D03*
X003287Y007485D03*
D197*
X003383Y007690D03*
X003383Y007697D03*
X003383Y008061D03*
X003383Y008067D03*
X004243Y008610D03*
X003952Y006837D03*
X005890Y006804D03*
X013933Y006916D03*
X013933Y008418D03*
D198*
X014333Y008358D03*
X014326Y006976D03*
X010246Y008372D03*
X008519Y006976D03*
X008519Y006969D03*
X008519Y006963D03*
X008519Y006956D03*
X008519Y006950D03*
X004994Y006804D03*
X004994Y008332D03*
X003023Y006923D03*
D199*
X003416Y007763D03*
X003952Y006804D03*
X005857Y006877D03*
X005857Y006883D03*
X005857Y007538D03*
X005857Y007598D03*
X005857Y007604D03*
X005857Y007611D03*
X005857Y007618D03*
X005857Y007624D03*
X005857Y007631D03*
X005857Y007637D03*
X005857Y007644D03*
X005857Y007651D03*
X005857Y007657D03*
X005857Y007664D03*
X005857Y007671D03*
X005857Y007677D03*
X005857Y007684D03*
X005857Y007690D03*
X005857Y007697D03*
X005857Y007704D03*
X005857Y007710D03*
X005857Y007737D03*
X012319Y006923D03*
D200*
X013867Y006811D03*
X004243Y008537D03*
X003317Y008206D03*
X003317Y007551D03*
X003952Y006910D03*
D201*
X003387Y007704D03*
X005887Y006811D03*
X010662Y008451D03*
X012322Y006883D03*
X013936Y006923D03*
X013936Y006930D03*
X013936Y008411D03*
D202*
X011082Y008372D03*
X009105Y008372D03*
X008523Y006996D03*
X008523Y006989D03*
X008523Y006983D03*
X004991Y006811D03*
X003952Y007221D03*
X003026Y006930D03*
X004243Y008226D03*
X004243Y008233D03*
X004991Y008325D03*
D203*
X003410Y007750D03*
X003952Y006811D03*
X005864Y006864D03*
D204*
X003952Y006903D03*
X003324Y007565D03*
X003324Y008193D03*
X004243Y008544D03*
X013873Y006817D03*
D205*
X012322Y006817D03*
X013857Y008537D03*
X009419Y008411D03*
X003307Y008226D03*
X003307Y007532D03*
D206*
X003390Y007710D03*
X003390Y008048D03*
X003390Y008054D03*
X004243Y008616D03*
X003952Y006831D03*
X005883Y006824D03*
X005883Y006817D03*
X012319Y006890D03*
X013940Y008405D03*
D207*
X014320Y008365D03*
X012732Y006963D03*
X011912Y006963D03*
X008526Y007002D03*
X008526Y007009D03*
X008526Y007016D03*
X008526Y007022D03*
X004987Y006817D03*
X004326Y007611D03*
X003949Y007214D03*
X003029Y006943D03*
X003029Y006936D03*
X004987Y008319D03*
D208*
X003403Y007737D03*
X003952Y006817D03*
X005870Y006850D03*
D209*
X003952Y006897D03*
X003330Y007585D03*
X003330Y008180D03*
X004243Y008550D03*
X013880Y006824D03*
D210*
X012322Y006824D03*
X013870Y008524D03*
X010662Y008511D03*
X003320Y008200D03*
X003320Y007558D03*
D211*
X004323Y007604D03*
X004402Y007690D03*
X004415Y007704D03*
X004422Y007710D03*
X004428Y007717D03*
X004435Y007723D03*
X004984Y008312D03*
X004984Y006824D03*
X003033Y008808D03*
X008529Y007042D03*
X008529Y007036D03*
X008529Y007029D03*
X010255Y008378D03*
X011069Y008378D03*
X014317Y006969D03*
D212*
X012319Y006897D03*
X005877Y006837D03*
X003952Y006824D03*
X003397Y007723D03*
X003397Y008034D03*
D213*
X003334Y008173D03*
X010662Y008504D03*
X013883Y008511D03*
X013883Y006831D03*
D214*
X012322Y006831D03*
X013877Y008517D03*
X003327Y008186D03*
X003327Y007578D03*
X003327Y007571D03*
D215*
X003393Y007717D03*
X003393Y008041D03*
X005880Y006831D03*
X010662Y008444D03*
D216*
X009114Y008378D03*
X008532Y007069D03*
X008532Y007062D03*
X008532Y007055D03*
X008532Y007049D03*
X011919Y006956D03*
X004981Y006831D03*
X004332Y007618D03*
X004339Y007624D03*
X004346Y007631D03*
X004352Y007637D03*
X004359Y007644D03*
X004366Y007651D03*
X004372Y007657D03*
X004379Y007664D03*
X004385Y007671D03*
X004392Y007677D03*
X004399Y007684D03*
X004412Y007697D03*
X004438Y007730D03*
X004445Y007737D03*
X004451Y007743D03*
X004458Y007750D03*
X004465Y007756D03*
X004471Y007763D03*
X004478Y007770D03*
X004485Y007776D03*
X004491Y007783D03*
X004498Y007790D03*
X004504Y007796D03*
X004524Y007816D03*
X004531Y007823D03*
X004531Y007829D03*
X004544Y007842D03*
X004557Y007856D03*
X004571Y007869D03*
X004577Y007876D03*
X004584Y007882D03*
X004597Y007895D03*
X004604Y007902D03*
X004610Y007909D03*
X004623Y007922D03*
X004630Y007928D03*
X004637Y007935D03*
X004643Y007942D03*
X004657Y007962D03*
X004709Y008014D03*
X004716Y008021D03*
X004723Y008028D03*
X004729Y008034D03*
X004736Y008041D03*
X004743Y008048D03*
X004981Y008305D03*
X004240Y008239D03*
X003036Y008802D03*
X003036Y006956D03*
X003036Y006950D03*
D217*
X003340Y007604D03*
X003340Y008153D03*
X003340Y008160D03*
X004240Y008563D03*
X003949Y006883D03*
X010662Y008497D03*
X013890Y006837D03*
D218*
X012319Y006837D03*
X013887Y008504D03*
X004243Y008557D03*
X003337Y008167D03*
X003337Y007598D03*
X003337Y007591D03*
X003952Y006890D03*
D219*
X003952Y007208D03*
X004316Y007598D03*
X004514Y007809D03*
X004541Y007836D03*
X004554Y007849D03*
X004567Y007862D03*
X004594Y007889D03*
X004614Y007915D03*
X004647Y007948D03*
X004653Y007955D03*
X004666Y007968D03*
X004673Y007975D03*
X004680Y007981D03*
X004686Y007988D03*
X004693Y007995D03*
X004700Y008001D03*
X004706Y008008D03*
X004746Y008054D03*
X004752Y008061D03*
X004759Y008067D03*
X004766Y008074D03*
X004772Y008081D03*
X004779Y008087D03*
X004786Y008094D03*
X004977Y008299D03*
X004243Y008246D03*
X003039Y008795D03*
X003039Y006963D03*
X004977Y006837D03*
X008536Y007075D03*
X008536Y007082D03*
X010666Y008610D03*
X011056Y008385D03*
X012723Y006956D03*
X014310Y008372D03*
D220*
X013893Y008497D03*
X013893Y006844D03*
X003344Y007611D03*
X003344Y008147D03*
D221*
X003347Y008140D03*
X003347Y007618D03*
X003949Y006877D03*
X010662Y008491D03*
X012322Y006844D03*
X013897Y008491D03*
D222*
X012322Y006903D03*
X010662Y008438D03*
X005874Y006844D03*
X003400Y007730D03*
D223*
X003043Y006969D03*
X004974Y006850D03*
X004974Y006844D03*
X004974Y008292D03*
X003043Y008788D03*
X008539Y007115D03*
X008539Y007108D03*
X008539Y007102D03*
X008539Y007095D03*
X008539Y007088D03*
X010272Y008385D03*
D224*
X010662Y008425D03*
X010662Y008431D03*
X012322Y006910D03*
X005867Y006857D03*
X003406Y007743D03*
D225*
X003952Y007201D03*
X004323Y007591D03*
X004243Y008253D03*
X004971Y008286D03*
X004971Y006857D03*
X003046Y006976D03*
X003046Y008782D03*
X008542Y007135D03*
X008542Y007128D03*
X008542Y007122D03*
X009131Y008385D03*
X014297Y006963D03*
D226*
X013916Y006883D03*
X012322Y006864D03*
X013916Y008458D03*
X010662Y008471D03*
X003949Y006857D03*
X003367Y007657D03*
X003367Y008100D03*
D227*
X003049Y008775D03*
X003949Y007194D03*
X004967Y006864D03*
X004967Y008272D03*
X004967Y008279D03*
X003049Y006983D03*
X008546Y007141D03*
X008546Y007148D03*
X008546Y007155D03*
X012706Y006950D03*
D228*
X012322Y006916D03*
X010662Y008418D03*
X005860Y007730D03*
X005860Y007723D03*
X005860Y007717D03*
X005860Y007591D03*
X005860Y007585D03*
X005860Y007578D03*
X005860Y007571D03*
X005860Y007565D03*
X005860Y007558D03*
X005860Y007551D03*
X005860Y007545D03*
X005860Y006870D03*
X003413Y007756D03*
D229*
X003053Y006989D03*
X004323Y007585D03*
X004243Y008259D03*
X004964Y008266D03*
X004964Y006870D03*
X003053Y008768D03*
X008549Y007181D03*
X008549Y007174D03*
X008549Y007168D03*
X008549Y007161D03*
X011935Y006950D03*
X014290Y008378D03*
D230*
X014287Y006956D03*
X008552Y007188D03*
X008552Y007194D03*
X008552Y007201D03*
X004961Y006877D03*
X003949Y007188D03*
X003056Y006996D03*
X003056Y008762D03*
D231*
X003059Y008755D03*
X004243Y008266D03*
X004957Y008259D03*
X004957Y008253D03*
X004323Y007578D03*
X003952Y007181D03*
X004957Y006883D03*
X003059Y007002D03*
X008556Y007208D03*
X008556Y007214D03*
X008556Y007221D03*
X009151Y008391D03*
X011036Y008391D03*
D232*
X010662Y008411D03*
X012322Y006930D03*
X005854Y006890D03*
X003420Y007770D03*
D233*
X004323Y007571D03*
X004951Y008239D03*
X004243Y008272D03*
X003066Y008742D03*
X003066Y007016D03*
X004951Y006897D03*
X008562Y007247D03*
X008562Y007254D03*
X008562Y007260D03*
D234*
X005847Y006903D03*
X003426Y007783D03*
D235*
X003949Y007174D03*
X004948Y006903D03*
X004948Y008233D03*
X003069Y008735D03*
X003069Y007022D03*
X008566Y007267D03*
X008566Y007274D03*
X008566Y007280D03*
X008566Y007287D03*
X008566Y007294D03*
X014274Y008385D03*
D236*
X012676Y006943D03*
X011962Y006943D03*
X008575Y007333D03*
X008569Y007307D03*
X008569Y007300D03*
X004944Y006910D03*
X004323Y007565D03*
X003952Y007168D03*
X003072Y007029D03*
X004243Y008279D03*
X004944Y008226D03*
X003072Y008729D03*
D237*
X003076Y008722D03*
X004485Y007406D03*
X004491Y007399D03*
X004941Y006916D03*
X004941Y008219D03*
X003076Y007036D03*
X008572Y007313D03*
X008572Y007320D03*
X008572Y007327D03*
X008579Y007340D03*
X008579Y007346D03*
X008579Y007353D03*
X008579Y007360D03*
X014260Y006950D03*
D238*
X005840Y006923D03*
X003433Y007796D03*
D239*
X003952Y007161D03*
X004323Y007558D03*
X004494Y007393D03*
X004501Y007386D03*
X004541Y007346D03*
X004938Y006923D03*
X004938Y008213D03*
X004243Y008286D03*
X003079Y008716D03*
X003079Y007049D03*
X003079Y007042D03*
X008582Y007366D03*
X008582Y007373D03*
X008582Y007379D03*
D240*
X008585Y007386D03*
X008585Y007393D03*
X008585Y007399D03*
X009181Y008398D03*
X010662Y008603D03*
X004934Y008206D03*
X004511Y007379D03*
X004518Y007373D03*
X004524Y007366D03*
X004531Y007360D03*
X004537Y007353D03*
X004551Y007340D03*
X004557Y007333D03*
X004564Y007327D03*
X004571Y007320D03*
X004577Y007313D03*
X004584Y007307D03*
X004590Y007300D03*
X004597Y007294D03*
X004934Y006930D03*
X003082Y007055D03*
X003082Y008709D03*
D241*
X003178Y008504D03*
X003178Y008497D03*
X004243Y008391D03*
X004329Y007459D03*
X003952Y007055D03*
X003178Y007254D03*
X003178Y007260D03*
X004838Y007135D03*
X009587Y008590D03*
X014151Y006936D03*
D242*
X012633Y006936D03*
X004901Y007002D03*
X004901Y008134D03*
X003115Y008636D03*
X003115Y007128D03*
X003115Y007122D03*
D243*
X003112Y007115D03*
X003952Y007128D03*
X004323Y007525D03*
X004905Y008140D03*
X004905Y008147D03*
X004243Y008319D03*
X003112Y008643D03*
X004905Y006996D03*
X012008Y006936D03*
X013662Y008616D03*
D244*
X014250Y008391D03*
X011003Y008398D03*
X010322Y008398D03*
X008589Y007419D03*
X008589Y007413D03*
X008589Y007406D03*
X004931Y006936D03*
X004640Y007247D03*
X004633Y007254D03*
X004627Y007260D03*
X004620Y007267D03*
X004614Y007274D03*
X004607Y007280D03*
X004600Y007287D03*
X004323Y007551D03*
X003952Y007155D03*
X003086Y007062D03*
X004243Y008292D03*
X004931Y008200D03*
X003086Y008696D03*
X003086Y008702D03*
D245*
X003109Y008649D03*
X003109Y007108D03*
X004908Y006989D03*
X014227Y006943D03*
D246*
X009677Y008616D03*
X008592Y007446D03*
X008592Y007439D03*
X008592Y007432D03*
X008592Y007426D03*
X004928Y006943D03*
X004716Y007174D03*
X004709Y007181D03*
X004703Y007188D03*
X004696Y007194D03*
X004690Y007201D03*
X004683Y007208D03*
X004676Y007214D03*
X004670Y007221D03*
X004663Y007227D03*
X004657Y007234D03*
X004650Y007241D03*
X004319Y007545D03*
X004928Y008193D03*
X003089Y008689D03*
X003089Y007069D03*
D247*
X003284Y007479D03*
X003952Y006943D03*
X003284Y008279D03*
X004243Y008504D03*
X009455Y008471D03*
D248*
X008595Y007465D03*
X008595Y007459D03*
X008595Y007452D03*
X004924Y006950D03*
X004726Y007161D03*
X004719Y007168D03*
X003952Y007148D03*
X003092Y007075D03*
X004243Y008299D03*
X004924Y008186D03*
X003092Y008682D03*
D249*
X003277Y008292D03*
X003277Y007472D03*
X003277Y007465D03*
X003952Y006950D03*
X004243Y008497D03*
X009468Y008491D03*
X013827Y008563D03*
D250*
X008599Y007485D03*
X008599Y007479D03*
X008599Y007472D03*
X004921Y006963D03*
X004921Y006956D03*
X004921Y008180D03*
X003096Y008676D03*
X003096Y007082D03*
D251*
X003268Y007446D03*
X003949Y006963D03*
X003268Y008312D03*
X009478Y008504D03*
X010662Y008544D03*
D252*
X004918Y008173D03*
X004243Y008305D03*
X004323Y007538D03*
X003952Y007141D03*
X003099Y007088D03*
X003099Y008669D03*
X004918Y006969D03*
D253*
X003949Y006976D03*
X003254Y007419D03*
X003254Y008339D03*
X009498Y008524D03*
X013804Y008577D03*
D254*
X004911Y008160D03*
X004911Y008153D03*
X004243Y008312D03*
X004323Y007532D03*
X003952Y007135D03*
X003106Y007102D03*
X003106Y008656D03*
X004911Y006983D03*
D255*
X003952Y006989D03*
X003244Y007399D03*
X003244Y008358D03*
X009508Y008537D03*
X010666Y008557D03*
D256*
X004243Y008458D03*
X004243Y008451D03*
X003238Y008378D03*
X003238Y007386D03*
X003952Y006996D03*
D257*
X003952Y007122D03*
X004323Y007518D03*
X004898Y008127D03*
X004243Y008325D03*
X003119Y008630D03*
X004898Y007009D03*
X010666Y008596D03*
D258*
X009534Y008557D03*
X004243Y008438D03*
X003225Y008405D03*
X003225Y007360D03*
X003225Y007353D03*
X003952Y007009D03*
X004329Y007413D03*
D259*
X004895Y007016D03*
X004895Y008120D03*
X003122Y008623D03*
X003122Y007135D03*
X009644Y008610D03*
D260*
X014204Y008398D03*
X004891Y008114D03*
X004243Y008332D03*
X003125Y008616D03*
X003125Y007141D03*
X003952Y007115D03*
X004891Y007022D03*
D261*
X004329Y007426D03*
X003952Y007022D03*
X003211Y007327D03*
X003211Y008431D03*
X004243Y008425D03*
D262*
X004888Y008107D03*
X004326Y007512D03*
X003949Y007108D03*
X003129Y007148D03*
X003129Y007155D03*
X003129Y008603D03*
X003129Y008610D03*
X004888Y007029D03*
D263*
X004329Y007432D03*
X003952Y007029D03*
X003205Y007313D03*
X003205Y008444D03*
X004243Y008418D03*
D264*
X004243Y008339D03*
X004885Y008100D03*
X004329Y007505D03*
X004885Y007036D03*
X003132Y007161D03*
D265*
X003198Y007300D03*
X003952Y007036D03*
X004329Y007439D03*
X004243Y008411D03*
X003198Y008458D03*
X009561Y008577D03*
D266*
X004243Y008405D03*
X004329Y007446D03*
X003952Y007042D03*
X003191Y007287D03*
X003191Y008471D03*
D267*
X003185Y008484D03*
X004243Y008398D03*
X004329Y007452D03*
X003952Y007049D03*
X003185Y007274D03*
X004832Y007148D03*
D268*
X004875Y007055D03*
X004326Y007499D03*
X003142Y007181D03*
X003142Y008577D03*
D269*
X003145Y008570D03*
X004243Y008358D03*
X004323Y007492D03*
X003952Y007095D03*
X003145Y007188D03*
X004871Y007062D03*
D270*
X004868Y007069D03*
X004868Y007075D03*
X004326Y007485D03*
X003149Y007194D03*
X003149Y008563D03*
X009617Y008603D03*
X010662Y008590D03*
D271*
X010662Y008583D03*
X004848Y007115D03*
X003949Y007069D03*
X003168Y007234D03*
X003168Y008524D03*
D272*
X003162Y008537D03*
X003162Y007221D03*
X003949Y007075D03*
X004855Y007102D03*
D273*
X004865Y007082D03*
X003952Y007088D03*
X003152Y007201D03*
X004243Y008365D03*
X003152Y008557D03*
D274*
X003158Y008544D03*
X004243Y008372D03*
X004329Y007479D03*
X004858Y007095D03*
X003158Y007214D03*
X013708Y008610D03*
D275*
X009601Y008596D03*
X004852Y007108D03*
X004329Y007472D03*
X004243Y008378D03*
X003165Y008530D03*
X003165Y007227D03*
D276*
X003175Y007247D03*
X003175Y008511D03*
X004842Y007128D03*
D277*
X004829Y007155D03*
X003188Y007280D03*
X003188Y008477D03*
X009571Y008583D03*
X010662Y008577D03*
X013738Y008603D03*
D278*
X003195Y008464D03*
X003195Y007294D03*
D279*
X003208Y007320D03*
X003208Y008438D03*
X005649Y007532D03*
X009551Y008570D03*
X013758Y008596D03*
D280*
X010662Y008570D03*
X003215Y008425D03*
X003215Y007333D03*
D281*
X003241Y007393D03*
X003241Y008365D03*
X003241Y008372D03*
X013791Y008583D03*
D282*
X010659Y008550D03*
X009488Y008517D03*
X004243Y008477D03*
X003258Y008332D03*
X003258Y007426D03*
D283*
X003264Y007439D03*
X003264Y008319D03*
X004243Y008484D03*
X013814Y008570D03*
D284*
X010662Y008530D03*
X009445Y008458D03*
X009445Y008451D03*
X009439Y008444D03*
X003294Y008253D03*
X003294Y007505D03*
D285*
X003301Y007518D03*
X003301Y008239D03*
X005973Y007743D03*
X009432Y008431D03*
X013850Y008544D03*
D286*
X010662Y007551D03*
X010662Y007545D03*
X010662Y007538D03*
D287*
X010662Y008517D03*
X013863Y008530D03*
X003314Y008213D03*
X003314Y007545D03*
D288*
X010662Y007558D03*
X010662Y007565D03*
X010662Y007571D03*
X010662Y007578D03*
X010662Y007585D03*
X010662Y007591D03*
X010662Y007598D03*
X010662Y007604D03*
X010662Y007611D03*
X010662Y007618D03*
X010662Y007624D03*
X010662Y007631D03*
X010662Y007637D03*
X010662Y007644D03*
D289*
X010666Y007651D03*
X010666Y007657D03*
X010666Y007664D03*
D290*
X010662Y007671D03*
X010662Y007677D03*
X010662Y007684D03*
X010662Y007690D03*
X010662Y007697D03*
X010662Y007704D03*
X010662Y007710D03*
X010662Y007717D03*
X010662Y007723D03*
X010662Y007730D03*
X010662Y007737D03*
D291*
X003446Y007829D03*
D292*
X003456Y007849D03*
D293*
X003463Y007862D03*
D294*
X003469Y007876D03*
D295*
X003479Y007895D03*
D296*
X003486Y007909D03*
X003486Y007915D03*
D297*
X003492Y007928D03*
D298*
X003496Y007935D03*
D299*
X003499Y007942D03*
D300*
X003502Y007948D03*
D301*
X003506Y007955D03*
D302*
X003509Y007962D03*
D303*
X003512Y007968D03*
D304*
X003516Y007975D03*
D305*
X003519Y007981D03*
D306*
X003522Y007988D03*
D307*
X003526Y007995D03*
D308*
X003529Y008001D03*
D309*
X003532Y008008D03*
D310*
X003535Y008014D03*
X003535Y008021D03*
D311*
X003539Y008028D03*
D312*
X003228Y008398D03*
X010662Y008563D03*
X013777Y008590D03*
D313*
X006677Y008405D03*
D314*
X006680Y008411D03*
D315*
X006684Y008418D03*
D316*
X006687Y008425D03*
D317*
X006690Y008431D03*
D318*
X006694Y008438D03*
D319*
X006697Y008444D03*
D320*
X006700Y008451D03*
D321*
X006704Y008458D03*
D322*
X006707Y008464D03*
D323*
X006710Y008471D03*
D324*
X006714Y008477D03*
X006714Y008484D03*
D325*
X006717Y008491D03*
D326*
X006720Y008497D03*
D327*
X006723Y008504D03*
D328*
X006727Y008511D03*
D329*
X006730Y008517D03*
D330*
X006733Y008524D03*
D331*
X006737Y008530D03*
D332*
X006740Y008537D03*
D333*
X006743Y008544D03*
X006743Y008550D03*
D334*
X006747Y008557D03*
D335*
X006753Y008563D03*
D336*
X006757Y008570D03*
D337*
X006760Y008577D03*
D338*
X006763Y008583D03*
X006763Y008590D03*
D339*
X006766Y008596D03*
D340*
X006770Y008603D03*
D341*
X006776Y008610D03*
X006776Y008616D03*
D342*
X004432Y008623D03*
D343*
X004428Y008630D03*
D344*
X004425Y008636D03*
D345*
X004422Y008643D03*
D346*
X004418Y008649D03*
D347*
X004415Y008656D03*
D348*
X004412Y008663D03*
D349*
X004409Y008669D03*
D350*
X004405Y008676D03*
D351*
X004402Y008682D03*
X004402Y008689D03*
D352*
X004399Y008696D03*
D353*
X004395Y008702D03*
D354*
X004392Y008709D03*
D355*
X004389Y008716D03*
D356*
X004385Y008722D03*
D357*
X004382Y008729D03*
D358*
X004379Y008735D03*
D359*
X004375Y008742D03*
D360*
X004372Y008749D03*
D361*
X004366Y008762D03*
D362*
X004362Y008768D03*
D363*
X004359Y008775D03*
D364*
X004356Y008782D03*
D365*
X004352Y008788D03*
X004352Y008795D03*
D366*
X004349Y008802D03*
D367*
X004346Y008808D03*
M02*
