G75*
%MOIN*%
%OFA0B0*%
%FSLAX24Y24*%
%IPPOS*%
%LPD*%
%AMOC8*
5,1,8,0,0,1.08239X$1,22.5*
%
%ADD10C,0.0060*%
%ADD11C,0.0000*%
%ADD12C,0.0450*%
%ADD13R,0.0787X0.1732*%
%ADD14OC8,0.0600*%
%ADD15C,0.0600*%
%ADD16R,0.0650X0.0650*%
%ADD17C,0.0650*%
%ADD18R,0.0600X0.0600*%
%ADD19R,0.0472X0.0866*%
%ADD20R,0.0472X0.0787*%
%ADD21R,0.1024X0.0709*%
%ADD22C,0.0906*%
%ADD23C,0.0318*%
%ADD24C,0.0100*%
%ADD25C,0.0800*%
%ADD26C,0.0160*%
%ADD27C,0.0400*%
D10*
X000931Y021536D02*
X001571Y021536D01*
X001571Y021857D01*
X001465Y021963D01*
X001251Y021963D01*
X001144Y021857D01*
X001144Y021536D01*
X001144Y021750D02*
X000931Y021963D01*
X000931Y022181D02*
X001571Y022181D01*
X001571Y022501D01*
X001465Y022608D01*
X001251Y022608D01*
X001144Y022501D01*
X001144Y022181D01*
X001144Y022394D02*
X000931Y022608D01*
X000931Y022825D02*
X001571Y022825D01*
X001571Y023146D01*
X001465Y023252D01*
X001251Y023252D01*
X001144Y023146D01*
X001144Y022825D01*
X001144Y023039D02*
X000931Y023252D01*
D11*
X001001Y002840D02*
X026601Y002840D01*
X026601Y003840D01*
X027601Y004840D01*
X027601Y017740D01*
X026601Y018740D01*
X026601Y023240D01*
X026001Y023840D01*
X001001Y023840D01*
X000962Y023838D01*
X000923Y023832D01*
X000885Y023823D01*
X000848Y023810D01*
X000812Y023793D01*
X000779Y023773D01*
X000747Y023749D01*
X000718Y023723D01*
X000692Y023694D01*
X000668Y023662D01*
X000648Y023629D01*
X000631Y023593D01*
X000618Y023556D01*
X000609Y023518D01*
X000603Y023479D01*
X000601Y023440D01*
X000601Y003240D01*
X000603Y003201D01*
X000609Y003162D01*
X000618Y003124D01*
X000631Y003087D01*
X000648Y003051D01*
X000668Y003018D01*
X000692Y002986D01*
X000718Y002957D01*
X000747Y002931D01*
X000779Y002907D01*
X000812Y002887D01*
X000848Y002870D01*
X000885Y002857D01*
X000923Y002848D01*
X000962Y002842D01*
X001001Y002840D01*
X005261Y003340D02*
X005263Y003367D01*
X005269Y003393D01*
X005278Y003418D01*
X005291Y003441D01*
X005307Y003462D01*
X005326Y003481D01*
X005347Y003497D01*
X005370Y003510D01*
X005395Y003519D01*
X005421Y003525D01*
X005448Y003527D01*
X005475Y003525D01*
X005501Y003519D01*
X005526Y003510D01*
X005549Y003497D01*
X005570Y003481D01*
X005589Y003462D01*
X005605Y003441D01*
X005618Y003418D01*
X005627Y003393D01*
X005633Y003367D01*
X005635Y003340D01*
X005633Y003313D01*
X005627Y003287D01*
X005618Y003262D01*
X005605Y003239D01*
X005589Y003218D01*
X005570Y003199D01*
X005549Y003183D01*
X005526Y003170D01*
X005501Y003161D01*
X005475Y003155D01*
X005448Y003153D01*
X005421Y003155D01*
X005395Y003161D01*
X005370Y003170D01*
X005347Y003183D01*
X005326Y003199D01*
X005307Y003218D01*
X005291Y003239D01*
X005278Y003262D01*
X005269Y003287D01*
X005263Y003313D01*
X005261Y003340D01*
X006167Y003340D02*
X006169Y003367D01*
X006175Y003393D01*
X006184Y003418D01*
X006197Y003441D01*
X006213Y003462D01*
X006232Y003481D01*
X006253Y003497D01*
X006276Y003510D01*
X006301Y003519D01*
X006327Y003525D01*
X006354Y003527D01*
X006381Y003525D01*
X006407Y003519D01*
X006432Y003510D01*
X006455Y003497D01*
X006476Y003481D01*
X006495Y003462D01*
X006511Y003441D01*
X006524Y003418D01*
X006533Y003393D01*
X006539Y003367D01*
X006541Y003340D01*
X006539Y003313D01*
X006533Y003287D01*
X006524Y003262D01*
X006511Y003239D01*
X006495Y003218D01*
X006476Y003199D01*
X006455Y003183D01*
X006432Y003170D01*
X006407Y003161D01*
X006381Y003155D01*
X006354Y003153D01*
X006327Y003155D01*
X006301Y003161D01*
X006276Y003170D01*
X006253Y003183D01*
X006232Y003199D01*
X006213Y003218D01*
X006197Y003239D01*
X006184Y003262D01*
X006175Y003287D01*
X006169Y003313D01*
X006167Y003340D01*
X010006Y015883D02*
X010008Y015917D01*
X010014Y015951D01*
X010024Y015984D01*
X010037Y016015D01*
X010055Y016045D01*
X010075Y016073D01*
X010099Y016098D01*
X010125Y016120D01*
X010153Y016138D01*
X010184Y016154D01*
X010216Y016166D01*
X010250Y016174D01*
X010284Y016178D01*
X010318Y016178D01*
X010352Y016174D01*
X010386Y016166D01*
X010418Y016154D01*
X010448Y016138D01*
X010477Y016120D01*
X010503Y016098D01*
X010527Y016073D01*
X010547Y016045D01*
X010565Y016015D01*
X010578Y015984D01*
X010588Y015951D01*
X010594Y015917D01*
X010596Y015883D01*
X010594Y015849D01*
X010588Y015815D01*
X010578Y015782D01*
X010565Y015751D01*
X010547Y015721D01*
X010527Y015693D01*
X010503Y015668D01*
X010477Y015646D01*
X010449Y015628D01*
X010418Y015612D01*
X010386Y015600D01*
X010352Y015592D01*
X010318Y015588D01*
X010284Y015588D01*
X010250Y015592D01*
X010216Y015600D01*
X010184Y015612D01*
X010153Y015628D01*
X010125Y015646D01*
X010099Y015668D01*
X010075Y015693D01*
X010055Y015721D01*
X010037Y015751D01*
X010024Y015782D01*
X010014Y015815D01*
X010008Y015849D01*
X010006Y015883D01*
X010006Y018797D02*
X010008Y018831D01*
X010014Y018865D01*
X010024Y018898D01*
X010037Y018929D01*
X010055Y018959D01*
X010075Y018987D01*
X010099Y019012D01*
X010125Y019034D01*
X010153Y019052D01*
X010184Y019068D01*
X010216Y019080D01*
X010250Y019088D01*
X010284Y019092D01*
X010318Y019092D01*
X010352Y019088D01*
X010386Y019080D01*
X010418Y019068D01*
X010448Y019052D01*
X010477Y019034D01*
X010503Y019012D01*
X010527Y018987D01*
X010547Y018959D01*
X010565Y018929D01*
X010578Y018898D01*
X010588Y018865D01*
X010594Y018831D01*
X010596Y018797D01*
X010594Y018763D01*
X010588Y018729D01*
X010578Y018696D01*
X010565Y018665D01*
X010547Y018635D01*
X010527Y018607D01*
X010503Y018582D01*
X010477Y018560D01*
X010449Y018542D01*
X010418Y018526D01*
X010386Y018514D01*
X010352Y018506D01*
X010318Y018502D01*
X010284Y018502D01*
X010250Y018506D01*
X010216Y018514D01*
X010184Y018526D01*
X010153Y018542D01*
X010125Y018560D01*
X010099Y018582D01*
X010075Y018607D01*
X010055Y018635D01*
X010037Y018665D01*
X010024Y018696D01*
X010014Y018729D01*
X010008Y018763D01*
X010006Y018797D01*
X006575Y019554D02*
X005709Y019554D01*
X004036Y018040D02*
X004038Y018069D01*
X004044Y018098D01*
X004053Y018126D01*
X004066Y018153D01*
X004083Y018178D01*
X004102Y018200D01*
X004124Y018219D01*
X004149Y018236D01*
X004176Y018249D01*
X004204Y018258D01*
X004233Y018264D01*
X004262Y018266D01*
X004291Y018264D01*
X004320Y018258D01*
X004348Y018249D01*
X004375Y018236D01*
X004400Y018219D01*
X004422Y018200D01*
X004441Y018178D01*
X004458Y018153D01*
X004471Y018126D01*
X004480Y018098D01*
X004486Y018069D01*
X004488Y018040D01*
X004486Y018011D01*
X004480Y017982D01*
X004471Y017954D01*
X004458Y017927D01*
X004441Y017902D01*
X004422Y017880D01*
X004400Y017861D01*
X004375Y017844D01*
X004348Y017831D01*
X004320Y017822D01*
X004291Y017816D01*
X004262Y017814D01*
X004233Y017816D01*
X004204Y017822D01*
X004176Y017831D01*
X004149Y017844D01*
X004124Y017861D01*
X004102Y017880D01*
X004083Y017902D01*
X004066Y017927D01*
X004053Y017954D01*
X004044Y017982D01*
X004038Y018011D01*
X004036Y018040D01*
X001280Y018040D02*
X001282Y018069D01*
X001288Y018098D01*
X001297Y018126D01*
X001310Y018153D01*
X001327Y018178D01*
X001346Y018200D01*
X001368Y018219D01*
X001393Y018236D01*
X001420Y018249D01*
X001448Y018258D01*
X001477Y018264D01*
X001506Y018266D01*
X001535Y018264D01*
X001564Y018258D01*
X001592Y018249D01*
X001619Y018236D01*
X001644Y018219D01*
X001666Y018200D01*
X001685Y018178D01*
X001702Y018153D01*
X001715Y018126D01*
X001724Y018098D01*
X001730Y018069D01*
X001732Y018040D01*
X001730Y018011D01*
X001724Y017982D01*
X001715Y017954D01*
X001702Y017927D01*
X001685Y017902D01*
X001666Y017880D01*
X001644Y017861D01*
X001619Y017844D01*
X001592Y017831D01*
X001564Y017822D01*
X001535Y017816D01*
X001506Y017814D01*
X001477Y017816D01*
X001448Y017822D01*
X001420Y017831D01*
X001393Y017844D01*
X001368Y017861D01*
X001346Y017880D01*
X001327Y017902D01*
X001310Y017927D01*
X001297Y017954D01*
X001288Y017982D01*
X001282Y018011D01*
X001280Y018040D01*
X005971Y022840D02*
X005973Y022890D01*
X005979Y022940D01*
X005989Y022989D01*
X006003Y023037D01*
X006020Y023084D01*
X006041Y023129D01*
X006066Y023173D01*
X006094Y023214D01*
X006126Y023253D01*
X006160Y023290D01*
X006197Y023324D01*
X006237Y023354D01*
X006279Y023381D01*
X006323Y023405D01*
X006369Y023426D01*
X006416Y023442D01*
X006464Y023455D01*
X006514Y023464D01*
X006563Y023469D01*
X006614Y023470D01*
X006664Y023467D01*
X006713Y023460D01*
X006762Y023449D01*
X006810Y023434D01*
X006856Y023416D01*
X006901Y023394D01*
X006944Y023368D01*
X006985Y023339D01*
X007024Y023307D01*
X007060Y023272D01*
X007092Y023234D01*
X007122Y023194D01*
X007149Y023151D01*
X007172Y023107D01*
X007191Y023061D01*
X007207Y023013D01*
X007219Y022964D01*
X007227Y022915D01*
X007231Y022865D01*
X007231Y022815D01*
X007227Y022765D01*
X007219Y022716D01*
X007207Y022667D01*
X007191Y022619D01*
X007172Y022573D01*
X007149Y022529D01*
X007122Y022486D01*
X007092Y022446D01*
X007060Y022408D01*
X007024Y022373D01*
X006985Y022341D01*
X006944Y022312D01*
X006901Y022286D01*
X006856Y022264D01*
X006810Y022246D01*
X006762Y022231D01*
X006713Y022220D01*
X006664Y022213D01*
X006614Y022210D01*
X006563Y022211D01*
X006514Y022216D01*
X006464Y022225D01*
X006416Y022238D01*
X006369Y022254D01*
X006323Y022275D01*
X006279Y022299D01*
X006237Y022326D01*
X006197Y022356D01*
X006160Y022390D01*
X006126Y022427D01*
X006094Y022466D01*
X006066Y022507D01*
X006041Y022551D01*
X006020Y022596D01*
X006003Y022643D01*
X005989Y022691D01*
X005979Y022740D01*
X005973Y022790D01*
X005971Y022840D01*
X025971Y016840D02*
X025973Y016890D01*
X025979Y016940D01*
X025989Y016989D01*
X026003Y017037D01*
X026020Y017084D01*
X026041Y017129D01*
X026066Y017173D01*
X026094Y017214D01*
X026126Y017253D01*
X026160Y017290D01*
X026197Y017324D01*
X026237Y017354D01*
X026279Y017381D01*
X026323Y017405D01*
X026369Y017426D01*
X026416Y017442D01*
X026464Y017455D01*
X026514Y017464D01*
X026563Y017469D01*
X026614Y017470D01*
X026664Y017467D01*
X026713Y017460D01*
X026762Y017449D01*
X026810Y017434D01*
X026856Y017416D01*
X026901Y017394D01*
X026944Y017368D01*
X026985Y017339D01*
X027024Y017307D01*
X027060Y017272D01*
X027092Y017234D01*
X027122Y017194D01*
X027149Y017151D01*
X027172Y017107D01*
X027191Y017061D01*
X027207Y017013D01*
X027219Y016964D01*
X027227Y016915D01*
X027231Y016865D01*
X027231Y016815D01*
X027227Y016765D01*
X027219Y016716D01*
X027207Y016667D01*
X027191Y016619D01*
X027172Y016573D01*
X027149Y016529D01*
X027122Y016486D01*
X027092Y016446D01*
X027060Y016408D01*
X027024Y016373D01*
X026985Y016341D01*
X026944Y016312D01*
X026901Y016286D01*
X026856Y016264D01*
X026810Y016246D01*
X026762Y016231D01*
X026713Y016220D01*
X026664Y016213D01*
X026614Y016210D01*
X026563Y016211D01*
X026514Y016216D01*
X026464Y016225D01*
X026416Y016238D01*
X026369Y016254D01*
X026323Y016275D01*
X026279Y016299D01*
X026237Y016326D01*
X026197Y016356D01*
X026160Y016390D01*
X026126Y016427D01*
X026094Y016466D01*
X026066Y016507D01*
X026041Y016551D01*
X026020Y016596D01*
X026003Y016643D01*
X025989Y016691D01*
X025979Y016740D01*
X025973Y016790D01*
X025971Y016840D01*
X025971Y005840D02*
X025973Y005890D01*
X025979Y005940D01*
X025989Y005989D01*
X026003Y006037D01*
X026020Y006084D01*
X026041Y006129D01*
X026066Y006173D01*
X026094Y006214D01*
X026126Y006253D01*
X026160Y006290D01*
X026197Y006324D01*
X026237Y006354D01*
X026279Y006381D01*
X026323Y006405D01*
X026369Y006426D01*
X026416Y006442D01*
X026464Y006455D01*
X026514Y006464D01*
X026563Y006469D01*
X026614Y006470D01*
X026664Y006467D01*
X026713Y006460D01*
X026762Y006449D01*
X026810Y006434D01*
X026856Y006416D01*
X026901Y006394D01*
X026944Y006368D01*
X026985Y006339D01*
X027024Y006307D01*
X027060Y006272D01*
X027092Y006234D01*
X027122Y006194D01*
X027149Y006151D01*
X027172Y006107D01*
X027191Y006061D01*
X027207Y006013D01*
X027219Y005964D01*
X027227Y005915D01*
X027231Y005865D01*
X027231Y005815D01*
X027227Y005765D01*
X027219Y005716D01*
X027207Y005667D01*
X027191Y005619D01*
X027172Y005573D01*
X027149Y005529D01*
X027122Y005486D01*
X027092Y005446D01*
X027060Y005408D01*
X027024Y005373D01*
X026985Y005341D01*
X026944Y005312D01*
X026901Y005286D01*
X026856Y005264D01*
X026810Y005246D01*
X026762Y005231D01*
X026713Y005220D01*
X026664Y005213D01*
X026614Y005210D01*
X026563Y005211D01*
X026514Y005216D01*
X026464Y005225D01*
X026416Y005238D01*
X026369Y005254D01*
X026323Y005275D01*
X026279Y005299D01*
X026237Y005326D01*
X026197Y005356D01*
X026160Y005390D01*
X026126Y005427D01*
X026094Y005466D01*
X026066Y005507D01*
X026041Y005551D01*
X026020Y005596D01*
X026003Y005643D01*
X025989Y005691D01*
X025979Y005740D01*
X025973Y005790D01*
X025971Y005840D01*
D12*
X018601Y020740D03*
X018601Y021440D03*
X017701Y021440D03*
X017701Y020740D03*
X006801Y011740D03*
X008001Y010940D03*
D13*
X010301Y014112D03*
X010301Y020568D03*
D14*
X025501Y016540D03*
D15*
X025501Y017540D03*
X025501Y018540D03*
X025501Y019540D03*
X025501Y020540D03*
X025501Y021540D03*
X022901Y020540D03*
X021901Y020540D03*
X021901Y021540D03*
X020901Y021540D03*
X020901Y020540D03*
D16*
X024401Y021540D03*
X025601Y022840D03*
X017001Y022840D03*
X025601Y014840D03*
X026601Y008340D03*
X020601Y003840D03*
X018601Y003840D03*
D17*
X017601Y003840D03*
X016601Y003840D03*
X015601Y003840D03*
X014601Y003840D03*
X013601Y003840D03*
X021601Y003840D03*
X022601Y003840D03*
X023601Y003840D03*
X024601Y003840D03*
X025601Y003840D03*
X025601Y008340D03*
X025601Y009340D03*
X026601Y009340D03*
X026601Y010340D03*
X026601Y011340D03*
X025601Y011340D03*
X025601Y010340D03*
X025601Y012840D03*
X026601Y012840D03*
X026601Y013840D03*
X026601Y014840D03*
X025601Y013840D03*
X024401Y016540D03*
X024401Y017540D03*
X024401Y018540D03*
X024401Y019540D03*
X024401Y020540D03*
X024601Y022840D03*
X023601Y022840D03*
X022601Y022840D03*
X021601Y022840D03*
X020601Y022840D03*
X019601Y022840D03*
X018601Y022840D03*
X016001Y022840D03*
X015001Y022840D03*
X014001Y022840D03*
X013001Y022840D03*
X012001Y022840D03*
X011001Y022840D03*
X010001Y022840D03*
D18*
X022901Y021540D03*
D19*
X021807Y018166D03*
X020784Y018182D03*
X019819Y018166D03*
D20*
X019851Y008225D03*
X020811Y008217D03*
X021740Y008217D03*
D21*
X006063Y016050D03*
X006063Y019908D03*
D22*
X010397Y006444D03*
X011401Y005440D03*
X012405Y006444D03*
X012405Y004436D03*
X010397Y004436D03*
D23*
X010501Y003740D03*
X011001Y003740D03*
X011501Y003740D03*
X012001Y003740D03*
X012501Y003740D03*
X012501Y003240D03*
X012001Y003240D03*
X011501Y003240D03*
X011001Y003240D03*
X010501Y003240D03*
X010001Y003240D03*
X009501Y003240D03*
X009501Y003740D03*
X010001Y003740D03*
X009501Y004240D03*
X009501Y004740D03*
X009501Y005240D03*
X010001Y005240D03*
X010001Y005740D03*
X009501Y005740D03*
X011001Y006740D03*
X011011Y007220D03*
X011501Y007240D03*
X012001Y007240D03*
X012501Y007240D03*
X013001Y007240D03*
X013001Y007740D03*
X013001Y008240D03*
X012501Y008240D03*
X012501Y007740D03*
X012001Y007740D03*
X011501Y007740D03*
X013301Y008740D03*
X013301Y009240D03*
X013301Y009740D03*
X011201Y011340D03*
X011501Y011640D03*
X010801Y011540D03*
X009801Y011540D03*
X008701Y011540D03*
X008701Y010440D03*
X009601Y010440D03*
X010301Y010540D03*
X007301Y010440D03*
X007401Y011740D03*
X005001Y014340D03*
X004001Y014340D03*
X003001Y014340D03*
X002101Y014340D03*
X001101Y014340D03*
X001101Y013440D03*
X001101Y012640D03*
X001101Y011840D03*
X001101Y011140D03*
X001101Y010440D03*
X001101Y009640D03*
X001101Y008840D03*
X001101Y008140D03*
X001101Y007440D03*
X001101Y006740D03*
X001601Y006740D03*
X001601Y006140D03*
X001101Y006140D03*
X001101Y005440D03*
X001101Y004640D03*
X001101Y003840D03*
X003901Y005640D03*
X003601Y006140D03*
X004101Y006440D03*
X003601Y006740D03*
X004701Y006040D03*
X006201Y006140D03*
X006501Y004140D03*
X004901Y004340D03*
X007001Y008240D03*
X002701Y008240D03*
X005301Y015840D03*
X007801Y015840D03*
X010101Y017240D03*
X010101Y017740D03*
X011501Y016240D03*
X011801Y015940D03*
X011501Y015640D03*
X011801Y015340D03*
X011501Y015040D03*
X011601Y014540D03*
X012101Y014540D03*
X012601Y014540D03*
X014001Y013640D03*
X017201Y013340D03*
X017801Y013340D03*
X020001Y015440D03*
X021301Y015440D03*
X022201Y015440D03*
X021901Y016740D03*
X022401Y017240D03*
X022801Y017240D03*
X021101Y017440D03*
X020301Y017440D03*
X019801Y017340D03*
X019501Y016640D03*
X017901Y017740D03*
X017501Y017540D03*
X017101Y017640D03*
X016701Y017140D03*
X017201Y016640D03*
X017801Y016040D03*
X018001Y018240D03*
X019301Y018540D03*
X021701Y019140D03*
X016901Y021340D03*
X016401Y021340D03*
X016601Y020740D03*
X015201Y021340D03*
X013201Y021340D03*
X009201Y021440D03*
X007401Y021440D03*
X006601Y021440D03*
X006601Y020940D03*
X005001Y019640D03*
X012401Y017440D03*
X013301Y017440D03*
X014001Y016840D03*
X020501Y011840D03*
X021101Y011840D03*
X021901Y011840D03*
X022301Y011840D03*
X022801Y011840D03*
X023901Y011740D03*
X023701Y013140D03*
X024801Y014640D03*
X018901Y011140D03*
X018001Y009740D03*
X018001Y009240D03*
X018001Y008740D03*
X017501Y008740D03*
X017501Y009240D03*
X017501Y009740D03*
X017001Y009740D03*
X017001Y009240D03*
X017001Y008740D03*
X017001Y008240D03*
X017501Y008240D03*
X018001Y008240D03*
X018001Y007740D03*
X018001Y007240D03*
X018001Y006740D03*
X018001Y006240D03*
X018001Y005740D03*
X018001Y005240D03*
X017501Y005240D03*
X017501Y005740D03*
X017501Y006240D03*
X017501Y006740D03*
X017501Y007240D03*
X017501Y007740D03*
X017001Y007740D03*
X017001Y007240D03*
X017001Y006740D03*
X017001Y006240D03*
X017001Y005740D03*
X016501Y005740D03*
X016501Y005240D03*
X017001Y005240D03*
X016001Y005240D03*
X016001Y005740D03*
X015501Y005740D03*
X015501Y005240D03*
X015001Y005240D03*
X015001Y005740D03*
X014501Y005740D03*
X014001Y005740D03*
X014001Y005240D03*
X014501Y005240D03*
X014501Y004740D03*
X014001Y004740D03*
X013501Y004740D03*
X013501Y005240D03*
X015001Y004740D03*
X021401Y008840D03*
X024101Y006840D03*
X024101Y006240D03*
X024101Y005640D03*
X023501Y005640D03*
X023501Y006240D03*
X024901Y006240D03*
X024901Y005640D03*
X024901Y006840D03*
D24*
X025940Y006282D02*
X025821Y005995D01*
X025821Y005685D01*
X025940Y005398D01*
X026159Y005179D01*
X026446Y005060D01*
X026756Y005060D01*
X027043Y005179D01*
X027262Y005398D01*
X027381Y005685D01*
X027381Y005995D01*
X027262Y006282D01*
X027043Y006501D01*
X026756Y006620D01*
X026446Y006620D01*
X026159Y006501D01*
X025940Y006282D01*
X025945Y006287D02*
X012988Y006287D01*
X012993Y006303D02*
X013007Y006394D01*
X012455Y006394D01*
X012455Y006494D01*
X013007Y006494D01*
X012993Y006585D01*
X012963Y006675D01*
X012920Y006760D01*
X012865Y006837D01*
X012798Y006904D01*
X012721Y006959D01*
X012636Y007002D01*
X012546Y007032D01*
X012455Y007046D01*
X012455Y006494D01*
X012355Y006494D01*
X012355Y007046D01*
X012264Y007032D01*
X012174Y007002D01*
X012089Y006959D01*
X012012Y006904D01*
X011945Y006837D01*
X011889Y006760D01*
X011846Y006675D01*
X011817Y006585D01*
X011803Y006494D01*
X012355Y006494D01*
X012355Y006394D01*
X012455Y006394D01*
X012455Y005842D01*
X012546Y005856D01*
X012636Y005885D01*
X012721Y005928D01*
X012798Y005984D01*
X012865Y006051D01*
X012920Y006128D01*
X012963Y006213D01*
X012993Y006303D01*
X013006Y006386D02*
X026044Y006386D01*
X026142Y006484D02*
X012455Y006484D01*
X012455Y006386D02*
X012355Y006386D01*
X012355Y006394D02*
X012355Y005842D01*
X012264Y005856D01*
X012174Y005885D01*
X012089Y005928D01*
X012012Y005984D01*
X011945Y006051D01*
X011889Y006128D01*
X011846Y006213D01*
X011817Y006303D01*
X011803Y006394D01*
X012355Y006394D01*
X012355Y006484D02*
X010447Y006484D01*
X010447Y006494D02*
X010999Y006494D01*
X010985Y006585D01*
X010956Y006675D01*
X010913Y006760D01*
X010857Y006837D01*
X010790Y006904D01*
X010713Y006959D01*
X010628Y007002D01*
X010621Y007005D01*
X010681Y007065D01*
X011281Y007665D01*
X011281Y011060D01*
X011365Y011095D01*
X011446Y011176D01*
X011490Y011282D01*
X011490Y011351D01*
X011558Y011351D01*
X011665Y011395D01*
X011746Y011476D01*
X011790Y011582D01*
X011790Y011697D01*
X011746Y011804D01*
X011681Y011869D01*
X011681Y011915D01*
X011585Y012010D01*
X017081Y012010D01*
X018401Y010691D01*
X018596Y010610D01*
X018806Y010610D01*
X019001Y010691D01*
X019150Y010840D01*
X019231Y011035D01*
X019231Y011245D01*
X019150Y011440D01*
X017750Y012840D01*
X017730Y012860D01*
X018526Y012860D01*
X019721Y011665D01*
X019721Y008749D01*
X019560Y008749D01*
X019484Y008673D01*
X019484Y007777D01*
X019560Y007701D01*
X020141Y007701D01*
X020217Y007777D01*
X020217Y008673D01*
X020141Y008749D01*
X020081Y008749D01*
X020081Y009105D01*
X020483Y008703D01*
X020445Y008665D01*
X020445Y007770D01*
X020521Y007693D01*
X021101Y007693D01*
X021177Y007770D01*
X021177Y008655D01*
X021237Y008595D01*
X021343Y008551D01*
X021354Y008551D01*
X021354Y008267D01*
X021690Y008267D01*
X021690Y008167D01*
X021354Y008167D01*
X021354Y007804D01*
X021364Y007766D01*
X021384Y007731D01*
X021412Y007703D01*
X021446Y007684D01*
X021484Y007673D01*
X021690Y007673D01*
X021690Y008167D01*
X021790Y008167D01*
X021790Y007673D01*
X021996Y007673D01*
X022034Y007684D01*
X022069Y007703D01*
X022097Y007731D01*
X022116Y007766D01*
X022127Y007804D01*
X022127Y008167D01*
X021790Y008167D01*
X021790Y008267D01*
X021690Y008267D01*
X021690Y008761D01*
X021681Y008761D01*
X021690Y008782D01*
X021690Y008897D01*
X021646Y009004D01*
X021565Y009085D01*
X021458Y009129D01*
X021343Y009129D01*
X021237Y009085D01*
X021172Y009020D01*
X020676Y009020D01*
X020281Y009415D01*
X020281Y011915D01*
X019235Y012960D01*
X023472Y012960D01*
X023537Y012895D01*
X023643Y012851D01*
X023758Y012851D01*
X023865Y012895D01*
X023946Y012976D01*
X023990Y013082D01*
X023990Y013197D01*
X023946Y013304D01*
X023865Y013385D01*
X023758Y013429D01*
X023643Y013429D01*
X023537Y013385D01*
X023472Y013320D01*
X023135Y013320D01*
X024512Y014696D01*
X024512Y014582D01*
X024556Y014476D01*
X024637Y014395D01*
X024721Y014360D01*
X024721Y012465D01*
X025121Y012065D01*
X025226Y011960D01*
X025726Y011960D01*
X025921Y011765D01*
X025921Y011663D01*
X025859Y011726D01*
X025691Y011795D01*
X025510Y011795D01*
X025343Y011726D01*
X025215Y011598D01*
X025146Y011430D01*
X025146Y011249D01*
X025215Y011082D01*
X025343Y010954D01*
X025510Y010885D01*
X025691Y010885D01*
X025859Y010954D01*
X025921Y011016D01*
X025921Y010663D01*
X025859Y010726D01*
X025691Y010795D01*
X025510Y010795D01*
X025343Y010726D01*
X025215Y010598D01*
X025183Y010520D01*
X025176Y010520D01*
X024133Y011563D01*
X024146Y011576D01*
X024190Y011682D01*
X024190Y011797D01*
X024146Y011904D01*
X024065Y011985D01*
X023958Y012029D01*
X023843Y012029D01*
X023737Y011985D01*
X023656Y011904D01*
X023612Y011797D01*
X023612Y011682D01*
X023656Y011576D01*
X023721Y011511D01*
X023721Y011465D01*
X024921Y010265D01*
X025026Y010160D01*
X025183Y010160D01*
X025215Y010082D01*
X025343Y009954D01*
X025510Y009885D01*
X025691Y009885D01*
X025859Y009954D01*
X025921Y010016D01*
X025921Y009915D01*
X025769Y009763D01*
X025691Y009795D01*
X025510Y009795D01*
X025343Y009726D01*
X025215Y009598D01*
X025146Y009430D01*
X025146Y009249D01*
X025215Y009082D01*
X025343Y008954D01*
X025510Y008885D01*
X025691Y008885D01*
X025859Y008954D01*
X025987Y009082D01*
X026056Y009249D01*
X026056Y009430D01*
X026024Y009508D01*
X026281Y009765D01*
X026281Y010016D01*
X026343Y009954D01*
X026510Y009885D01*
X026691Y009885D01*
X026859Y009954D01*
X026987Y010082D01*
X027056Y010249D01*
X027056Y010430D01*
X026987Y010598D01*
X026859Y010726D01*
X026691Y010795D01*
X026510Y010795D01*
X026343Y010726D01*
X026281Y010663D01*
X026281Y011016D01*
X026343Y010954D01*
X026510Y010885D01*
X026691Y010885D01*
X026859Y010954D01*
X026987Y011082D01*
X027056Y011249D01*
X027056Y011430D01*
X026987Y011598D01*
X026859Y011726D01*
X026691Y011795D01*
X026510Y011795D01*
X026343Y011726D01*
X026281Y011663D01*
X026281Y011915D01*
X026176Y012020D01*
X025876Y012320D01*
X025376Y012320D01*
X025081Y012615D01*
X025081Y014561D01*
X025090Y014582D01*
X025090Y014697D01*
X025046Y014804D01*
X024965Y014885D01*
X024858Y014929D01*
X024743Y014929D01*
X024681Y014903D01*
X024681Y015465D01*
X025325Y016110D01*
X025679Y016110D01*
X025931Y016362D01*
X025931Y016419D01*
X025940Y016398D01*
X026159Y016179D01*
X026446Y016060D01*
X026756Y016060D01*
X027043Y016179D01*
X027262Y016398D01*
X027381Y016685D01*
X027381Y016995D01*
X027262Y017282D01*
X027043Y017501D01*
X026756Y017620D01*
X026446Y017620D01*
X026159Y017501D01*
X025940Y017282D01*
X025821Y016995D01*
X025821Y016828D01*
X025679Y016970D01*
X025323Y016970D01*
X025181Y016828D01*
X025181Y017065D01*
X025281Y017166D01*
X025415Y017110D01*
X025586Y017110D01*
X025745Y017175D01*
X025865Y017296D01*
X025931Y017454D01*
X025931Y017625D01*
X025865Y017784D01*
X025745Y017904D01*
X025586Y017970D01*
X025415Y017970D01*
X025257Y017904D01*
X025136Y017784D01*
X025071Y017625D01*
X025071Y017465D01*
X024926Y017320D01*
X024821Y017215D01*
X024821Y016715D01*
X024787Y016798D01*
X024659Y016926D01*
X024491Y016995D01*
X024310Y016995D01*
X024143Y016926D01*
X024081Y016863D01*
X024081Y017165D01*
X024106Y017191D01*
X024143Y017154D01*
X024310Y017085D01*
X024491Y017085D01*
X024659Y017154D01*
X024787Y017282D01*
X024856Y017449D01*
X024856Y017630D01*
X024787Y017798D01*
X024659Y017926D01*
X024491Y017995D01*
X024310Y017995D01*
X024143Y017926D01*
X024015Y017798D01*
X023946Y017630D01*
X023946Y017540D01*
X023881Y017475D01*
X023881Y018265D01*
X023976Y018360D01*
X023983Y018360D01*
X024015Y018282D01*
X024143Y018154D01*
X024310Y018085D01*
X024491Y018085D01*
X024659Y018154D01*
X024787Y018282D01*
X024856Y018449D01*
X024856Y018630D01*
X024787Y018798D01*
X024659Y018926D01*
X024491Y018995D01*
X024310Y018995D01*
X024143Y018926D01*
X024015Y018798D01*
X023983Y018720D01*
X023826Y018720D01*
X023681Y018575D01*
X023681Y019265D01*
X023776Y019360D01*
X023983Y019360D01*
X024015Y019282D01*
X024143Y019154D01*
X024310Y019085D01*
X024491Y019085D01*
X024659Y019154D01*
X024787Y019282D01*
X024856Y019449D01*
X024856Y019630D01*
X024787Y019798D01*
X024659Y019926D01*
X024491Y019995D01*
X024310Y019995D01*
X024143Y019926D01*
X024015Y019798D01*
X023983Y019720D01*
X023835Y019720D01*
X023881Y019765D01*
X023881Y020265D01*
X023976Y020360D01*
X023983Y020360D01*
X024015Y020282D01*
X024143Y020154D01*
X024310Y020085D01*
X024491Y020085D01*
X024659Y020154D01*
X024787Y020282D01*
X024856Y020449D01*
X024856Y020630D01*
X024787Y020798D01*
X024659Y020926D01*
X024491Y020995D01*
X024310Y020995D01*
X024143Y020926D01*
X024015Y020798D01*
X023983Y020720D01*
X023935Y020720D01*
X024301Y021085D01*
X024780Y021085D01*
X024856Y021161D01*
X024856Y021919D01*
X024780Y021995D01*
X024022Y021995D01*
X023946Y021919D01*
X023946Y021240D01*
X023426Y020720D01*
X023331Y020625D01*
X023331Y020625D01*
X023265Y020784D01*
X023145Y020904D01*
X022986Y020970D01*
X022815Y020970D01*
X022657Y020904D01*
X022581Y020828D01*
X022581Y021110D01*
X023255Y021110D01*
X023331Y021186D01*
X023331Y021894D01*
X023255Y021970D01*
X022547Y021970D01*
X022471Y021894D01*
X022471Y021225D01*
X022305Y021391D01*
X022331Y021454D01*
X022331Y021625D01*
X022265Y021784D01*
X022145Y021904D01*
X021986Y021970D01*
X021815Y021970D01*
X021657Y021904D01*
X021536Y021784D01*
X021471Y021625D01*
X021471Y021454D01*
X021536Y021296D01*
X021657Y021175D01*
X021815Y021110D01*
X021986Y021110D01*
X022050Y021136D01*
X022221Y020965D01*
X022221Y020828D01*
X022145Y020904D01*
X021986Y020970D01*
X021815Y020970D01*
X021657Y020904D01*
X021536Y020784D01*
X021471Y020625D01*
X021471Y020454D01*
X021536Y020296D01*
X021657Y020175D01*
X021815Y020110D01*
X021986Y020110D01*
X022021Y020124D01*
X022021Y018729D01*
X021881Y018729D01*
X021881Y018911D01*
X021946Y018976D01*
X021990Y019082D01*
X021990Y019197D01*
X021946Y019304D01*
X021865Y019385D01*
X021758Y019429D01*
X021643Y019429D01*
X021537Y019385D01*
X021456Y019304D01*
X021412Y019197D01*
X021412Y019082D01*
X021456Y018976D01*
X021521Y018911D01*
X021521Y018729D01*
X021517Y018729D01*
X021441Y018653D01*
X021441Y017679D01*
X021517Y017603D01*
X022009Y017603D01*
X021826Y017420D01*
X021721Y017315D01*
X021721Y016969D01*
X021656Y016904D01*
X021612Y016797D01*
X021612Y016682D01*
X021656Y016576D01*
X021737Y016495D01*
X021843Y016451D01*
X021958Y016451D01*
X022065Y016495D01*
X022146Y016576D01*
X022190Y016682D01*
X022190Y016797D01*
X022146Y016904D01*
X022081Y016969D01*
X022081Y017165D01*
X022112Y017196D01*
X022112Y017182D01*
X022156Y017076D01*
X022237Y016995D01*
X022343Y016951D01*
X022458Y016951D01*
X022521Y016977D01*
X022521Y016415D01*
X022426Y016320D01*
X021126Y016320D01*
X021021Y016215D01*
X020826Y016020D01*
X020721Y015915D01*
X020721Y015215D01*
X020626Y015120D01*
X020076Y015120D01*
X020045Y015151D01*
X020058Y015151D01*
X020165Y015195D01*
X020246Y015276D01*
X020290Y015382D01*
X020290Y015497D01*
X020246Y015604D01*
X020181Y015669D01*
X020181Y016215D01*
X020076Y016320D01*
X019790Y016605D01*
X019790Y016697D01*
X019764Y016760D01*
X020876Y016760D01*
X021176Y017060D01*
X021281Y017165D01*
X021281Y017211D01*
X021346Y017276D01*
X021390Y017382D01*
X021390Y017497D01*
X021346Y017604D01*
X021265Y017685D01*
X021158Y017729D01*
X021150Y017729D01*
X021150Y018669D01*
X021074Y018745D01*
X020494Y018745D01*
X020417Y018669D01*
X020417Y017705D01*
X020358Y017729D01*
X020243Y017729D01*
X020222Y017720D01*
X020185Y017720D01*
X020185Y018653D01*
X020109Y018729D01*
X019529Y018729D01*
X019525Y018725D01*
X019465Y018785D01*
X019358Y018829D01*
X019266Y018829D01*
X019176Y018920D01*
X018226Y018920D01*
X017926Y018620D01*
X017881Y018575D01*
X017881Y019265D01*
X018676Y020060D01*
X018976Y020060D01*
X019176Y020260D01*
X019281Y020365D01*
X019281Y021015D01*
X018947Y021348D01*
X018956Y021369D01*
X018956Y021511D01*
X018902Y021641D01*
X018802Y021741D01*
X018672Y021795D01*
X018530Y021795D01*
X018400Y021741D01*
X018300Y021641D01*
X018246Y021511D01*
X018246Y021369D01*
X018300Y021239D01*
X018400Y021139D01*
X018518Y021090D01*
X018400Y021041D01*
X018300Y020941D01*
X018246Y020811D01*
X018246Y020669D01*
X018300Y020539D01*
X018323Y020516D01*
X017881Y020075D01*
X017881Y020430D01*
X017902Y020439D01*
X018002Y020539D01*
X018056Y020669D01*
X018056Y020811D01*
X018002Y020941D01*
X017902Y021041D01*
X017784Y021090D01*
X017902Y021139D01*
X018002Y021239D01*
X018056Y021369D01*
X018056Y021511D01*
X018002Y021641D01*
X017902Y021741D01*
X017772Y021795D01*
X017630Y021795D01*
X017500Y021741D01*
X017400Y021641D01*
X017346Y021511D01*
X017346Y021369D01*
X017355Y021348D01*
X017021Y021015D01*
X017021Y020715D01*
X016381Y020075D01*
X016381Y020265D01*
X016566Y020451D01*
X016658Y020451D01*
X016765Y020495D01*
X016846Y020576D01*
X016890Y020682D01*
X016890Y020797D01*
X016846Y020904D01*
X016765Y020985D01*
X016658Y021029D01*
X016543Y021029D01*
X016437Y020985D01*
X016356Y020904D01*
X016312Y020797D01*
X016312Y020705D01*
X016181Y020575D01*
X016181Y022422D01*
X016259Y022454D01*
X016387Y022582D01*
X016456Y022749D01*
X016456Y022930D01*
X016387Y023098D01*
X016259Y023226D01*
X016091Y023295D01*
X015910Y023295D01*
X015743Y023226D01*
X015615Y023098D01*
X015546Y022930D01*
X015546Y022749D01*
X015615Y022582D01*
X015743Y022454D01*
X015821Y022422D01*
X015821Y017415D01*
X015426Y017020D01*
X014230Y017020D01*
X014165Y017085D01*
X014058Y017129D01*
X013943Y017129D01*
X013837Y017085D01*
X013756Y017004D01*
X013712Y016897D01*
X013712Y016782D01*
X013756Y016676D01*
X013812Y016620D01*
X011876Y016620D01*
X011581Y016915D01*
X011476Y017020D01*
X008726Y017020D01*
X007835Y016129D01*
X007743Y016129D01*
X007637Y016085D01*
X007556Y016004D01*
X007512Y015897D01*
X007512Y015782D01*
X007556Y015676D01*
X007637Y015595D01*
X007743Y015551D01*
X007858Y015551D01*
X007965Y015595D01*
X008046Y015676D01*
X008090Y015782D01*
X008090Y015874D01*
X008876Y016660D01*
X011326Y016660D01*
X011457Y016529D01*
X011443Y016529D01*
X011337Y016485D01*
X011256Y016404D01*
X011212Y016297D01*
X011212Y016182D01*
X011256Y016076D01*
X011337Y015995D01*
X011443Y015951D01*
X011512Y015951D01*
X011512Y015929D01*
X011443Y015929D01*
X011337Y015885D01*
X011256Y015804D01*
X011212Y015697D01*
X011212Y015582D01*
X011256Y015476D01*
X011337Y015395D01*
X011443Y015351D01*
X011512Y015351D01*
X011512Y015329D01*
X011443Y015329D01*
X011337Y015285D01*
X011256Y015204D01*
X011212Y015097D01*
X011212Y014982D01*
X011256Y014876D01*
X011337Y014795D01*
X011415Y014763D01*
X011356Y014704D01*
X011312Y014597D01*
X011312Y014482D01*
X011356Y014376D01*
X011437Y014295D01*
X011543Y014251D01*
X011658Y014251D01*
X011765Y014295D01*
X011846Y014376D01*
X011851Y014388D01*
X011856Y014376D01*
X011937Y014295D01*
X012043Y014251D01*
X012158Y014251D01*
X012265Y014295D01*
X012346Y014376D01*
X012351Y014388D01*
X012356Y014376D01*
X012437Y014295D01*
X012543Y014251D01*
X012658Y014251D01*
X012765Y014295D01*
X012846Y014376D01*
X012890Y014482D01*
X012890Y014597D01*
X012864Y014660D01*
X014066Y014660D01*
X013926Y014520D01*
X013821Y014415D01*
X013821Y013869D01*
X013756Y013804D01*
X013712Y013697D01*
X013712Y013582D01*
X013756Y013476D01*
X013837Y013395D01*
X013943Y013351D01*
X014058Y013351D01*
X014165Y013395D01*
X014246Y013476D01*
X014290Y013582D01*
X014290Y013697D01*
X014246Y013804D01*
X014181Y013869D01*
X014181Y014265D01*
X014376Y014460D01*
X016226Y014460D01*
X017083Y013604D01*
X017037Y013585D01*
X016956Y013504D01*
X016912Y013397D01*
X016912Y013282D01*
X016956Y013176D01*
X017037Y013095D01*
X017097Y013070D01*
X003413Y013070D01*
X003049Y012973D01*
X002723Y012784D01*
X002457Y012518D01*
X002268Y012192D01*
X002171Y011828D01*
X002171Y008135D01*
X002252Y007940D01*
X002401Y007791D01*
X002596Y007710D01*
X002806Y007710D01*
X003001Y007791D01*
X003150Y007940D01*
X003231Y008135D01*
X003231Y011640D01*
X003234Y011688D01*
X003259Y011782D01*
X003307Y011865D01*
X003376Y011934D01*
X003459Y011982D01*
X003553Y012007D01*
X003601Y012010D01*
X006569Y012010D01*
X006500Y011941D01*
X006446Y011811D01*
X006446Y011669D01*
X006500Y011539D01*
X006600Y011439D01*
X006730Y011385D01*
X006872Y011385D01*
X007002Y011439D01*
X007093Y011530D01*
X007202Y011530D01*
X007237Y011495D01*
X007343Y011451D01*
X007458Y011451D01*
X007565Y011495D01*
X007646Y011576D01*
X007690Y011682D01*
X007690Y011797D01*
X007646Y011904D01*
X007565Y011985D01*
X007504Y012010D01*
X007791Y012010D01*
X007791Y011232D01*
X007700Y011141D01*
X007646Y011011D01*
X007646Y010869D01*
X007700Y010739D01*
X007800Y010639D01*
X007930Y010585D01*
X008072Y010585D01*
X008202Y010639D01*
X008302Y010739D01*
X008356Y010869D01*
X008356Y011011D01*
X008302Y011141D01*
X008211Y011232D01*
X008211Y012010D01*
X010316Y012010D01*
X010221Y011915D01*
X010221Y011265D01*
X010326Y011160D01*
X010521Y010965D01*
X010521Y010729D01*
X010465Y010785D01*
X010358Y010829D01*
X010243Y010829D01*
X010137Y010785D01*
X010056Y010704D01*
X010012Y010597D01*
X010012Y010482D01*
X010056Y010376D01*
X010121Y010311D01*
X010121Y010165D01*
X010226Y010060D01*
X010321Y009965D01*
X010321Y008115D01*
X010126Y007920D01*
X007135Y007920D01*
X007181Y007965D01*
X007181Y008011D01*
X007246Y008076D01*
X007290Y008182D01*
X007290Y008297D01*
X007246Y008404D01*
X007165Y008485D01*
X007058Y008529D01*
X006943Y008529D01*
X006837Y008485D01*
X006756Y008404D01*
X006712Y008297D01*
X006712Y008182D01*
X006738Y008120D01*
X006326Y008120D01*
X006221Y008015D01*
X005621Y007415D01*
X005621Y006615D01*
X005426Y006420D01*
X005076Y006420D01*
X004876Y006620D01*
X004330Y006620D01*
X004265Y006685D01*
X004158Y006729D01*
X004043Y006729D01*
X003937Y006685D01*
X003856Y006604D01*
X003812Y006497D01*
X003812Y006382D01*
X003856Y006276D01*
X003937Y006195D01*
X004043Y006151D01*
X004157Y006151D01*
X004121Y006115D01*
X003935Y005929D01*
X003843Y005929D01*
X003737Y005885D01*
X003656Y005804D01*
X003612Y005697D01*
X003612Y005582D01*
X003656Y005476D01*
X003737Y005395D01*
X003843Y005351D01*
X003958Y005351D01*
X004065Y005395D01*
X004146Y005476D01*
X004190Y005582D01*
X004190Y005674D01*
X004376Y005860D01*
X004472Y005860D01*
X004537Y005795D01*
X004311Y005795D01*
X004212Y005696D02*
X004721Y005696D01*
X004721Y005751D02*
X004721Y004569D01*
X004656Y004504D01*
X004612Y004397D01*
X004612Y004282D01*
X004656Y004176D01*
X004737Y004095D01*
X004843Y004051D01*
X004958Y004051D01*
X005065Y004095D01*
X005146Y004176D01*
X005190Y004282D01*
X005190Y004397D01*
X005146Y004504D01*
X005081Y004569D01*
X005081Y005660D01*
X005526Y005660D01*
X005626Y005560D01*
X006321Y005560D01*
X006321Y004369D01*
X006256Y004304D01*
X006212Y004197D01*
X006212Y004082D01*
X006256Y003976D01*
X006337Y003895D01*
X006443Y003851D01*
X006558Y003851D01*
X006665Y003895D01*
X006746Y003976D01*
X006790Y004082D01*
X006790Y004197D01*
X006746Y004304D01*
X006681Y004369D01*
X006681Y005565D01*
X006881Y005765D01*
X006881Y006615D01*
X006781Y006715D01*
X006781Y006865D01*
X006876Y006960D01*
X010082Y006960D01*
X010081Y006959D01*
X010004Y006904D01*
X009937Y006837D01*
X009881Y006760D01*
X009838Y006675D01*
X009809Y006585D01*
X009795Y006494D01*
X010347Y006494D01*
X010347Y006394D01*
X009795Y006394D01*
X009809Y006303D01*
X009838Y006213D01*
X009881Y006128D01*
X009937Y006051D01*
X010004Y005984D01*
X010081Y005928D01*
X010166Y005885D01*
X010256Y005856D01*
X010347Y005842D01*
X010347Y006394D01*
X010447Y006394D01*
X010447Y006494D01*
X010447Y006394D02*
X010999Y006394D01*
X010985Y006303D01*
X010956Y006213D01*
X010913Y006128D01*
X010857Y006051D01*
X010790Y005984D01*
X010713Y005928D01*
X010628Y005885D01*
X010538Y005856D01*
X010447Y005842D01*
X010447Y006394D01*
X010447Y006386D02*
X010347Y006386D01*
X010347Y006484D02*
X006881Y006484D01*
X006881Y006386D02*
X009796Y006386D01*
X009814Y006287D02*
X006881Y006287D01*
X006881Y006189D02*
X009850Y006189D01*
X009909Y006090D02*
X006881Y006090D01*
X006881Y005992D02*
X009997Y005992D01*
X010150Y005893D02*
X006881Y005893D01*
X006881Y005795D02*
X010932Y005795D01*
X010907Y005770D02*
X010818Y005556D01*
X010818Y005324D01*
X010907Y005110D01*
X011071Y004946D01*
X011285Y004857D01*
X011517Y004857D01*
X011731Y004946D01*
X011895Y005110D01*
X011984Y005324D01*
X011984Y005556D01*
X011895Y005770D01*
X011731Y005934D01*
X011517Y006023D01*
X011285Y006023D01*
X011071Y005934D01*
X010907Y005770D01*
X010876Y005696D02*
X006812Y005696D01*
X006714Y005598D02*
X010836Y005598D01*
X010818Y005499D02*
X006681Y005499D01*
X006681Y005401D02*
X010818Y005401D01*
X010827Y005302D02*
X006681Y005302D01*
X006681Y005204D02*
X010868Y005204D01*
X010911Y005105D02*
X006681Y005105D01*
X006681Y005007D02*
X010204Y005007D01*
X010166Y004995D02*
X010081Y004952D01*
X010004Y004896D01*
X009937Y004829D01*
X009881Y004752D01*
X009838Y004667D01*
X009809Y004577D01*
X009795Y004486D01*
X010347Y004486D01*
X010347Y004386D01*
X010447Y004386D01*
X010447Y003834D01*
X010538Y003848D01*
X010628Y003877D01*
X010713Y003921D01*
X010790Y003976D01*
X010857Y004043D01*
X010913Y004120D01*
X010956Y004205D01*
X010985Y004295D01*
X010999Y004386D01*
X010447Y004386D01*
X010447Y004486D01*
X010999Y004486D01*
X010985Y004577D01*
X010956Y004667D01*
X010913Y004752D01*
X010857Y004829D01*
X010790Y004896D01*
X010713Y004952D01*
X010628Y004995D01*
X010538Y005024D01*
X010447Y005038D01*
X010447Y004486D01*
X010347Y004486D01*
X010347Y005038D01*
X010256Y005024D01*
X010166Y004995D01*
X010022Y004908D02*
X006681Y004908D01*
X006681Y004810D02*
X009924Y004810D01*
X009861Y004711D02*
X006681Y004711D01*
X006681Y004613D02*
X009821Y004613D01*
X009799Y004514D02*
X006681Y004514D01*
X006681Y004416D02*
X010347Y004416D01*
X010347Y004386D02*
X009795Y004386D01*
X009809Y004295D01*
X009838Y004205D01*
X009881Y004120D01*
X009937Y004043D01*
X010004Y003976D01*
X010081Y003921D01*
X010166Y003877D01*
X010256Y003848D01*
X010347Y003834D01*
X010347Y004386D01*
X010347Y004317D02*
X010447Y004317D01*
X010447Y004219D02*
X010347Y004219D01*
X010347Y004120D02*
X010447Y004120D01*
X010447Y004022D02*
X010347Y004022D01*
X010347Y003923D02*
X010447Y003923D01*
X010717Y003923D02*
X012085Y003923D01*
X012089Y003921D02*
X012174Y003877D01*
X012264Y003848D01*
X012355Y003834D01*
X012355Y004386D01*
X012455Y004386D01*
X012455Y004486D01*
X013007Y004486D01*
X012993Y004577D01*
X012963Y004667D01*
X012920Y004752D01*
X012865Y004829D01*
X012798Y004896D01*
X012721Y004952D01*
X012636Y004995D01*
X012546Y005024D01*
X012455Y005038D01*
X012455Y004486D01*
X012355Y004486D01*
X012355Y005038D01*
X012264Y005024D01*
X012174Y004995D01*
X012089Y004952D01*
X012012Y004896D01*
X011945Y004829D01*
X011889Y004752D01*
X011846Y004667D01*
X011817Y004577D01*
X011803Y004486D01*
X012355Y004486D01*
X012355Y004386D01*
X011803Y004386D01*
X011817Y004295D01*
X011846Y004205D01*
X011889Y004120D01*
X011945Y004043D01*
X012012Y003976D01*
X012089Y003921D01*
X011967Y004022D02*
X010835Y004022D01*
X010913Y004120D02*
X011889Y004120D01*
X011842Y004219D02*
X010960Y004219D01*
X010988Y004317D02*
X011813Y004317D01*
X011807Y004514D02*
X010995Y004514D01*
X010973Y004613D02*
X011829Y004613D01*
X011869Y004711D02*
X010933Y004711D01*
X010870Y004810D02*
X011932Y004810D01*
X012030Y004908D02*
X011641Y004908D01*
X011792Y005007D02*
X012212Y005007D01*
X012355Y005007D02*
X012455Y005007D01*
X012455Y004908D02*
X012355Y004908D01*
X012355Y004810D02*
X012455Y004810D01*
X012455Y004711D02*
X012355Y004711D01*
X012355Y004613D02*
X012455Y004613D01*
X012455Y004514D02*
X012355Y004514D01*
X012355Y004416D02*
X010447Y004416D01*
X010447Y004514D02*
X010347Y004514D01*
X010347Y004613D02*
X010447Y004613D01*
X010447Y004711D02*
X010347Y004711D01*
X010347Y004810D02*
X010447Y004810D01*
X010447Y004908D02*
X010347Y004908D01*
X010347Y005007D02*
X010447Y005007D01*
X010590Y005007D02*
X011010Y005007D01*
X011161Y004908D02*
X010772Y004908D01*
X009806Y004317D02*
X006732Y004317D01*
X006781Y004219D02*
X009834Y004219D01*
X009881Y004120D02*
X006790Y004120D01*
X006765Y004022D02*
X009959Y004022D01*
X010077Y003923D02*
X006693Y003923D01*
X006501Y004140D02*
X006501Y005640D01*
X006701Y005840D01*
X006701Y006540D01*
X006601Y006640D01*
X006601Y006940D01*
X006801Y007140D01*
X010501Y007140D01*
X011101Y007740D01*
X011101Y011140D01*
X011201Y011240D01*
X011201Y011340D01*
X011461Y011212D02*
X017879Y011212D01*
X017977Y011114D02*
X011384Y011114D01*
X011281Y011015D02*
X018076Y011015D01*
X018174Y010917D02*
X011281Y010917D01*
X011281Y010818D02*
X018273Y010818D01*
X018371Y010720D02*
X011281Y010720D01*
X011281Y010621D02*
X018568Y010621D01*
X018834Y010621D02*
X019721Y010621D01*
X019721Y010523D02*
X011281Y010523D01*
X011281Y010424D02*
X019721Y010424D01*
X019721Y010326D02*
X011281Y010326D01*
X011281Y010227D02*
X019721Y010227D01*
X019721Y010129D02*
X011281Y010129D01*
X011281Y010030D02*
X019721Y010030D01*
X019721Y009932D02*
X011281Y009932D01*
X011281Y009833D02*
X019721Y009833D01*
X019721Y009735D02*
X011281Y009735D01*
X011281Y009636D02*
X019721Y009636D01*
X019721Y009538D02*
X011281Y009538D01*
X011281Y009439D02*
X019721Y009439D01*
X019721Y009341D02*
X011281Y009341D01*
X011281Y009242D02*
X019721Y009242D01*
X019721Y009144D02*
X011281Y009144D01*
X011281Y009045D02*
X019721Y009045D01*
X019721Y008947D02*
X011281Y008947D01*
X011281Y008848D02*
X019721Y008848D01*
X019721Y008750D02*
X011281Y008750D01*
X011281Y008651D02*
X019484Y008651D01*
X019484Y008553D02*
X011281Y008553D01*
X011281Y008454D02*
X019484Y008454D01*
X019484Y008356D02*
X011281Y008356D01*
X011281Y008257D02*
X019484Y008257D01*
X019484Y008159D02*
X011281Y008159D01*
X011281Y008060D02*
X019484Y008060D01*
X019484Y007962D02*
X011281Y007962D01*
X011281Y007863D02*
X019484Y007863D01*
X019497Y007765D02*
X011281Y007765D01*
X011281Y007666D02*
X027451Y007666D01*
X027451Y007568D02*
X011184Y007568D01*
X011085Y007469D02*
X027451Y007469D01*
X027451Y007371D02*
X010987Y007371D01*
X010888Y007272D02*
X027451Y007272D01*
X027451Y007174D02*
X010790Y007174D01*
X010691Y007075D02*
X027451Y007075D01*
X027451Y006977D02*
X012686Y006977D01*
X012823Y006878D02*
X027451Y006878D01*
X027451Y006780D02*
X012906Y006780D01*
X012960Y006681D02*
X027451Y006681D01*
X027451Y006583D02*
X026845Y006583D01*
X027060Y006484D02*
X027451Y006484D01*
X027451Y006386D02*
X027158Y006386D01*
X027257Y006287D02*
X027451Y006287D01*
X027451Y006189D02*
X027301Y006189D01*
X027341Y006090D02*
X027451Y006090D01*
X027451Y005992D02*
X027381Y005992D01*
X027381Y005893D02*
X027451Y005893D01*
X027451Y005795D02*
X027381Y005795D01*
X027381Y005696D02*
X027451Y005696D01*
X027451Y005598D02*
X027345Y005598D01*
X027304Y005499D02*
X027451Y005499D01*
X027451Y005401D02*
X027263Y005401D01*
X027167Y005302D02*
X027451Y005302D01*
X027451Y005204D02*
X027068Y005204D01*
X026866Y005105D02*
X027451Y005105D01*
X027451Y005007D02*
X012598Y005007D01*
X012780Y004908D02*
X027451Y004908D01*
X027451Y004902D02*
X026539Y003990D01*
X026451Y003902D01*
X026451Y002990D01*
X001001Y002990D01*
X000952Y002995D01*
X000862Y003032D01*
X000793Y003101D01*
X000756Y003191D01*
X000751Y003240D01*
X000751Y020905D01*
X001843Y020905D01*
X001860Y020907D01*
X001876Y020912D01*
X001892Y020918D01*
X001907Y020927D01*
X001920Y020937D01*
X001932Y020949D01*
X001943Y020963D01*
X001951Y020977D01*
X001958Y020993D01*
X001962Y021009D01*
X001964Y021026D01*
X001964Y023682D01*
X001963Y023690D01*
X025939Y023690D01*
X026451Y023178D01*
X026451Y018678D01*
X027451Y017678D01*
X027451Y004902D01*
X027359Y004810D02*
X012878Y004810D01*
X012941Y004711D02*
X027260Y004711D01*
X027162Y004613D02*
X012981Y004613D01*
X013003Y004514D02*
X027063Y004514D01*
X026965Y004416D02*
X012455Y004416D01*
X012455Y004386D02*
X013007Y004386D01*
X012993Y004295D01*
X012963Y004205D01*
X012920Y004120D01*
X012865Y004043D01*
X012798Y003976D01*
X012721Y003921D01*
X012636Y003877D01*
X012546Y003848D01*
X012455Y003834D01*
X012455Y004386D01*
X012455Y004317D02*
X012355Y004317D01*
X012355Y004219D02*
X012455Y004219D01*
X012455Y004120D02*
X012355Y004120D01*
X012355Y004022D02*
X012455Y004022D01*
X012455Y003923D02*
X012355Y003923D01*
X012725Y003923D02*
X013146Y003923D01*
X013146Y003930D02*
X013146Y003749D01*
X013215Y003582D01*
X013343Y003454D01*
X013510Y003385D01*
X013691Y003385D01*
X013859Y003454D01*
X013987Y003582D01*
X014056Y003749D01*
X014056Y003930D01*
X013987Y004098D01*
X013859Y004226D01*
X013691Y004295D01*
X013510Y004295D01*
X013343Y004226D01*
X013215Y004098D01*
X013146Y003930D01*
X013184Y004022D02*
X012843Y004022D01*
X012921Y004120D02*
X013238Y004120D01*
X013336Y004219D02*
X012968Y004219D01*
X012996Y004317D02*
X026866Y004317D01*
X026768Y004219D02*
X025865Y004219D01*
X025859Y004226D02*
X025691Y004295D01*
X025510Y004295D01*
X025343Y004226D01*
X025215Y004098D01*
X025146Y003930D01*
X025146Y003749D01*
X025215Y003582D01*
X025343Y003454D01*
X025510Y003385D01*
X025691Y003385D01*
X025859Y003454D01*
X025987Y003582D01*
X026056Y003749D01*
X026056Y003930D01*
X025987Y004098D01*
X025859Y004226D01*
X025964Y004120D02*
X026669Y004120D01*
X026571Y004022D02*
X026018Y004022D01*
X026056Y003923D02*
X026472Y003923D01*
X026451Y003825D02*
X026056Y003825D01*
X026046Y003726D02*
X026451Y003726D01*
X026451Y003628D02*
X026006Y003628D01*
X025934Y003529D02*
X026451Y003529D01*
X026451Y003431D02*
X025803Y003431D01*
X025399Y003431D02*
X024803Y003431D01*
X024859Y003454D02*
X024691Y003385D01*
X024510Y003385D01*
X024343Y003454D01*
X024215Y003582D01*
X024146Y003749D01*
X024146Y003930D01*
X024215Y004098D01*
X024343Y004226D01*
X024510Y004295D01*
X024691Y004295D01*
X024859Y004226D01*
X024987Y004098D01*
X025056Y003930D01*
X025056Y003749D01*
X024987Y003582D01*
X024859Y003454D01*
X024934Y003529D02*
X025268Y003529D01*
X025196Y003628D02*
X025006Y003628D01*
X025046Y003726D02*
X025155Y003726D01*
X025146Y003825D02*
X025056Y003825D01*
X025056Y003923D02*
X025146Y003923D01*
X025184Y004022D02*
X025018Y004022D01*
X024964Y004120D02*
X025238Y004120D01*
X025336Y004219D02*
X024865Y004219D01*
X024336Y004219D02*
X023865Y004219D01*
X023859Y004226D02*
X023691Y004295D01*
X023510Y004295D01*
X023343Y004226D01*
X023215Y004098D01*
X023146Y003930D01*
X023146Y003749D01*
X023215Y003582D01*
X023343Y003454D01*
X023510Y003385D01*
X023691Y003385D01*
X023859Y003454D01*
X023987Y003582D01*
X024056Y003749D01*
X024056Y003930D01*
X023987Y004098D01*
X023859Y004226D01*
X023964Y004120D02*
X024238Y004120D01*
X024184Y004022D02*
X024018Y004022D01*
X024056Y003923D02*
X024146Y003923D01*
X024146Y003825D02*
X024056Y003825D01*
X024046Y003726D02*
X024155Y003726D01*
X024196Y003628D02*
X024006Y003628D01*
X023934Y003529D02*
X024268Y003529D01*
X024399Y003431D02*
X023803Y003431D01*
X023399Y003431D02*
X022803Y003431D01*
X022859Y003454D02*
X022987Y003582D01*
X023056Y003749D01*
X023056Y003930D01*
X022987Y004098D01*
X022859Y004226D01*
X022691Y004295D01*
X022510Y004295D01*
X022343Y004226D01*
X022215Y004098D01*
X022146Y003930D01*
X022146Y003749D01*
X022215Y003582D01*
X022343Y003454D01*
X022510Y003385D01*
X022691Y003385D01*
X022859Y003454D01*
X022934Y003529D02*
X023268Y003529D01*
X023196Y003628D02*
X023006Y003628D01*
X023046Y003726D02*
X023155Y003726D01*
X023146Y003825D02*
X023056Y003825D01*
X023056Y003923D02*
X023146Y003923D01*
X023184Y004022D02*
X023018Y004022D01*
X022964Y004120D02*
X023238Y004120D01*
X023336Y004219D02*
X022865Y004219D01*
X022336Y004219D02*
X021865Y004219D01*
X021859Y004226D02*
X021691Y004295D01*
X021510Y004295D01*
X021343Y004226D01*
X021215Y004098D01*
X021146Y003930D01*
X021146Y003749D01*
X021215Y003582D01*
X021343Y003454D01*
X021510Y003385D01*
X021691Y003385D01*
X021859Y003454D01*
X021987Y003582D01*
X022056Y003749D01*
X022056Y003930D01*
X021987Y004098D01*
X021859Y004226D01*
X021964Y004120D02*
X022238Y004120D01*
X022184Y004022D02*
X022018Y004022D01*
X022056Y003923D02*
X022146Y003923D01*
X022146Y003825D02*
X022056Y003825D01*
X022046Y003726D02*
X022155Y003726D01*
X022196Y003628D02*
X022006Y003628D01*
X021934Y003529D02*
X022268Y003529D01*
X022399Y003431D02*
X021803Y003431D01*
X021399Y003431D02*
X021026Y003431D01*
X021056Y003461D02*
X020980Y003385D01*
X020222Y003385D01*
X020146Y003461D01*
X020146Y004219D01*
X019056Y004219D01*
X018980Y004295D01*
X018222Y004295D01*
X018146Y004219D01*
X017887Y004219D01*
X017910Y004202D02*
X017850Y004246D01*
X017783Y004280D01*
X017712Y004303D01*
X017638Y004315D01*
X017638Y003877D01*
X018076Y003877D01*
X018064Y003951D01*
X018041Y004022D01*
X018146Y004022D01*
X018146Y004120D02*
X017984Y004120D01*
X017963Y004149D02*
X018007Y004089D01*
X018041Y004022D01*
X018069Y003923D02*
X018146Y003923D01*
X018146Y003825D02*
X017638Y003825D01*
X017638Y003802D02*
X017638Y003877D01*
X017563Y003877D01*
X017563Y003802D01*
X017638Y003802D01*
X017638Y003365D01*
X017712Y003377D01*
X017783Y003400D01*
X017850Y003434D01*
X017910Y003478D01*
X017963Y003531D01*
X018007Y003591D01*
X018041Y003658D01*
X018064Y003729D01*
X018076Y003802D01*
X017638Y003802D01*
X017563Y003802D02*
X017563Y003365D01*
X017490Y003377D01*
X017419Y003400D01*
X017352Y003434D01*
X017291Y003478D01*
X017239Y003531D01*
X017195Y003591D01*
X017161Y003658D01*
X017138Y003729D01*
X017126Y003802D01*
X017563Y003802D01*
X017563Y003825D02*
X016638Y003825D01*
X016638Y003802D02*
X016638Y003877D01*
X017076Y003877D01*
X017064Y003951D01*
X017041Y004022D01*
X017161Y004022D01*
X017138Y003951D01*
X017126Y003877D01*
X017563Y003877D01*
X017563Y004315D01*
X017490Y004303D01*
X017419Y004280D01*
X017352Y004246D01*
X017291Y004202D01*
X017239Y004149D01*
X017195Y004089D01*
X017161Y004022D01*
X017133Y003923D02*
X017069Y003923D01*
X017041Y004022D02*
X017007Y004089D01*
X016963Y004149D01*
X016910Y004202D01*
X016850Y004246D01*
X016783Y004280D01*
X016712Y004303D01*
X016638Y004315D01*
X016638Y003877D01*
X016563Y003877D01*
X016563Y003802D01*
X016638Y003802D01*
X016638Y003365D01*
X016712Y003377D01*
X016783Y003400D01*
X016850Y003434D01*
X016910Y003478D01*
X016963Y003531D01*
X017007Y003591D01*
X017041Y003658D01*
X017064Y003729D01*
X017076Y003802D01*
X016638Y003802D01*
X016563Y003802D02*
X016563Y003365D01*
X016490Y003377D01*
X016419Y003400D01*
X016352Y003434D01*
X016291Y003478D01*
X016239Y003531D01*
X016195Y003591D01*
X016161Y003658D01*
X016138Y003729D01*
X016126Y003802D01*
X016563Y003802D01*
X016563Y003825D02*
X016056Y003825D01*
X016056Y003749D02*
X015987Y003582D01*
X015859Y003454D01*
X015691Y003385D01*
X015510Y003385D01*
X015343Y003454D01*
X015215Y003582D01*
X015146Y003749D01*
X015146Y003930D01*
X015215Y004098D01*
X015343Y004226D01*
X015510Y004295D01*
X015691Y004295D01*
X015859Y004226D01*
X015987Y004098D01*
X016056Y003930D01*
X016056Y003749D01*
X016046Y003726D02*
X016138Y003726D01*
X016176Y003628D02*
X016006Y003628D01*
X015934Y003529D02*
X016240Y003529D01*
X016357Y003431D02*
X015803Y003431D01*
X015399Y003431D02*
X014803Y003431D01*
X014859Y003454D02*
X014987Y003582D01*
X015056Y003749D01*
X015056Y003930D01*
X014987Y004098D01*
X014859Y004226D01*
X014691Y004295D01*
X014510Y004295D01*
X014343Y004226D01*
X014215Y004098D01*
X014146Y003930D01*
X014146Y003749D01*
X014215Y003582D01*
X014343Y003454D01*
X014510Y003385D01*
X014691Y003385D01*
X014859Y003454D01*
X014934Y003529D02*
X015268Y003529D01*
X015196Y003628D02*
X015006Y003628D01*
X015046Y003726D02*
X015155Y003726D01*
X015146Y003825D02*
X015056Y003825D01*
X015056Y003923D02*
X015146Y003923D01*
X015184Y004022D02*
X015018Y004022D01*
X014964Y004120D02*
X015238Y004120D01*
X015336Y004219D02*
X014865Y004219D01*
X014336Y004219D02*
X013865Y004219D01*
X013964Y004120D02*
X014238Y004120D01*
X014184Y004022D02*
X014018Y004022D01*
X014056Y003923D02*
X014146Y003923D01*
X014146Y003825D02*
X014056Y003825D01*
X014046Y003726D02*
X014155Y003726D01*
X014196Y003628D02*
X014006Y003628D01*
X013934Y003529D02*
X014268Y003529D01*
X014399Y003431D02*
X013803Y003431D01*
X013399Y003431D02*
X006681Y003431D01*
X006691Y003407D02*
X006639Y003531D01*
X006545Y003626D01*
X006421Y003677D01*
X006287Y003677D01*
X006163Y003626D01*
X006068Y003531D01*
X006017Y003407D01*
X006017Y003273D01*
X006068Y003149D01*
X006163Y003054D01*
X006287Y003003D01*
X006421Y003003D01*
X006545Y003054D01*
X006639Y003149D01*
X006691Y003273D01*
X006691Y003407D01*
X006691Y003332D02*
X026451Y003332D01*
X026451Y003234D02*
X006675Y003234D01*
X006626Y003135D02*
X026451Y003135D01*
X026451Y003037D02*
X006503Y003037D01*
X006205Y003037D02*
X005597Y003037D01*
X005639Y003054D02*
X005734Y003149D01*
X005785Y003273D01*
X005785Y003407D01*
X005734Y003531D01*
X005639Y003626D01*
X005515Y003677D01*
X005381Y003677D01*
X005257Y003626D01*
X005162Y003531D01*
X005111Y003407D01*
X005111Y003273D01*
X005162Y003149D01*
X005257Y003054D01*
X005381Y003003D01*
X005515Y003003D01*
X005639Y003054D01*
X005720Y003135D02*
X006082Y003135D01*
X006033Y003234D02*
X005769Y003234D01*
X005785Y003332D02*
X006017Y003332D01*
X006027Y003431D02*
X005775Y003431D01*
X005734Y003529D02*
X006067Y003529D01*
X006168Y003628D02*
X005634Y003628D01*
X005263Y003628D02*
X000751Y003628D01*
X000751Y003726D02*
X013155Y003726D01*
X013146Y003825D02*
X000751Y003825D01*
X000751Y003923D02*
X006309Y003923D01*
X006237Y004022D02*
X000751Y004022D01*
X000751Y004120D02*
X004712Y004120D01*
X004638Y004219D02*
X000751Y004219D01*
X000751Y004317D02*
X004612Y004317D01*
X004620Y004416D02*
X000751Y004416D01*
X000751Y004514D02*
X004667Y004514D01*
X004721Y004613D02*
X000751Y004613D01*
X000751Y004711D02*
X004721Y004711D01*
X004721Y004810D02*
X000751Y004810D01*
X000751Y004908D02*
X004721Y004908D01*
X004721Y005007D02*
X000751Y005007D01*
X000751Y005105D02*
X004721Y005105D01*
X004721Y005204D02*
X000751Y005204D01*
X000751Y005302D02*
X004721Y005302D01*
X004721Y005401D02*
X004071Y005401D01*
X004156Y005499D02*
X004721Y005499D01*
X004721Y005598D02*
X004190Y005598D01*
X003901Y005640D02*
X004301Y006040D01*
X004701Y006040D01*
X005601Y006040D01*
X006001Y006440D01*
X006001Y007240D01*
X006501Y007740D01*
X010201Y007740D01*
X010501Y008040D01*
X010501Y010040D01*
X010301Y010240D01*
X010301Y010540D01*
X010036Y010424D02*
X003231Y010424D01*
X003231Y010326D02*
X010106Y010326D01*
X010121Y010227D02*
X003231Y010227D01*
X003231Y010129D02*
X010157Y010129D01*
X010256Y010030D02*
X003231Y010030D01*
X003231Y009932D02*
X010321Y009932D01*
X010321Y009833D02*
X003231Y009833D01*
X003231Y009735D02*
X010321Y009735D01*
X010321Y009636D02*
X003231Y009636D01*
X003231Y009538D02*
X010321Y009538D01*
X010321Y009439D02*
X003231Y009439D01*
X003231Y009341D02*
X010321Y009341D01*
X010321Y009242D02*
X003231Y009242D01*
X003231Y009144D02*
X010321Y009144D01*
X010321Y009045D02*
X003231Y009045D01*
X003231Y008947D02*
X010321Y008947D01*
X010321Y008848D02*
X003231Y008848D01*
X003231Y008750D02*
X010321Y008750D01*
X010321Y008651D02*
X003231Y008651D01*
X003231Y008553D02*
X010321Y008553D01*
X010321Y008454D02*
X007195Y008454D01*
X007266Y008356D02*
X010321Y008356D01*
X010321Y008257D02*
X007290Y008257D01*
X007280Y008159D02*
X010321Y008159D01*
X010267Y008060D02*
X007230Y008060D01*
X007178Y007962D02*
X010168Y007962D01*
X010301Y007540D02*
X006601Y007540D01*
X006201Y007140D01*
X006201Y006140D01*
X006501Y005940D02*
X006301Y005740D01*
X005701Y005740D01*
X005601Y005840D01*
X005001Y005840D01*
X004901Y005740D01*
X004901Y004340D01*
X005164Y004219D02*
X006221Y004219D01*
X006212Y004120D02*
X005090Y004120D01*
X005190Y004317D02*
X006270Y004317D01*
X006321Y004416D02*
X005182Y004416D01*
X005135Y004514D02*
X006321Y004514D01*
X006321Y004613D02*
X005081Y004613D01*
X005081Y004711D02*
X006321Y004711D01*
X006321Y004810D02*
X005081Y004810D01*
X005081Y004908D02*
X006321Y004908D01*
X006321Y005007D02*
X005081Y005007D01*
X005081Y005105D02*
X006321Y005105D01*
X006321Y005204D02*
X005081Y005204D01*
X005081Y005302D02*
X006321Y005302D01*
X006321Y005401D02*
X005081Y005401D01*
X005081Y005499D02*
X006321Y005499D01*
X006501Y005940D02*
X006501Y006440D01*
X006401Y006540D01*
X006401Y007040D01*
X006701Y007340D01*
X010401Y007340D01*
X010901Y007840D01*
X010901Y011440D01*
X010801Y011540D01*
X010401Y011340D02*
X010401Y011840D01*
X010501Y011940D01*
X011401Y011940D01*
X011501Y011840D01*
X011501Y011640D01*
X011759Y011508D02*
X017583Y011508D01*
X017485Y011606D02*
X011790Y011606D01*
X011787Y011705D02*
X017386Y011705D01*
X017288Y011803D02*
X011746Y011803D01*
X011681Y011902D02*
X017189Y011902D01*
X017091Y012000D02*
X011595Y012000D01*
X011679Y011409D02*
X017682Y011409D01*
X017780Y011311D02*
X011490Y011311D01*
X010701Y011040D02*
X010401Y011340D01*
X010274Y011212D02*
X008230Y011212D01*
X008211Y011311D02*
X010221Y011311D01*
X010221Y011409D02*
X008211Y011409D01*
X008211Y011508D02*
X010221Y011508D01*
X010221Y011606D02*
X008211Y011606D01*
X008211Y011705D02*
X010221Y011705D01*
X010221Y011803D02*
X008211Y011803D01*
X008211Y011902D02*
X010221Y011902D01*
X010307Y012000D02*
X008211Y012000D01*
X007791Y012000D02*
X007527Y012000D01*
X007647Y011902D02*
X007791Y011902D01*
X007791Y011803D02*
X007688Y011803D01*
X007690Y011705D02*
X007791Y011705D01*
X007791Y011606D02*
X007659Y011606D01*
X007578Y011508D02*
X007791Y011508D01*
X007791Y011409D02*
X006931Y011409D01*
X007071Y011508D02*
X007224Y011508D01*
X006671Y011409D02*
X003231Y011409D01*
X003231Y011311D02*
X007791Y011311D01*
X007771Y011212D02*
X003231Y011212D01*
X003231Y011114D02*
X007689Y011114D01*
X007648Y011015D02*
X003231Y011015D01*
X003231Y010917D02*
X007646Y010917D01*
X007667Y010818D02*
X003231Y010818D01*
X003231Y010720D02*
X007719Y010720D01*
X007842Y010621D02*
X003231Y010621D01*
X003231Y010523D02*
X010012Y010523D01*
X010022Y010621D02*
X008160Y010621D01*
X008283Y010720D02*
X010072Y010720D01*
X010218Y010818D02*
X008335Y010818D01*
X008356Y010917D02*
X010521Y010917D01*
X010521Y010818D02*
X010384Y010818D01*
X010471Y011015D02*
X008354Y011015D01*
X008313Y011114D02*
X010372Y011114D01*
X010701Y011040D02*
X010701Y007940D01*
X010301Y007540D01*
X010678Y006977D02*
X012123Y006977D01*
X011987Y006878D02*
X010815Y006878D01*
X010898Y006780D02*
X011904Y006780D01*
X011849Y006681D02*
X010952Y006681D01*
X010985Y006583D02*
X011817Y006583D01*
X011804Y006386D02*
X010998Y006386D01*
X010980Y006287D02*
X011822Y006287D01*
X011858Y006189D02*
X010944Y006189D01*
X010885Y006090D02*
X011917Y006090D01*
X012004Y005992D02*
X011591Y005992D01*
X011772Y005893D02*
X012157Y005893D01*
X012355Y005893D02*
X012455Y005893D01*
X012455Y005992D02*
X012355Y005992D01*
X012355Y006090D02*
X012455Y006090D01*
X012455Y006189D02*
X012355Y006189D01*
X012355Y006287D02*
X012455Y006287D01*
X012652Y005893D02*
X025821Y005893D01*
X025821Y005795D02*
X011870Y005795D01*
X011925Y005696D02*
X025821Y005696D01*
X025857Y005598D02*
X011966Y005598D01*
X011984Y005499D02*
X025898Y005499D01*
X025939Y005401D02*
X011984Y005401D01*
X011975Y005302D02*
X026035Y005302D01*
X026134Y005204D02*
X011934Y005204D01*
X011891Y005105D02*
X026336Y005105D01*
X025821Y005992D02*
X012805Y005992D01*
X012893Y006090D02*
X025860Y006090D01*
X025901Y006189D02*
X012951Y006189D01*
X012993Y006583D02*
X026356Y006583D01*
X026222Y007885D02*
X026980Y007885D01*
X027056Y007961D01*
X027056Y008719D01*
X026980Y008795D01*
X026222Y008795D01*
X026146Y008719D01*
X026146Y007961D01*
X026222Y007885D01*
X026146Y007962D02*
X025889Y007962D01*
X025910Y007978D02*
X025963Y008031D01*
X026007Y008091D01*
X026041Y008158D01*
X026064Y008229D01*
X026076Y008302D01*
X025638Y008302D01*
X025638Y007865D01*
X025712Y007877D01*
X025783Y007900D01*
X025850Y007934D01*
X025910Y007978D01*
X025985Y008060D02*
X026146Y008060D01*
X026146Y008159D02*
X026042Y008159D01*
X026069Y008257D02*
X026146Y008257D01*
X026146Y008356D02*
X025638Y008356D01*
X025638Y008377D02*
X026076Y008377D01*
X026064Y008451D01*
X026041Y008522D01*
X026007Y008589D01*
X025963Y008649D01*
X025910Y008702D01*
X025850Y008746D01*
X025783Y008780D01*
X025712Y008803D01*
X025638Y008815D01*
X025638Y008377D01*
X025638Y008302D01*
X025563Y008302D01*
X025563Y007865D01*
X025490Y007877D01*
X025419Y007900D01*
X025352Y007934D01*
X025291Y007978D01*
X025239Y008031D01*
X025195Y008091D01*
X025161Y008158D01*
X025138Y008229D01*
X025126Y008302D01*
X025563Y008302D01*
X025563Y008377D01*
X025126Y008377D01*
X025138Y008451D01*
X025161Y008522D01*
X025195Y008589D01*
X025239Y008649D01*
X025291Y008702D01*
X025352Y008746D01*
X025419Y008780D01*
X025490Y008803D01*
X025563Y008815D01*
X025563Y008377D01*
X025638Y008377D01*
X025563Y008356D02*
X022127Y008356D01*
X022127Y008267D02*
X022127Y008631D01*
X022116Y008669D01*
X022097Y008703D01*
X022069Y008731D01*
X022034Y008751D01*
X021996Y008761D01*
X021790Y008761D01*
X021790Y008267D01*
X022127Y008267D01*
X022127Y008159D02*
X025160Y008159D01*
X025133Y008257D02*
X021790Y008257D01*
X021790Y008159D02*
X021690Y008159D01*
X021690Y008257D02*
X021177Y008257D01*
X021177Y008159D02*
X021354Y008159D01*
X021354Y008060D02*
X021177Y008060D01*
X021177Y007962D02*
X021354Y007962D01*
X021354Y007863D02*
X021177Y007863D01*
X021173Y007765D02*
X021365Y007765D01*
X021690Y007765D02*
X021790Y007765D01*
X021790Y007863D02*
X021690Y007863D01*
X021690Y007962D02*
X021790Y007962D01*
X021790Y008060D02*
X021690Y008060D01*
X021690Y008356D02*
X021790Y008356D01*
X021790Y008454D02*
X021690Y008454D01*
X021690Y008553D02*
X021790Y008553D01*
X021790Y008651D02*
X021690Y008651D01*
X021690Y008750D02*
X021790Y008750D01*
X021690Y008848D02*
X027451Y008848D01*
X027451Y008750D02*
X027025Y008750D01*
X027056Y008651D02*
X027451Y008651D01*
X027451Y008553D02*
X027056Y008553D01*
X027056Y008454D02*
X027451Y008454D01*
X027451Y008356D02*
X027056Y008356D01*
X027056Y008257D02*
X027451Y008257D01*
X027451Y008159D02*
X027056Y008159D01*
X027056Y008060D02*
X027451Y008060D01*
X027451Y007962D02*
X027056Y007962D01*
X027451Y007863D02*
X022127Y007863D01*
X022116Y007765D02*
X027451Y007765D01*
X027451Y008947D02*
X026841Y008947D01*
X026859Y008954D02*
X026987Y009082D01*
X027056Y009249D01*
X027056Y009430D01*
X026987Y009598D01*
X026859Y009726D01*
X026691Y009795D01*
X026510Y009795D01*
X026343Y009726D01*
X026215Y009598D01*
X026146Y009430D01*
X026146Y009249D01*
X026215Y009082D01*
X026343Y008954D01*
X026510Y008885D01*
X026691Y008885D01*
X026859Y008954D01*
X026950Y009045D02*
X027451Y009045D01*
X027451Y009144D02*
X027012Y009144D01*
X027053Y009242D02*
X027451Y009242D01*
X027451Y009341D02*
X027056Y009341D01*
X027052Y009439D02*
X027451Y009439D01*
X027451Y009538D02*
X027011Y009538D01*
X026948Y009636D02*
X027451Y009636D01*
X027451Y009735D02*
X026836Y009735D01*
X026805Y009932D02*
X027451Y009932D01*
X027451Y010030D02*
X026935Y010030D01*
X027006Y010129D02*
X027451Y010129D01*
X027451Y010227D02*
X027047Y010227D01*
X027056Y010326D02*
X027451Y010326D01*
X027451Y010424D02*
X027056Y010424D01*
X027018Y010523D02*
X027451Y010523D01*
X027451Y010621D02*
X026963Y010621D01*
X026864Y010720D02*
X027451Y010720D01*
X027451Y010818D02*
X026281Y010818D01*
X026281Y010720D02*
X026337Y010720D01*
X026281Y010917D02*
X026433Y010917D01*
X026281Y011015D02*
X026282Y011015D01*
X026769Y010917D02*
X027451Y010917D01*
X027451Y011015D02*
X026920Y011015D01*
X027000Y011114D02*
X027451Y011114D01*
X027451Y011212D02*
X027041Y011212D01*
X027056Y011311D02*
X027451Y011311D01*
X027451Y011409D02*
X027056Y011409D01*
X027024Y011508D02*
X027451Y011508D01*
X027451Y011606D02*
X026978Y011606D01*
X026879Y011705D02*
X027451Y011705D01*
X027451Y011803D02*
X026281Y011803D01*
X026281Y011705D02*
X026322Y011705D01*
X026281Y011902D02*
X027451Y011902D01*
X027451Y012000D02*
X026195Y012000D01*
X026096Y012099D02*
X027451Y012099D01*
X027451Y012197D02*
X025998Y012197D01*
X025899Y012296D02*
X027451Y012296D01*
X027451Y012394D02*
X026714Y012394D01*
X026691Y012385D02*
X026859Y012454D01*
X026987Y012582D01*
X027056Y012749D01*
X027056Y012930D01*
X026987Y013098D01*
X026859Y013226D01*
X026691Y013295D01*
X026510Y013295D01*
X026343Y013226D01*
X026215Y013098D01*
X026146Y012930D01*
X026146Y012749D01*
X026215Y012582D01*
X026343Y012454D01*
X026510Y012385D01*
X026691Y012385D01*
X026487Y012394D02*
X025714Y012394D01*
X025691Y012385D02*
X025859Y012454D01*
X025987Y012582D01*
X026056Y012749D01*
X026056Y012930D01*
X025987Y013098D01*
X025859Y013226D01*
X025691Y013295D01*
X025510Y013295D01*
X025343Y013226D01*
X025215Y013098D01*
X025146Y012930D01*
X025146Y012749D01*
X025215Y012582D01*
X025343Y012454D01*
X025510Y012385D01*
X025691Y012385D01*
X025487Y012394D02*
X025301Y012394D01*
X025304Y012493D02*
X025202Y012493D01*
X025211Y012591D02*
X025104Y012591D01*
X025081Y012690D02*
X025171Y012690D01*
X025146Y012788D02*
X025081Y012788D01*
X025081Y012887D02*
X025146Y012887D01*
X025169Y012985D02*
X025081Y012985D01*
X025081Y013084D02*
X025210Y013084D01*
X025300Y013182D02*
X025081Y013182D01*
X025081Y013281D02*
X025477Y013281D01*
X025510Y013385D02*
X025343Y013454D01*
X025215Y013582D01*
X025146Y013749D01*
X025146Y013930D01*
X025215Y014098D01*
X025343Y014226D01*
X025510Y014295D01*
X025691Y014295D01*
X025859Y014226D01*
X025987Y014098D01*
X026056Y013930D01*
X026056Y013749D01*
X025987Y013582D01*
X025859Y013454D01*
X025691Y013385D01*
X025510Y013385D01*
X025319Y013478D02*
X025081Y013478D01*
X025081Y013576D02*
X025221Y013576D01*
X025177Y013675D02*
X025081Y013675D01*
X025081Y013773D02*
X025146Y013773D01*
X025146Y013872D02*
X025081Y013872D01*
X025081Y013970D02*
X025163Y013970D01*
X025203Y014069D02*
X025081Y014069D01*
X025081Y014167D02*
X025285Y014167D01*
X025440Y014266D02*
X025081Y014266D01*
X025081Y014364D02*
X027451Y014364D01*
X027451Y014266D02*
X026761Y014266D01*
X026691Y014295D02*
X026510Y014295D01*
X026343Y014226D01*
X026215Y014098D01*
X026146Y013930D01*
X026146Y013749D01*
X026215Y013582D01*
X026343Y013454D01*
X026510Y013385D01*
X026691Y013385D01*
X026859Y013454D01*
X026987Y013582D01*
X027056Y013749D01*
X027056Y013930D01*
X026987Y014098D01*
X026859Y014226D01*
X026691Y014295D01*
X026691Y014385D02*
X026510Y014385D01*
X026343Y014454D01*
X026215Y014582D01*
X026146Y014749D01*
X026146Y014930D01*
X026215Y015098D01*
X026343Y015226D01*
X026510Y015295D01*
X026691Y015295D01*
X026859Y015226D01*
X026987Y015098D01*
X027056Y014930D01*
X027056Y014749D01*
X026987Y014582D01*
X026859Y014454D01*
X026691Y014385D01*
X026867Y014463D02*
X027451Y014463D01*
X027451Y014561D02*
X026966Y014561D01*
X027019Y014660D02*
X027451Y014660D01*
X027451Y014758D02*
X027056Y014758D01*
X027056Y014857D02*
X027451Y014857D01*
X027451Y014955D02*
X027046Y014955D01*
X027005Y015054D02*
X027451Y015054D01*
X027451Y015152D02*
X026932Y015152D01*
X026798Y015251D02*
X027451Y015251D01*
X027451Y015349D02*
X024681Y015349D01*
X024681Y015251D02*
X025178Y015251D01*
X025146Y015219D02*
X025146Y014461D01*
X025222Y014385D01*
X025980Y014385D01*
X026056Y014461D01*
X026056Y015219D01*
X025980Y015295D01*
X025222Y015295D01*
X025146Y015219D01*
X025146Y015152D02*
X024681Y015152D01*
X024681Y015054D02*
X025146Y015054D01*
X025146Y014955D02*
X024681Y014955D01*
X024501Y014940D02*
X022901Y013340D01*
X019201Y013340D01*
X018901Y013640D01*
X018501Y013640D01*
X018301Y013840D01*
X017401Y013840D01*
X016401Y014840D01*
X012701Y014840D01*
X012601Y014740D01*
X012601Y014540D01*
X012695Y014266D02*
X013821Y014266D01*
X013821Y014364D02*
X012834Y014364D01*
X012882Y014463D02*
X013869Y014463D01*
X013968Y014561D02*
X012890Y014561D01*
X012507Y014266D02*
X012195Y014266D01*
X012334Y014364D02*
X012368Y014364D01*
X012101Y014540D02*
X012601Y015040D01*
X016501Y015040D01*
X017501Y014040D01*
X018401Y014040D01*
X018601Y013840D01*
X019001Y013840D01*
X019301Y013540D01*
X022801Y013540D01*
X024301Y015040D01*
X024301Y015940D01*
X024401Y016040D01*
X024601Y016040D01*
X025001Y016440D01*
X025001Y017140D01*
X025401Y017540D01*
X025501Y017540D01*
X025894Y017713D02*
X027415Y017713D01*
X027451Y017615D02*
X026768Y017615D01*
X027006Y017516D02*
X027451Y017516D01*
X027451Y017418D02*
X027126Y017418D01*
X027224Y017319D02*
X027451Y017319D01*
X027451Y017221D02*
X027287Y017221D01*
X027328Y017122D02*
X027451Y017122D01*
X027451Y017024D02*
X027369Y017024D01*
X027381Y016925D02*
X027451Y016925D01*
X027451Y016827D02*
X027381Y016827D01*
X027381Y016728D02*
X027451Y016728D01*
X027451Y016630D02*
X027358Y016630D01*
X027317Y016531D02*
X027451Y016531D01*
X027451Y016433D02*
X027277Y016433D01*
X027199Y016334D02*
X027451Y016334D01*
X027451Y016236D02*
X027100Y016236D01*
X026943Y016137D02*
X027451Y016137D01*
X027451Y016039D02*
X025255Y016039D01*
X025156Y015940D02*
X027451Y015940D01*
X027451Y015842D02*
X025058Y015842D01*
X024959Y015743D02*
X027451Y015743D01*
X027451Y015645D02*
X024861Y015645D01*
X024762Y015546D02*
X027451Y015546D01*
X027451Y015448D02*
X024681Y015448D01*
X024501Y015540D02*
X024501Y014940D01*
X024512Y014660D02*
X024476Y014660D01*
X024521Y014561D02*
X024377Y014561D01*
X024279Y014463D02*
X024569Y014463D01*
X024711Y014364D02*
X024180Y014364D01*
X024082Y014266D02*
X024721Y014266D01*
X024721Y014167D02*
X023983Y014167D01*
X023885Y014069D02*
X024721Y014069D01*
X024721Y013970D02*
X023786Y013970D01*
X023688Y013872D02*
X024721Y013872D01*
X024721Y013773D02*
X023589Y013773D01*
X023491Y013675D02*
X024721Y013675D01*
X024721Y013576D02*
X023392Y013576D01*
X023294Y013478D02*
X024721Y013478D01*
X024721Y013379D02*
X023870Y013379D01*
X023955Y013281D02*
X024721Y013281D01*
X024721Y013182D02*
X023990Y013182D01*
X023990Y013084D02*
X024721Y013084D01*
X024721Y012985D02*
X023950Y012985D01*
X023846Y012887D02*
X024721Y012887D01*
X024721Y012788D02*
X019407Y012788D01*
X019505Y012690D02*
X024721Y012690D01*
X024721Y012591D02*
X019604Y012591D01*
X019702Y012493D02*
X024721Y012493D01*
X024792Y012394D02*
X019801Y012394D01*
X019899Y012296D02*
X024890Y012296D01*
X024989Y012197D02*
X019998Y012197D01*
X020096Y012099D02*
X025087Y012099D01*
X025186Y012000D02*
X024027Y012000D01*
X024147Y011902D02*
X025784Y011902D01*
X025883Y011803D02*
X024188Y011803D01*
X024190Y011705D02*
X025322Y011705D01*
X025224Y011606D02*
X024159Y011606D01*
X024187Y011508D02*
X025178Y011508D01*
X025146Y011409D02*
X024286Y011409D01*
X024384Y011311D02*
X025146Y011311D01*
X025161Y011212D02*
X024483Y011212D01*
X024581Y011114D02*
X025202Y011114D01*
X025282Y011015D02*
X024680Y011015D01*
X024778Y010917D02*
X025433Y010917D01*
X025337Y010720D02*
X024975Y010720D01*
X024877Y010818D02*
X025921Y010818D01*
X025921Y010720D02*
X025864Y010720D01*
X025921Y010917D02*
X025769Y010917D01*
X025920Y011015D02*
X025921Y011015D01*
X025239Y010621D02*
X025074Y010621D01*
X025172Y010523D02*
X025184Y010523D01*
X025101Y010340D02*
X025601Y010340D01*
X025267Y010030D02*
X020281Y010030D01*
X020281Y009932D02*
X025397Y009932D01*
X025366Y009735D02*
X020281Y009735D01*
X020281Y009833D02*
X025840Y009833D01*
X025805Y009932D02*
X025921Y009932D01*
X026101Y009840D02*
X025601Y009340D01*
X025146Y009341D02*
X020354Y009341D01*
X020281Y009439D02*
X025150Y009439D01*
X025190Y009538D02*
X020281Y009538D01*
X020281Y009636D02*
X025254Y009636D01*
X025149Y009242D02*
X020453Y009242D01*
X020551Y009144D02*
X025190Y009144D01*
X025252Y009045D02*
X021604Y009045D01*
X021669Y008947D02*
X025361Y008947D01*
X025359Y008750D02*
X022036Y008750D01*
X022121Y008651D02*
X025241Y008651D01*
X025176Y008553D02*
X022127Y008553D01*
X022127Y008454D02*
X025139Y008454D01*
X025217Y008060D02*
X022127Y008060D01*
X022127Y007962D02*
X025313Y007962D01*
X025563Y007962D02*
X025638Y007962D01*
X025638Y008060D02*
X025563Y008060D01*
X025563Y008159D02*
X025638Y008159D01*
X025638Y008257D02*
X025563Y008257D01*
X025563Y008454D02*
X025638Y008454D01*
X025638Y008553D02*
X025563Y008553D01*
X025563Y008651D02*
X025638Y008651D01*
X025638Y008750D02*
X025563Y008750D01*
X025843Y008750D02*
X026177Y008750D01*
X026146Y008651D02*
X025961Y008651D01*
X026026Y008553D02*
X026146Y008553D01*
X026146Y008454D02*
X026063Y008454D01*
X025841Y008947D02*
X026361Y008947D01*
X026252Y009045D02*
X025950Y009045D01*
X026012Y009144D02*
X026190Y009144D01*
X026149Y009242D02*
X026053Y009242D01*
X026056Y009341D02*
X026146Y009341D01*
X026150Y009439D02*
X026052Y009439D01*
X026054Y009538D02*
X026190Y009538D01*
X026152Y009636D02*
X026254Y009636D01*
X026251Y009735D02*
X026366Y009735D01*
X026281Y009833D02*
X027451Y009833D01*
X026397Y009932D02*
X026281Y009932D01*
X026101Y009840D02*
X026101Y011840D01*
X025801Y012140D01*
X025301Y012140D01*
X024901Y012540D01*
X024901Y014540D01*
X024801Y014640D01*
X025065Y014758D02*
X025146Y014758D01*
X025146Y014660D02*
X025090Y014660D01*
X025081Y014561D02*
X025146Y014561D01*
X025146Y014463D02*
X025081Y014463D01*
X025146Y014857D02*
X024993Y014857D01*
X024501Y015540D02*
X025501Y016540D01*
X025724Y016925D02*
X025821Y016925D01*
X025833Y017024D02*
X025181Y017024D01*
X025181Y016925D02*
X025278Y016925D01*
X025238Y017122D02*
X025385Y017122D01*
X025617Y017122D02*
X025874Y017122D01*
X025915Y017221D02*
X025790Y017221D01*
X025875Y017319D02*
X025977Y017319D01*
X025916Y017418D02*
X026076Y017418D01*
X026196Y017516D02*
X025931Y017516D01*
X025931Y017615D02*
X026434Y017615D01*
X025837Y017812D02*
X027317Y017812D01*
X027218Y017910D02*
X025730Y017910D01*
X025586Y018110D02*
X025745Y018175D01*
X025865Y018296D01*
X025931Y018454D01*
X025931Y018625D01*
X025865Y018784D01*
X025745Y018904D01*
X025586Y018970D01*
X025415Y018970D01*
X025257Y018904D01*
X025136Y018784D01*
X025071Y018625D01*
X025071Y018454D01*
X025136Y018296D01*
X025257Y018175D01*
X025415Y018110D01*
X025586Y018110D01*
X025775Y018206D02*
X026923Y018206D01*
X027021Y018107D02*
X024546Y018107D01*
X024710Y018206D02*
X025227Y018206D01*
X025133Y018304D02*
X024796Y018304D01*
X024837Y018403D02*
X025092Y018403D01*
X025071Y018501D02*
X024856Y018501D01*
X024856Y018600D02*
X025071Y018600D01*
X025101Y018699D02*
X024828Y018699D01*
X024787Y018797D02*
X025150Y018797D01*
X025248Y018896D02*
X024689Y018896D01*
X024494Y018994D02*
X026451Y018994D01*
X026451Y018896D02*
X025754Y018896D01*
X025852Y018797D02*
X026451Y018797D01*
X026451Y018699D02*
X025901Y018699D01*
X025931Y018600D02*
X026529Y018600D01*
X026627Y018501D02*
X025931Y018501D01*
X025910Y018403D02*
X026726Y018403D01*
X026824Y018304D02*
X025869Y018304D01*
X025272Y017910D02*
X024674Y017910D01*
X024772Y017812D02*
X025165Y017812D01*
X025107Y017713D02*
X024822Y017713D01*
X024856Y017615D02*
X025071Y017615D01*
X025071Y017516D02*
X024856Y017516D01*
X024843Y017418D02*
X025024Y017418D01*
X024926Y017319D02*
X024802Y017319D01*
X024827Y017221D02*
X024725Y017221D01*
X024821Y017122D02*
X024582Y017122D01*
X024659Y016925D02*
X024821Y016925D01*
X024821Y016827D02*
X024757Y016827D01*
X024815Y016728D02*
X024821Y016728D01*
X024401Y016540D02*
X024401Y016440D01*
X024101Y016140D01*
X024101Y015140D01*
X022701Y013740D01*
X019401Y013740D01*
X019101Y014040D01*
X018701Y014040D01*
X018501Y014240D01*
X017601Y014240D01*
X016601Y015240D01*
X012501Y015240D01*
X012101Y014840D01*
X011901Y014840D01*
X011601Y014540D01*
X011338Y014660D02*
X010845Y014660D01*
X010845Y014758D02*
X011411Y014758D01*
X011275Y014857D02*
X010845Y014857D01*
X010845Y014955D02*
X011223Y014955D01*
X011212Y015054D02*
X010824Y015054D01*
X010815Y015070D02*
X010787Y015098D01*
X010753Y015118D01*
X010714Y015128D01*
X010351Y015128D01*
X010351Y014162D01*
X010251Y014162D01*
X010251Y015128D01*
X009887Y015128D01*
X009849Y015118D01*
X009815Y015098D01*
X009787Y015070D01*
X009767Y015036D01*
X009757Y014998D01*
X009757Y014162D01*
X010251Y014162D01*
X010251Y014062D01*
X009757Y014062D01*
X009757Y013226D01*
X009767Y013188D01*
X009787Y013153D01*
X009815Y013125D01*
X009849Y013106D01*
X009887Y013095D01*
X010251Y013095D01*
X010251Y014062D01*
X010351Y014062D01*
X010351Y014162D01*
X010845Y014162D01*
X010845Y014998D01*
X010834Y015036D01*
X010815Y015070D01*
X010351Y015054D02*
X010251Y015054D01*
X010251Y014955D02*
X010351Y014955D01*
X010351Y014857D02*
X010251Y014857D01*
X010251Y014758D02*
X010351Y014758D01*
X010351Y014660D02*
X010251Y014660D01*
X010251Y014561D02*
X010351Y014561D01*
X010351Y014463D02*
X010251Y014463D01*
X010251Y014364D02*
X010351Y014364D01*
X010351Y014266D02*
X010251Y014266D01*
X010251Y014167D02*
X010351Y014167D01*
X010351Y014069D02*
X013821Y014069D01*
X013821Y014167D02*
X010845Y014167D01*
X010845Y014266D02*
X011507Y014266D01*
X011368Y014364D02*
X010845Y014364D01*
X010845Y014463D02*
X011320Y014463D01*
X011312Y014561D02*
X010845Y014561D01*
X011235Y015152D02*
X000751Y015152D01*
X000751Y015054D02*
X009778Y015054D01*
X009757Y014955D02*
X000751Y014955D01*
X000751Y014857D02*
X009757Y014857D01*
X009757Y014758D02*
X000751Y014758D01*
X000751Y014660D02*
X009757Y014660D01*
X009757Y014561D02*
X000751Y014561D01*
X000751Y014463D02*
X009757Y014463D01*
X009757Y014364D02*
X000751Y014364D01*
X000751Y014266D02*
X009757Y014266D01*
X009757Y014167D02*
X000751Y014167D01*
X000751Y014069D02*
X010251Y014069D01*
X010251Y013970D02*
X010351Y013970D01*
X010351Y014062D02*
X010351Y013095D01*
X010714Y013095D01*
X010753Y013106D01*
X010787Y013125D01*
X010815Y013153D01*
X010834Y013188D01*
X010845Y013226D01*
X010845Y014062D01*
X010351Y014062D01*
X010351Y013872D02*
X010251Y013872D01*
X010251Y013773D02*
X010351Y013773D01*
X010351Y013675D02*
X010251Y013675D01*
X010251Y013576D02*
X010351Y013576D01*
X010351Y013478D02*
X010251Y013478D01*
X010251Y013379D02*
X010351Y013379D01*
X010351Y013281D02*
X010251Y013281D01*
X010251Y013182D02*
X010351Y013182D01*
X010831Y013182D02*
X016953Y013182D01*
X016912Y013281D02*
X010845Y013281D01*
X010845Y013379D02*
X013874Y013379D01*
X013755Y013478D02*
X010845Y013478D01*
X010845Y013576D02*
X013714Y013576D01*
X013712Y013675D02*
X010845Y013675D01*
X010845Y013773D02*
X013743Y013773D01*
X013821Y013872D02*
X010845Y013872D01*
X010845Y013970D02*
X013821Y013970D01*
X014181Y013970D02*
X016716Y013970D01*
X016814Y013872D02*
X014181Y013872D01*
X014259Y013773D02*
X016913Y013773D01*
X017011Y013675D02*
X014290Y013675D01*
X014288Y013576D02*
X017029Y013576D01*
X016945Y013478D02*
X014247Y013478D01*
X014127Y013379D02*
X016912Y013379D01*
X017201Y013340D02*
X017301Y013240D01*
X017401Y013240D01*
X017601Y013040D01*
X018601Y013040D01*
X019901Y011740D01*
X019901Y008640D01*
X019801Y008540D01*
X019801Y008275D01*
X019851Y008225D01*
X020217Y008257D02*
X020445Y008257D01*
X020445Y008159D02*
X020217Y008159D01*
X020217Y008060D02*
X020445Y008060D01*
X020445Y007962D02*
X020217Y007962D01*
X020217Y007863D02*
X020445Y007863D01*
X020450Y007765D02*
X020204Y007765D01*
X020217Y008356D02*
X020445Y008356D01*
X020445Y008454D02*
X020217Y008454D01*
X020217Y008553D02*
X020445Y008553D01*
X020445Y008651D02*
X020217Y008651D01*
X020081Y008750D02*
X020436Y008750D01*
X020338Y008848D02*
X020081Y008848D01*
X020081Y008947D02*
X020239Y008947D01*
X020141Y009045D02*
X020081Y009045D01*
X020101Y009340D02*
X020101Y011840D01*
X018701Y013240D01*
X017901Y013240D01*
X017801Y013340D01*
X018201Y013640D02*
X018401Y013440D01*
X018801Y013440D01*
X019101Y013140D01*
X023701Y013140D01*
X023556Y012887D02*
X019308Y012887D01*
X018893Y012493D02*
X018097Y012493D01*
X017999Y012591D02*
X018795Y012591D01*
X018696Y012690D02*
X017900Y012690D01*
X017802Y012788D02*
X018598Y012788D01*
X018992Y012394D02*
X018196Y012394D01*
X018294Y012296D02*
X019090Y012296D01*
X019189Y012197D02*
X018393Y012197D01*
X018491Y012099D02*
X019287Y012099D01*
X019386Y012000D02*
X018590Y012000D01*
X018688Y011902D02*
X019484Y011902D01*
X019583Y011803D02*
X018787Y011803D01*
X018885Y011705D02*
X019681Y011705D01*
X019721Y011606D02*
X018984Y011606D01*
X019082Y011508D02*
X019721Y011508D01*
X019721Y011409D02*
X019163Y011409D01*
X019204Y011311D02*
X019721Y011311D01*
X019721Y011212D02*
X019231Y011212D01*
X019231Y011114D02*
X019721Y011114D01*
X019721Y011015D02*
X019223Y011015D01*
X019182Y010917D02*
X019721Y010917D01*
X019721Y010818D02*
X019129Y010818D01*
X019030Y010720D02*
X019721Y010720D01*
X020281Y010720D02*
X024466Y010720D01*
X024368Y010818D02*
X020281Y010818D01*
X020281Y010917D02*
X024269Y010917D01*
X024171Y011015D02*
X020281Y011015D01*
X020281Y011114D02*
X024072Y011114D01*
X023974Y011212D02*
X020281Y011212D01*
X020281Y011311D02*
X023875Y011311D01*
X023777Y011409D02*
X020281Y011409D01*
X020281Y011508D02*
X023721Y011508D01*
X023643Y011606D02*
X020281Y011606D01*
X020281Y011705D02*
X023612Y011705D01*
X023614Y011803D02*
X020281Y011803D01*
X020281Y011902D02*
X023655Y011902D01*
X023775Y012000D02*
X020195Y012000D01*
X018901Y011140D02*
X018701Y011140D01*
X020281Y010621D02*
X024565Y010621D01*
X024663Y010523D02*
X020281Y010523D01*
X020281Y010424D02*
X024762Y010424D01*
X024860Y010326D02*
X020281Y010326D01*
X020281Y010227D02*
X024959Y010227D01*
X025101Y010340D02*
X023901Y011540D01*
X023901Y011740D01*
X023532Y013379D02*
X023195Y013379D01*
X022601Y013940D02*
X019501Y013940D01*
X019201Y014240D01*
X018801Y014240D01*
X018601Y014440D01*
X017701Y014440D01*
X016701Y015440D01*
X012401Y015440D01*
X012001Y015040D01*
X011501Y015040D01*
X011303Y015251D02*
X000751Y015251D01*
X000751Y015349D02*
X011512Y015349D01*
X011284Y015448D02*
X010414Y015448D01*
X010390Y015438D02*
X010553Y015506D01*
X010678Y015631D01*
X010746Y015795D01*
X010746Y015972D01*
X010678Y016135D01*
X010553Y016261D01*
X010390Y016329D01*
X010212Y016329D01*
X010049Y016261D01*
X009923Y016135D01*
X009856Y015972D01*
X009856Y015795D01*
X009923Y015631D01*
X010049Y015506D01*
X010212Y015438D01*
X010390Y015438D01*
X010188Y015448D02*
X000751Y015448D01*
X000751Y015546D02*
X010008Y015546D01*
X009918Y015645D02*
X008015Y015645D01*
X008074Y015743D02*
X009877Y015743D01*
X009856Y015842D02*
X008090Y015842D01*
X008156Y015940D02*
X009856Y015940D01*
X009883Y016039D02*
X008255Y016039D01*
X008353Y016137D02*
X009925Y016137D01*
X010024Y016236D02*
X008452Y016236D01*
X008550Y016334D02*
X011227Y016334D01*
X011212Y016236D02*
X010578Y016236D01*
X010676Y016137D02*
X011231Y016137D01*
X011293Y016039D02*
X010718Y016039D01*
X010746Y015940D02*
X011512Y015940D01*
X011294Y015842D02*
X010746Y015842D01*
X010725Y015743D02*
X011231Y015743D01*
X011212Y015645D02*
X010684Y015645D01*
X010594Y015546D02*
X011227Y015546D01*
X011501Y015640D02*
X012001Y015640D01*
X012201Y015840D01*
X016901Y015840D01*
X017901Y014840D01*
X018901Y014840D01*
X019101Y014640D01*
X019401Y014640D01*
X019701Y014340D01*
X022401Y014340D01*
X023501Y015440D01*
X023501Y019340D01*
X023701Y019540D01*
X024401Y019540D01*
X024830Y019388D02*
X025077Y019388D01*
X025084Y019367D02*
X025116Y019304D01*
X025158Y019247D01*
X025208Y019197D01*
X025265Y019155D01*
X025328Y019123D01*
X025396Y019101D01*
X025463Y019090D01*
X025463Y019502D01*
X025538Y019502D01*
X025538Y019090D01*
X025606Y019101D01*
X025674Y019123D01*
X025737Y019155D01*
X025794Y019197D01*
X025844Y019247D01*
X025886Y019304D01*
X025918Y019367D01*
X025940Y019435D01*
X025951Y019502D01*
X025538Y019502D01*
X025538Y019577D01*
X025951Y019577D01*
X025940Y019645D01*
X025918Y019713D01*
X025886Y019776D01*
X025844Y019833D01*
X025794Y019883D01*
X025737Y019925D01*
X025674Y019957D01*
X025606Y019979D01*
X025538Y019990D01*
X025538Y019577D01*
X025463Y019577D01*
X025463Y019502D01*
X025051Y019502D01*
X025062Y019435D01*
X025084Y019367D01*
X025127Y019290D02*
X024790Y019290D01*
X024695Y019191D02*
X025216Y019191D01*
X025463Y019191D02*
X025538Y019191D01*
X025538Y019093D02*
X025463Y019093D01*
X025449Y019093D02*
X024510Y019093D01*
X024292Y019093D02*
X023681Y019093D01*
X023681Y019191D02*
X024106Y019191D01*
X024012Y019290D02*
X023705Y019290D01*
X023681Y018994D02*
X024308Y018994D01*
X024113Y018896D02*
X023681Y018896D01*
X023681Y018797D02*
X024015Y018797D01*
X023805Y018699D02*
X023681Y018699D01*
X023681Y018600D02*
X023706Y018600D01*
X023901Y018540D02*
X023701Y018340D01*
X023701Y015340D01*
X022501Y014140D01*
X019601Y014140D01*
X019301Y014440D01*
X018901Y014440D01*
X018701Y014640D01*
X017801Y014640D01*
X016801Y015640D01*
X012301Y015640D01*
X012101Y015440D01*
X011901Y015440D01*
X011801Y015340D01*
X011801Y015940D02*
X011901Y016040D01*
X017001Y016040D01*
X018001Y015040D01*
X019001Y015040D01*
X019201Y014840D01*
X019501Y014840D01*
X019801Y014540D01*
X022301Y014540D01*
X023301Y015540D01*
X023301Y019440D01*
X023701Y019840D01*
X023701Y020340D01*
X023901Y020540D01*
X024401Y020540D01*
X024824Y020373D02*
X025105Y020373D01*
X025136Y020296D02*
X025071Y020454D01*
X025071Y020625D01*
X025136Y020784D01*
X025257Y020904D01*
X025415Y020970D01*
X025586Y020970D01*
X025745Y020904D01*
X025865Y020784D01*
X025931Y020625D01*
X025931Y020454D01*
X025865Y020296D01*
X025745Y020175D01*
X025586Y020110D01*
X025415Y020110D01*
X025257Y020175D01*
X025136Y020296D01*
X025158Y020275D02*
X024779Y020275D01*
X024680Y020176D02*
X025257Y020176D01*
X025328Y019957D02*
X025265Y019925D01*
X025208Y019883D01*
X025158Y019833D01*
X025116Y019776D01*
X025084Y019713D01*
X025062Y019645D01*
X025051Y019577D01*
X025463Y019577D01*
X025463Y019990D01*
X025396Y019979D01*
X024530Y019979D01*
X024704Y019881D02*
X025205Y019881D01*
X025121Y019782D02*
X024793Y019782D01*
X024834Y019684D02*
X025074Y019684D01*
X025052Y019585D02*
X024856Y019585D01*
X024856Y019487D02*
X025054Y019487D01*
X025463Y019487D02*
X025538Y019487D01*
X025538Y019585D02*
X025463Y019585D01*
X025463Y019684D02*
X025538Y019684D01*
X025538Y019782D02*
X025463Y019782D01*
X025463Y019881D02*
X025538Y019881D01*
X025538Y019979D02*
X025463Y019979D01*
X025396Y019979D02*
X025328Y019957D01*
X025606Y019979D02*
X026451Y019979D01*
X026451Y019881D02*
X025797Y019881D01*
X025881Y019782D02*
X026451Y019782D01*
X026451Y019684D02*
X025927Y019684D01*
X025949Y019585D02*
X026451Y019585D01*
X026451Y019487D02*
X025948Y019487D01*
X025925Y019388D02*
X026451Y019388D01*
X026451Y019290D02*
X025875Y019290D01*
X025786Y019191D02*
X026451Y019191D01*
X026451Y019093D02*
X025552Y019093D01*
X025538Y019290D02*
X025463Y019290D01*
X025463Y019388D02*
X025538Y019388D01*
X026451Y020078D02*
X023881Y020078D01*
X023881Y020176D02*
X024121Y020176D01*
X024023Y020275D02*
X023890Y020275D01*
X023881Y019979D02*
X024272Y019979D01*
X024098Y019881D02*
X023881Y019881D01*
X023881Y019782D02*
X024009Y019782D01*
X023501Y019940D02*
X023101Y019540D01*
X023101Y015640D01*
X022201Y014740D01*
X019901Y014740D01*
X019601Y015040D01*
X019301Y015040D01*
X019101Y015240D01*
X018101Y015240D01*
X017101Y016240D01*
X011501Y016240D01*
X011285Y016433D02*
X008649Y016433D01*
X008747Y016531D02*
X011455Y016531D01*
X011356Y016630D02*
X008846Y016630D01*
X008801Y016840D02*
X007801Y015840D01*
X007512Y015842D02*
X006705Y015842D01*
X006705Y015940D02*
X007530Y015940D01*
X007591Y016039D02*
X006705Y016039D01*
X006705Y016137D02*
X007844Y016137D01*
X007942Y016236D02*
X006705Y016236D01*
X006705Y016334D02*
X008041Y016334D01*
X008139Y016433D02*
X006705Y016433D01*
X006705Y016458D02*
X006629Y016535D01*
X005497Y016535D01*
X005421Y016458D01*
X005421Y016257D01*
X005293Y016129D01*
X005243Y016129D01*
X005137Y016085D01*
X005056Y016004D01*
X005012Y015897D01*
X005012Y015782D01*
X005056Y015676D01*
X005137Y015595D01*
X005243Y015551D01*
X005358Y015551D01*
X005465Y015595D01*
X005467Y015597D01*
X005497Y015566D01*
X006629Y015566D01*
X006705Y015642D01*
X006705Y016458D01*
X006632Y016531D02*
X008238Y016531D01*
X008336Y016630D02*
X000751Y016630D01*
X000751Y016728D02*
X008435Y016728D01*
X008533Y016827D02*
X000751Y016827D01*
X000751Y016925D02*
X008632Y016925D01*
X008801Y016840D02*
X011401Y016840D01*
X011801Y016440D01*
X015401Y016440D01*
X016201Y017240D01*
X016201Y020340D01*
X016601Y020740D01*
X016708Y020472D02*
X016778Y020472D01*
X016840Y020570D02*
X016876Y020570D01*
X016884Y020669D02*
X016975Y020669D01*
X017021Y020767D02*
X016890Y020767D01*
X016862Y020866D02*
X017021Y020866D01*
X017021Y020964D02*
X016786Y020964D01*
X017069Y021063D02*
X016181Y021063D01*
X016181Y021161D02*
X017167Y021161D01*
X017266Y021260D02*
X016181Y021260D01*
X016181Y021358D02*
X017351Y021358D01*
X017346Y021457D02*
X016181Y021457D01*
X016181Y021555D02*
X017364Y021555D01*
X017412Y021654D02*
X016181Y021654D01*
X016181Y021752D02*
X017527Y021752D01*
X017701Y021440D02*
X017201Y020940D01*
X017201Y020640D01*
X016401Y019840D01*
X016401Y017440D01*
X016701Y017140D01*
X017201Y016840D02*
X017201Y016640D01*
X017201Y016840D02*
X017301Y016940D01*
X020801Y016940D01*
X021101Y017240D01*
X021101Y017440D01*
X021364Y017319D02*
X021726Y017319D01*
X021721Y017221D02*
X021291Y017221D01*
X021238Y017122D02*
X021721Y017122D01*
X021721Y017024D02*
X021140Y017024D01*
X021041Y016925D02*
X021678Y016925D01*
X021624Y016827D02*
X020943Y016827D01*
X020701Y017140D02*
X020001Y017140D01*
X019801Y017340D01*
X020101Y017540D02*
X019801Y017840D01*
X019801Y018148D01*
X019819Y018166D01*
X020185Y018206D02*
X020417Y018206D01*
X020417Y018304D02*
X020185Y018304D01*
X020185Y018403D02*
X020417Y018403D01*
X020417Y018501D02*
X020185Y018501D01*
X020185Y018600D02*
X020417Y018600D01*
X020447Y018699D02*
X020140Y018699D01*
X020185Y018107D02*
X020417Y018107D01*
X020417Y018009D02*
X020185Y018009D01*
X020185Y017910D02*
X020417Y017910D01*
X020417Y017812D02*
X020185Y017812D01*
X020396Y017713D02*
X020417Y017713D01*
X020201Y017540D02*
X020301Y017440D01*
X020201Y017540D02*
X020101Y017540D01*
X020701Y017140D02*
X020801Y017240D01*
X020801Y018164D01*
X020784Y018182D01*
X021150Y018206D02*
X021441Y018206D01*
X021441Y018304D02*
X021150Y018304D01*
X021150Y018403D02*
X021441Y018403D01*
X021441Y018501D02*
X021150Y018501D01*
X021150Y018600D02*
X021441Y018600D01*
X021487Y018699D02*
X021120Y018699D01*
X021449Y018994D02*
X017881Y018994D01*
X017881Y018896D02*
X018202Y018896D01*
X018103Y018797D02*
X017881Y018797D01*
X017881Y018699D02*
X018005Y018699D01*
X017906Y018600D02*
X017881Y018600D01*
X018001Y018440D02*
X018001Y018240D01*
X018001Y018440D02*
X018301Y018740D01*
X019101Y018740D01*
X019301Y018540D01*
X019436Y018797D02*
X021521Y018797D01*
X021521Y018896D02*
X019200Y018896D01*
X018201Y019585D02*
X022021Y019585D01*
X022021Y019487D02*
X018102Y019487D01*
X018004Y019388D02*
X021544Y019388D01*
X021450Y019290D02*
X017905Y019290D01*
X017881Y019191D02*
X021412Y019191D01*
X021412Y019093D02*
X017881Y019093D01*
X017701Y019340D02*
X018601Y020240D01*
X018901Y020240D01*
X019101Y020440D01*
X019101Y020940D01*
X018601Y021440D01*
X018956Y021457D02*
X020471Y021457D01*
X020471Y021454D02*
X020536Y021296D01*
X020657Y021175D01*
X020815Y021110D01*
X020986Y021110D01*
X021145Y021175D01*
X021265Y021296D01*
X021331Y021454D01*
X021331Y021625D01*
X021265Y021784D01*
X021145Y021904D01*
X020986Y021970D01*
X020815Y021970D01*
X020657Y021904D01*
X020536Y021784D01*
X020471Y021625D01*
X020471Y021454D01*
X020471Y021555D02*
X018938Y021555D01*
X018889Y021654D02*
X020483Y021654D01*
X020523Y021752D02*
X018775Y021752D01*
X018427Y021752D02*
X017875Y021752D01*
X017989Y021654D02*
X018312Y021654D01*
X018264Y021555D02*
X018038Y021555D01*
X018056Y021457D02*
X018246Y021457D01*
X018251Y021358D02*
X018051Y021358D01*
X018010Y021260D02*
X018291Y021260D01*
X018378Y021161D02*
X017924Y021161D01*
X017850Y021063D02*
X018452Y021063D01*
X018323Y020964D02*
X017979Y020964D01*
X018033Y020866D02*
X018269Y020866D01*
X018246Y020767D02*
X018056Y020767D01*
X018056Y020669D02*
X018246Y020669D01*
X018287Y020570D02*
X018015Y020570D01*
X017935Y020472D02*
X018278Y020472D01*
X018179Y020373D02*
X017881Y020373D01*
X017881Y020275D02*
X018081Y020275D01*
X017982Y020176D02*
X017881Y020176D01*
X017881Y020078D02*
X017884Y020078D01*
X017701Y019940D02*
X017301Y019540D01*
X017301Y017840D01*
X017101Y017640D01*
X017501Y017540D02*
X017501Y019440D01*
X018601Y020540D01*
X018601Y020740D01*
X019036Y021260D02*
X020573Y021260D01*
X020511Y021358D02*
X018951Y021358D01*
X019134Y021161D02*
X020692Y021161D01*
X020801Y020964D02*
X019281Y020964D01*
X019281Y020866D02*
X020618Y020866D01*
X020657Y020904D02*
X020536Y020784D01*
X020471Y020625D01*
X020471Y020454D01*
X020536Y020296D01*
X020657Y020175D01*
X020815Y020110D01*
X020986Y020110D01*
X021145Y020175D01*
X021265Y020296D01*
X021331Y020454D01*
X021331Y020625D01*
X021265Y020784D01*
X021145Y020904D01*
X020986Y020970D01*
X020815Y020970D01*
X020657Y020904D01*
X020530Y020767D02*
X019281Y020767D01*
X019281Y020669D02*
X020489Y020669D01*
X020471Y020570D02*
X019281Y020570D01*
X019281Y020472D02*
X020471Y020472D01*
X020505Y020373D02*
X019281Y020373D01*
X019190Y020275D02*
X020558Y020275D01*
X020657Y020176D02*
X019092Y020176D01*
X018993Y020078D02*
X022021Y020078D01*
X022021Y019979D02*
X018595Y019979D01*
X018496Y019881D02*
X022021Y019881D01*
X022021Y019782D02*
X018398Y019782D01*
X018299Y019684D02*
X022021Y019684D01*
X022021Y019388D02*
X021857Y019388D01*
X021952Y019290D02*
X022021Y019290D01*
X022021Y019191D02*
X021990Y019191D01*
X021990Y019093D02*
X022021Y019093D01*
X022021Y018994D02*
X021953Y018994D01*
X022021Y018896D02*
X021881Y018896D01*
X021881Y018797D02*
X022021Y018797D01*
X021701Y019140D02*
X021701Y018272D01*
X021807Y018166D01*
X021441Y018107D02*
X021150Y018107D01*
X021150Y018009D02*
X021441Y018009D01*
X021441Y017910D02*
X021150Y017910D01*
X021150Y017812D02*
X021441Y017812D01*
X021441Y017713D02*
X021196Y017713D01*
X021335Y017615D02*
X021505Y017615D01*
X021382Y017516D02*
X021923Y017516D01*
X021826Y017420D02*
X021826Y017420D01*
X021824Y017418D02*
X021390Y017418D01*
X021901Y017240D02*
X021901Y016740D01*
X022168Y016630D02*
X022521Y016630D01*
X022521Y016728D02*
X022190Y016728D01*
X022178Y016827D02*
X022521Y016827D01*
X022521Y016925D02*
X022124Y016925D01*
X022081Y017024D02*
X022208Y017024D01*
X022137Y017122D02*
X022081Y017122D01*
X021901Y017240D02*
X022201Y017540D01*
X022201Y020240D01*
X021901Y020540D01*
X021505Y020373D02*
X021297Y020373D01*
X021331Y020472D02*
X021471Y020472D01*
X021471Y020570D02*
X021331Y020570D01*
X021313Y020669D02*
X021489Y020669D01*
X021530Y020767D02*
X021272Y020767D01*
X021184Y020866D02*
X021618Y020866D01*
X021801Y020964D02*
X021001Y020964D01*
X021110Y021161D02*
X021692Y021161D01*
X021573Y021260D02*
X021229Y021260D01*
X021291Y021358D02*
X021511Y021358D01*
X021471Y021457D02*
X021331Y021457D01*
X021331Y021555D02*
X021471Y021555D01*
X021483Y021654D02*
X021319Y021654D01*
X021279Y021752D02*
X021523Y021752D01*
X021603Y021851D02*
X021199Y021851D01*
X021037Y021949D02*
X021765Y021949D01*
X022037Y021949D02*
X022526Y021949D01*
X022471Y021851D02*
X022199Y021851D01*
X022279Y021752D02*
X022471Y021752D01*
X022471Y021654D02*
X022319Y021654D01*
X022331Y021555D02*
X022471Y021555D01*
X022471Y021457D02*
X022331Y021457D01*
X022337Y021358D02*
X022471Y021358D01*
X022471Y021260D02*
X022436Y021260D01*
X022401Y021040D02*
X021901Y021540D01*
X022124Y021063D02*
X019233Y021063D01*
X017701Y020740D02*
X017701Y019940D01*
X017701Y019340D02*
X017701Y017940D01*
X017901Y017740D01*
X019501Y016640D02*
X020001Y016140D01*
X020001Y015440D01*
X020205Y015645D02*
X020721Y015645D01*
X020721Y015743D02*
X020181Y015743D01*
X020181Y015842D02*
X020721Y015842D01*
X020747Y015940D02*
X020181Y015940D01*
X020181Y016039D02*
X020845Y016039D01*
X020944Y016137D02*
X020181Y016137D01*
X020159Y016236D02*
X021042Y016236D01*
X021201Y016140D02*
X022501Y016140D01*
X022701Y016340D01*
X022701Y017140D01*
X022801Y017240D01*
X022401Y017240D02*
X022401Y021040D01*
X022581Y021063D02*
X023769Y021063D01*
X023867Y021161D02*
X023306Y021161D01*
X023331Y021260D02*
X023946Y021260D01*
X023946Y021358D02*
X023331Y021358D01*
X023331Y021457D02*
X023946Y021457D01*
X023946Y021555D02*
X023331Y021555D01*
X023331Y021654D02*
X023946Y021654D01*
X023946Y021752D02*
X023331Y021752D01*
X023331Y021851D02*
X023946Y021851D01*
X023976Y021949D02*
X023276Y021949D01*
X023510Y022385D02*
X023343Y022454D01*
X023215Y022582D01*
X023146Y022749D01*
X023146Y022930D01*
X023215Y023098D01*
X023343Y023226D01*
X023510Y023295D01*
X023691Y023295D01*
X023859Y023226D01*
X023987Y023098D01*
X024056Y022930D01*
X024056Y022749D01*
X023987Y022582D01*
X023859Y022454D01*
X023691Y022385D01*
X023510Y022385D01*
X023374Y022442D02*
X022828Y022442D01*
X022859Y022454D02*
X022987Y022582D01*
X023056Y022749D01*
X023056Y022930D01*
X022987Y023098D01*
X022859Y023226D01*
X022691Y023295D01*
X022510Y023295D01*
X022343Y023226D01*
X022215Y023098D01*
X022146Y022930D01*
X022146Y022749D01*
X022215Y022582D01*
X022343Y022454D01*
X022510Y022385D01*
X022691Y022385D01*
X022859Y022454D01*
X022944Y022540D02*
X023257Y022540D01*
X023192Y022639D02*
X023010Y022639D01*
X023051Y022737D02*
X023151Y022737D01*
X023146Y022836D02*
X023056Y022836D01*
X023054Y022934D02*
X023147Y022934D01*
X023188Y023033D02*
X023014Y023033D01*
X022953Y023131D02*
X023249Y023131D01*
X023352Y023230D02*
X022849Y023230D01*
X022352Y023230D02*
X021849Y023230D01*
X021859Y023226D02*
X021691Y023295D01*
X021510Y023295D01*
X021343Y023226D01*
X021215Y023098D01*
X021146Y022930D01*
X021146Y022749D01*
X021215Y022582D01*
X021343Y022454D01*
X021510Y022385D01*
X021691Y022385D01*
X021859Y022454D01*
X021987Y022582D01*
X022056Y022749D01*
X022056Y022930D01*
X021987Y023098D01*
X021859Y023226D01*
X021953Y023131D02*
X022249Y023131D01*
X022188Y023033D02*
X022014Y023033D01*
X022054Y022934D02*
X022147Y022934D01*
X022146Y022836D02*
X022056Y022836D01*
X022051Y022737D02*
X022151Y022737D01*
X022192Y022639D02*
X022010Y022639D01*
X021944Y022540D02*
X022257Y022540D01*
X022374Y022442D02*
X021828Y022442D01*
X021374Y022442D02*
X020828Y022442D01*
X020859Y022454D02*
X020987Y022582D01*
X021056Y022749D01*
X021056Y022930D01*
X020987Y023098D01*
X020859Y023226D01*
X020691Y023295D01*
X020510Y023295D01*
X020343Y023226D01*
X020215Y023098D01*
X020146Y022930D01*
X020146Y022749D01*
X020215Y022582D01*
X020343Y022454D01*
X020510Y022385D01*
X020691Y022385D01*
X020859Y022454D01*
X020944Y022540D02*
X021257Y022540D01*
X021192Y022639D02*
X021010Y022639D01*
X021051Y022737D02*
X021151Y022737D01*
X021146Y022836D02*
X021056Y022836D01*
X021054Y022934D02*
X021147Y022934D01*
X021188Y023033D02*
X021014Y023033D01*
X020953Y023131D02*
X021249Y023131D01*
X021352Y023230D02*
X020849Y023230D01*
X020352Y023230D02*
X019849Y023230D01*
X019859Y023226D02*
X019691Y023295D01*
X019510Y023295D01*
X019343Y023226D01*
X019215Y023098D01*
X019146Y022930D01*
X019146Y022749D01*
X019215Y022582D01*
X019343Y022454D01*
X019510Y022385D01*
X019691Y022385D01*
X019859Y022454D01*
X019987Y022582D01*
X020056Y022749D01*
X020056Y022930D01*
X019987Y023098D01*
X019859Y023226D01*
X019953Y023131D02*
X020249Y023131D01*
X020188Y023033D02*
X020014Y023033D01*
X020054Y022934D02*
X020147Y022934D01*
X020146Y022836D02*
X020056Y022836D01*
X020051Y022737D02*
X020151Y022737D01*
X020192Y022639D02*
X020010Y022639D01*
X019944Y022540D02*
X020257Y022540D01*
X020374Y022442D02*
X019828Y022442D01*
X019374Y022442D02*
X018828Y022442D01*
X018859Y022454D02*
X018987Y022582D01*
X019056Y022749D01*
X019056Y022930D01*
X018987Y023098D01*
X018859Y023226D01*
X018691Y023295D01*
X018510Y023295D01*
X018343Y023226D01*
X018215Y023098D01*
X018146Y022930D01*
X018146Y022749D01*
X018215Y022582D01*
X018343Y022454D01*
X018510Y022385D01*
X018691Y022385D01*
X018859Y022454D01*
X018944Y022540D02*
X019257Y022540D01*
X019192Y022639D02*
X019010Y022639D01*
X019051Y022737D02*
X019151Y022737D01*
X019146Y022836D02*
X019056Y022836D01*
X019054Y022934D02*
X019147Y022934D01*
X019188Y023033D02*
X019014Y023033D01*
X018953Y023131D02*
X019249Y023131D01*
X019352Y023230D02*
X018849Y023230D01*
X018352Y023230D02*
X017445Y023230D01*
X017456Y023219D02*
X017380Y023295D01*
X016622Y023295D01*
X016546Y023219D01*
X016546Y022461D01*
X016622Y022385D01*
X017380Y022385D01*
X017456Y022461D01*
X017456Y023219D01*
X017456Y023131D02*
X018249Y023131D01*
X018188Y023033D02*
X017456Y023033D01*
X017456Y022934D02*
X018147Y022934D01*
X018146Y022836D02*
X017456Y022836D01*
X017456Y022737D02*
X018151Y022737D01*
X018192Y022639D02*
X017456Y022639D01*
X017456Y022540D02*
X018257Y022540D01*
X018374Y022442D02*
X017436Y022442D01*
X016566Y022442D02*
X016228Y022442D01*
X016181Y022343D02*
X026451Y022343D01*
X026451Y022245D02*
X016181Y022245D01*
X016181Y022146D02*
X026451Y022146D01*
X026451Y022048D02*
X016181Y022048D01*
X016181Y021949D02*
X020765Y021949D01*
X020603Y021851D02*
X016181Y021851D01*
X015821Y021851D02*
X001964Y021851D01*
X001964Y021949D02*
X015821Y021949D01*
X015821Y022048D02*
X001964Y022048D01*
X001964Y022146D02*
X006238Y022146D01*
X006159Y022179D02*
X006446Y022060D01*
X006756Y022060D01*
X007043Y022179D01*
X007262Y022398D01*
X007381Y022685D01*
X007381Y022995D01*
X007262Y023282D01*
X007043Y023501D01*
X006756Y023620D01*
X006446Y023620D01*
X006159Y023501D01*
X005940Y023282D01*
X005821Y022995D01*
X005821Y022685D01*
X005940Y022398D01*
X006159Y022179D01*
X006093Y022245D02*
X001964Y022245D01*
X001964Y022343D02*
X005995Y022343D01*
X005922Y022442D02*
X001964Y022442D01*
X001964Y022540D02*
X005881Y022540D01*
X005840Y022639D02*
X001964Y022639D01*
X001964Y022737D02*
X005821Y022737D01*
X005821Y022836D02*
X001964Y022836D01*
X001964Y022934D02*
X005821Y022934D01*
X005836Y023033D02*
X001964Y023033D01*
X001964Y023131D02*
X005877Y023131D01*
X005918Y023230D02*
X001964Y023230D01*
X001964Y023328D02*
X005986Y023328D01*
X006084Y023427D02*
X001964Y023427D01*
X001964Y023525D02*
X006217Y023525D01*
X006985Y023525D02*
X026104Y023525D01*
X026202Y023427D02*
X007117Y023427D01*
X007216Y023328D02*
X026301Y023328D01*
X026399Y023230D02*
X026045Y023230D01*
X026056Y023219D02*
X025980Y023295D01*
X025222Y023295D01*
X025146Y023219D01*
X025146Y022461D01*
X025222Y022385D01*
X025980Y022385D01*
X026056Y022461D01*
X026056Y023219D01*
X026056Y023131D02*
X026451Y023131D01*
X026451Y023033D02*
X026056Y023033D01*
X026056Y022934D02*
X026451Y022934D01*
X026451Y022836D02*
X026056Y022836D01*
X026056Y022737D02*
X026451Y022737D01*
X026451Y022639D02*
X026056Y022639D01*
X026056Y022540D02*
X026451Y022540D01*
X026451Y022442D02*
X026036Y022442D01*
X025745Y021904D02*
X025586Y021970D01*
X025415Y021970D01*
X025257Y021904D01*
X025136Y021784D01*
X025071Y021625D01*
X025071Y021454D01*
X025136Y021296D01*
X025257Y021175D01*
X025415Y021110D01*
X025586Y021110D01*
X025745Y021175D01*
X025865Y021296D01*
X025931Y021454D01*
X025931Y021625D01*
X025865Y021784D01*
X025745Y021904D01*
X025799Y021851D02*
X026451Y021851D01*
X026451Y021949D02*
X025637Y021949D01*
X025365Y021949D02*
X024826Y021949D01*
X024856Y021851D02*
X025203Y021851D01*
X025123Y021752D02*
X024856Y021752D01*
X024856Y021654D02*
X025083Y021654D01*
X025071Y021555D02*
X024856Y021555D01*
X024856Y021457D02*
X025071Y021457D01*
X025111Y021358D02*
X024856Y021358D01*
X024856Y021260D02*
X025173Y021260D01*
X025292Y021161D02*
X024856Y021161D01*
X024719Y020866D02*
X025218Y020866D01*
X025130Y020767D02*
X024799Y020767D01*
X024840Y020669D02*
X025089Y020669D01*
X025071Y020570D02*
X024856Y020570D01*
X024856Y020472D02*
X025071Y020472D01*
X025401Y020964D02*
X024566Y020964D01*
X024278Y021063D02*
X026451Y021063D01*
X026451Y021161D02*
X025710Y021161D01*
X025829Y021260D02*
X026451Y021260D01*
X026451Y021358D02*
X025891Y021358D01*
X025931Y021457D02*
X026451Y021457D01*
X026451Y021555D02*
X025931Y021555D01*
X025919Y021654D02*
X026451Y021654D01*
X026451Y021752D02*
X025879Y021752D01*
X025601Y020964D02*
X026451Y020964D01*
X026451Y020866D02*
X025784Y020866D01*
X025872Y020767D02*
X026451Y020767D01*
X026451Y020669D02*
X025913Y020669D01*
X025931Y020570D02*
X026451Y020570D01*
X026451Y020472D02*
X025931Y020472D01*
X025897Y020373D02*
X026451Y020373D01*
X026451Y020275D02*
X025844Y020275D01*
X025745Y020176D02*
X026451Y020176D01*
X024401Y021440D02*
X023501Y020540D01*
X023501Y019940D01*
X023375Y020669D02*
X023313Y020669D01*
X023272Y020767D02*
X023473Y020767D01*
X023572Y020866D02*
X023184Y020866D01*
X023001Y020964D02*
X023670Y020964D01*
X023983Y020767D02*
X024003Y020767D01*
X024081Y020866D02*
X024083Y020866D01*
X024180Y020964D02*
X024236Y020964D01*
X024401Y021440D02*
X024401Y021540D01*
X024510Y022385D02*
X024691Y022385D01*
X024859Y022454D01*
X024987Y022582D01*
X025056Y022749D01*
X025056Y022930D01*
X024987Y023098D01*
X024859Y023226D01*
X024691Y023295D01*
X024510Y023295D01*
X024343Y023226D01*
X024215Y023098D01*
X024146Y022930D01*
X024146Y022749D01*
X024215Y022582D01*
X024343Y022454D01*
X024510Y022385D01*
X024374Y022442D02*
X023828Y022442D01*
X023944Y022540D02*
X024257Y022540D01*
X024192Y022639D02*
X024010Y022639D01*
X024051Y022737D02*
X024151Y022737D01*
X024146Y022836D02*
X024056Y022836D01*
X024054Y022934D02*
X024147Y022934D01*
X024188Y023033D02*
X024014Y023033D01*
X023953Y023131D02*
X024249Y023131D01*
X024352Y023230D02*
X023849Y023230D01*
X024828Y022442D02*
X025166Y022442D01*
X025146Y022540D02*
X024944Y022540D01*
X025010Y022639D02*
X025146Y022639D01*
X025146Y022737D02*
X025051Y022737D01*
X025056Y022836D02*
X025146Y022836D01*
X025146Y022934D02*
X025054Y022934D01*
X025014Y023033D02*
X025146Y023033D01*
X025146Y023131D02*
X024953Y023131D01*
X024849Y023230D02*
X025157Y023230D01*
X026005Y023624D02*
X001964Y023624D01*
X001964Y021752D02*
X015821Y021752D01*
X015821Y021654D02*
X013306Y021654D01*
X013267Y021670D02*
X012835Y021670D01*
X012714Y021620D01*
X011964Y020870D01*
X010825Y020870D01*
X010825Y021488D01*
X010748Y021564D01*
X009853Y021564D01*
X009777Y021488D01*
X009777Y019648D01*
X009853Y019572D01*
X010748Y019572D01*
X010825Y019648D01*
X010825Y020210D01*
X012167Y020210D01*
X012288Y020260D01*
X012381Y020353D01*
X013038Y021010D01*
X013267Y021010D01*
X013388Y021060D01*
X013481Y021153D01*
X013531Y021274D01*
X013531Y021406D01*
X013481Y021527D01*
X013388Y021620D01*
X013267Y021670D01*
X013453Y021555D02*
X015821Y021555D01*
X015821Y021457D02*
X013510Y021457D01*
X013531Y021358D02*
X015821Y021358D01*
X015821Y021260D02*
X013525Y021260D01*
X013484Y021161D02*
X015821Y021161D01*
X015821Y021063D02*
X013390Y021063D01*
X012992Y020964D02*
X015821Y020964D01*
X015821Y020866D02*
X012893Y020866D01*
X012795Y020767D02*
X015821Y020767D01*
X015821Y020669D02*
X012696Y020669D01*
X012598Y020570D02*
X015821Y020570D01*
X015821Y020472D02*
X012499Y020472D01*
X012401Y020373D02*
X015821Y020373D01*
X015821Y020275D02*
X012302Y020275D01*
X012058Y020964D02*
X010825Y020964D01*
X010825Y021063D02*
X012157Y021063D01*
X012255Y021161D02*
X010825Y021161D01*
X010825Y021260D02*
X012354Y021260D01*
X012452Y021358D02*
X010825Y021358D01*
X010825Y021457D02*
X012551Y021457D01*
X012649Y021555D02*
X010758Y021555D01*
X009844Y021555D02*
X001964Y021555D01*
X001964Y021457D02*
X009777Y021457D01*
X009777Y021358D02*
X001964Y021358D01*
X001964Y021260D02*
X009777Y021260D01*
X009777Y021161D02*
X001964Y021161D01*
X001964Y021063D02*
X009777Y021063D01*
X009777Y020964D02*
X001943Y020964D01*
X001964Y021654D02*
X012796Y021654D01*
X012910Y022385D02*
X012743Y022454D01*
X012615Y022582D01*
X012546Y022749D01*
X012546Y022930D01*
X012615Y023098D01*
X012743Y023226D01*
X012910Y023295D01*
X013091Y023295D01*
X013259Y023226D01*
X013387Y023098D01*
X013456Y022930D01*
X013456Y022749D01*
X013387Y022582D01*
X013259Y022454D01*
X013091Y022385D01*
X012910Y022385D01*
X012774Y022442D02*
X012228Y022442D01*
X012259Y022454D02*
X012387Y022582D01*
X012456Y022749D01*
X012456Y022930D01*
X012387Y023098D01*
X012259Y023226D01*
X012091Y023295D01*
X011910Y023295D01*
X011743Y023226D01*
X011615Y023098D01*
X011546Y022930D01*
X011546Y022749D01*
X011615Y022582D01*
X011743Y022454D01*
X011910Y022385D01*
X012091Y022385D01*
X012259Y022454D01*
X012344Y022540D02*
X012657Y022540D01*
X012592Y022639D02*
X012410Y022639D01*
X012451Y022737D02*
X012551Y022737D01*
X012546Y022836D02*
X012456Y022836D01*
X012454Y022934D02*
X012547Y022934D01*
X012588Y023033D02*
X012414Y023033D01*
X012353Y023131D02*
X012649Y023131D01*
X012752Y023230D02*
X012249Y023230D01*
X011752Y023230D02*
X011273Y023230D01*
X011250Y023246D02*
X011183Y023280D01*
X011112Y023303D01*
X011038Y023315D01*
X011038Y022877D01*
X011476Y022877D01*
X011464Y022951D01*
X011441Y023022D01*
X011407Y023089D01*
X011363Y023149D01*
X011310Y023202D01*
X011250Y023246D01*
X011377Y023131D02*
X011649Y023131D01*
X011588Y023033D02*
X011436Y023033D01*
X011467Y022934D02*
X011547Y022934D01*
X011546Y022836D02*
X011038Y022836D01*
X011038Y022802D02*
X011038Y022877D01*
X010963Y022877D01*
X010963Y022802D01*
X011038Y022802D01*
X011038Y022365D01*
X011112Y022377D01*
X011183Y022400D01*
X011250Y022434D01*
X011310Y022478D01*
X011363Y022531D01*
X011407Y022591D01*
X011441Y022658D01*
X011464Y022729D01*
X011476Y022802D01*
X011038Y022802D01*
X011038Y022737D02*
X010963Y022737D01*
X010963Y022802D02*
X010963Y022365D01*
X010890Y022377D01*
X010819Y022400D01*
X010752Y022434D01*
X010691Y022478D01*
X010639Y022531D01*
X010595Y022591D01*
X010561Y022658D01*
X010538Y022729D01*
X010526Y022802D01*
X010963Y022802D01*
X010963Y022836D02*
X010456Y022836D01*
X010526Y022877D02*
X010963Y022877D01*
X010963Y023315D01*
X010890Y023303D01*
X010819Y023280D01*
X010752Y023246D01*
X010691Y023202D01*
X010639Y023149D01*
X010595Y023089D01*
X010561Y023022D01*
X010538Y022951D01*
X010526Y022877D01*
X010535Y022934D02*
X010454Y022934D01*
X010456Y022930D02*
X010387Y023098D01*
X010259Y023226D01*
X010091Y023295D01*
X009910Y023295D01*
X009743Y023226D01*
X009615Y023098D01*
X009546Y022930D01*
X009546Y022749D01*
X009615Y022582D01*
X009743Y022454D01*
X009910Y022385D01*
X010091Y022385D01*
X010259Y022454D01*
X010387Y022582D01*
X010456Y022749D01*
X010456Y022930D01*
X010414Y023033D02*
X010566Y023033D01*
X010625Y023131D02*
X010353Y023131D01*
X010249Y023230D02*
X010729Y023230D01*
X010963Y023230D02*
X011038Y023230D01*
X011038Y023131D02*
X010963Y023131D01*
X010963Y023033D02*
X011038Y023033D01*
X011038Y022934D02*
X010963Y022934D01*
X010963Y022639D02*
X011038Y022639D01*
X011038Y022540D02*
X010963Y022540D01*
X010963Y022442D02*
X011038Y022442D01*
X011261Y022442D02*
X011774Y022442D01*
X011657Y022540D02*
X011370Y022540D01*
X011431Y022639D02*
X011592Y022639D01*
X011551Y022737D02*
X011466Y022737D01*
X010741Y022442D02*
X010228Y022442D01*
X010344Y022540D02*
X010632Y022540D01*
X010570Y022639D02*
X010410Y022639D01*
X010451Y022737D02*
X010536Y022737D01*
X009774Y022442D02*
X007280Y022442D01*
X007321Y022540D02*
X009657Y022540D01*
X009592Y022639D02*
X007362Y022639D01*
X007381Y022737D02*
X009551Y022737D01*
X009546Y022836D02*
X007381Y022836D01*
X007381Y022934D02*
X009547Y022934D01*
X009588Y023033D02*
X007365Y023033D01*
X007325Y023131D02*
X009649Y023131D01*
X009752Y023230D02*
X007284Y023230D01*
X007207Y022343D02*
X015821Y022343D01*
X015821Y022245D02*
X007109Y022245D01*
X006964Y022146D02*
X015821Y022146D01*
X015774Y022442D02*
X015228Y022442D01*
X015259Y022454D02*
X015387Y022582D01*
X015456Y022749D01*
X015456Y022930D01*
X015387Y023098D01*
X015259Y023226D01*
X015091Y023295D01*
X014910Y023295D01*
X014743Y023226D01*
X014615Y023098D01*
X014546Y022930D01*
X014546Y022749D01*
X014615Y022582D01*
X014743Y022454D01*
X014910Y022385D01*
X015091Y022385D01*
X015259Y022454D01*
X015344Y022540D02*
X015657Y022540D01*
X015592Y022639D02*
X015410Y022639D01*
X015451Y022737D02*
X015551Y022737D01*
X015546Y022836D02*
X015456Y022836D01*
X015454Y022934D02*
X015547Y022934D01*
X015588Y023033D02*
X015414Y023033D01*
X015353Y023131D02*
X015649Y023131D01*
X015752Y023230D02*
X015249Y023230D01*
X014752Y023230D02*
X014249Y023230D01*
X014259Y023226D02*
X014091Y023295D01*
X013910Y023295D01*
X013743Y023226D01*
X013615Y023098D01*
X013546Y022930D01*
X013546Y022749D01*
X013615Y022582D01*
X013743Y022454D01*
X013910Y022385D01*
X014091Y022385D01*
X014259Y022454D01*
X014387Y022582D01*
X014456Y022749D01*
X014456Y022930D01*
X014387Y023098D01*
X014259Y023226D01*
X014353Y023131D02*
X014649Y023131D01*
X014588Y023033D02*
X014414Y023033D01*
X014454Y022934D02*
X014547Y022934D01*
X014546Y022836D02*
X014456Y022836D01*
X014451Y022737D02*
X014551Y022737D01*
X014592Y022639D02*
X014410Y022639D01*
X014344Y022540D02*
X014657Y022540D01*
X014774Y022442D02*
X014228Y022442D01*
X013774Y022442D02*
X013228Y022442D01*
X013344Y022540D02*
X013657Y022540D01*
X013592Y022639D02*
X013410Y022639D01*
X013451Y022737D02*
X013551Y022737D01*
X013546Y022836D02*
X013456Y022836D01*
X013454Y022934D02*
X013547Y022934D01*
X013588Y023033D02*
X013414Y023033D01*
X013353Y023131D02*
X013649Y023131D01*
X013752Y023230D02*
X013249Y023230D01*
X016001Y022840D02*
X016001Y017340D01*
X015501Y016840D01*
X014001Y016840D01*
X013734Y016728D02*
X011767Y016728D01*
X011865Y016630D02*
X013802Y016630D01*
X013712Y016827D02*
X011668Y016827D01*
X011570Y016925D02*
X013724Y016925D01*
X013776Y017024D02*
X000751Y017024D01*
X000751Y017122D02*
X013928Y017122D01*
X014074Y017122D02*
X015529Y017122D01*
X015430Y017024D02*
X014226Y017024D01*
X015627Y017221D02*
X000751Y017221D01*
X000751Y017319D02*
X015726Y017319D01*
X015821Y017418D02*
X000751Y017418D01*
X000751Y017516D02*
X015821Y017516D01*
X015821Y017615D02*
X000751Y017615D01*
X000751Y017713D02*
X001311Y017713D01*
X001293Y017721D02*
X001432Y017664D01*
X001581Y017664D01*
X001720Y017721D01*
X001825Y017827D01*
X001883Y017965D01*
X001883Y018115D01*
X001825Y018253D01*
X001720Y018359D01*
X001581Y018416D01*
X001432Y018416D01*
X001293Y018359D01*
X001188Y018253D01*
X001130Y018115D01*
X001130Y017965D01*
X001188Y017827D01*
X001293Y017721D01*
X001202Y017812D02*
X000751Y017812D01*
X000751Y017910D02*
X001153Y017910D01*
X001130Y018009D02*
X000751Y018009D01*
X000751Y018107D02*
X001130Y018107D01*
X001168Y018206D02*
X000751Y018206D01*
X000751Y018304D02*
X001239Y018304D01*
X001400Y018403D02*
X000751Y018403D01*
X000751Y018501D02*
X009966Y018501D01*
X009923Y018544D02*
X010049Y018419D01*
X010212Y018351D01*
X010390Y018351D01*
X010553Y018419D01*
X010678Y018544D01*
X010746Y018708D01*
X010746Y018885D01*
X010678Y019049D01*
X010553Y019174D01*
X010390Y019242D01*
X010212Y019242D01*
X010049Y019174D01*
X009923Y019049D01*
X009856Y018885D01*
X009856Y018708D01*
X009923Y018544D01*
X009900Y018600D02*
X000751Y018600D01*
X000751Y018699D02*
X009860Y018699D01*
X009856Y018797D02*
X000751Y018797D01*
X000751Y018896D02*
X009860Y018896D01*
X009901Y018994D02*
X000751Y018994D01*
X000751Y019093D02*
X009967Y019093D01*
X010089Y019191D02*
X000751Y019191D01*
X000751Y019290D02*
X015821Y019290D01*
X015821Y019388D02*
X005148Y019388D01*
X005165Y019395D02*
X005246Y019476D01*
X005290Y019582D01*
X005290Y019632D01*
X005356Y019698D01*
X005421Y019698D01*
X005421Y019500D01*
X005497Y019424D01*
X006629Y019424D01*
X006705Y019500D01*
X006705Y020317D01*
X006629Y020393D01*
X005497Y020393D01*
X005421Y020317D01*
X005421Y020118D01*
X005182Y020118D01*
X004993Y019929D01*
X004943Y019929D01*
X004837Y019885D01*
X004756Y019804D01*
X004712Y019697D01*
X004712Y019582D01*
X004756Y019476D01*
X004837Y019395D01*
X004943Y019351D01*
X005058Y019351D01*
X005165Y019395D01*
X005250Y019487D02*
X005435Y019487D01*
X005421Y019585D02*
X005290Y019585D01*
X005341Y019684D02*
X005421Y019684D01*
X005043Y019979D02*
X000751Y019979D01*
X000751Y019881D02*
X004833Y019881D01*
X004747Y019782D02*
X000751Y019782D01*
X000751Y019684D02*
X004712Y019684D01*
X004712Y019585D02*
X000751Y019585D01*
X000751Y019487D02*
X004752Y019487D01*
X004854Y019388D02*
X000751Y019388D01*
X000751Y020078D02*
X005142Y020078D01*
X005421Y020176D02*
X000751Y020176D01*
X000751Y020275D02*
X005421Y020275D01*
X005478Y020373D02*
X000751Y020373D01*
X000751Y020472D02*
X009777Y020472D01*
X009777Y020570D02*
X000751Y020570D01*
X000751Y020669D02*
X009777Y020669D01*
X009777Y020767D02*
X000751Y020767D01*
X000751Y020866D02*
X009777Y020866D01*
X009777Y020373D02*
X006649Y020373D01*
X006705Y020275D02*
X009777Y020275D01*
X009777Y020176D02*
X006705Y020176D01*
X006705Y020078D02*
X009777Y020078D01*
X009777Y019979D02*
X006705Y019979D01*
X006705Y019881D02*
X009777Y019881D01*
X009777Y019782D02*
X006705Y019782D01*
X006705Y019684D02*
X009777Y019684D01*
X009841Y019585D02*
X006705Y019585D01*
X006691Y019487D02*
X015821Y019487D01*
X015821Y019585D02*
X010761Y019585D01*
X010825Y019684D02*
X015821Y019684D01*
X015821Y019782D02*
X010825Y019782D01*
X010825Y019881D02*
X015821Y019881D01*
X015821Y019979D02*
X010825Y019979D01*
X010825Y020078D02*
X015821Y020078D01*
X015821Y020176D02*
X010825Y020176D01*
X010512Y019191D02*
X015821Y019191D01*
X015821Y019093D02*
X010635Y019093D01*
X010701Y018994D02*
X015821Y018994D01*
X015821Y018896D02*
X010742Y018896D01*
X010746Y018797D02*
X015821Y018797D01*
X015821Y018699D02*
X010742Y018699D01*
X010701Y018600D02*
X015821Y018600D01*
X015821Y018501D02*
X010636Y018501D01*
X010514Y018403D02*
X015821Y018403D01*
X015821Y018304D02*
X004530Y018304D01*
X004581Y018253D02*
X004475Y018359D01*
X004337Y018416D01*
X004188Y018416D01*
X004049Y018359D01*
X003943Y018253D01*
X003886Y018115D01*
X003886Y017965D01*
X003943Y017827D01*
X004049Y017721D01*
X004188Y017664D01*
X004337Y017664D01*
X004475Y017721D01*
X004581Y017827D01*
X004639Y017965D01*
X004639Y018115D01*
X004581Y018253D01*
X004601Y018206D02*
X015821Y018206D01*
X015821Y018107D02*
X004639Y018107D01*
X004639Y018009D02*
X015821Y018009D01*
X015821Y017910D02*
X004616Y017910D01*
X004566Y017812D02*
X015821Y017812D01*
X015821Y017713D02*
X004457Y017713D01*
X004067Y017713D02*
X001701Y017713D01*
X001811Y017812D02*
X003958Y017812D01*
X003909Y017910D02*
X001860Y017910D01*
X001883Y018009D02*
X003886Y018009D01*
X003886Y018107D02*
X001883Y018107D01*
X001845Y018206D02*
X003924Y018206D01*
X003995Y018304D02*
X001774Y018304D01*
X001613Y018403D02*
X004156Y018403D01*
X004369Y018403D02*
X010088Y018403D01*
X007528Y015743D02*
X006705Y015743D01*
X006705Y015645D02*
X007587Y015645D01*
X009757Y013970D02*
X000751Y013970D01*
X000751Y013872D02*
X009757Y013872D01*
X009757Y013773D02*
X000751Y013773D01*
X000751Y013675D02*
X009757Y013675D01*
X009757Y013576D02*
X000751Y013576D01*
X000751Y013478D02*
X009757Y013478D01*
X009757Y013379D02*
X000751Y013379D01*
X000751Y013281D02*
X009757Y013281D01*
X009770Y013182D02*
X000751Y013182D01*
X000751Y013084D02*
X017064Y013084D01*
X017301Y013640D02*
X016301Y014640D01*
X014301Y014640D01*
X014001Y014340D01*
X014001Y013640D01*
X014181Y014069D02*
X016617Y014069D01*
X016519Y014167D02*
X014181Y014167D01*
X014182Y014266D02*
X016420Y014266D01*
X016322Y014364D02*
X014280Y014364D01*
X012007Y014266D02*
X011695Y014266D01*
X011834Y014364D02*
X011868Y014364D01*
X017301Y013640D02*
X018201Y013640D01*
X019401Y015240D02*
X019701Y015240D01*
X020001Y014940D01*
X020701Y014940D01*
X020901Y015140D01*
X020901Y015840D01*
X021201Y016140D01*
X021701Y016531D02*
X019864Y016531D01*
X019790Y016630D02*
X021634Y016630D01*
X021612Y016728D02*
X019777Y016728D01*
X019962Y016433D02*
X022521Y016433D01*
X022521Y016531D02*
X022101Y016531D01*
X022441Y016334D02*
X020061Y016334D01*
X020270Y015546D02*
X020721Y015546D01*
X020721Y015448D02*
X020290Y015448D01*
X020276Y015349D02*
X020721Y015349D01*
X020721Y015251D02*
X020221Y015251D01*
X020062Y015152D02*
X020659Y015152D01*
X021301Y015440D02*
X022201Y015440D01*
X022601Y013940D02*
X023901Y015240D01*
X023901Y017240D01*
X024201Y017540D01*
X024401Y017540D01*
X024128Y017910D02*
X023881Y017910D01*
X023881Y017812D02*
X024030Y017812D01*
X023980Y017713D02*
X023881Y017713D01*
X023881Y017615D02*
X023946Y017615D01*
X023923Y017516D02*
X023881Y017516D01*
X024081Y017122D02*
X024220Y017122D01*
X024081Y017024D02*
X024821Y017024D01*
X024143Y016925D02*
X024081Y016925D01*
X023881Y018009D02*
X027120Y018009D01*
X026003Y016334D02*
X025904Y016334D01*
X025805Y016236D02*
X026102Y016236D01*
X026259Y016137D02*
X025707Y016137D01*
X026024Y015251D02*
X026404Y015251D01*
X026270Y015152D02*
X026056Y015152D01*
X026056Y015054D02*
X026197Y015054D01*
X026156Y014955D02*
X026056Y014955D01*
X026056Y014857D02*
X026146Y014857D01*
X026146Y014758D02*
X026056Y014758D01*
X026056Y014660D02*
X026183Y014660D01*
X026236Y014561D02*
X026056Y014561D01*
X026056Y014463D02*
X026334Y014463D01*
X026440Y014266D02*
X025761Y014266D01*
X025917Y014167D02*
X026285Y014167D01*
X026203Y014069D02*
X025999Y014069D01*
X026039Y013970D02*
X026163Y013970D01*
X026146Y013872D02*
X026056Y013872D01*
X026056Y013773D02*
X026146Y013773D01*
X026177Y013675D02*
X026025Y013675D01*
X025981Y013576D02*
X026221Y013576D01*
X026319Y013478D02*
X025882Y013478D01*
X025725Y013281D02*
X026477Y013281D01*
X026300Y013182D02*
X025902Y013182D01*
X025992Y013084D02*
X026210Y013084D01*
X026169Y012985D02*
X026033Y012985D01*
X026056Y012887D02*
X026146Y012887D01*
X026146Y012788D02*
X026056Y012788D01*
X026031Y012690D02*
X026171Y012690D01*
X026211Y012591D02*
X025991Y012591D01*
X025897Y012493D02*
X026304Y012493D01*
X026897Y012493D02*
X027451Y012493D01*
X027451Y012591D02*
X026991Y012591D01*
X027031Y012690D02*
X027451Y012690D01*
X027451Y012788D02*
X027056Y012788D01*
X027056Y012887D02*
X027451Y012887D01*
X027451Y012985D02*
X027033Y012985D01*
X026992Y013084D02*
X027451Y013084D01*
X027451Y013182D02*
X026902Y013182D01*
X026725Y013281D02*
X027451Y013281D01*
X027451Y013379D02*
X025081Y013379D01*
X026882Y013478D02*
X027451Y013478D01*
X027451Y013576D02*
X026981Y013576D01*
X027025Y013675D02*
X027451Y013675D01*
X027451Y013773D02*
X027056Y013773D01*
X027056Y013872D02*
X027451Y013872D01*
X027451Y013970D02*
X027039Y013970D01*
X026999Y014069D02*
X027451Y014069D01*
X027451Y014167D02*
X026917Y014167D01*
X025921Y011705D02*
X025879Y011705D01*
X025196Y010129D02*
X020281Y010129D01*
X020101Y009340D02*
X020601Y008840D01*
X021401Y008840D01*
X021198Y009045D02*
X020650Y009045D01*
X021177Y008651D02*
X021181Y008651D01*
X021177Y008553D02*
X021338Y008553D01*
X021354Y008454D02*
X021177Y008454D01*
X021177Y008356D02*
X021354Y008356D01*
X020980Y004295D02*
X020222Y004295D01*
X020146Y004219D01*
X020146Y004120D02*
X019056Y004120D01*
X019056Y004022D02*
X020146Y004022D01*
X020146Y003923D02*
X019056Y003923D01*
X019056Y003825D02*
X020146Y003825D01*
X020146Y003726D02*
X019056Y003726D01*
X019056Y003628D02*
X020146Y003628D01*
X020146Y003529D02*
X019056Y003529D01*
X019056Y003461D02*
X018980Y003385D01*
X018222Y003385D01*
X018146Y003461D01*
X018146Y004219D01*
X017963Y004149D02*
X017910Y004202D01*
X017638Y004219D02*
X017563Y004219D01*
X017563Y004120D02*
X017638Y004120D01*
X017638Y004022D02*
X017563Y004022D01*
X017563Y003923D02*
X017638Y003923D01*
X017638Y003726D02*
X017563Y003726D01*
X017563Y003628D02*
X017638Y003628D01*
X017638Y003529D02*
X017563Y003529D01*
X017563Y003431D02*
X017638Y003431D01*
X017845Y003431D02*
X018176Y003431D01*
X018146Y003529D02*
X017962Y003529D01*
X018026Y003628D02*
X018146Y003628D01*
X018146Y003726D02*
X018064Y003726D01*
X017357Y003431D02*
X016845Y003431D01*
X016962Y003529D02*
X017240Y003529D01*
X017176Y003628D02*
X017026Y003628D01*
X017064Y003726D02*
X017138Y003726D01*
X017218Y004120D02*
X016984Y004120D01*
X016887Y004219D02*
X017314Y004219D01*
X016638Y004219D02*
X016563Y004219D01*
X016563Y004315D02*
X016490Y004303D01*
X016419Y004280D01*
X016352Y004246D01*
X016291Y004202D01*
X016239Y004149D01*
X016195Y004089D01*
X016161Y004022D01*
X016018Y004022D01*
X016056Y003923D02*
X016133Y003923D01*
X016138Y003951D02*
X016126Y003877D01*
X016563Y003877D01*
X016563Y004315D01*
X016563Y004120D02*
X016638Y004120D01*
X016638Y004022D02*
X016563Y004022D01*
X016563Y003923D02*
X016638Y003923D01*
X016638Y003726D02*
X016563Y003726D01*
X016563Y003628D02*
X016638Y003628D01*
X016638Y003529D02*
X016563Y003529D01*
X016563Y003431D02*
X016638Y003431D01*
X016138Y003951D02*
X016161Y004022D01*
X016218Y004120D02*
X015964Y004120D01*
X015865Y004219D02*
X016314Y004219D01*
X019056Y004219D02*
X019056Y003461D01*
X019026Y003431D02*
X020176Y003431D01*
X021056Y003461D02*
X021056Y004219D01*
X020980Y004295D01*
X021056Y004219D02*
X021336Y004219D01*
X021238Y004120D02*
X021056Y004120D01*
X021056Y004022D02*
X021184Y004022D01*
X021146Y003923D02*
X021056Y003923D01*
X021056Y003825D02*
X021146Y003825D01*
X021155Y003726D02*
X021056Y003726D01*
X021056Y003628D02*
X021196Y003628D01*
X021268Y003529D02*
X021056Y003529D01*
X013268Y003529D02*
X006640Y003529D01*
X006539Y003628D02*
X013196Y003628D01*
X011211Y005992D02*
X010798Y005992D01*
X010644Y005893D02*
X011030Y005893D01*
X010447Y005893D02*
X010347Y005893D01*
X010347Y005992D02*
X010447Y005992D01*
X010447Y006090D02*
X010347Y006090D01*
X010347Y006189D02*
X010447Y006189D01*
X010447Y006287D02*
X010347Y006287D01*
X009809Y006583D02*
X006881Y006583D01*
X006814Y006681D02*
X009842Y006681D01*
X009896Y006780D02*
X006781Y006780D01*
X006794Y006878D02*
X009979Y006878D01*
X012355Y006878D02*
X012455Y006878D01*
X012455Y006780D02*
X012355Y006780D01*
X012355Y006681D02*
X012455Y006681D01*
X012455Y006583D02*
X012355Y006583D01*
X012355Y006977D02*
X012455Y006977D01*
X007001Y008040D02*
X007001Y008240D01*
X007001Y008040D02*
X006901Y007940D01*
X006401Y007940D01*
X005801Y007340D01*
X005801Y006540D01*
X005501Y006240D01*
X005001Y006240D01*
X004801Y006440D01*
X004101Y006440D01*
X003847Y006583D02*
X000751Y006583D01*
X000751Y006681D02*
X003934Y006681D01*
X003812Y006484D02*
X000751Y006484D01*
X000751Y006386D02*
X003812Y006386D01*
X003851Y006287D02*
X000751Y006287D01*
X000751Y006189D02*
X003952Y006189D01*
X004097Y006090D02*
X000751Y006090D01*
X000751Y005992D02*
X003998Y005992D01*
X003758Y005893D02*
X000751Y005893D01*
X000751Y005795D02*
X003652Y005795D01*
X003612Y005696D02*
X000751Y005696D01*
X000751Y005598D02*
X003612Y005598D01*
X003646Y005499D02*
X000751Y005499D01*
X000751Y005401D02*
X003731Y005401D01*
X004537Y005795D02*
X004643Y005751D01*
X004721Y005751D01*
X005081Y005598D02*
X005588Y005598D01*
X005491Y006484D02*
X005011Y006484D01*
X004912Y006583D02*
X005589Y006583D01*
X005621Y006681D02*
X004268Y006681D01*
X005621Y006780D02*
X000751Y006780D01*
X000751Y006878D02*
X005621Y006878D01*
X005621Y006977D02*
X000751Y006977D01*
X000751Y007075D02*
X005621Y007075D01*
X005621Y007174D02*
X000751Y007174D01*
X000751Y007272D02*
X005621Y007272D01*
X005621Y007371D02*
X000751Y007371D01*
X000751Y007469D02*
X005676Y007469D01*
X005774Y007568D02*
X000751Y007568D01*
X000751Y007666D02*
X005873Y007666D01*
X005971Y007765D02*
X002939Y007765D01*
X003074Y007863D02*
X006070Y007863D01*
X006168Y007962D02*
X003159Y007962D01*
X003200Y008060D02*
X006267Y008060D01*
X006722Y008159D02*
X003231Y008159D01*
X003231Y008257D02*
X006712Y008257D01*
X006736Y008356D02*
X003231Y008356D01*
X003231Y008454D02*
X006807Y008454D01*
X006531Y011508D02*
X003231Y011508D01*
X003231Y011606D02*
X006472Y011606D01*
X006446Y011705D02*
X003239Y011705D01*
X003272Y011803D02*
X006446Y011803D01*
X006484Y011902D02*
X003344Y011902D01*
X003529Y012000D02*
X006559Y012000D01*
X003097Y012985D02*
X000751Y012985D01*
X000751Y012887D02*
X002901Y012887D01*
X003049Y012973D02*
X003049Y012973D01*
X002730Y012788D02*
X000751Y012788D01*
X000751Y012690D02*
X002629Y012690D01*
X002723Y012784D02*
X002723Y012784D01*
X002530Y012591D02*
X000751Y012591D01*
X000751Y012493D02*
X002442Y012493D01*
X002457Y012518D02*
X002457Y012518D01*
X002385Y012394D02*
X000751Y012394D01*
X000751Y012296D02*
X002328Y012296D01*
X002272Y012197D02*
X000751Y012197D01*
X000751Y012099D02*
X002243Y012099D01*
X002268Y012192D02*
X002268Y012192D01*
X002217Y012000D02*
X000751Y012000D01*
X000751Y011902D02*
X002191Y011902D01*
X002171Y011803D02*
X000751Y011803D01*
X000751Y011705D02*
X002171Y011705D01*
X002171Y011606D02*
X000751Y011606D01*
X000751Y011508D02*
X002171Y011508D01*
X002171Y011409D02*
X000751Y011409D01*
X000751Y011311D02*
X002171Y011311D01*
X002171Y011212D02*
X000751Y011212D01*
X000751Y011114D02*
X002171Y011114D01*
X002171Y011015D02*
X000751Y011015D01*
X000751Y010917D02*
X002171Y010917D01*
X002171Y010818D02*
X000751Y010818D01*
X000751Y010720D02*
X002171Y010720D01*
X002171Y010621D02*
X000751Y010621D01*
X000751Y010523D02*
X002171Y010523D01*
X002171Y010424D02*
X000751Y010424D01*
X000751Y010326D02*
X002171Y010326D01*
X002171Y010227D02*
X000751Y010227D01*
X000751Y010129D02*
X002171Y010129D01*
X002171Y010030D02*
X000751Y010030D01*
X000751Y009932D02*
X002171Y009932D01*
X002171Y009833D02*
X000751Y009833D01*
X000751Y009735D02*
X002171Y009735D01*
X002171Y009636D02*
X000751Y009636D01*
X000751Y009538D02*
X002171Y009538D01*
X002171Y009439D02*
X000751Y009439D01*
X000751Y009341D02*
X002171Y009341D01*
X002171Y009242D02*
X000751Y009242D01*
X000751Y009144D02*
X002171Y009144D01*
X002171Y009045D02*
X000751Y009045D01*
X000751Y008947D02*
X002171Y008947D01*
X002171Y008848D02*
X000751Y008848D01*
X000751Y008750D02*
X002171Y008750D01*
X002171Y008651D02*
X000751Y008651D01*
X000751Y008553D02*
X002171Y008553D01*
X002171Y008454D02*
X000751Y008454D01*
X000751Y008356D02*
X002171Y008356D01*
X002171Y008257D02*
X000751Y008257D01*
X000751Y008159D02*
X002171Y008159D01*
X002202Y008060D02*
X000751Y008060D01*
X000751Y007962D02*
X002242Y007962D01*
X002328Y007863D02*
X000751Y007863D01*
X000751Y007765D02*
X002463Y007765D01*
X000751Y003529D02*
X005162Y003529D01*
X005121Y003431D02*
X000751Y003431D01*
X000751Y003332D02*
X005111Y003332D01*
X005127Y003234D02*
X000752Y003234D01*
X000779Y003135D02*
X005176Y003135D01*
X005299Y003037D02*
X000857Y003037D01*
X000751Y015645D02*
X005087Y015645D01*
X005028Y015743D02*
X000751Y015743D01*
X000751Y015842D02*
X005012Y015842D01*
X005030Y015940D02*
X000751Y015940D01*
X000751Y016039D02*
X005091Y016039D01*
X005301Y016137D02*
X000751Y016137D01*
X000751Y016236D02*
X005400Y016236D01*
X005421Y016334D02*
X000751Y016334D01*
X000751Y016433D02*
X005421Y016433D01*
X005494Y016531D02*
X000751Y016531D01*
X016181Y020669D02*
X016275Y020669D01*
X016312Y020767D02*
X016181Y020767D01*
X016181Y020866D02*
X016340Y020866D01*
X016416Y020964D02*
X016181Y020964D01*
X016489Y020373D02*
X016679Y020373D01*
X016581Y020275D02*
X016390Y020275D01*
X016381Y020176D02*
X016482Y020176D01*
X016384Y020078D02*
X016381Y020078D01*
X016344Y022540D02*
X016546Y022540D01*
X016546Y022639D02*
X016410Y022639D01*
X016451Y022737D02*
X016546Y022737D01*
X016546Y022836D02*
X016456Y022836D01*
X016454Y022934D02*
X016546Y022934D01*
X016546Y023033D02*
X016414Y023033D01*
X016353Y023131D02*
X016546Y023131D01*
X016557Y023230D02*
X016249Y023230D01*
X021145Y020176D02*
X021657Y020176D01*
X021558Y020275D02*
X021244Y020275D01*
X022001Y020964D02*
X022221Y020964D01*
X022221Y020866D02*
X022184Y020866D01*
X022581Y020866D02*
X022618Y020866D01*
X022581Y020964D02*
X022801Y020964D01*
X023901Y018540D02*
X024401Y018540D01*
X024091Y018206D02*
X023881Y018206D01*
X023881Y018107D02*
X024256Y018107D01*
X024006Y018304D02*
X023920Y018304D01*
X019401Y015240D02*
X019201Y015440D01*
X018201Y015440D01*
X017801Y015840D01*
X017801Y016040D01*
D25*
X017301Y012540D02*
X008001Y012540D01*
X003601Y012540D01*
X003542Y012538D01*
X003484Y012532D01*
X003425Y012523D01*
X003368Y012509D01*
X003312Y012492D01*
X003257Y012471D01*
X003203Y012447D01*
X003151Y012419D01*
X003101Y012388D01*
X003053Y012354D01*
X003008Y012317D01*
X002965Y012276D01*
X002924Y012233D01*
X002887Y012188D01*
X002853Y012140D01*
X002822Y012090D01*
X002794Y012038D01*
X002770Y011984D01*
X002749Y011929D01*
X002732Y011873D01*
X002718Y011816D01*
X002709Y011757D01*
X002703Y011699D01*
X002701Y011640D01*
X002701Y008240D01*
X017301Y012540D02*
X018701Y011140D01*
D26*
X008001Y010940D02*
X008001Y012540D01*
X007401Y011740D02*
X006801Y011740D01*
X005301Y015840D02*
X005511Y016050D01*
X006063Y016050D01*
X005001Y019640D02*
X005269Y019908D01*
X006063Y019908D01*
D27*
X010301Y020568D02*
X010329Y020540D01*
X012101Y020540D01*
X012901Y021340D01*
X013201Y021340D01*
M02*
