G75*
%MOIN*%
%OFA0B0*%
%FSLAX24Y24*%
%IPPOS*%
%LPD*%
%AMOC8*
5,1,8,0,0,1.08239X$1,22.5*
%
%ADD10C,0.0000*%
%ADD11C,0.0190*%
%ADD12C,0.0240*%
%ADD13C,0.0107*%
%ADD14R,0.0630X0.1180*%
%ADD15C,0.0120*%
%ADD16R,0.1280X0.1080*%
%ADD17R,0.1330X0.1080*%
%ADD18R,0.0930X0.1160*%
%ADD19C,0.0095*%
%ADD20R,0.0482X0.0552*%
%ADD21R,0.0552X0.0482*%
%ADD22C,0.0671*%
%ADD23OC8,0.0680*%
%ADD24C,0.0680*%
%ADD25R,0.0631X0.1064*%
%ADD26C,0.0532*%
%ADD27R,0.0730X0.0730*%
%ADD28C,0.0730*%
%ADD29R,0.0680X0.0680*%
%ADD30R,0.0710X0.0540*%
%ADD31R,0.1064X0.1340*%
%ADD32R,0.1080X0.0580*%
%ADD33C,0.1000*%
%ADD34R,0.0530X0.0680*%
%ADD35R,0.0780X0.0480*%
%ADD36C,0.0454*%
%ADD37R,0.0480X0.0530*%
%ADD38R,0.0530X0.0480*%
%ADD39R,0.0380X0.0280*%
%ADD40C,0.0530*%
%ADD41R,0.0330X0.0680*%
%ADD42R,0.0840X0.0340*%
%ADD43R,0.0340X0.0840*%
%ADD44C,0.1340*%
%ADD45C,0.0986*%
%ADD46C,0.0398*%
D10*
X001001Y002840D02*
X026601Y002840D01*
X026601Y003840D01*
X027601Y004840D01*
X027601Y017740D01*
X026601Y018740D01*
X026601Y023240D01*
X026001Y023840D01*
X001001Y023840D01*
X000962Y023838D01*
X000923Y023832D01*
X000885Y023823D01*
X000848Y023810D01*
X000812Y023793D01*
X000779Y023773D01*
X000747Y023749D01*
X000718Y023723D01*
X000692Y023694D01*
X000668Y023662D01*
X000648Y023629D01*
X000631Y023593D01*
X000618Y023556D01*
X000609Y023518D01*
X000603Y023479D01*
X000601Y023440D01*
X000601Y003240D01*
X000603Y003201D01*
X000609Y003162D01*
X000618Y003124D01*
X000631Y003087D01*
X000648Y003051D01*
X000668Y003018D01*
X000692Y002986D01*
X000718Y002957D01*
X000747Y002931D01*
X000779Y002907D01*
X000812Y002887D01*
X000848Y002870D01*
X000885Y002857D01*
X000923Y002848D01*
X000962Y002842D01*
X001001Y002840D01*
X005261Y003340D02*
X005263Y003367D01*
X005269Y003393D01*
X005278Y003418D01*
X005291Y003441D01*
X005307Y003462D01*
X005326Y003481D01*
X005347Y003497D01*
X005370Y003510D01*
X005395Y003519D01*
X005421Y003525D01*
X005448Y003527D01*
X005475Y003525D01*
X005501Y003519D01*
X005526Y003510D01*
X005549Y003497D01*
X005570Y003481D01*
X005589Y003462D01*
X005605Y003441D01*
X005618Y003418D01*
X005627Y003393D01*
X005633Y003367D01*
X005635Y003340D01*
X005633Y003313D01*
X005627Y003287D01*
X005618Y003262D01*
X005605Y003239D01*
X005589Y003218D01*
X005570Y003199D01*
X005549Y003183D01*
X005526Y003170D01*
X005501Y003161D01*
X005475Y003155D01*
X005448Y003153D01*
X005421Y003155D01*
X005395Y003161D01*
X005370Y003170D01*
X005347Y003183D01*
X005326Y003199D01*
X005307Y003218D01*
X005291Y003239D01*
X005278Y003262D01*
X005269Y003287D01*
X005263Y003313D01*
X005261Y003340D01*
X006167Y003340D02*
X006169Y003367D01*
X006175Y003393D01*
X006184Y003418D01*
X006197Y003441D01*
X006213Y003462D01*
X006232Y003481D01*
X006253Y003497D01*
X006276Y003510D01*
X006301Y003519D01*
X006327Y003525D01*
X006354Y003527D01*
X006381Y003525D01*
X006407Y003519D01*
X006432Y003510D01*
X006455Y003497D01*
X006476Y003481D01*
X006495Y003462D01*
X006511Y003441D01*
X006524Y003418D01*
X006533Y003393D01*
X006539Y003367D01*
X006541Y003340D01*
X006539Y003313D01*
X006533Y003287D01*
X006524Y003262D01*
X006511Y003239D01*
X006495Y003218D01*
X006476Y003199D01*
X006455Y003183D01*
X006432Y003170D01*
X006407Y003161D01*
X006381Y003155D01*
X006354Y003153D01*
X006327Y003155D01*
X006301Y003161D01*
X006276Y003170D01*
X006253Y003183D01*
X006232Y003199D01*
X006213Y003218D01*
X006197Y003239D01*
X006184Y003262D01*
X006175Y003287D01*
X006169Y003313D01*
X006167Y003340D01*
X010006Y015883D02*
X010008Y015917D01*
X010014Y015951D01*
X010024Y015984D01*
X010037Y016015D01*
X010055Y016045D01*
X010075Y016073D01*
X010099Y016098D01*
X010125Y016120D01*
X010153Y016138D01*
X010184Y016154D01*
X010216Y016166D01*
X010250Y016174D01*
X010284Y016178D01*
X010318Y016178D01*
X010352Y016174D01*
X010386Y016166D01*
X010418Y016154D01*
X010448Y016138D01*
X010477Y016120D01*
X010503Y016098D01*
X010527Y016073D01*
X010547Y016045D01*
X010565Y016015D01*
X010578Y015984D01*
X010588Y015951D01*
X010594Y015917D01*
X010596Y015883D01*
X010594Y015849D01*
X010588Y015815D01*
X010578Y015782D01*
X010565Y015751D01*
X010547Y015721D01*
X010527Y015693D01*
X010503Y015668D01*
X010477Y015646D01*
X010449Y015628D01*
X010418Y015612D01*
X010386Y015600D01*
X010352Y015592D01*
X010318Y015588D01*
X010284Y015588D01*
X010250Y015592D01*
X010216Y015600D01*
X010184Y015612D01*
X010153Y015628D01*
X010125Y015646D01*
X010099Y015668D01*
X010075Y015693D01*
X010055Y015721D01*
X010037Y015751D01*
X010024Y015782D01*
X010014Y015815D01*
X010008Y015849D01*
X010006Y015883D01*
X010006Y018797D02*
X010008Y018831D01*
X010014Y018865D01*
X010024Y018898D01*
X010037Y018929D01*
X010055Y018959D01*
X010075Y018987D01*
X010099Y019012D01*
X010125Y019034D01*
X010153Y019052D01*
X010184Y019068D01*
X010216Y019080D01*
X010250Y019088D01*
X010284Y019092D01*
X010318Y019092D01*
X010352Y019088D01*
X010386Y019080D01*
X010418Y019068D01*
X010448Y019052D01*
X010477Y019034D01*
X010503Y019012D01*
X010527Y018987D01*
X010547Y018959D01*
X010565Y018929D01*
X010578Y018898D01*
X010588Y018865D01*
X010594Y018831D01*
X010596Y018797D01*
X010594Y018763D01*
X010588Y018729D01*
X010578Y018696D01*
X010565Y018665D01*
X010547Y018635D01*
X010527Y018607D01*
X010503Y018582D01*
X010477Y018560D01*
X010449Y018542D01*
X010418Y018526D01*
X010386Y018514D01*
X010352Y018506D01*
X010318Y018502D01*
X010284Y018502D01*
X010250Y018506D01*
X010216Y018514D01*
X010184Y018526D01*
X010153Y018542D01*
X010125Y018560D01*
X010099Y018582D01*
X010075Y018607D01*
X010055Y018635D01*
X010037Y018665D01*
X010024Y018696D01*
X010014Y018729D01*
X010008Y018763D01*
X010006Y018797D01*
X005971Y022840D02*
X005973Y022890D01*
X005979Y022940D01*
X005989Y022989D01*
X006003Y023037D01*
X006020Y023084D01*
X006041Y023129D01*
X006066Y023173D01*
X006094Y023214D01*
X006126Y023253D01*
X006160Y023290D01*
X006197Y023324D01*
X006237Y023354D01*
X006279Y023381D01*
X006323Y023405D01*
X006369Y023426D01*
X006416Y023442D01*
X006464Y023455D01*
X006514Y023464D01*
X006563Y023469D01*
X006614Y023470D01*
X006664Y023467D01*
X006713Y023460D01*
X006762Y023449D01*
X006810Y023434D01*
X006856Y023416D01*
X006901Y023394D01*
X006944Y023368D01*
X006985Y023339D01*
X007024Y023307D01*
X007060Y023272D01*
X007092Y023234D01*
X007122Y023194D01*
X007149Y023151D01*
X007172Y023107D01*
X007191Y023061D01*
X007207Y023013D01*
X007219Y022964D01*
X007227Y022915D01*
X007231Y022865D01*
X007231Y022815D01*
X007227Y022765D01*
X007219Y022716D01*
X007207Y022667D01*
X007191Y022619D01*
X007172Y022573D01*
X007149Y022529D01*
X007122Y022486D01*
X007092Y022446D01*
X007060Y022408D01*
X007024Y022373D01*
X006985Y022341D01*
X006944Y022312D01*
X006901Y022286D01*
X006856Y022264D01*
X006810Y022246D01*
X006762Y022231D01*
X006713Y022220D01*
X006664Y022213D01*
X006614Y022210D01*
X006563Y022211D01*
X006514Y022216D01*
X006464Y022225D01*
X006416Y022238D01*
X006369Y022254D01*
X006323Y022275D01*
X006279Y022299D01*
X006237Y022326D01*
X006197Y022356D01*
X006160Y022390D01*
X006126Y022427D01*
X006094Y022466D01*
X006066Y022507D01*
X006041Y022551D01*
X006020Y022596D01*
X006003Y022643D01*
X005989Y022691D01*
X005979Y022740D01*
X005973Y022790D01*
X005971Y022840D01*
X004036Y018040D02*
X004038Y018069D01*
X004044Y018098D01*
X004053Y018126D01*
X004066Y018153D01*
X004083Y018178D01*
X004102Y018200D01*
X004124Y018219D01*
X004149Y018236D01*
X004176Y018249D01*
X004204Y018258D01*
X004233Y018264D01*
X004262Y018266D01*
X004291Y018264D01*
X004320Y018258D01*
X004348Y018249D01*
X004375Y018236D01*
X004400Y018219D01*
X004422Y018200D01*
X004441Y018178D01*
X004458Y018153D01*
X004471Y018126D01*
X004480Y018098D01*
X004486Y018069D01*
X004488Y018040D01*
X004486Y018011D01*
X004480Y017982D01*
X004471Y017954D01*
X004458Y017927D01*
X004441Y017902D01*
X004422Y017880D01*
X004400Y017861D01*
X004375Y017844D01*
X004348Y017831D01*
X004320Y017822D01*
X004291Y017816D01*
X004262Y017814D01*
X004233Y017816D01*
X004204Y017822D01*
X004176Y017831D01*
X004149Y017844D01*
X004124Y017861D01*
X004102Y017880D01*
X004083Y017902D01*
X004066Y017927D01*
X004053Y017954D01*
X004044Y017982D01*
X004038Y018011D01*
X004036Y018040D01*
X001280Y018040D02*
X001282Y018069D01*
X001288Y018098D01*
X001297Y018126D01*
X001310Y018153D01*
X001327Y018178D01*
X001346Y018200D01*
X001368Y018219D01*
X001393Y018236D01*
X001420Y018249D01*
X001448Y018258D01*
X001477Y018264D01*
X001506Y018266D01*
X001535Y018264D01*
X001564Y018258D01*
X001592Y018249D01*
X001619Y018236D01*
X001644Y018219D01*
X001666Y018200D01*
X001685Y018178D01*
X001702Y018153D01*
X001715Y018126D01*
X001724Y018098D01*
X001730Y018069D01*
X001732Y018040D01*
X001730Y018011D01*
X001724Y017982D01*
X001715Y017954D01*
X001702Y017927D01*
X001685Y017902D01*
X001666Y017880D01*
X001644Y017861D01*
X001619Y017844D01*
X001592Y017831D01*
X001564Y017822D01*
X001535Y017816D01*
X001506Y017814D01*
X001477Y017816D01*
X001448Y017822D01*
X001420Y017831D01*
X001393Y017844D01*
X001368Y017861D01*
X001346Y017880D01*
X001327Y017902D01*
X001310Y017927D01*
X001297Y017954D01*
X001288Y017982D01*
X001282Y018011D01*
X001280Y018040D01*
X025971Y016840D02*
X025973Y016890D01*
X025979Y016940D01*
X025989Y016989D01*
X026003Y017037D01*
X026020Y017084D01*
X026041Y017129D01*
X026066Y017173D01*
X026094Y017214D01*
X026126Y017253D01*
X026160Y017290D01*
X026197Y017324D01*
X026237Y017354D01*
X026279Y017381D01*
X026323Y017405D01*
X026369Y017426D01*
X026416Y017442D01*
X026464Y017455D01*
X026514Y017464D01*
X026563Y017469D01*
X026614Y017470D01*
X026664Y017467D01*
X026713Y017460D01*
X026762Y017449D01*
X026810Y017434D01*
X026856Y017416D01*
X026901Y017394D01*
X026944Y017368D01*
X026985Y017339D01*
X027024Y017307D01*
X027060Y017272D01*
X027092Y017234D01*
X027122Y017194D01*
X027149Y017151D01*
X027172Y017107D01*
X027191Y017061D01*
X027207Y017013D01*
X027219Y016964D01*
X027227Y016915D01*
X027231Y016865D01*
X027231Y016815D01*
X027227Y016765D01*
X027219Y016716D01*
X027207Y016667D01*
X027191Y016619D01*
X027172Y016573D01*
X027149Y016529D01*
X027122Y016486D01*
X027092Y016446D01*
X027060Y016408D01*
X027024Y016373D01*
X026985Y016341D01*
X026944Y016312D01*
X026901Y016286D01*
X026856Y016264D01*
X026810Y016246D01*
X026762Y016231D01*
X026713Y016220D01*
X026664Y016213D01*
X026614Y016210D01*
X026563Y016211D01*
X026514Y016216D01*
X026464Y016225D01*
X026416Y016238D01*
X026369Y016254D01*
X026323Y016275D01*
X026279Y016299D01*
X026237Y016326D01*
X026197Y016356D01*
X026160Y016390D01*
X026126Y016427D01*
X026094Y016466D01*
X026066Y016507D01*
X026041Y016551D01*
X026020Y016596D01*
X026003Y016643D01*
X025989Y016691D01*
X025979Y016740D01*
X025973Y016790D01*
X025971Y016840D01*
X025971Y005840D02*
X025973Y005890D01*
X025979Y005940D01*
X025989Y005989D01*
X026003Y006037D01*
X026020Y006084D01*
X026041Y006129D01*
X026066Y006173D01*
X026094Y006214D01*
X026126Y006253D01*
X026160Y006290D01*
X026197Y006324D01*
X026237Y006354D01*
X026279Y006381D01*
X026323Y006405D01*
X026369Y006426D01*
X026416Y006442D01*
X026464Y006455D01*
X026514Y006464D01*
X026563Y006469D01*
X026614Y006470D01*
X026664Y006467D01*
X026713Y006460D01*
X026762Y006449D01*
X026810Y006434D01*
X026856Y006416D01*
X026901Y006394D01*
X026944Y006368D01*
X026985Y006339D01*
X027024Y006307D01*
X027060Y006272D01*
X027092Y006234D01*
X027122Y006194D01*
X027149Y006151D01*
X027172Y006107D01*
X027191Y006061D01*
X027207Y006013D01*
X027219Y005964D01*
X027227Y005915D01*
X027231Y005865D01*
X027231Y005815D01*
X027227Y005765D01*
X027219Y005716D01*
X027207Y005667D01*
X027191Y005619D01*
X027172Y005573D01*
X027149Y005529D01*
X027122Y005486D01*
X027092Y005446D01*
X027060Y005408D01*
X027024Y005373D01*
X026985Y005341D01*
X026944Y005312D01*
X026901Y005286D01*
X026856Y005264D01*
X026810Y005246D01*
X026762Y005231D01*
X026713Y005220D01*
X026664Y005213D01*
X026614Y005210D01*
X026563Y005211D01*
X026514Y005216D01*
X026464Y005225D01*
X026416Y005238D01*
X026369Y005254D01*
X026323Y005275D01*
X026279Y005299D01*
X026237Y005326D01*
X026197Y005356D01*
X026160Y005390D01*
X026126Y005427D01*
X026094Y005466D01*
X026066Y005507D01*
X026041Y005551D01*
X026020Y005596D01*
X026003Y005643D01*
X025989Y005691D01*
X025979Y005740D01*
X025973Y005790D01*
X025971Y005840D01*
D11*
X014696Y006195D02*
X013906Y006195D01*
X013906Y006385D01*
X014696Y006385D01*
X014696Y006195D01*
X014696Y006384D02*
X013906Y006384D01*
X013906Y007295D02*
X014696Y007295D01*
X013906Y007295D02*
X013906Y007485D01*
X014696Y007485D01*
X014696Y007295D01*
X014696Y007484D02*
X013906Y007484D01*
D12*
X013821Y006960D02*
X013581Y006960D01*
X013821Y006960D02*
X013821Y006720D01*
X013581Y006720D01*
X013581Y006960D01*
X013581Y006959D02*
X013821Y006959D01*
X014781Y006960D02*
X015021Y006960D01*
X015021Y006720D01*
X014781Y006720D01*
X014781Y006960D01*
X014781Y006959D02*
X015021Y006959D01*
D13*
X014662Y008301D02*
X014340Y008301D01*
X014662Y008301D02*
X014662Y007979D01*
X014340Y007979D01*
X014340Y008301D01*
X014340Y008086D02*
X014662Y008086D01*
X014662Y008193D02*
X014340Y008193D01*
X014340Y008300D02*
X014662Y008300D01*
X014762Y009001D02*
X014440Y009001D01*
X014762Y009001D02*
X014762Y008679D01*
X014440Y008679D01*
X014440Y009001D01*
X014440Y008786D02*
X014762Y008786D01*
X014762Y008893D02*
X014440Y008893D01*
X014440Y009000D02*
X014762Y009000D01*
X015040Y009001D02*
X015362Y009001D01*
X015362Y008679D01*
X015040Y008679D01*
X015040Y009001D01*
X015040Y008786D02*
X015362Y008786D01*
X015362Y008893D02*
X015040Y008893D01*
X015040Y009000D02*
X015362Y009000D01*
X015362Y009701D02*
X015040Y009701D01*
X015362Y009701D02*
X015362Y009379D01*
X015040Y009379D01*
X015040Y009701D01*
X015040Y009486D02*
X015362Y009486D01*
X015362Y009593D02*
X015040Y009593D01*
X015040Y009700D02*
X015362Y009700D01*
X014762Y009701D02*
X014440Y009701D01*
X014762Y009701D02*
X014762Y009379D01*
X014440Y009379D01*
X014440Y009701D01*
X014440Y009486D02*
X014762Y009486D01*
X014762Y009593D02*
X014440Y009593D01*
X014440Y009700D02*
X014762Y009700D01*
X014062Y009701D02*
X014062Y009379D01*
X013740Y009379D01*
X013740Y009701D01*
X014062Y009701D01*
X014062Y009486D02*
X013740Y009486D01*
X013740Y009593D02*
X014062Y009593D01*
X014062Y009700D02*
X013740Y009700D01*
X014062Y009101D02*
X014062Y008779D01*
X013740Y008779D01*
X013740Y009101D01*
X014062Y009101D01*
X014062Y008886D02*
X013740Y008886D01*
X013740Y008993D02*
X014062Y008993D01*
X014062Y009100D02*
X013740Y009100D01*
X013740Y008301D02*
X014062Y008301D01*
X014062Y007979D01*
X013740Y007979D01*
X013740Y008301D01*
X013740Y008086D02*
X014062Y008086D01*
X014062Y008193D02*
X013740Y008193D01*
X013740Y008300D02*
X014062Y008300D01*
X011862Y008279D02*
X011862Y008601D01*
X011862Y008279D02*
X011540Y008279D01*
X011540Y008601D01*
X011862Y008601D01*
X011862Y008386D02*
X011540Y008386D01*
X011540Y008493D02*
X011862Y008493D01*
X011862Y008600D02*
X011540Y008600D01*
X011862Y008879D02*
X011862Y009201D01*
X011862Y008879D02*
X011540Y008879D01*
X011540Y009201D01*
X011862Y009201D01*
X011862Y008986D02*
X011540Y008986D01*
X011540Y009093D02*
X011862Y009093D01*
X011862Y009200D02*
X011540Y009200D01*
X011162Y009201D02*
X011162Y008879D01*
X010840Y008879D01*
X010840Y009201D01*
X011162Y009201D01*
X011162Y008986D02*
X010840Y008986D01*
X010840Y009093D02*
X011162Y009093D01*
X011162Y009200D02*
X010840Y009200D01*
X011162Y008601D02*
X011162Y008279D01*
X010840Y008279D01*
X010840Y008601D01*
X011162Y008601D01*
X011162Y008386D02*
X010840Y008386D01*
X010840Y008493D02*
X011162Y008493D01*
X011162Y008600D02*
X010840Y008600D01*
X008340Y005601D02*
X008340Y005279D01*
X008340Y005601D02*
X008662Y005601D01*
X008662Y005279D01*
X008340Y005279D01*
X008340Y005386D02*
X008662Y005386D01*
X008662Y005493D02*
X008340Y005493D01*
X008340Y005600D02*
X008662Y005600D01*
X008340Y005001D02*
X008340Y004679D01*
X008340Y005001D02*
X008662Y005001D01*
X008662Y004679D01*
X008340Y004679D01*
X008340Y004786D02*
X008662Y004786D01*
X008662Y004893D02*
X008340Y004893D01*
X008340Y005000D02*
X008662Y005000D01*
X006840Y005001D02*
X006840Y004679D01*
X006840Y005001D02*
X007162Y005001D01*
X007162Y004679D01*
X006840Y004679D01*
X006840Y004786D02*
X007162Y004786D01*
X007162Y004893D02*
X006840Y004893D01*
X006840Y005000D02*
X007162Y005000D01*
X006840Y005279D02*
X006840Y005601D01*
X007162Y005601D01*
X007162Y005279D01*
X006840Y005279D01*
X006840Y005386D02*
X007162Y005386D01*
X007162Y005493D02*
X006840Y005493D01*
X006840Y005600D02*
X007162Y005600D01*
X006562Y005601D02*
X006562Y005279D01*
X006240Y005279D01*
X006240Y005601D01*
X006562Y005601D01*
X006562Y005386D02*
X006240Y005386D01*
X006240Y005493D02*
X006562Y005493D01*
X006562Y005600D02*
X006240Y005600D01*
X006562Y005001D02*
X006562Y004679D01*
X006240Y004679D01*
X006240Y005001D01*
X006562Y005001D01*
X006562Y004786D02*
X006240Y004786D01*
X006240Y004893D02*
X006562Y004893D01*
X006562Y005000D02*
X006240Y005000D01*
X003740Y005001D02*
X003740Y004679D01*
X003740Y005001D02*
X004062Y005001D01*
X004062Y004679D01*
X003740Y004679D01*
X003740Y004786D02*
X004062Y004786D01*
X004062Y004893D02*
X003740Y004893D01*
X003740Y005000D02*
X004062Y005000D01*
X003740Y005279D02*
X003740Y005601D01*
X004062Y005601D01*
X004062Y005279D01*
X003740Y005279D01*
X003740Y005386D02*
X004062Y005386D01*
X004062Y005493D02*
X003740Y005493D01*
X003740Y005600D02*
X004062Y005600D01*
X003462Y005601D02*
X003462Y005279D01*
X003140Y005279D01*
X003140Y005601D01*
X003462Y005601D01*
X003462Y005386D02*
X003140Y005386D01*
X003140Y005493D02*
X003462Y005493D01*
X003462Y005600D02*
X003140Y005600D01*
X003462Y005001D02*
X003462Y004679D01*
X003140Y004679D01*
X003140Y005001D01*
X003462Y005001D01*
X003462Y004786D02*
X003140Y004786D01*
X003140Y004893D02*
X003462Y004893D01*
X003462Y005000D02*
X003140Y005000D01*
X003662Y004201D02*
X003662Y003879D01*
X003340Y003879D01*
X003340Y004201D01*
X003662Y004201D01*
X003662Y003986D02*
X003340Y003986D01*
X003340Y004093D02*
X003662Y004093D01*
X003662Y004200D02*
X003340Y004200D01*
X003662Y003601D02*
X003662Y003279D01*
X003340Y003279D01*
X003340Y003601D01*
X003662Y003601D01*
X003662Y003386D02*
X003340Y003386D01*
X003340Y003493D02*
X003662Y003493D01*
X003662Y003600D02*
X003340Y003600D01*
X001862Y003601D02*
X001862Y003279D01*
X001540Y003279D01*
X001540Y003601D01*
X001862Y003601D01*
X001862Y003386D02*
X001540Y003386D01*
X001540Y003493D02*
X001862Y003493D01*
X001862Y003600D02*
X001540Y003600D01*
X001862Y003879D02*
X001862Y004201D01*
X001862Y003879D02*
X001540Y003879D01*
X001540Y004201D01*
X001862Y004201D01*
X001862Y003986D02*
X001540Y003986D01*
X001540Y004093D02*
X001862Y004093D01*
X001862Y004200D02*
X001540Y004200D01*
X001840Y010479D02*
X002162Y010479D01*
X001840Y010479D02*
X001840Y010801D01*
X002162Y010801D01*
X002162Y010479D01*
X002162Y010586D02*
X001840Y010586D01*
X001840Y010693D02*
X002162Y010693D01*
X002162Y010800D02*
X001840Y010800D01*
X001840Y011179D02*
X002162Y011179D01*
X001840Y011179D02*
X001840Y011501D01*
X002162Y011501D01*
X002162Y011179D01*
X002162Y011286D02*
X001840Y011286D01*
X001840Y011393D02*
X002162Y011393D01*
X002162Y011500D02*
X001840Y011500D01*
X002440Y011179D02*
X002762Y011179D01*
X002440Y011179D02*
X002440Y011501D01*
X002762Y011501D01*
X002762Y011179D01*
X002762Y011286D02*
X002440Y011286D01*
X002440Y011393D02*
X002762Y011393D01*
X002762Y011500D02*
X002440Y011500D01*
X002440Y010479D02*
X002762Y010479D01*
X002440Y010479D02*
X002440Y010801D01*
X002762Y010801D01*
X002762Y010479D01*
X002762Y010586D02*
X002440Y010586D01*
X002440Y010693D02*
X002762Y010693D01*
X002762Y010800D02*
X002440Y010800D01*
X006040Y011401D02*
X006362Y011401D01*
X006362Y011079D01*
X006040Y011079D01*
X006040Y011401D01*
X006040Y011186D02*
X006362Y011186D01*
X006362Y011293D02*
X006040Y011293D01*
X006040Y011400D02*
X006362Y011400D01*
X006640Y011401D02*
X006962Y011401D01*
X006962Y011079D01*
X006640Y011079D01*
X006640Y011401D01*
X006640Y011186D02*
X006962Y011186D01*
X006962Y011293D02*
X006640Y011293D01*
X006640Y011400D02*
X006962Y011400D01*
X006962Y011779D02*
X006640Y011779D01*
X006640Y012101D01*
X006962Y012101D01*
X006962Y011779D01*
X006962Y011886D02*
X006640Y011886D01*
X006640Y011993D02*
X006962Y011993D01*
X006962Y012100D02*
X006640Y012100D01*
X006362Y011779D02*
X006040Y011779D01*
X006040Y012101D01*
X006362Y012101D01*
X006362Y011779D01*
X006362Y011886D02*
X006040Y011886D01*
X006040Y011993D02*
X006362Y011993D01*
X006362Y012100D02*
X006040Y012100D01*
X006040Y012479D02*
X006362Y012479D01*
X006040Y012479D02*
X006040Y012801D01*
X006362Y012801D01*
X006362Y012479D01*
X006362Y012586D02*
X006040Y012586D01*
X006040Y012693D02*
X006362Y012693D01*
X006362Y012800D02*
X006040Y012800D01*
X006640Y012479D02*
X006962Y012479D01*
X006640Y012479D02*
X006640Y012801D01*
X006962Y012801D01*
X006962Y012479D01*
X006962Y012586D02*
X006640Y012586D01*
X006640Y012693D02*
X006962Y012693D01*
X006962Y012800D02*
X006640Y012800D01*
X006240Y014579D02*
X006240Y014901D01*
X006562Y014901D01*
X006562Y014579D01*
X006240Y014579D01*
X006240Y014686D02*
X006562Y014686D01*
X006562Y014793D02*
X006240Y014793D01*
X006240Y014900D02*
X006562Y014900D01*
X006240Y015179D02*
X006240Y015501D01*
X006562Y015501D01*
X006562Y015179D01*
X006240Y015179D01*
X006240Y015286D02*
X006562Y015286D01*
X006562Y015393D02*
X006240Y015393D01*
X006240Y015500D02*
X006562Y015500D01*
X006940Y015501D02*
X006940Y015179D01*
X006940Y015501D02*
X007262Y015501D01*
X007262Y015179D01*
X006940Y015179D01*
X006940Y015286D02*
X007262Y015286D01*
X007262Y015393D02*
X006940Y015393D01*
X006940Y015500D02*
X007262Y015500D01*
X007640Y015501D02*
X007640Y015179D01*
X007640Y015501D02*
X007962Y015501D01*
X007962Y015179D01*
X007640Y015179D01*
X007640Y015286D02*
X007962Y015286D01*
X007962Y015393D02*
X007640Y015393D01*
X007640Y015500D02*
X007962Y015500D01*
X007640Y014901D02*
X007640Y014579D01*
X007640Y014901D02*
X007962Y014901D01*
X007962Y014579D01*
X007640Y014579D01*
X007640Y014686D02*
X007962Y014686D01*
X007962Y014793D02*
X007640Y014793D01*
X007640Y014900D02*
X007962Y014900D01*
X006940Y014901D02*
X006940Y014579D01*
X006940Y014901D02*
X007262Y014901D01*
X007262Y014579D01*
X006940Y014579D01*
X006940Y014686D02*
X007262Y014686D01*
X007262Y014793D02*
X006940Y014793D01*
X006940Y014900D02*
X007262Y014900D01*
X005862Y014901D02*
X005862Y014579D01*
X005540Y014579D01*
X005540Y014901D01*
X005862Y014901D01*
X005862Y014686D02*
X005540Y014686D01*
X005540Y014793D02*
X005862Y014793D01*
X005862Y014900D02*
X005540Y014900D01*
X005862Y015179D02*
X005862Y015501D01*
X005862Y015179D02*
X005540Y015179D01*
X005540Y015501D01*
X005862Y015501D01*
X005862Y015286D02*
X005540Y015286D01*
X005540Y015393D02*
X005862Y015393D01*
X005862Y015500D02*
X005540Y015500D01*
X006240Y016379D02*
X006240Y016701D01*
X006562Y016701D01*
X006562Y016379D01*
X006240Y016379D01*
X006240Y016486D02*
X006562Y016486D01*
X006562Y016593D02*
X006240Y016593D01*
X006240Y016700D02*
X006562Y016700D01*
X006240Y016979D02*
X006240Y017301D01*
X006562Y017301D01*
X006562Y016979D01*
X006240Y016979D01*
X006240Y017086D02*
X006562Y017086D01*
X006562Y017193D02*
X006240Y017193D01*
X006240Y017300D02*
X006562Y017300D01*
X007262Y017301D02*
X007262Y016979D01*
X006940Y016979D01*
X006940Y017301D01*
X007262Y017301D01*
X007262Y017086D02*
X006940Y017086D01*
X006940Y017193D02*
X007262Y017193D01*
X007262Y017300D02*
X006940Y017300D01*
X007262Y017679D02*
X007262Y018001D01*
X007262Y017679D02*
X006940Y017679D01*
X006940Y018001D01*
X007262Y018001D01*
X007262Y017786D02*
X006940Y017786D01*
X006940Y017893D02*
X007262Y017893D01*
X007262Y018000D02*
X006940Y018000D01*
X007262Y018279D02*
X007262Y018601D01*
X007262Y018279D02*
X006940Y018279D01*
X006940Y018601D01*
X007262Y018601D01*
X007262Y018386D02*
X006940Y018386D01*
X006940Y018493D02*
X007262Y018493D01*
X007262Y018600D02*
X006940Y018600D01*
X007262Y018979D02*
X007262Y019301D01*
X007262Y018979D02*
X006940Y018979D01*
X006940Y019301D01*
X007262Y019301D01*
X007262Y019086D02*
X006940Y019086D01*
X006940Y019193D02*
X007262Y019193D01*
X007262Y019300D02*
X006940Y019300D01*
X007262Y019579D02*
X007262Y019901D01*
X007262Y019579D02*
X006940Y019579D01*
X006940Y019901D01*
X007262Y019901D01*
X007262Y019686D02*
X006940Y019686D01*
X006940Y019793D02*
X007262Y019793D01*
X007262Y019900D02*
X006940Y019900D01*
X006562Y019901D02*
X006562Y019579D01*
X006240Y019579D01*
X006240Y019901D01*
X006562Y019901D01*
X006562Y019686D02*
X006240Y019686D01*
X006240Y019793D02*
X006562Y019793D01*
X006562Y019900D02*
X006240Y019900D01*
X006562Y019301D02*
X006562Y018979D01*
X006240Y018979D01*
X006240Y019301D01*
X006562Y019301D01*
X006562Y019086D02*
X006240Y019086D01*
X006240Y019193D02*
X006562Y019193D01*
X006562Y019300D02*
X006240Y019300D01*
X007962Y019301D02*
X007962Y018979D01*
X007640Y018979D01*
X007640Y019301D01*
X007962Y019301D01*
X007962Y019086D02*
X007640Y019086D01*
X007640Y019193D02*
X007962Y019193D01*
X007962Y019300D02*
X007640Y019300D01*
X007962Y019579D02*
X007962Y019901D01*
X007962Y019579D02*
X007640Y019579D01*
X007640Y019901D01*
X007962Y019901D01*
X007962Y019686D02*
X007640Y019686D01*
X007640Y019793D02*
X007962Y019793D01*
X007962Y019900D02*
X007640Y019900D01*
X007962Y018601D02*
X007962Y018279D01*
X007640Y018279D01*
X007640Y018601D01*
X007962Y018601D01*
X007962Y018386D02*
X007640Y018386D01*
X007640Y018493D02*
X007962Y018493D01*
X007962Y018600D02*
X007640Y018600D01*
X007962Y018001D02*
X007962Y017679D01*
X007640Y017679D01*
X007640Y018001D01*
X007962Y018001D01*
X007962Y017786D02*
X007640Y017786D01*
X007640Y017893D02*
X007962Y017893D01*
X007962Y018000D02*
X007640Y018000D01*
X007962Y017301D02*
X007962Y016979D01*
X007640Y016979D01*
X007640Y017301D01*
X007962Y017301D01*
X007962Y017086D02*
X007640Y017086D01*
X007640Y017193D02*
X007962Y017193D01*
X007962Y017300D02*
X007640Y017300D01*
X007962Y016701D02*
X007962Y016379D01*
X007640Y016379D01*
X007640Y016701D01*
X007962Y016701D01*
X007962Y016486D02*
X007640Y016486D01*
X007640Y016593D02*
X007962Y016593D01*
X007962Y016700D02*
X007640Y016700D01*
X007262Y016701D02*
X007262Y016379D01*
X006940Y016379D01*
X006940Y016701D01*
X007262Y016701D01*
X007262Y016486D02*
X006940Y016486D01*
X006940Y016593D02*
X007262Y016593D01*
X007262Y016700D02*
X006940Y016700D01*
X019862Y017779D02*
X019862Y018101D01*
X019862Y017779D02*
X019540Y017779D01*
X019540Y018101D01*
X019862Y018101D01*
X019862Y017886D02*
X019540Y017886D01*
X019540Y017993D02*
X019862Y017993D01*
X019862Y018100D02*
X019540Y018100D01*
X019862Y018379D02*
X019862Y018701D01*
X019862Y018379D02*
X019540Y018379D01*
X019540Y018701D01*
X019862Y018701D01*
X019862Y018486D02*
X019540Y018486D01*
X019540Y018593D02*
X019862Y018593D01*
X019862Y018700D02*
X019540Y018700D01*
X020562Y018701D02*
X020562Y018379D01*
X020240Y018379D01*
X020240Y018701D01*
X020562Y018701D01*
X020562Y018486D02*
X020240Y018486D01*
X020240Y018593D02*
X020562Y018593D01*
X020562Y018700D02*
X020240Y018700D01*
X020940Y018701D02*
X020940Y018379D01*
X020940Y018701D02*
X021262Y018701D01*
X021262Y018379D01*
X020940Y018379D01*
X020940Y018486D02*
X021262Y018486D01*
X021262Y018593D02*
X020940Y018593D01*
X020940Y018700D02*
X021262Y018700D01*
X021640Y018701D02*
X021640Y018379D01*
X021640Y018701D02*
X021962Y018701D01*
X021962Y018379D01*
X021640Y018379D01*
X021640Y018486D02*
X021962Y018486D01*
X021962Y018593D02*
X021640Y018593D01*
X021640Y018700D02*
X021962Y018700D01*
X021640Y018101D02*
X021640Y017779D01*
X021640Y018101D02*
X021962Y018101D01*
X021962Y017779D01*
X021640Y017779D01*
X021640Y017886D02*
X021962Y017886D01*
X021962Y017993D02*
X021640Y017993D01*
X021640Y018100D02*
X021962Y018100D01*
X020940Y018101D02*
X020940Y017779D01*
X020940Y018101D02*
X021262Y018101D01*
X021262Y017779D01*
X020940Y017779D01*
X020940Y017886D02*
X021262Y017886D01*
X021262Y017993D02*
X020940Y017993D01*
X020940Y018100D02*
X021262Y018100D01*
X020562Y018101D02*
X020562Y017779D01*
X020240Y017779D01*
X020240Y018101D01*
X020562Y018101D01*
X020562Y017886D02*
X020240Y017886D01*
X020240Y017993D02*
X020562Y017993D01*
X020562Y018100D02*
X020240Y018100D01*
X021440Y013301D02*
X021440Y012979D01*
X021440Y013301D02*
X021762Y013301D01*
X021762Y012979D01*
X021440Y012979D01*
X021440Y013086D02*
X021762Y013086D01*
X021762Y013193D02*
X021440Y013193D01*
X021440Y013300D02*
X021762Y013300D01*
X022462Y013301D02*
X022462Y012979D01*
X022140Y012979D01*
X022140Y013301D01*
X022462Y013301D01*
X022462Y013086D02*
X022140Y013086D01*
X022140Y013193D02*
X022462Y013193D01*
X022462Y013300D02*
X022140Y013300D01*
X022462Y012701D02*
X022462Y012379D01*
X022140Y012379D01*
X022140Y012701D01*
X022462Y012701D01*
X022462Y012486D02*
X022140Y012486D01*
X022140Y012593D02*
X022462Y012593D01*
X022462Y012700D02*
X022140Y012700D01*
X021440Y012701D02*
X021440Y012379D01*
X021440Y012701D02*
X021762Y012701D01*
X021762Y012379D01*
X021440Y012379D01*
X021440Y012486D02*
X021762Y012486D01*
X021762Y012593D02*
X021440Y012593D01*
X021440Y012700D02*
X021762Y012700D01*
X021162Y010001D02*
X020840Y010001D01*
X021162Y010001D02*
X021162Y009679D01*
X020840Y009679D01*
X020840Y010001D01*
X020840Y009786D02*
X021162Y009786D01*
X021162Y009893D02*
X020840Y009893D01*
X020840Y010000D02*
X021162Y010000D01*
X020562Y010001D02*
X020240Y010001D01*
X020562Y010001D02*
X020562Y009679D01*
X020240Y009679D01*
X020240Y010001D01*
X020240Y009786D02*
X020562Y009786D01*
X020562Y009893D02*
X020240Y009893D01*
X020240Y010000D02*
X020562Y010000D01*
X019540Y009101D02*
X019540Y008779D01*
X019540Y009101D02*
X019862Y009101D01*
X019862Y008779D01*
X019540Y008779D01*
X019540Y008886D02*
X019862Y008886D01*
X019862Y008993D02*
X019540Y008993D01*
X019540Y009100D02*
X019862Y009100D01*
X019540Y008501D02*
X019540Y008179D01*
X019540Y008501D02*
X019862Y008501D01*
X019862Y008179D01*
X019540Y008179D01*
X019540Y008286D02*
X019862Y008286D01*
X019862Y008393D02*
X019540Y008393D01*
X019540Y008500D02*
X019862Y008500D01*
X019540Y007501D02*
X019540Y007179D01*
X019540Y007501D02*
X019862Y007501D01*
X019862Y007179D01*
X019540Y007179D01*
X019540Y007286D02*
X019862Y007286D01*
X019862Y007393D02*
X019540Y007393D01*
X019540Y007500D02*
X019862Y007500D01*
X019540Y006901D02*
X019540Y006579D01*
X019540Y006901D02*
X019862Y006901D01*
X019862Y006579D01*
X019540Y006579D01*
X019540Y006686D02*
X019862Y006686D01*
X019862Y006793D02*
X019540Y006793D01*
X019540Y006900D02*
X019862Y006900D01*
X020340Y006479D02*
X020662Y006479D01*
X020340Y006479D02*
X020340Y006801D01*
X020662Y006801D01*
X020662Y006479D01*
X020662Y006586D02*
X020340Y006586D01*
X020340Y006693D02*
X020662Y006693D01*
X020662Y006800D02*
X020340Y006800D01*
X020940Y006479D02*
X021262Y006479D01*
X020940Y006479D02*
X020940Y006801D01*
X021262Y006801D01*
X021262Y006479D01*
X021262Y006586D02*
X020940Y006586D01*
X020940Y006693D02*
X021262Y006693D01*
X021262Y006800D02*
X020940Y006800D01*
X022040Y006801D02*
X022362Y006801D01*
X022362Y006479D01*
X022040Y006479D01*
X022040Y006801D01*
X022040Y006586D02*
X022362Y006586D01*
X022362Y006693D02*
X022040Y006693D01*
X022040Y006800D02*
X022362Y006800D01*
X022640Y006801D02*
X022962Y006801D01*
X022962Y006479D01*
X022640Y006479D01*
X022640Y006801D01*
X022640Y006586D02*
X022962Y006586D01*
X022962Y006693D02*
X022640Y006693D01*
X022640Y006800D02*
X022962Y006800D01*
D14*
X002701Y006940D03*
X002701Y009140D03*
D15*
X010456Y009270D02*
X010456Y008910D01*
X009946Y008910D01*
X009946Y009270D01*
X010456Y009270D01*
X010456Y009029D02*
X009946Y009029D01*
X009946Y009148D02*
X010456Y009148D01*
X010456Y009267D02*
X009946Y009267D01*
X010456Y008570D02*
X010456Y008210D01*
X009946Y008210D01*
X009946Y008570D01*
X010456Y008570D01*
X010456Y008329D02*
X009946Y008329D01*
X009946Y008448D02*
X010456Y008448D01*
X010456Y008567D02*
X009946Y008567D01*
X020271Y007185D02*
X020631Y007185D01*
X020271Y007185D02*
X020271Y007695D01*
X020631Y007695D01*
X020631Y007185D01*
X020631Y007304D02*
X020271Y007304D01*
X020271Y007423D02*
X020631Y007423D01*
X020631Y007542D02*
X020271Y007542D01*
X020271Y007661D02*
X020631Y007661D01*
X020971Y007185D02*
X021331Y007185D01*
X020971Y007185D02*
X020971Y007695D01*
X021331Y007695D01*
X021331Y007185D01*
X021331Y007304D02*
X020971Y007304D01*
X020971Y007423D02*
X021331Y007423D01*
X021331Y007542D02*
X020971Y007542D01*
X020971Y007661D02*
X021331Y007661D01*
X022471Y018295D02*
X022831Y018295D01*
X022831Y017785D01*
X022471Y017785D01*
X022471Y018295D01*
X022471Y017904D02*
X022831Y017904D01*
X022831Y018023D02*
X022471Y018023D01*
X022471Y018142D02*
X022831Y018142D01*
X022831Y018261D02*
X022471Y018261D01*
X022471Y019195D02*
X022831Y019195D01*
X022831Y018685D01*
X022471Y018685D01*
X022471Y019195D01*
X022471Y018804D02*
X022831Y018804D01*
X022831Y018923D02*
X022471Y018923D01*
X022471Y019042D02*
X022831Y019042D01*
X022831Y019161D02*
X022471Y019161D01*
X023171Y019195D02*
X023531Y019195D01*
X023531Y018685D01*
X023171Y018685D01*
X023171Y019195D01*
X023171Y018804D02*
X023531Y018804D01*
X023531Y018923D02*
X023171Y018923D01*
X023171Y019042D02*
X023531Y019042D01*
X023531Y019161D02*
X023171Y019161D01*
X023171Y018295D02*
X023531Y018295D01*
X023531Y017785D01*
X023171Y017785D01*
X023171Y018295D01*
X023171Y017904D02*
X023531Y017904D01*
X023531Y018023D02*
X023171Y018023D01*
X023171Y018142D02*
X023531Y018142D01*
X023531Y018261D02*
X023171Y018261D01*
X014831Y021595D02*
X014471Y021595D01*
X014831Y021595D02*
X014831Y021085D01*
X014471Y021085D01*
X014471Y021595D01*
X014471Y021204D02*
X014831Y021204D01*
X014831Y021323D02*
X014471Y021323D01*
X014471Y021442D02*
X014831Y021442D01*
X014831Y021561D02*
X014471Y021561D01*
X014131Y021595D02*
X013771Y021595D01*
X014131Y021595D02*
X014131Y021085D01*
X013771Y021085D01*
X013771Y021595D01*
X013771Y021204D02*
X014131Y021204D01*
X014131Y021323D02*
X013771Y021323D01*
X013771Y021442D02*
X014131Y021442D01*
X014131Y021561D02*
X013771Y021561D01*
D16*
X008701Y009090D03*
D17*
X008701Y006590D03*
D18*
X006671Y007040D03*
X004931Y007040D03*
X022231Y007840D03*
X022231Y009440D03*
X023971Y009440D03*
X023971Y007840D03*
D19*
X007733Y005583D02*
X007733Y005297D01*
X007733Y005583D02*
X008069Y005583D01*
X008069Y005297D01*
X007733Y005297D01*
X007733Y005391D02*
X008069Y005391D01*
X008069Y005485D02*
X007733Y005485D01*
X007733Y005579D02*
X008069Y005579D01*
X007733Y004983D02*
X007733Y004697D01*
X007733Y004983D02*
X008069Y004983D01*
X008069Y004697D01*
X007733Y004697D01*
X007733Y004791D02*
X008069Y004791D01*
X008069Y004885D02*
X007733Y004885D01*
X007733Y004979D02*
X008069Y004979D01*
X002733Y004183D02*
X002733Y003897D01*
X002733Y004183D02*
X003069Y004183D01*
X003069Y003897D01*
X002733Y003897D01*
X002733Y003991D02*
X003069Y003991D01*
X003069Y004085D02*
X002733Y004085D01*
X002733Y004179D02*
X003069Y004179D01*
X002133Y004183D02*
X002133Y003897D01*
X002133Y004183D02*
X002469Y004183D01*
X002469Y003897D01*
X002133Y003897D01*
X002133Y003991D02*
X002469Y003991D01*
X002469Y004085D02*
X002133Y004085D01*
X002133Y004179D02*
X002469Y004179D01*
X002133Y003583D02*
X002133Y003297D01*
X002133Y003583D02*
X002469Y003583D01*
X002469Y003297D01*
X002133Y003297D01*
X002133Y003391D02*
X002469Y003391D01*
X002469Y003485D02*
X002133Y003485D01*
X002133Y003579D02*
X002469Y003579D01*
X002733Y003583D02*
X002733Y003297D01*
X002733Y003583D02*
X003069Y003583D01*
X003069Y003297D01*
X002733Y003297D01*
X002733Y003391D02*
X003069Y003391D01*
X003069Y003485D02*
X002733Y003485D01*
X002733Y003579D02*
X003069Y003579D01*
D20*
X018901Y006396D03*
X018901Y007684D03*
D21*
X004645Y015440D03*
X003357Y015440D03*
X002545Y015440D03*
X001257Y015440D03*
X003257Y020540D03*
X004545Y020540D03*
D22*
X010301Y018797D03*
X010301Y015883D03*
D23*
X025501Y016540D03*
D24*
X025501Y017540D03*
X025501Y018540D03*
X025501Y019540D03*
X025501Y020540D03*
X025501Y021540D03*
X022901Y020540D03*
X021901Y020540D03*
X021901Y021540D03*
X020901Y021540D03*
X020901Y020540D03*
D25*
X004853Y016682D03*
X003987Y016682D03*
X002845Y016682D03*
X001703Y016682D03*
X001349Y019398D03*
X002097Y019398D03*
X003239Y019398D03*
X004105Y019398D03*
D26*
X004262Y018040D03*
X001506Y018040D03*
D27*
X017001Y022840D03*
X024401Y021540D03*
X025601Y022840D03*
X025601Y014840D03*
X026601Y008340D03*
X020601Y003840D03*
X018601Y003840D03*
D28*
X017601Y003840D03*
X016601Y003840D03*
X015601Y003840D03*
X014601Y003840D03*
X013601Y003840D03*
X021601Y003840D03*
X022601Y003840D03*
X023601Y003840D03*
X024601Y003840D03*
X025601Y003840D03*
X025601Y008340D03*
X025601Y009340D03*
X026601Y009340D03*
X026601Y010340D03*
X026601Y011340D03*
X025601Y011340D03*
X025601Y010340D03*
X025601Y012840D03*
X026601Y012840D03*
X026601Y013840D03*
X026601Y014840D03*
X025601Y013840D03*
X024401Y016540D03*
X024401Y017540D03*
X024401Y018540D03*
X024401Y019540D03*
X024401Y020540D03*
X024601Y022840D03*
X023601Y022840D03*
X022601Y022840D03*
X021601Y022840D03*
X020601Y022840D03*
X019601Y022840D03*
X018601Y022840D03*
X016001Y022840D03*
X015001Y022840D03*
X014001Y022840D03*
X013001Y022840D03*
X012001Y022840D03*
X011001Y022840D03*
X010001Y022840D03*
D29*
X022901Y021540D03*
D30*
X023201Y013140D03*
X023201Y012540D03*
D31*
X007023Y009140D03*
X004779Y009140D03*
D32*
X015901Y006990D03*
X015901Y006490D03*
D33*
X026201Y004540D03*
X001301Y023040D03*
D34*
X005051Y003940D03*
X006751Y003940D03*
D35*
X007301Y003140D03*
X004501Y003140D03*
D36*
X005448Y003340D03*
X006354Y003340D03*
D37*
X020127Y013140D03*
X020875Y013140D03*
X020501Y012340D03*
X020801Y009040D03*
X021175Y008240D03*
X020427Y008240D03*
X020475Y015940D03*
X021027Y015940D03*
X021775Y015940D03*
X021401Y016740D03*
X020101Y016740D03*
X019727Y015940D03*
D38*
X005601Y005514D03*
X005601Y004766D03*
X004801Y005140D03*
X002501Y005514D03*
X001701Y005140D03*
X002501Y004766D03*
D39*
X022401Y015965D03*
X022401Y016290D03*
X022401Y016590D03*
X022401Y016915D03*
X023001Y016915D03*
X023001Y016590D03*
X023001Y016290D03*
X023001Y015965D03*
D40*
X018801Y009640D03*
D41*
X005251Y011290D03*
X004751Y011290D03*
X004251Y011290D03*
X003751Y011290D03*
X003751Y013390D03*
X004251Y013390D03*
X004751Y013390D03*
X005251Y013390D03*
D42*
X009177Y013371D03*
X009177Y013765D03*
X009177Y014159D03*
X009177Y014553D03*
X009177Y014946D03*
X009177Y015340D03*
X009177Y015734D03*
X009177Y016127D03*
X009177Y016521D03*
X009177Y016915D03*
X009177Y017308D03*
X009177Y017702D03*
X009177Y018096D03*
X009177Y018490D03*
X009177Y012978D03*
X009177Y012584D03*
X009177Y012190D03*
X018625Y012190D03*
X018625Y012584D03*
X018625Y012978D03*
X018625Y013371D03*
X018625Y013765D03*
X018625Y014159D03*
X018625Y014553D03*
X018625Y014946D03*
X018625Y015340D03*
X018625Y015734D03*
X018625Y016127D03*
X018625Y016521D03*
X018625Y016915D03*
X018625Y017308D03*
X018625Y017702D03*
X018625Y018096D03*
X018625Y018490D03*
D43*
X017051Y020064D03*
X016657Y020064D03*
X016263Y020064D03*
X015869Y020064D03*
X015476Y020064D03*
X015082Y020064D03*
X014688Y020064D03*
X014295Y020064D03*
X013901Y020064D03*
X013507Y020064D03*
X013114Y020064D03*
X012720Y020064D03*
X012326Y020064D03*
X011932Y020064D03*
X011539Y020064D03*
X011145Y020064D03*
X010751Y020064D03*
X010751Y010616D03*
X011145Y010616D03*
X011539Y010616D03*
X011932Y010616D03*
X012326Y010616D03*
X012720Y010616D03*
X013114Y010616D03*
X013507Y010616D03*
X013901Y010616D03*
X014295Y010616D03*
X014688Y010616D03*
X015082Y010616D03*
X015476Y010616D03*
X015869Y010616D03*
X016263Y010616D03*
X016657Y010616D03*
X017051Y010616D03*
D44*
X026601Y005840D03*
X026601Y016840D03*
X006601Y022840D03*
D45*
X010397Y006444D03*
X011401Y005440D03*
X012405Y006444D03*
X012405Y004436D03*
X010397Y004436D03*
D46*
X010501Y003740D03*
X011001Y003740D03*
X011501Y003740D03*
X012001Y003740D03*
X012501Y003740D03*
X012501Y003240D03*
X012001Y003240D03*
X011501Y003240D03*
X011001Y003240D03*
X010501Y003240D03*
X010001Y003240D03*
X009501Y003240D03*
X009501Y003740D03*
X010001Y003740D03*
X009501Y004240D03*
X009501Y004740D03*
X009501Y005240D03*
X010001Y005240D03*
X010001Y005740D03*
X009501Y005740D03*
X011001Y006740D03*
X011011Y007220D03*
X011501Y007240D03*
X012001Y007240D03*
X012501Y007240D03*
X013001Y007240D03*
X013001Y007740D03*
X013001Y008240D03*
X012501Y008240D03*
X012501Y007740D03*
X012001Y007740D03*
X011501Y007740D03*
X013301Y008740D03*
X013301Y009240D03*
X013301Y009740D03*
X011201Y011340D03*
X011501Y011640D03*
X010801Y011540D03*
X009801Y011540D03*
X008701Y011540D03*
X008701Y010440D03*
X009601Y010440D03*
X010301Y010540D03*
X007301Y010440D03*
X007401Y011740D03*
X005001Y014340D03*
X004001Y014340D03*
X003001Y014340D03*
X002101Y014340D03*
X001101Y014340D03*
X001101Y013440D03*
X001101Y012640D03*
X001101Y011840D03*
X001101Y011140D03*
X001101Y010440D03*
X001101Y009640D03*
X001101Y008840D03*
X001101Y008140D03*
X001101Y007440D03*
X001101Y006740D03*
X001601Y006740D03*
X001601Y006140D03*
X001101Y006140D03*
X001101Y005440D03*
X001101Y004640D03*
X001101Y003840D03*
X003901Y005640D03*
X003601Y006140D03*
X004101Y006440D03*
X003601Y006740D03*
X004701Y006040D03*
X006201Y006140D03*
X006501Y004140D03*
X004901Y004340D03*
X007001Y008240D03*
X002701Y008240D03*
X005301Y015840D03*
X007801Y015840D03*
X010101Y017240D03*
X010101Y017740D03*
X011501Y016240D03*
X011801Y015940D03*
X011501Y015640D03*
X011801Y015340D03*
X011501Y015040D03*
X011601Y014540D03*
X012101Y014540D03*
X012601Y014540D03*
X014001Y013640D03*
X017201Y013340D03*
X017801Y013340D03*
X020001Y015440D03*
X021301Y015440D03*
X022201Y015440D03*
X021901Y016740D03*
X022401Y017240D03*
X022801Y017240D03*
X021101Y017440D03*
X020301Y017440D03*
X019801Y017340D03*
X019501Y016640D03*
X017901Y017740D03*
X017501Y017540D03*
X017101Y017640D03*
X016701Y017140D03*
X017201Y016640D03*
X017801Y016040D03*
X018001Y018240D03*
X019301Y018540D03*
X021701Y019140D03*
X016901Y021340D03*
X016401Y021340D03*
X016601Y020740D03*
X015201Y021340D03*
X013201Y021340D03*
X009201Y021440D03*
X007401Y021440D03*
X006601Y021440D03*
X006601Y020940D03*
X005001Y019640D03*
X012401Y017440D03*
X013301Y017440D03*
X014001Y016840D03*
X020501Y011840D03*
X021101Y011840D03*
X021901Y011840D03*
X022301Y011840D03*
X022801Y011840D03*
X023901Y011740D03*
X023701Y013140D03*
X024801Y014640D03*
X018901Y011140D03*
X018001Y009740D03*
X018001Y009240D03*
X018001Y008740D03*
X017501Y008740D03*
X017501Y009240D03*
X017501Y009740D03*
X017001Y009740D03*
X017001Y009240D03*
X017001Y008740D03*
X017001Y008240D03*
X017501Y008240D03*
X018001Y008240D03*
X018001Y007740D03*
X018001Y007240D03*
X018001Y006740D03*
X018001Y006240D03*
X018001Y005740D03*
X018001Y005240D03*
X017501Y005240D03*
X017501Y005740D03*
X017501Y006240D03*
X017501Y006740D03*
X017501Y007240D03*
X017501Y007740D03*
X017001Y007740D03*
X017001Y007240D03*
X017001Y006740D03*
X017001Y006240D03*
X017001Y005740D03*
X016501Y005740D03*
X016501Y005240D03*
X017001Y005240D03*
X016001Y005240D03*
X016001Y005740D03*
X015501Y005740D03*
X015501Y005240D03*
X015001Y005240D03*
X015001Y005740D03*
X014501Y005740D03*
X014001Y005740D03*
X014001Y005240D03*
X014501Y005240D03*
X014501Y004740D03*
X014001Y004740D03*
X013501Y004740D03*
X013501Y005240D03*
X015001Y004740D03*
X021401Y008840D03*
X024101Y006840D03*
X024101Y006240D03*
X024101Y005640D03*
X023501Y005640D03*
X023501Y006240D03*
X024901Y006240D03*
X024901Y005640D03*
X024901Y006840D03*
M02*
